<svg width="20" height="20" viewBox="0 0 20 20" fill="none" xmlns="http://www.w3.org/2000/svg">
<g filter="url(#filter0_d_1515_60142)">
<path fill-rule="evenodd" clip-rule="evenodd" d="M11 12C11 12.5523 10.5523 13 10 13C9.44772 13 9 12.5523 9 12C9 11.4477 9.44772 11 10 11C10.5523 11 11 11.4477 11 12ZM11 9C11 9.55228 10.5523 10 10 10C9.44772 10 9 9.55228 9 9L9 6C9 5.44771 9.44772 5 10 5C10.5523 5 11 5.44771 11 6L11 9ZM10 0.999999C5.58172 0.999999 2 4.58172 2 9C2 11.1217 2.84286 13.1566 4.34315 14.6569C5.84344 16.1571 7.87827 17 10 17C12.1217 17 14.1566 16.1571 15.6569 14.6569C17.1571 13.1566 18 11.1217 18 9C18 6.87827 17.1571 4.84343 15.6569 3.34314C14.1566 1.84285 12.1217 0.999998 10 0.999999Z" fill="#FFD8DB"/>
</g>
<defs>
<filter id="filter0_d_1515_60142" x="0" y="0" width="20" height="20" filterUnits="userSpaceOnUse" color-interpolation-filters="sRGB">
<feFlood flood-opacity="0" result="BackgroundImageFix"/>
<feColorMatrix in="SourceAlpha" type="matrix" values="0 0 0 0 0 0 0 0 0 0 0 0 0 0 0 0 0 0 127 0" result="hardAlpha"/>
<feOffset dy="1"/>
<feGaussianBlur stdDeviation="1"/>
<feComposite in2="hardAlpha" operator="out"/>
<feColorMatrix type="matrix" values="0 0 0 0 0.00392157 0 0 0 0 0.0156863 0 0 0 0 0.0431373 0 0 0 0.2 0"/>
<feBlend mode="normal" in2="BackgroundImageFix" result="effect1_dropShadow_1515_60142"/>
<feBlend mode="normal" in="SourceGraphic" in2="effect1_dropShadow_1515_60142" result="shape"/>
</filter>
</defs>
</svg>
