<svg width="24" height="24" viewBox="0 0 24 24" fill="none" xmlns="http://www.w3.org/2000/svg">
<mask id="path-1-inside-1_1415_16031" fill="white">
<path fill-rule="evenodd" clip-rule="evenodd" d="M12.4408 3.10196C12.1633 2.96604 11.8385 2.96603 11.561 3.10195L4.56104 6.53052C4.21823 6.69843 4.00091 7.047 4.00091 7.42873V12C4.00091 12.0607 4.00069 12.123 4.00047 12.187L4.00047 12.187C3.9959 13.4952 3.98898 15.4756 5.79364 17.2788C6.79805 18.2824 8.22124 19.193 9.36956 19.837C9.9528 20.1641 10.4858 20.4339 10.8906 20.624C11.0921 20.7187 11.2684 20.7968 11.4073 20.8533C11.4755 20.881 11.5448 20.9077 11.6088 20.9292C11.6401 20.9398 11.6815 20.9529 11.7273 20.9645L11.7296 20.9651C11.7569 20.9721 11.8662 21 12.0009 21C12.1395 21 12.2495 20.971 12.2818 20.9626C12.3317 20.9494 12.3757 20.9345 12.4081 20.9229C12.4737 20.8992 12.5416 20.8706 12.6045 20.8424C12.7332 20.7848 12.8918 20.7066 13.0694 20.6134C13.427 20.4258 13.8947 20.1601 14.412 19.8361C15.4373 19.1939 16.7112 18.2892 17.7126 17.2735C19.4248 15.5368 20.0004 13.5281 20.0004 12V7.42859C20.0004 7.04687 19.7831 6.69845 19.4403 6.53054L12.4408 3.10196ZM6.00091 12V8.0523L12.0009 5.11353L18.0004 8.05288V12C18.0004 13.0448 17.603 14.5359 16.2883 15.8694C15.4419 16.728 14.3139 17.5376 13.3503 18.1411C12.8732 18.44 12.4496 18.68 12.1402 18.8424C12.0821 18.8729 12.0291 18.9 11.9815 18.9239C11.9116 18.8929 11.8311 18.8562 11.741 18.8139C11.3797 18.6441 10.8894 18.3963 10.3479 18.0926C9.24676 17.475 8.01515 16.6713 7.20729 15.8641C5.99866 14.6564 5.99972 13.4259 6.00084 12.1198L6.00091 12ZM14.8252 10.4636C15.1236 10.0503 15.0306 9.47332 14.6173 9.17484C14.204 8.87636 13.627 8.96942 13.3286 9.3827L11.0248 12.5725L10.6322 12.1014C10.3058 11.7098 9.72378 11.6569 9.33215 11.9832C8.94051 12.3096 8.8876 12.8916 9.21396 13.2833L10.3678 14.6679C10.5503 14.8869 10.8239 15.0093 11.1089 14.9995C11.3938 14.9896 11.6583 14.8486 11.8252 14.6174L14.8252 10.4636Z"/>
</mask>
<path d="M11.561 3.10194L12.4408 4.89806L12.4408 4.89806L11.561 3.10194ZM12.4408 3.10195L11.561 4.89805L11.561 4.89805L12.4408 3.10195ZM4.56105 6.53051L5.44079 8.32663H5.44079L4.56105 6.53051ZM4.00048 12.187L6.00046 12.1942L6.00046 12.194L4.00048 12.187ZM4.00048 12.187L2.00049 12.1799L2.00049 12.18L4.00048 12.187ZM5.79365 17.2788L4.38 18.6936H4.38L5.79365 17.2788ZM9.36957 19.837L8.39124 21.5814H8.39124L9.36957 19.837ZM10.8906 20.624L10.0401 22.4342L10.0401 22.4342L10.8906 20.624ZM11.4073 20.8532L10.6537 22.7058L10.6537 22.7058L11.4073 20.8532ZM11.6088 20.9292L12.2465 19.0336L12.2464 19.0336L11.6088 20.9292ZM11.7273 20.9645L12.2206 19.0263L12.2197 19.0261L11.7273 20.9645ZM11.7296 20.9651L12.2246 19.0273L12.2228 19.0269L11.7296 20.9651ZM12.2818 20.9625L11.7727 19.0284L11.7727 19.0284L12.2818 20.9625ZM12.4081 20.9228L11.7299 19.0413L11.7299 19.0413L12.4081 20.9228ZM12.6045 20.8424L11.7877 19.0168L11.7877 19.0168L12.6045 20.8424ZM13.0694 20.6134L12.1402 18.8424L12.1402 18.8424L13.0694 20.6134ZM14.412 19.8361L13.3503 18.1411L13.3503 18.1411L14.412 19.8361ZM17.7126 17.2735L19.1368 18.6776H19.1368L17.7126 17.2735ZM19.4403 6.53052L20.3201 4.73442V4.73442L19.4403 6.53052ZM6.00092 8.05228L5.12118 6.25616C4.43555 6.59198 4.00092 7.28883 4.00092 8.05228H6.00092ZM6.00092 12L8.00092 12.0011V12H6.00092ZM12.0009 5.11352L12.8808 3.31748C12.3258 3.04556 11.6762 3.04552 11.1212 3.31739L12.0009 5.11352ZM18.0005 8.05286H20.0005C20.0005 7.28949 19.5659 6.59269 18.8804 6.25683L18.0005 8.05286ZM16.2884 15.8694L17.7126 17.2735L16.2884 15.8694ZM13.3503 18.1411L12.2887 16.4461L12.2887 16.4461L13.3503 18.1411ZM12.1402 18.8424L13.0694 20.6134L13.0694 20.6134L12.1402 18.8424ZM11.9815 18.9239L11.1705 20.7521C11.7171 20.9946 12.3436 20.9797 12.8782 20.7116L11.9815 18.9239ZM11.741 18.8139L10.8906 20.624H10.8906L11.741 18.8139ZM10.3479 18.0926L9.36957 19.837H9.36957L10.3479 18.0926ZM7.2073 15.864L8.62096 14.4493L8.62096 14.4493L7.2073 15.864ZM6.00085 12.1197L8.00085 12.1215V12.1209L6.00085 12.1197ZM14.6173 9.17482L13.4463 10.7962L13.4463 10.7962L14.6173 9.17482ZM14.8252 10.4636L16.4465 11.6346H16.4465L14.8252 10.4636ZM13.3286 9.38269L14.9499 10.5537L14.9499 10.5537L13.3286 9.38269ZM11.0248 12.5725L9.48836 13.8529C9.88388 14.3275 10.4766 14.5927 11.094 14.5713C11.7115 14.5499 12.2844 14.2444 12.6462 13.7435L11.0248 12.5725ZM10.6322 12.1014L9.09576 13.3818L9.09576 13.3818L10.6322 12.1014ZM9.33216 11.9832L8.05178 10.4468L8.05178 10.4468L9.33216 11.9832ZM9.21397 13.2833L10.7504 12.0029L9.21397 13.2833ZM10.3678 14.6679L8.83135 15.9482L10.3678 14.6679ZM11.8252 14.6174L10.2039 13.4464L10.2039 13.4464L11.8252 14.6174ZM12.4408 4.89806C12.1633 5.03398 11.8385 5.03398 11.561 4.89805L13.3206 1.30585C12.4881 0.898063 11.5138 0.898051 10.6813 1.30581L12.4408 4.89806ZM5.44079 8.32663L12.4408 4.89806L10.6813 1.30581L3.68131 4.73438L5.44079 8.32663ZM6.00092 7.42871C6.00092 7.81012 5.78389 8.15858 5.44079 8.32663L3.68131 4.73438C2.65258 5.23825 2.00092 6.28386 2.00092 7.42871H6.00092ZM6.00092 12V7.42871H2.00092V12H6.00092ZM6.00046 12.194C6.00069 12.1307 6.00092 12.0648 6.00092 12H2.00092C2.00092 12.0566 2.00071 12.1154 2.00049 12.18L6.00046 12.194ZM6.00046 12.1942L6.00046 12.1942L2.00049 12.1798L2.00049 12.1799L6.00046 12.1942ZM7.2073 15.864C6.0219 14.6796 5.99606 13.4544 6.00046 12.194L2.00049 12.18C1.99575 13.5359 1.95608 16.2716 4.38 18.6936L7.2073 15.864ZM10.3479 18.0926C9.24707 17.4752 8.01529 16.6714 7.2073 15.864L4.38 18.6936C5.58083 19.8935 7.19542 20.9107 8.39124 21.5814L10.3479 18.0926ZM11.741 18.8139C11.3797 18.6441 10.8894 18.3963 10.3479 18.0926L8.39124 21.5814C9.01626 21.9319 9.59192 22.2236 10.0401 22.4342L11.741 18.8139ZM12.1609 19.0007C12.0649 18.9616 11.9226 18.8991 11.741 18.8138L10.0401 22.4342C10.2616 22.5382 10.4719 22.6319 10.6537 22.7058L12.1609 19.0007ZM12.2464 19.0336C12.2372 19.0305 12.21 19.0206 12.1609 19.0006L10.6537 22.7058C10.7409 22.7413 10.8525 22.7849 10.9712 22.8249L12.2464 19.0336ZM12.2197 19.0261C12.2313 19.029 12.2391 19.0313 12.2428 19.0325C12.2466 19.0336 12.2482 19.0342 12.2465 19.0336L10.9711 22.8248C11.0289 22.8443 11.1223 22.8744 11.2349 22.903L12.2197 19.0261ZM12.2228 19.0269L12.2206 19.0263L11.2341 22.9028L11.2364 22.9033L12.2228 19.0269ZM12.0009 19C12.0677 19 12.1185 19.0066 12.1506 19.0119C12.1682 19.0148 12.1842 19.018 12.1984 19.0211C12.2135 19.0245 12.2258 19.0277 12.2246 19.0273L11.2346 22.9029C11.3082 22.9217 11.6117 23 12.0009 23V19ZM11.7727 19.0284C11.7691 19.0294 11.7811 19.0262 11.796 19.0227C11.8105 19.0194 11.8273 19.0159 11.8462 19.0127C11.8814 19.0067 11.9338 19 12.0009 19V23C12.4015 23 12.7112 22.9176 12.7908 22.8967L11.7727 19.0284ZM11.7299 19.0413C11.7304 19.0412 11.7345 19.0397 11.7411 19.0376C11.7476 19.0355 11.7582 19.0322 11.7727 19.0284L12.7908 22.8967C12.9178 22.8633 13.0217 22.8276 13.0863 22.8044L11.7299 19.0413ZM11.7877 19.0168C11.7695 19.0249 11.7551 19.0311 11.7439 19.0357C11.7325 19.0404 11.7281 19.042 11.7299 19.0413L13.0862 22.8044C13.2173 22.7571 13.3354 22.7064 13.4214 22.668L11.7877 19.0168ZM12.1402 18.8424C11.9844 18.9241 11.8655 18.982 11.7877 19.0168L13.4213 22.668C13.6009 22.5876 13.7992 22.489 13.9987 22.3844L12.1402 18.8424ZM13.3503 18.1411C12.8732 18.44 12.4496 18.68 12.1402 18.8424L13.9987 22.3844C14.4045 22.1715 14.9163 21.8801 15.4736 21.5311L13.3503 18.1411ZM16.2884 15.8694C15.4418 16.728 14.3138 17.5377 13.3503 18.1411L15.4736 21.5311C16.5609 20.85 17.9806 19.8504 19.1368 18.6776L16.2884 15.8694ZM18.0005 12C18.0005 13.0451 17.6028 14.5361 16.2884 15.8694L19.1368 18.6776C21.2468 16.5374 22.0005 14.0111 22.0005 12H18.0005ZM18.0005 7.42857V12H22.0005V7.42857H18.0005ZM18.5606 8.32662C18.2178 8.15871 18.0005 7.8103 18.0005 7.42857H22.0005C22.0005 6.28341 21.3485 5.23816 20.3201 4.73442L18.5606 8.32662ZM11.561 4.89805L18.5606 8.32662L20.3201 4.73442L13.3206 1.30585L11.561 4.89805ZM4.00092 8.05228V12H8.00092V8.05228H4.00092ZM11.1212 3.31739L5.12118 6.25616L6.88065 9.84841L12.8806 6.90964L11.1212 3.31739ZM18.8804 6.25683L12.8808 3.31748L11.121 6.90955L17.1205 9.8489L18.8804 6.25683ZM20.0005 12V8.05286H16.0005V12H20.0005ZM17.7126 17.2735C19.4245 15.5371 20.0005 13.5286 20.0005 12H16.0005C16.0005 12.561 15.7816 13.5346 14.8641 14.4653L17.7126 17.2735ZM14.412 19.8361C15.4372 19.1939 16.7112 18.2893 17.7126 17.2735L14.8641 14.4653C14.1726 15.1667 13.1905 15.8813 12.2887 16.4461L14.412 19.8361ZM13.0694 20.6134C13.4271 20.4257 13.8947 20.16 14.412 19.8361L12.2887 16.4461C11.8516 16.7199 11.4722 16.9343 11.211 17.0713L13.0694 20.6134ZM12.8782 20.7116C12.9375 20.6818 13.0014 20.6491 13.0694 20.6134L11.211 17.0713C11.1628 17.0966 11.1207 17.1182 11.0848 17.1362L12.8782 20.7116ZM10.8906 20.624C10.9923 20.6718 11.086 20.7146 11.1705 20.7521L12.7925 17.0957C12.7372 17.0712 12.6699 17.0405 12.5915 17.0037L10.8906 20.624ZM9.36957 19.837C9.95281 20.1641 10.4858 20.4339 10.8906 20.624L12.5915 17.0037C12.2736 16.8543 11.8259 16.6284 11.3262 16.3482L9.36957 19.837ZM5.79365 17.2788C6.79821 18.2826 8.22159 19.1931 9.36957 19.837L11.3262 16.3482C10.2719 15.7569 9.2321 15.0599 8.62096 14.4493L5.79365 17.2788ZM4.00085 12.118C3.99973 13.4273 3.95321 15.4398 5.79365 17.2788L8.62096 14.4493C8.28544 14.114 8.16121 13.8345 8.09417 13.5578C8.0094 13.208 8.00025 12.8163 8.00085 12.1215L4.00085 12.118ZM4.00092 11.9989L4.00085 12.1186L8.00085 12.1209L8.00092 12.0011L4.00092 11.9989ZM13.4463 10.7962C12.9642 10.4479 12.8556 9.77477 13.2038 9.2926L16.4465 11.6346C17.3917 10.3258 17.097 8.49866 15.7883 7.55347L13.4463 10.7962ZM14.9499 10.5537C14.6017 11.0358 13.9285 11.1444 13.4463 10.7962L15.7883 7.55347C14.4796 6.60827 12.6524 6.90297 11.7072 8.21171L14.9499 10.5537ZM12.6462 13.7435L14.9499 10.5537L11.7072 8.21171L9.40344 11.4015L12.6462 13.7435ZM9.09576 13.3818L9.48836 13.8529L12.5612 11.2922L12.1686 10.821L9.09576 13.3818ZM10.6125 13.5197C10.1556 13.9004 9.47652 13.8387 9.09576 13.3818L12.1686 10.821C11.1352 9.58084 9.29197 9.41328 8.05178 10.4468L10.6125 13.5197ZM10.7504 12.0029C11.1312 12.4598 11.0694 13.1389 10.6125 13.5197L8.05178 10.4468C6.8116 11.4803 6.64404 13.3234 7.67752 14.5636L10.7504 12.0029ZM11.9042 13.3875L10.7504 12.0029L7.67752 14.5636L8.83135 15.9482L11.9042 13.3875ZM11.0396 13.0006C11.3721 12.9891 11.6913 13.1319 11.9042 13.3875L8.83135 15.9482C9.40943 16.6419 10.2757 17.0295 11.1781 16.9982L11.0396 13.0006ZM10.2039 13.4464C10.3986 13.1767 10.7071 13.0122 11.0396 13.0006L11.1781 16.9982C12.0806 16.967 12.9179 16.5204 13.4466 15.7884L10.2039 13.4464ZM13.2038 9.2926L10.2039 13.4464L13.4466 15.7884L16.4465 11.6346L13.2038 9.2926Z" fill="url(#paint0_linear_1415_16031)" mask="url(#path-1-inside-1_1415_16031)"/>
<defs>
<linearGradient id="paint0_linear_1415_16031" x1="4.29558" y1="3.31035" x2="21.5498" y2="18.6084" gradientUnits="userSpaceOnUse">
<stop stop-color="#D1A04A"/>
<stop offset="0.46875" stop-color="#F2D289"/>
<stop offset="0.979167" stop-color="#D1A04A"/>
</linearGradient>
</defs>
</svg>
