<svg width="24" height="24" viewBox="0 0 24 24" fill="none" xmlns="http://www.w3.org/2000/svg">
<rect width="24" height="24" rx="11.5" fill="#979AAE"/>
<rect width="24" height="24" rx="11.5" fill="url(#paint0_linear_1449_21204)" fill-opacity="0.2"/>
<rect x="1" y="1" width="22" height="22" rx="10.5" stroke="white" stroke-opacity="0.08" stroke-width="2"/>
<mask id="path-3-outside-1_1449_21204" maskUnits="userSpaceOnUse" x="5" y="5.98438" width="14" height="14" fill="black">
<rect fill="white" x="5" y="5.98438" width="14" height="14"/>
<path fill-rule="evenodd" clip-rule="evenodd" d="M10.7747 7.75942L11.1726 8.32898C11.2062 8.38001 11.2249 8.4392 11.2268 8.50007V18.9844L10.8406 18.5259L10.8364 18.4674C10.8337 18.4413 10.6626 15.9252 10.5855 14.5094C10.5311 13.5103 10.4943 12.3349 10.4726 11.6452L10.4726 11.645C10.4632 11.3444 10.4567 11.1361 10.4528 11.0749L10.2174 10.4499C10.1858 10.3667 10.187 10.2747 10.2207 10.1923L10.5238 9.4129C10.5288 9.40039 10.5316 9.38713 10.5322 9.37369C10.5446 9.03173 10.5419 8.56557 10.4119 8.38791C10.2253 8.13314 9.81393 7.97957 9.20156 7.90444C9.02945 7.88186 8.85609 7.86979 8.68249 7.86829C8.35574 7.86829 8.09001 7.91495 7.84241 8.04814C7.58641 8.18571 7.46969 8.42449 7.48538 8.77827C7.49887 9.08321 7.57204 9.40326 7.59415 9.45737C7.60741 9.48972 7.61489 9.52412 7.61626 9.55901L7.63173 10.0392L7.32223 9.49526C7.31737 9.48431 6.83897 8.53972 6.62011 8.1454C6.39417 7.73817 6.15099 7.28646 6.15099 7.28646L6 6.98438L6.32763 7.03038C6.34332 7.03388 8.00578 7.28646 9.01829 7.42469C9.82786 7.53554 10.3617 7.60125 10.5536 7.62316C10.5983 7.6286 10.6412 7.6436 10.6793 7.66713C10.7175 7.69067 10.7501 7.72216 10.7747 7.75942ZM11.0106 18.5668L11.0641 18.6264V18.6257L11.0106 18.5665L11.0106 18.5668ZM11.0645 8.51737L11.0645 9.16147V8.51706C11.0645 8.51319 11.0643 8.50933 11.0639 8.50549C11.0643 8.50944 11.0645 8.5134 11.0645 8.51737ZM10.6171 11.0117C10.6227 11.027 10.6263 11.0429 10.6277 11.059C10.6263 11.043 10.6227 11.0272 10.6171 11.0121L10.3819 10.389C10.3761 10.3737 10.3725 10.3578 10.3711 10.3418C10.3725 10.3577 10.3761 10.3735 10.3818 10.3887L10.6171 11.0117ZM10.5541 8.28517C10.6435 8.40632 10.6852 8.60216 10.7034 8.79798C10.6852 8.60205 10.6435 8.40607 10.5541 8.28485C10.3095 7.951 9.80639 7.80292 9.22342 7.73106C8.7039 7.66732 8.23081 7.63774 7.75749 7.89251C7.34784 8.11279 7.28063 8.52032 7.31498 8.87097C7.2807 8.5204 7.34799 8.11303 7.75752 7.89283C8.23084 7.63806 8.70393 7.66763 9.22345 7.73138C9.80641 7.80323 10.3096 7.95132 10.5541 8.28517ZM7.48317 9.53229L7.48266 9.52572L7.48314 9.53197L7.48513 9.57272C7.48513 9.57272 6.99877 8.46733 6.77416 8.06119C6.5531 7.66146 6.30826 7.21737 6.30059 7.20346L6.30044 7.20344C6.30044 7.20344 6.54958 7.65536 6.77419 8.0615C6.9988 8.46764 7.48516 9.57303 7.48516 9.57303L7.48317 9.53229ZM12.7723 18.9844V8.50007C12.7748 8.43949 12.794 8.38073 12.8276 8.33007L13.2255 7.76051C13.2502 7.72325 13.2827 7.69176 13.3209 7.66823C13.3591 7.6447 13.402 7.62969 13.4466 7.62426C13.6385 7.60103 14.1724 7.53532 14.9819 7.42578C15.9944 7.28668 17.656 7.0341 17.6728 7.03147L18 6.98438L17.8499 7.28471C17.8499 7.28471 17.6061 7.73642 17.3808 8.14365C17.1621 8.53884 16.6835 9.48256 16.6787 9.49351L16.3692 10.0374L16.3846 9.55726C16.3865 9.52231 16.3943 9.48794 16.4078 9.45561C16.4308 9.40238 16.5031 9.08321 16.5166 8.77652C16.5323 8.42274 16.4156 8.18396 16.1596 8.04639C15.9113 7.9132 15.6454 7.86654 15.3195 7.86654C15.1451 7.86853 14.971 7.88118 14.7982 7.90444C14.1858 7.97957 13.7744 8.13314 13.5878 8.38791C13.4579 8.56535 13.4545 9.03151 13.4678 9.37369C13.4682 9.38714 13.4711 9.40042 13.4762 9.4129L13.7791 10.1923C13.8128 10.2747 13.8141 10.3667 13.7826 10.4499L13.5463 11.0749C13.5425 11.1361 13.5359 11.3444 13.5265 11.645L13.5265 11.6452C13.5049 12.3349 13.468 13.5103 13.4136 14.5094C13.3367 15.9252 13.1647 18.4411 13.1627 18.4674L13.1587 18.5259L12.7723 18.9844ZM12.9571 8.43632C12.943 8.46042 12.9354 8.48774 12.935 8.51562V18.6249L12.9357 18.6241V8.51706C12.9361 8.48918 12.9437 8.46186 12.9578 8.43776L13.3721 7.85527C13.3828 7.83916 13.3969 7.82554 13.4134 7.81537C13.4299 7.80519 13.4485 7.7987 13.4678 7.79635C13.6429 7.77553 14.1839 7.7096 15.0063 7.59744C16.0133 7.45933 17.6397 7.21222 17.698 7.20337C17.6986 7.20225 17.6989 7.20168 17.6989 7.20168C17.6989 7.20168 16.0311 7.45602 15.0056 7.596C14.1832 7.70728 13.6422 7.77409 13.4671 7.7949C13.4478 7.79726 13.4293 7.80375 13.4127 7.81393C13.3962 7.8241 13.3821 7.83772 13.3714 7.85383L12.9571 8.43632ZM16.5152 9.56957L16.5173 9.53197C16.5179 9.51691 16.5212 9.50208 16.527 9.48816C16.5824 9.35682 16.8727 8.61003 16.5244 8.13328C16.8711 8.61008 16.5818 9.35572 16.5263 9.48694C16.5205 9.50086 16.5172 9.51569 16.5166 9.53075L16.5144 9.5715C16.5144 9.5715 16.5147 9.57085 16.5152 9.56957ZM13.2854 9.20972C13.2813 9.03253 13.2842 8.77959 13.3317 8.5668C13.2848 8.77972 13.2817 9.0327 13.2854 9.20972Z"/>
</mask>
<path fill-rule="evenodd" clip-rule="evenodd" d="M10.7747 7.75942L11.1726 8.32898C11.2062 8.38001 11.2249 8.4392 11.2268 8.50007V18.9844L10.8406 18.5259L10.8364 18.4674C10.8337 18.4413 10.6626 15.9252 10.5855 14.5094C10.5311 13.5103 10.4943 12.3349 10.4726 11.6452L10.4726 11.645C10.4632 11.3444 10.4567 11.1361 10.4528 11.0749L10.2174 10.4499C10.1858 10.3667 10.187 10.2747 10.2207 10.1923L10.5238 9.4129C10.5288 9.40039 10.5316 9.38713 10.5322 9.37369C10.5446 9.03173 10.5419 8.56557 10.4119 8.38791C10.2253 8.13314 9.81393 7.97957 9.20156 7.90444C9.02945 7.88186 8.85609 7.86979 8.68249 7.86829C8.35574 7.86829 8.09001 7.91495 7.84241 8.04814C7.58641 8.18571 7.46969 8.42449 7.48538 8.77827C7.49887 9.08321 7.57204 9.40326 7.59415 9.45737C7.60741 9.48972 7.61489 9.52412 7.61626 9.55901L7.63173 10.0392L7.32223 9.49526C7.31737 9.48431 6.83897 8.53972 6.62011 8.1454C6.39417 7.73817 6.15099 7.28646 6.15099 7.28646L6 6.98438L6.32763 7.03038C6.34332 7.03388 8.00578 7.28646 9.01829 7.42469C9.82786 7.53554 10.3617 7.60125 10.5536 7.62316C10.5983 7.6286 10.6412 7.6436 10.6793 7.66713C10.7175 7.69067 10.7501 7.72216 10.7747 7.75942ZM11.0106 18.5668L11.0641 18.6264V18.6257L11.0106 18.5665L11.0106 18.5668ZM11.0645 8.51737L11.0645 9.16147V8.51706C11.0645 8.51319 11.0643 8.50933 11.0639 8.50549C11.0643 8.50944 11.0645 8.5134 11.0645 8.51737ZM10.6171 11.0117C10.6227 11.027 10.6263 11.0429 10.6277 11.059C10.6263 11.043 10.6227 11.0272 10.6171 11.0121L10.3819 10.389C10.3761 10.3737 10.3725 10.3578 10.3711 10.3418C10.3725 10.3577 10.3761 10.3735 10.3818 10.3887L10.6171 11.0117ZM10.5541 8.28517C10.6435 8.40632 10.6852 8.60216 10.7034 8.79798C10.6852 8.60205 10.6435 8.40607 10.5541 8.28485C10.3095 7.951 9.80639 7.80292 9.22342 7.73106C8.7039 7.66732 8.23081 7.63774 7.75749 7.89251C7.34784 8.11279 7.28063 8.52032 7.31498 8.87097C7.2807 8.5204 7.34799 8.11303 7.75752 7.89283C8.23084 7.63806 8.70393 7.66763 9.22345 7.73138C9.80641 7.80323 10.3096 7.95132 10.5541 8.28517ZM7.48317 9.53229L7.48266 9.52572L7.48314 9.53197L7.48513 9.57272C7.48513 9.57272 6.99877 8.46733 6.77416 8.06119C6.5531 7.66146 6.30826 7.21737 6.30059 7.20346L6.30044 7.20344C6.30044 7.20344 6.54958 7.65536 6.77419 8.0615C6.9988 8.46764 7.48516 9.57303 7.48516 9.57303L7.48317 9.53229ZM12.7723 18.9844V8.50007C12.7748 8.43949 12.794 8.38073 12.8276 8.33007L13.2255 7.76051C13.2502 7.72325 13.2827 7.69176 13.3209 7.66823C13.3591 7.6447 13.402 7.62969 13.4466 7.62426C13.6385 7.60103 14.1724 7.53532 14.9819 7.42578C15.9944 7.28668 17.656 7.0341 17.6728 7.03147L18 6.98438L17.8499 7.28471C17.8499 7.28471 17.6061 7.73642 17.3808 8.14365C17.1621 8.53884 16.6835 9.48256 16.6787 9.49351L16.3692 10.0374L16.3846 9.55726C16.3865 9.52231 16.3943 9.48794 16.4078 9.45561C16.4308 9.40238 16.5031 9.08321 16.5166 8.77652C16.5323 8.42274 16.4156 8.18396 16.1596 8.04639C15.9113 7.9132 15.6454 7.86654 15.3195 7.86654C15.1451 7.86853 14.971 7.88118 14.7982 7.90444C14.1858 7.97957 13.7744 8.13314 13.5878 8.38791C13.4579 8.56535 13.4545 9.03151 13.4678 9.37369C13.4682 9.38714 13.4711 9.40042 13.4762 9.4129L13.7791 10.1923C13.8128 10.2747 13.8141 10.3667 13.7826 10.4499L13.5463 11.0749C13.5425 11.1361 13.5359 11.3444 13.5265 11.645L13.5265 11.6452C13.5049 12.3349 13.468 13.5103 13.4136 14.5094C13.3367 15.9252 13.1647 18.4411 13.1627 18.4674L13.1587 18.5259L12.7723 18.9844ZM12.9571 8.43632C12.943 8.46042 12.9354 8.48774 12.935 8.51562V18.6249L12.9357 18.6241V8.51706C12.9361 8.48918 12.9437 8.46186 12.9578 8.43776L13.3721 7.85527C13.3828 7.83916 13.3969 7.82554 13.4134 7.81537C13.4299 7.80519 13.4485 7.7987 13.4678 7.79635C13.6429 7.77553 14.1839 7.7096 15.0063 7.59744C16.0133 7.45933 17.6397 7.21222 17.698 7.20337C17.6986 7.20225 17.6989 7.20168 17.6989 7.20168C17.6989 7.20168 16.0311 7.45602 15.0056 7.596C14.1832 7.70728 13.6422 7.77409 13.4671 7.7949C13.4478 7.79726 13.4293 7.80375 13.4127 7.81393C13.3962 7.8241 13.3821 7.83772 13.3714 7.85383L12.9571 8.43632ZM16.5152 9.56957L16.5173 9.53197C16.5179 9.51691 16.5212 9.50208 16.527 9.48816C16.5824 9.35682 16.8727 8.61003 16.5244 8.13328C16.8711 8.61008 16.5818 9.35572 16.5263 9.48694C16.5205 9.50086 16.5172 9.51569 16.5166 9.53075L16.5144 9.5715C16.5144 9.5715 16.5147 9.57085 16.5152 9.56957ZM13.2854 9.20972C13.2813 9.03253 13.2842 8.77959 13.3317 8.5668C13.2848 8.77972 13.2817 9.0327 13.2854 9.20972Z" fill="white"/>
<path d="M11.1726 8.32898L11.3399 8.21911L11.3366 8.21443L11.1726 8.32898ZM10.7747 7.75942L10.6079 7.8698L10.6108 7.87396L10.7747 7.75942ZM11.2268 8.50007H11.4269L11.4267 8.49385L11.2268 8.50007ZM11.2268 18.9844L11.0738 19.1132L11.4268 19.5322V18.9844H11.2268ZM10.8406 18.5259L10.6411 18.5402L10.6458 18.605L10.6876 18.6547L10.8406 18.5259ZM10.8364 18.4674L11.036 18.4531L11.0354 18.4471L10.8364 18.4674ZM10.5855 14.5094L10.3858 14.5202L10.3858 14.5203L10.5855 14.5094ZM10.4726 11.6452L10.6725 11.6389L10.6725 11.6381L10.4726 11.6452ZM10.4726 11.645L10.2727 11.6513L10.2727 11.6521L10.4726 11.645ZM10.4528 11.0749L10.6524 11.0624L10.6506 11.0325L10.64 11.0044L10.4528 11.0749ZM10.2174 10.4499L10.4045 10.3794L10.4044 10.3791L10.2174 10.4499ZM10.2207 10.1923L10.4059 10.268L10.4071 10.2648L10.2207 10.1923ZM10.5238 9.4129L10.3381 9.33858L10.3374 9.34041L10.5238 9.4129ZM10.5322 9.37369L10.732 9.38192L10.7321 9.38092L10.5322 9.37369ZM10.4119 8.38791L10.5733 8.26981L10.5733 8.26973L10.4119 8.38791ZM9.20156 7.90444L9.17555 8.10274L9.1772 8.10295L9.20156 7.90444ZM8.68249 7.86829L8.68421 7.66829H8.68249V7.86829ZM7.84241 8.04814L7.93709 8.22431L7.93716 8.22427L7.84241 8.04814ZM7.48538 8.77827L7.68519 8.76944L7.68518 8.76941L7.48538 8.77827ZM7.59415 9.45737L7.40901 9.53301L7.4091 9.53323L7.59415 9.45737ZM7.61626 9.55901L7.81616 9.55257L7.8161 9.55121L7.61626 9.55901ZM7.63173 10.0392L7.4579 10.1381L7.83163 10.0328L7.63173 10.0392ZM7.32223 9.49526L7.13944 9.57643L7.14348 9.58553L7.1484 9.59417L7.32223 9.49526ZM6.62011 8.1454L6.44522 8.24243L6.44524 8.24246L6.62011 8.1454ZM6.15099 7.28646L5.97201 7.37592L5.97489 7.38127L6.15099 7.28646ZM6 6.98438L6.02781 6.78632L5.65097 6.7334L5.8211 7.07379L6 6.98438ZM6.32763 7.03038L6.37122 6.83519L6.36338 6.83344L6.35544 6.83232L6.32763 7.03038ZM9.01829 7.42469L9.04542 7.22654L9.04535 7.22653L9.01829 7.42469ZM10.5536 7.62316L10.5778 7.42462L10.5763 7.42445L10.5536 7.62316ZM10.6793 7.66713L10.7843 7.49688V7.49688L10.6793 7.66713ZM11.0641 18.6264L10.9153 18.76L11.2641 19.1485V18.6264H11.0641ZM11.0106 18.5668L10.811 18.5798L10.8155 18.6489L10.8618 18.7005L11.0106 18.5668ZM11.0641 18.6257H11.2641V18.5486L11.2124 18.4914L11.0641 18.6257ZM11.0106 18.5665L11.1588 18.4323L10.774 18.0072L10.811 18.5794L11.0106 18.5665ZM11.0645 9.16147H10.8645L11.2645 9.16148L11.0645 9.16147ZM11.0645 8.51737L11.2645 8.51738L11.2645 8.5149L11.0645 8.51737ZM11.0645 8.51706H11.2645L11.2645 8.51459L11.0645 8.51706ZM11.0639 8.50549L11.2632 8.48819L10.8647 8.5224L11.0639 8.50549ZM10.6277 11.059L10.4286 11.0772L10.8269 11.0412L10.6277 11.059ZM10.6171 11.0117L10.8046 10.9422L10.8042 10.9411L10.6171 11.0117ZM10.6171 11.0121L10.8046 10.9425L10.8042 10.9414L10.6171 11.0121ZM10.3819 10.389L10.1946 10.4593L10.1948 10.4597L10.3819 10.389ZM10.3711 10.3418L10.5702 10.3235L10.1719 10.3598L10.3711 10.3418ZM10.3818 10.3887L10.1946 10.459L10.1947 10.4594L10.3818 10.3887ZM10.7034 8.79798L10.5043 8.8165L10.9026 8.77948L10.7034 8.79798ZM10.5541 8.28517L10.3927 8.40334L10.3931 8.40391L10.5541 8.28517ZM10.5541 8.28485L10.3927 8.40303L10.3931 8.4036L10.5541 8.28485ZM9.22342 7.73106L9.24788 7.53257L9.24778 7.53255L9.22342 7.73106ZM7.75749 7.89251L7.85221 8.06866L7.85228 8.06862L7.75749 7.89251ZM7.31498 8.87097L7.11594 8.89047L7.51403 8.85151L7.31498 8.87097ZM7.75752 7.89283L7.85224 8.06897L7.85231 8.06893L7.75752 7.89283ZM9.22345 7.73138L9.24791 7.53288L9.24781 7.53287L9.22345 7.73138ZM7.48266 9.52572L7.68206 9.51026L7.28324 9.54098L7.48266 9.52572ZM7.48317 9.53229L7.68301 9.52253L7.68257 9.51683L7.48317 9.53229ZM7.48314 9.53197L7.68298 9.52222L7.68256 9.51671L7.48314 9.53197ZM7.48513 9.57272L7.30207 9.65327L7.68489 9.56297L7.48513 9.57272ZM6.77416 8.06119L6.59914 8.15798L6.77416 8.06119ZM6.30059 7.20346L6.47574 7.1069L6.42813 7.02055L6.33065 7.00573L6.30059 7.20346ZM6.30044 7.20344L6.3305 7.00571L5.92943 6.94473L6.12529 7.3L6.30044 7.20344ZM6.77419 8.0615L6.59917 8.15829L6.77419 8.0615ZM7.48516 9.57303L7.3021 9.65358L7.68492 9.56328L7.48516 9.57303ZM12.7723 8.50007L12.5723 8.4917V8.50007H12.7723ZM12.7723 18.9844H12.5723V19.532L12.9252 19.1133L12.7723 18.9844ZM12.8276 8.33007L12.6636 8.2155L12.661 8.21945L12.8276 8.33007ZM13.2255 7.76051L13.3895 7.87509L13.3923 7.87086L13.2255 7.76051ZM13.3209 7.66823L13.2159 7.49797V7.49797L13.3209 7.66823ZM13.4466 7.62426L13.4226 7.4257L13.4224 7.42572L13.4466 7.62426ZM14.9819 7.42578L15.0087 7.62398L15.0091 7.62392L14.9819 7.42578ZM17.6728 7.03147L17.6443 6.8335L17.6419 6.83388L17.6728 7.03147ZM18 6.98438L18.1789 7.07379L18.3497 6.73197L17.9715 6.78642L18 6.98438ZM17.8499 7.28471L18.026 7.37976L18.0288 7.37412L17.8499 7.28471ZM17.3808 8.14365L17.5558 8.24047L17.5558 8.24046L17.3808 8.14365ZM16.6787 9.49351L16.8525 9.59242L16.8574 9.58377L16.8615 9.57467L16.6787 9.49351ZM16.3692 10.0374L16.1693 10.031L16.543 10.1364L16.3692 10.0374ZM16.3846 9.55726L16.1849 9.5468L16.1847 9.55082L16.3846 9.55726ZM16.4078 9.45561L16.2242 9.37631L16.2234 9.37837L16.4078 9.45561ZM16.5166 8.77652L16.3168 8.76766L16.3168 8.76774L16.5166 8.77652ZM16.1596 8.04639L16.2543 7.87021L16.2541 7.87015L16.1596 8.04639ZM15.3195 7.86654V7.66653L15.3172 7.66655L15.3195 7.86654ZM14.7982 7.90444L14.8226 8.10296L14.8249 8.10265L14.7982 7.90444ZM13.5878 8.38791L13.7492 8.5061L13.7492 8.50608L13.5878 8.38791ZM13.4678 9.37369L13.6677 9.36709L13.6677 9.36594L13.4678 9.37369ZM13.4762 9.4129L13.6627 9.34045L13.6613 9.33706L13.4762 9.4129ZM13.7791 10.1923L13.5926 10.2648L13.594 10.2681L13.7791 10.1923ZM13.7826 10.4499L13.9697 10.5207L13.9697 10.5206L13.7826 10.4499ZM13.5463 11.0749L13.3592 11.0042L13.3486 11.0324L13.3467 11.0624L13.5463 11.0749ZM13.5265 11.645L13.7264 11.6521L13.7264 11.6513L13.5265 11.645ZM13.5265 11.6452L13.3266 11.6381L13.3266 11.6389L13.5265 11.6452ZM13.4136 14.5094L13.2139 14.4985L13.2139 14.4985L13.4136 14.5094ZM13.1627 18.4674L12.9633 18.4523L12.9632 18.4538L13.1627 18.4674ZM13.1587 18.5259L13.3117 18.6548L13.3538 18.6047L13.3583 18.5395L13.1587 18.5259ZM12.935 8.51562L12.735 8.51308V8.51562H12.935ZM12.9571 8.43632L12.7941 8.3204L12.7891 8.32756L12.7846 8.33514L12.9571 8.43632ZM12.935 18.6249H12.735V19.1518L13.0846 18.7576L12.935 18.6249ZM12.9357 18.6241L13.0853 18.7568L13.1357 18.7001V18.6241H12.9357ZM12.9357 8.51706L12.7357 8.51451V8.51706H12.9357ZM12.9578 8.43776L12.7948 8.32184L12.7897 8.329L12.7853 8.33658L12.9578 8.43776ZM13.3721 7.85527L13.5352 7.97125L13.5388 7.96584L13.3721 7.85527ZM13.4678 7.79635L13.4442 7.59774L13.4436 7.59782L13.4678 7.79635ZM15.0063 7.59744L15.0333 7.7956L15.0334 7.79558L15.0063 7.59744ZM17.698 7.20337L17.728 7.4011L17.8256 7.38626L17.8732 7.29976L17.698 7.20337ZM17.6989 7.20168L17.8741 7.2982L18.0699 6.9428L17.6687 7.00397L17.6989 7.20168ZM15.0056 7.596L15.0324 7.79419L15.0326 7.79416L15.0056 7.596ZM13.4671 7.7949L13.4435 7.5963L13.4429 7.59638L13.4671 7.7949ZM13.4127 7.81393L13.5176 7.98425L13.5176 7.98424L13.4127 7.81393ZM13.3714 7.85383L13.5345 7.96981L13.5381 7.9644L13.3714 7.85383ZM16.5173 9.53197L16.717 9.54281L16.7171 9.53992L16.5173 9.53197ZM16.5152 9.56957L16.6983 9.65019L16.713 9.61682L16.715 9.58041L16.5152 9.56957ZM16.527 9.48816L16.3427 9.41049L16.3426 9.41084L16.527 9.48816ZM16.5244 8.13328L16.6859 8.01529L16.3626 8.2509L16.5244 8.13328ZM16.5263 9.48694L16.3421 9.40905L16.3419 9.40962L16.5263 9.48694ZM16.5166 9.53075L16.7163 9.54159L16.7165 9.5387L16.5166 9.53075ZM16.5144 9.5715L16.3147 9.56066L16.6975 9.65188L16.5144 9.5715ZM13.2854 9.20972L13.0855 9.21437L13.4854 9.20555L13.2854 9.20972ZM13.3317 8.5668L13.527 8.60982L13.1364 8.52329L13.3317 8.5668ZM11.3366 8.21443L10.9387 7.64487L10.6108 7.87396L11.0087 8.44352L11.3366 8.21443ZM11.4267 8.49385C11.4237 8.39597 11.3935 8.30095 11.3398 8.21915L11.0055 8.43881C11.0188 8.45908 11.0262 8.48242 11.0269 8.50628L11.4267 8.49385ZM11.4268 18.9844V8.50007H11.0268V18.9844H11.4268ZM10.6876 18.6547L11.0738 19.1132L11.3798 18.8555L10.9936 18.397L10.6876 18.6547ZM10.6369 18.4817L10.6411 18.5402L11.0401 18.5116L11.0359 18.4531L10.6369 18.4817ZM10.3858 14.5203C10.4629 15.9348 10.6342 18.456 10.6374 18.4876L11.0354 18.4471C11.0355 18.4482 11.0329 18.4119 11.0275 18.3342C11.0225 18.2603 11.0153 18.1544 11.0065 18.0236C10.9888 17.7621 10.9648 17.401 10.9384 16.9965C10.8857 16.1873 10.8237 15.2052 10.7852 14.4985L10.3858 14.5203ZM10.2727 11.6515C10.2943 12.3408 10.3313 13.5185 10.3858 14.5202L10.7852 14.4985C10.731 13.5021 10.6942 12.329 10.6725 11.6389L10.2727 11.6515ZM10.2727 11.6521L10.2727 11.6523L10.6725 11.6381L10.6725 11.6379L10.2727 11.6521ZM10.2532 11.0874C10.2568 11.1445 10.2632 11.3478 10.2727 11.6513L10.6725 11.6388C10.6632 11.341 10.6565 11.1277 10.6524 11.0624L10.2532 11.0874ZM10.0302 10.5204L10.2657 11.1454L10.64 11.0044L10.4045 10.3794L10.0302 10.5204ZM10.0356 10.1167C9.98275 10.2459 9.98089 10.3902 10.0304 10.5208L10.4044 10.3791C10.3908 10.3432 10.3913 10.3036 10.4058 10.268L10.0356 10.1167ZM10.3374 9.34041L10.0343 10.1198L10.4071 10.2648L10.7102 9.48538L10.3374 9.34041ZM10.3324 9.36545C10.3327 9.3562 10.3347 9.34711 10.3381 9.33858L10.7095 9.48721C10.7229 9.45367 10.7305 9.41806 10.732 9.38192L10.3324 9.36545ZM10.2505 8.50601C10.2609 8.52025 10.2776 8.55401 10.2932 8.61688C10.3081 8.67711 10.319 8.75143 10.3262 8.83606C10.3405 9.00537 10.3384 9.19784 10.3323 9.36645L10.7321 9.38092C10.7383 9.20758 10.7411 8.99598 10.7247 8.80231C10.7165 8.70545 10.7032 8.60854 10.6814 8.52071C10.6603 8.43552 10.6279 8.34439 10.5733 8.26981L10.2505 8.50601ZM9.1772 8.10295C9.47405 8.13937 9.7119 8.19371 9.89329 8.26496C10.0753 8.33647 10.1874 8.41981 10.2506 8.50608L10.5733 8.26973C10.4499 8.10123 10.2629 7.98041 10.0395 7.89266C9.81548 7.80465 9.54145 7.74464 9.22592 7.70592L9.1772 8.10295ZM8.68076 8.06828C8.84625 8.06971 9.01149 8.08122 9.17555 8.10274L9.22757 7.70613C9.0474 7.6825 8.86594 7.66987 8.68421 7.6683L8.68076 8.06828ZM7.93716 8.22427C8.14577 8.11206 8.37543 8.06829 8.68249 8.06829V7.66829C8.33606 7.66829 8.03426 7.71784 7.74767 7.87201L7.93716 8.22427ZM7.68518 8.76941C7.67836 8.61552 7.70114 8.5029 7.74168 8.41998C7.78092 8.33973 7.84264 8.27507 7.93709 8.22431L7.74774 7.87197C7.58618 7.95879 7.46154 8.0823 7.38234 8.24428C7.30444 8.40358 7.27671 8.58725 7.28558 8.78714L7.68518 8.76941ZM7.77929 9.38172C7.78027 9.38412 7.7746 9.36791 7.76419 9.3246C7.75497 9.2862 7.74407 9.23524 7.7333 9.17605C7.71163 9.05705 7.69141 8.91022 7.68519 8.76944L7.28558 8.78711C7.29284 8.95126 7.31595 9.11692 7.33977 9.24771C7.36214 9.37057 7.38895 9.48392 7.40901 9.53301L7.77929 9.38172ZM7.8161 9.55121C7.81383 9.4929 7.80133 9.43548 7.7792 9.3815L7.4091 9.53323C7.4135 9.54397 7.41596 9.55533 7.41641 9.56682L7.8161 9.55121ZM7.83163 10.0328L7.81615 9.55257L7.41636 9.56545L7.43183 10.0456L7.83163 10.0328ZM7.1484 9.59417L7.4579 10.1381L7.80556 9.94029L7.49606 9.39635L7.1484 9.59417ZM6.44524 8.24246C6.55291 8.43646 6.72585 8.76847 6.87358 9.0556C7.02354 9.34706 7.14007 9.57784 7.13944 9.57643L7.50502 9.4141C7.49656 9.39504 7.0148 8.44439 6.79498 8.04834L6.44524 8.24246ZM6.15099 7.28646C5.97489 7.38127 5.97489 7.38127 5.97489 7.38127C5.9749 7.38128 5.9749 7.38128 5.9749 7.38129C5.97491 7.38131 5.97492 7.38133 5.97494 7.38136C5.97497 7.38142 5.97502 7.3815 5.97508 7.38161C5.9752 7.38184 5.97538 7.38217 5.97561 7.38261C5.97608 7.38349 5.97679 7.38479 5.97771 7.3865C5.97956 7.38994 5.9823 7.39501 5.98585 7.40161C5.99297 7.4148 6.00338 7.43409 6.01658 7.4585C6.04296 7.50732 6.08049 7.57665 6.1251 7.65872C6.21427 7.8228 6.33185 8.0381 6.44522 8.24243L6.79499 8.04838C6.68242 7.84547 6.56545 7.6313 6.47655 7.46772C6.43212 7.38596 6.39473 7.31691 6.36846 7.26831C6.35533 7.24401 6.34498 7.22482 6.33791 7.21172C6.33438 7.20518 6.33167 7.20015 6.32984 7.19676C6.32893 7.19507 6.32824 7.19379 6.32778 7.19293C6.32755 7.1925 6.32738 7.19218 6.32726 7.19197C6.32721 7.19186 6.32716 7.19178 6.32713 7.19173C6.32712 7.1917 6.32711 7.19168 6.3271 7.19167C6.3271 7.19167 6.3271 7.19166 6.3271 7.19166C6.32709 7.19166 6.32709 7.19166 6.15099 7.28646ZM5.8211 7.07379L5.97209 7.37588L6.32989 7.19704L6.1789 6.89496L5.8211 7.07379ZM6.35544 6.83232L6.02781 6.78632L5.97219 7.18243L6.29982 7.22844L6.35544 6.83232ZM9.04535 7.22653C8.54032 7.15758 7.87254 7.06002 7.32855 6.97919C7.05667 6.93878 6.81593 6.90259 6.64223 6.87628C6.55537 6.86313 6.48533 6.85246 6.43657 6.84497C6.38014 6.83631 6.36443 6.83367 6.37122 6.83519L6.28404 7.22557C6.29475 7.22796 6.33442 7.23398 6.37588 7.24034C6.42499 7.24788 6.49532 7.2586 6.58234 7.27178C6.7564 7.29813 6.9975 7.33438 7.26976 7.37484C7.81405 7.45572 8.48376 7.55357 8.99124 7.62285L9.04535 7.22653ZM10.5763 7.42445C10.3864 7.40277 9.85412 7.33727 9.04542 7.22654L8.99116 7.62284C9.8016 7.73381 10.3371 7.79974 10.531 7.82187L10.5763 7.42445ZM10.7843 7.49688C10.7215 7.45817 10.651 7.43355 10.5778 7.42463L10.5294 7.82169C10.5455 7.82365 10.5608 7.82904 10.5744 7.83739L10.7843 7.49688ZM10.9415 7.64907C10.9008 7.58749 10.8471 7.53559 10.7843 7.49688L10.5744 7.83739C10.5879 7.84574 10.5993 7.85683 10.6079 7.86977L10.9415 7.64907ZM11.2129 18.4928L11.1594 18.4332L10.8618 18.7005L10.9153 18.76L11.2129 18.4928ZM10.8641 18.6257V18.6264H11.2641V18.6257H10.8641ZM10.8623 18.7008L10.9158 18.7599L11.2124 18.4914L11.1588 18.4323L10.8623 18.7008ZM11.2102 18.5539L11.2102 18.5536L10.811 18.5794L10.811 18.5798L11.2102 18.5539ZM11.2645 9.16148L11.2645 8.51738L10.8645 8.51736L10.8645 9.16146L11.2645 9.16148ZM10.8645 8.51706V9.16147H11.2645V8.51706H10.8645ZM10.8647 8.5224C10.8646 8.52142 10.8645 8.52046 10.8645 8.51952L11.2645 8.51459C11.2644 8.50592 11.264 8.49725 11.2632 8.48859L10.8647 8.5224ZM11.2645 8.5149C11.2644 8.50596 11.264 8.49705 11.2632 8.48819L10.8647 8.5228C10.8646 8.52182 10.8646 8.52084 10.8645 8.51984L11.2645 8.5149ZM10.8269 11.0412C10.8239 11.0074 10.8164 10.9741 10.8046 10.9422L10.4295 11.0812C10.429 11.0799 10.4287 11.0784 10.4285 11.0769L10.8269 11.0412ZM10.4296 11.0816C10.429 11.0802 10.4287 11.0787 10.4286 11.0772L10.8269 11.0408C10.8238 11.0072 10.8163 10.9742 10.8046 10.9425L10.4296 11.0816ZM10.1948 10.4597L10.43 11.0827L10.8042 10.9414L10.569 10.3184L10.1948 10.4597ZM10.1719 10.3598C10.1749 10.3936 10.1825 10.4271 10.1946 10.4593L10.5691 10.3188C10.5697 10.3204 10.5701 10.3221 10.5703 10.3238L10.1719 10.3598ZM10.5691 10.3184C10.5697 10.32 10.5701 10.3217 10.5702 10.3235L10.1719 10.3601C10.175 10.3937 10.1826 10.427 10.1946 10.459L10.5691 10.3184ZM10.8042 10.9411L10.5689 10.3181L10.1947 10.4594L10.4299 11.0824L10.8042 10.9411ZM10.9026 8.77946C10.884 8.58015 10.8396 8.33524 10.715 8.16642L10.3931 8.40391C10.4474 8.4774 10.4864 8.62416 10.5043 8.8165L10.9026 8.77946ZM10.3931 8.4036C10.4474 8.47713 10.4864 8.62402 10.5043 8.81648L10.9026 8.77948C10.884 8.58008 10.8396 8.33501 10.715 8.16611L10.3931 8.4036ZM9.19895 7.92956C9.48263 7.96453 9.73628 8.01693 9.94417 8.0965C10.1523 8.17618 10.301 8.27789 10.3927 8.40303L10.7154 8.16668C10.5625 7.95797 10.3374 7.81871 10.0871 7.72292C9.83658 7.62702 9.54717 7.56945 9.24788 7.53257L9.19895 7.92956ZM7.85228 8.06862C8.26554 7.84618 8.68187 7.86611 9.19906 7.92958L9.24778 7.53255C8.72593 7.46852 8.19607 7.42931 7.6627 7.7164L7.85228 8.06862ZM7.51403 8.85147C7.48282 8.5329 7.54829 8.23208 7.85221 8.06866L7.66277 7.71636C7.1474 7.99349 7.07845 8.50775 7.11594 8.89047L7.51403 8.85147ZM7.6628 7.71668C7.14758 7.99372 7.07852 8.50776 7.11593 8.89043L7.51403 8.85151C7.48289 8.53303 7.54841 8.23235 7.85224 8.06897L7.6628 7.71668ZM9.24781 7.53287C8.72596 7.46883 8.1961 7.42962 7.66273 7.71672L7.85231 8.06893C8.26557 7.84649 8.6819 7.86643 9.19909 7.92989L9.24781 7.53287ZM10.7154 8.16699C10.5626 7.95828 10.3374 7.81903 10.0872 7.72324C9.83661 7.62733 9.5472 7.56977 9.24791 7.53288L9.19898 7.92987C9.48266 7.96484 9.73631 8.01724 9.9442 8.09681C10.1524 8.17649 10.3011 8.2782 10.3927 8.40334L10.7154 8.16699ZM7.28326 9.54117L7.28377 9.54774L7.68257 9.51683L7.68206 9.51026L7.28326 9.54117ZM7.68256 9.51671L7.68208 9.51045L7.28324 9.54098L7.28372 9.54724L7.68256 9.51671ZM7.68489 9.56297L7.6829 9.52222L7.28338 9.54173L7.28537 9.58247L7.68489 9.56297ZM6.59914 8.15798C6.70712 8.35323 6.88173 8.72403 7.03201 9.05247C7.10652 9.21532 7.17407 9.36561 7.22301 9.4752C7.24747 9.52998 7.26726 9.57456 7.28092 9.60542C7.28776 9.62085 7.29306 9.63284 7.29664 9.64096C7.29843 9.64502 7.2998 9.64812 7.30071 9.65018C7.30117 9.65122 7.30151 9.652 7.30174 9.65251C7.30185 9.65277 7.30193 9.65296 7.30199 9.65309C7.30202 9.65315 7.30204 9.6532 7.30205 9.65323C7.30206 9.65324 7.30206 9.65325 7.30206 9.65326C7.30207 9.65326 7.30207 9.65327 7.48513 9.57272C7.66819 9.49217 7.66819 9.49217 7.66819 9.49215C7.66818 9.49215 7.66817 9.49213 7.66817 9.49211C7.66815 9.49207 7.66813 9.49202 7.66809 9.49195C7.66803 9.4918 7.66794 9.4916 7.66782 9.49132C7.66758 9.49077 7.66722 9.48996 7.66675 9.48889C7.6658 9.48675 7.66441 9.48359 7.66258 9.47945C7.65894 9.47118 7.65357 9.45903 7.64666 9.44344C7.63285 9.41226 7.61289 9.36731 7.58825 9.31211C7.53897 9.20175 7.4709 9.05031 7.39574 8.88605C7.24669 8.56026 7.06581 8.17529 6.94918 7.9644L6.59914 8.15798ZM6.12545 7.30002C6.13312 7.31394 6.37801 7.75813 6.59914 8.15798L6.94918 7.9644C6.72818 7.56479 6.4834 7.12081 6.47574 7.1069L6.12545 7.30002ZM6.27037 7.40116L6.27053 7.40119L6.33065 7.00573L6.3305 7.00571L6.27037 7.40116ZM6.94921 7.96471C6.83695 7.76172 6.71854 7.54726 6.62819 7.38354C6.58302 7.30168 6.54487 7.23251 6.51801 7.18381C6.50458 7.15946 6.49397 7.14022 6.48672 7.12708C6.4831 7.1205 6.48031 7.11545 6.47843 7.11205C6.47749 7.11034 6.47678 7.10905 6.4763 7.10818C6.47606 7.10775 6.47588 7.10742 6.47576 7.10721C6.4757 7.1071 6.47566 7.10701 6.47563 7.10696C6.47561 7.10693 6.4756 7.10691 6.47559 7.1069C6.47559 7.10689 6.47559 7.10689 6.47559 7.10688C6.47558 7.10688 6.47558 7.10688 6.30044 7.20344C6.12529 7.3 6.12529 7.3 6.12529 7.3C6.12529 7.3 6.1253 7.30001 6.1253 7.30002C6.12531 7.30003 6.12532 7.30005 6.12534 7.30008C6.12537 7.30013 6.12541 7.30022 6.12547 7.30033C6.12559 7.30055 6.12577 7.30087 6.12601 7.30131C6.12649 7.30218 6.12721 7.30347 6.12815 7.30518C6.13003 7.30859 6.13281 7.31364 6.13644 7.32022C6.1437 7.33338 6.15431 7.35262 6.16775 7.37699C6.19462 7.42571 6.23279 7.49491 6.27798 7.5768C6.36836 7.74057 6.48683 7.95515 6.59917 8.15829L6.94921 7.96471ZM7.48516 9.57303C7.66822 9.49249 7.66822 9.49248 7.66822 9.49247C7.66821 9.49246 7.6682 9.49244 7.6682 9.49242C7.66818 9.49239 7.66816 9.49233 7.66812 9.49226C7.66806 9.49212 7.66797 9.49191 7.66785 9.49163C7.66761 9.49108 7.66725 9.49027 7.66678 9.4892C7.66583 9.48706 7.66444 9.4839 7.66261 9.47976C7.65897 9.47149 7.6536 9.45934 7.64669 9.44375C7.63288 9.41257 7.61292 9.36762 7.58828 9.31243C7.539 9.20207 7.47093 9.05062 7.39577 8.88636C7.24672 8.56057 7.06584 8.17561 6.94921 7.96471L6.59917 8.15829C6.70715 8.35354 6.88176 8.72434 7.03204 9.05278C7.10655 9.21563 7.1741 9.36592 7.22304 9.47551C7.2475 9.53029 7.26729 9.57487 7.28096 9.60573C7.28779 9.62116 7.29309 9.63315 7.29667 9.64127C7.29846 9.64534 7.29983 9.64843 7.30074 9.6505C7.3012 9.65153 7.30154 9.65231 7.30177 9.65283C7.30188 9.65308 7.30196 9.65328 7.30202 9.6534C7.30205 9.65346 7.30207 9.65351 7.30208 9.65354C7.30209 9.65355 7.30209 9.65356 7.30209 9.65357C7.3021 9.65358 7.3021 9.65358 7.48516 9.57303ZM7.28341 9.54204L7.2854 9.58279L7.68492 9.56328L7.68293 9.52253L7.28341 9.54204ZM12.5723 8.50007V18.9844H12.9723V8.50007H12.5723ZM12.661 8.21945C12.6072 8.30043 12.5766 8.39454 12.5725 8.49171L12.9721 8.50843C12.9731 8.48443 12.9807 8.46102 12.9942 8.4407L12.661 8.21945ZM13.0616 7.64597L12.6636 8.21553L12.9915 8.44462L13.3895 7.87506L13.0616 7.64597ZM13.2159 7.49797C13.1531 7.53668 13.0994 7.58858 13.0587 7.65016L13.3923 7.87086C13.4009 7.85792 13.4123 7.84684 13.4258 7.83849L13.2159 7.49797ZM13.4224 7.42572C13.3492 7.43464 13.2787 7.45926 13.2159 7.49797L13.4258 7.83849C13.4394 7.83013 13.4547 7.82474 13.4708 7.82279L13.4224 7.42572ZM14.9551 7.22759C14.1466 7.33698 13.6136 7.40258 13.4226 7.4257L13.4706 7.82281C13.6633 7.79949 14.1981 7.73365 15.0087 7.62398L14.9551 7.22759ZM17.6419 6.83388C17.642 6.83385 17.6418 6.8339 17.6406 6.83408C17.6396 6.83423 17.6382 6.83445 17.6363 6.83473C17.6327 6.83528 17.6275 6.83607 17.6209 6.83708C17.6076 6.8391 17.5884 6.84201 17.5639 6.84572C17.515 6.85315 17.4448 6.86376 17.3578 6.87687C17.184 6.90307 16.9432 6.93922 16.6714 6.97962C16.1274 7.06047 15.4598 7.15825 14.9547 7.22765L15.0091 7.62392C16.0233 7.48459 17.6862 7.23181 17.7037 7.22907L17.6419 6.83388ZM17.9715 6.78642L17.6443 6.83351L17.7013 7.22943L18.0285 7.18233L17.9715 6.78642ZM18.0288 7.37412L18.1789 7.07379L17.8211 6.89496L17.671 7.1953L18.0288 7.37412ZM17.5558 8.24046C17.6687 8.03626 17.7863 7.82107 17.8755 7.65704C17.9201 7.57499 17.9577 7.50569 17.9841 7.45689C17.9974 7.43249 18.0078 7.41322 18.0149 7.40003C18.0185 7.39344 18.0212 7.38837 18.0231 7.38494C18.024 7.38323 18.0247 7.38193 18.0252 7.38105C18.0254 7.38061 18.0256 7.38028 18.0257 7.38006C18.0258 7.37995 18.0258 7.37986 18.0258 7.3798C18.0259 7.37978 18.0259 7.37975 18.0259 7.37974C18.0259 7.37973 18.0259 7.37973 18.0259 7.37972C18.0259 7.37972 18.0259 7.37971 17.8499 7.28471C17.6739 7.1897 17.6739 7.1897 17.6739 7.18971C17.6739 7.18971 17.6739 7.18971 17.6739 7.18972C17.6739 7.18973 17.6739 7.18975 17.6739 7.18978C17.6738 7.18983 17.6738 7.18991 17.6737 7.19002C17.6736 7.19023 17.6734 7.19056 17.6732 7.19099C17.6727 7.19184 17.672 7.19313 17.6711 7.19482C17.6693 7.19821 17.6666 7.20324 17.663 7.2098C17.656 7.22291 17.6456 7.2421 17.6324 7.26641C17.6061 7.31503 17.5686 7.38411 17.5241 7.4659C17.4351 7.62953 17.3181 7.84381 17.2058 8.04684L17.5558 8.24046ZM16.8615 9.57467C16.8608 9.57612 16.9773 9.34569 17.1274 9.05421C17.2751 8.76722 17.4481 8.43506 17.5558 8.24047L17.2058 8.04683C16.9864 8.44338 16.5044 9.39323 16.4959 9.41236L16.8615 9.57467ZM16.543 10.1364L16.8525 9.59242L16.5048 9.3946L16.1953 9.93853L16.543 10.1364ZM16.1847 9.55082L16.1693 10.031L16.569 10.0439L16.5845 9.5637L16.1847 9.55082ZM16.2234 9.37837C16.201 9.43189 16.1879 9.48886 16.1849 9.54681L16.5844 9.56771C16.585 9.55577 16.5877 9.54398 16.5923 9.53286L16.2234 9.37837ZM16.3168 8.76774C16.3106 8.90959 16.2905 9.05671 16.269 9.17542C16.2583 9.23451 16.2475 9.28514 16.2383 9.3231C16.2277 9.36675 16.2223 9.38081 16.2242 9.37631L16.5914 9.53492C16.6049 9.5038 16.6171 9.458 16.627 9.41726C16.6383 9.37081 16.6507 9.3125 16.6626 9.24681C16.6863 9.11595 16.7092 8.95015 16.7164 8.78531L16.3168 8.76774ZM16.0649 8.22256C16.1593 8.27331 16.2211 8.33798 16.2603 8.41823C16.3009 8.50114 16.3236 8.61377 16.3168 8.76766L16.7164 8.78539C16.7253 8.58549 16.6975 8.40183 16.6197 8.24252C16.5405 8.08055 16.4158 7.95703 16.2543 7.87021L16.0649 8.22256ZM15.3195 8.06654C15.6256 8.06654 15.8556 8.11027 16.065 8.22263L16.2541 7.87015C15.967 7.71612 15.6651 7.66654 15.3195 7.66654V8.06654ZM14.8249 8.10265C14.9896 8.08049 15.1556 8.06842 15.3218 8.06653L15.3172 7.66655C15.1347 7.66863 14.9524 7.68188 14.7715 7.70622L14.8249 8.10265ZM13.7492 8.50608C13.8124 8.41981 13.9244 8.33647 14.1065 8.26496C14.2879 8.19371 14.5257 8.13937 14.8226 8.10295L14.7739 7.70592C14.4583 7.74464 14.1843 7.80465 13.9602 7.89266C13.7368 7.98041 13.5499 8.10123 13.4265 8.26973L13.7492 8.50608ZM13.6677 9.36594C13.6611 9.19759 13.659 9.00515 13.6734 8.83595C13.6806 8.75137 13.6915 8.67709 13.7065 8.61689C13.7221 8.55406 13.7388 8.52032 13.7492 8.5061L13.4265 8.26971C13.3719 8.34421 13.3394 8.43528 13.3183 8.52045C13.2965 8.60826 13.2831 8.70517 13.2748 8.80209C13.2584 8.99588 13.2612 9.20761 13.268 9.38143L13.6677 9.36594ZM13.6613 9.33706C13.6652 9.34657 13.6674 9.35674 13.6677 9.36709L13.2679 9.38028C13.2691 9.41755 13.277 9.45427 13.2911 9.48873L13.6613 9.33706ZM13.9655 10.1199L13.6626 9.34046L13.2898 9.48534L13.5927 10.2648L13.9655 10.1199ZM13.9697 10.5206C14.0191 10.39 14.0171 10.2457 13.9642 10.1165L13.594 10.2681C13.6086 10.3037 13.6091 10.3433 13.5955 10.3792L13.9697 10.5206ZM13.7334 11.1457L13.9697 10.5207L13.5955 10.3792L13.3592 11.0042L13.7334 11.1457ZM13.7264 11.6513C13.7359 11.3478 13.7423 11.1445 13.7459 11.0874L13.3467 11.0624C13.3426 11.1277 13.3359 11.341 13.3266 11.6388L13.7264 11.6513ZM13.7264 11.6523L13.7264 11.6521L13.3266 11.6379L13.3266 11.6381L13.7264 11.6523ZM13.6133 14.5202C13.6678 13.5185 13.7048 12.3408 13.7264 11.6515L13.3266 11.6389C13.3049 12.329 13.2681 13.5021 13.2139 14.4985L13.6133 14.5202ZM13.3622 18.4825C13.3642 18.4549 13.5363 15.9375 13.6133 14.5202L13.2139 14.4985C13.1755 15.2052 13.1134 16.1872 13.0605 16.9964C13.0341 17.4009 13.01 17.7619 12.9924 18.0235C12.9836 18.1543 12.9764 18.2602 12.9714 18.3343C12.9689 18.3713 12.9669 18.4003 12.9655 18.4205C12.9648 18.4306 12.9643 18.4384 12.9639 18.4439C12.9637 18.4467 12.9635 18.4488 12.9634 18.4504C12.9633 18.4522 12.9633 18.4526 12.9633 18.4523L13.3622 18.4825ZM13.3583 18.5395L13.3623 18.481L12.9632 18.4538L12.9592 18.5123L13.3583 18.5395ZM12.9252 19.1133L13.3117 18.6548L13.0058 18.397L12.6194 18.8555L12.9252 19.1133ZM13.135 8.51816C13.1349 8.52507 13.133 8.53174 13.1296 8.5375L12.7846 8.33514C12.753 8.38911 12.7358 8.45041 12.735 8.51308L13.135 8.51816ZM13.135 18.6249V8.51562H12.735V18.6249H13.135ZM12.7861 18.4914L12.7854 18.4922L13.0846 18.7576L13.0853 18.7568L12.7861 18.4914ZM12.7357 8.51706V18.6241H13.1357V8.51706H12.7357ZM12.7853 8.33658C12.7536 8.39055 12.7365 8.45185 12.7357 8.51451L13.1357 8.5196C13.1356 8.52651 13.1337 8.53318 13.1303 8.53894L12.7853 8.33658ZM13.2091 7.73935L12.7948 8.32184L13.1208 8.55368L13.5351 7.97119L13.2091 7.73935ZM13.3086 7.64505C13.2674 7.67037 13.2322 7.70434 13.2054 7.7447L13.5388 7.96584C13.5333 7.97399 13.5263 7.98072 13.5183 7.98568L13.3086 7.64505ZM13.4436 7.59782C13.3958 7.60366 13.3497 7.61974 13.3086 7.64505L13.5183 7.98568C13.5102 7.99065 13.5013 7.99375 13.4921 7.99487L13.4436 7.59782ZM14.9792 7.39927C14.158 7.51127 13.6182 7.57706 13.4442 7.59774L13.4914 7.99495C13.6676 7.97401 14.2097 7.90793 15.0333 7.7956L14.9792 7.39927ZM17.6679 7.00564C17.6094 7.01454 15.9845 7.26142 14.9791 7.39929L15.0334 7.79558C16.0422 7.65724 17.6701 7.4099 17.728 7.4011L17.6679 7.00564ZM17.6989 7.20168C17.5237 7.10517 17.5237 7.10517 17.5237 7.10517C17.5237 7.10517 17.5237 7.10517 17.5237 7.10517C17.5237 7.10517 17.5237 7.10517 17.5237 7.10517C17.5237 7.10517 17.5237 7.10517 17.5237 7.10517C17.5237 7.10517 17.5237 7.10517 17.5237 7.10517C17.5237 7.10517 17.5237 7.10518 17.5237 7.10518C17.5237 7.10519 17.5237 7.1052 17.5237 7.10521C17.5237 7.10523 17.5237 7.10526 17.5237 7.10531C17.5236 7.10539 17.5235 7.1055 17.5235 7.10566C17.5233 7.10596 17.523 7.1064 17.5227 7.10699L17.8732 7.29976C17.8735 7.29922 17.8737 7.29882 17.8739 7.29856C17.8739 7.29843 17.874 7.29834 17.874 7.29828C17.874 7.29825 17.8741 7.29823 17.8741 7.29821C17.8741 7.29821 17.8741 7.2982 17.8741 7.2982C17.8741 7.2982 17.8741 7.2982 17.8741 7.2982C17.8741 7.2982 17.8741 7.2982 17.8741 7.2982C17.8741 7.2982 17.8741 7.2982 17.8741 7.2982C17.8741 7.2982 17.8741 7.2982 17.8741 7.2982C17.8741 7.2982 17.8741 7.2982 17.8741 7.2982C17.8741 7.2982 17.8741 7.2982 17.6989 7.20168ZM15.0326 7.79416C15.5467 7.724 16.221 7.62527 16.7662 7.54417C17.039 7.5036 17.2797 7.46742 17.4522 7.44137C17.5384 7.42834 17.6076 7.41786 17.6553 7.41062C17.6791 7.407 17.6975 7.4042 17.71 7.4023C17.7163 7.40135 17.721 7.40062 17.7242 7.40014C17.7258 7.39989 17.727 7.39971 17.7278 7.39959C17.7282 7.39952 17.7285 7.39948 17.7287 7.39945C17.7288 7.39943 17.7289 7.39942 17.729 7.39941C17.729 7.39941 17.729 7.3994 17.729 7.3994C17.729 7.3994 17.7291 7.3994 17.6989 7.20168C17.6687 7.00397 17.6687 7.00397 17.6687 7.00397C17.6687 7.00397 17.6687 7.00398 17.6687 7.00398C17.6686 7.00399 17.6686 7.004 17.6685 7.00402C17.6683 7.00405 17.668 7.00409 17.6676 7.00415C17.6668 7.00427 17.6656 7.00446 17.664 7.0047C17.6608 7.00518 17.6561 7.0059 17.6498 7.00685C17.6374 7.00874 17.619 7.01154 17.5952 7.01515C17.5477 7.02237 17.4786 7.03285 17.3924 7.04585C17.2202 7.07187 16.9798 7.10801 16.7074 7.14852C16.1624 7.22959 15.49 7.32802 14.9785 7.39783L15.0326 7.79416ZM13.4907 7.99351C13.6671 7.97255 14.2091 7.90559 15.0324 7.79419L14.9788 7.3978C14.1573 7.50897 13.6174 7.57564 13.4435 7.5963L13.4907 7.99351ZM13.5176 7.98424C13.5095 7.9892 13.5006 7.99231 13.4914 7.99343L13.4429 7.59638C13.3951 7.60222 13.349 7.6183 13.3079 7.64361L13.5176 7.98424ZM13.5381 7.9644C13.5327 7.97254 13.5256 7.97928 13.5176 7.98425L13.3079 7.64361C13.2668 7.66893 13.2315 7.7029 13.2048 7.74326L13.5381 7.9644ZM13.1201 8.55224L13.5344 7.96975L13.2084 7.73791L12.7941 8.3204L13.1201 8.55224ZM16.3176 9.52114L16.3155 9.55873L16.715 9.58041L16.717 9.54281L16.3176 9.52114ZM16.3426 9.41084C16.3275 9.44675 16.319 9.48508 16.3174 9.52403L16.7171 9.53992C16.7168 9.54875 16.7148 9.55741 16.7115 9.56548L16.3426 9.41084ZM16.3629 8.25126C16.4919 8.42782 16.5122 8.67032 16.4789 8.91312C16.4463 9.15107 16.3672 9.35226 16.3427 9.41049L16.7113 9.56583C16.7421 9.49272 16.8359 9.25485 16.8752 8.96738C16.9139 8.68476 16.9052 8.31549 16.6859 8.01529L16.3629 8.25126ZM16.7105 9.56483C16.7416 9.49148 16.835 9.25394 16.8743 8.96682C16.913 8.68454 16.9044 8.31577 16.6861 8.01565L16.3626 8.2509C16.4911 8.42758 16.5112 8.67003 16.478 8.91258C16.4455 9.15029 16.3666 9.35118 16.3421 9.40905L16.7105 9.56483ZM16.7165 9.5387C16.7161 9.54754 16.7142 9.55619 16.7108 9.56426L16.3419 9.40962C16.3268 9.44552 16.3183 9.48385 16.3168 9.5228L16.7165 9.5387ZM16.7141 9.58233L16.7163 9.54159L16.3169 9.51992L16.3147 9.56066L16.7141 9.58233ZM16.3322 9.48895C16.3319 9.48963 16.3317 9.49015 16.3315 9.49051C16.3314 9.49069 16.3314 9.49084 16.3313 9.49094C16.3313 9.49099 16.3313 9.49103 16.3313 9.49106C16.3313 9.49107 16.3313 9.49108 16.3313 9.49109C16.3313 9.4911 16.3313 9.4911 16.3313 9.49111C16.3313 9.49111 16.3313 9.49111 16.3313 9.49111C16.3313 9.49111 16.3313 9.49111 16.3313 9.49111C16.3313 9.49112 16.3313 9.49112 16.3313 9.49112C16.3313 9.49112 16.3313 9.49112 16.3313 9.49112C16.3313 9.49112 16.3313 9.49112 16.5144 9.5715C16.6975 9.65188 16.6975 9.65188 16.6975 9.65188V9.65188C16.6975 9.65188 16.6975 9.65188 16.6975 9.65188C16.6975 9.65188 16.6975 9.65188 16.6975 9.65188C16.6975 9.65188 16.6975 9.65188 16.6975 9.65189C16.6975 9.65189 16.6975 9.65189 16.6975 9.65189C16.6975 9.65189 16.6975 9.65188 16.6975 9.65188C16.6975 9.65187 16.6975 9.65185 16.6976 9.65182C16.6976 9.65176 16.6976 9.65165 16.6977 9.65151C16.6978 9.65123 16.698 9.65079 16.6983 9.65019L16.3322 9.48895ZM13.4854 9.20507C13.4813 9.03041 13.485 8.79798 13.5269 8.61031L13.1364 8.52329C13.0834 8.7612 13.0813 9.03464 13.0855 9.21437L13.4854 9.20507ZM13.1363 8.52378C13.084 8.76143 13.0817 9.03464 13.0855 9.21389L13.4854 9.20555C13.4817 9.03076 13.4855 8.798 13.527 8.60982L13.1363 8.52378Z" fill="white" mask="url(#path-3-outside-1_1449_21204)"/>
<defs>
<linearGradient id="paint0_linear_1449_21204" x1="11.9829" y1="12" x2="11.9829" y2="12.0342" gradientUnits="userSpaceOnUse">
<stop stop-color="white"/>
<stop offset="1" stop-color="white" stop-opacity="0.01"/>
<stop offset="1" stop-color="white" stop-opacity="0.01"/>
</linearGradient>
</defs>
</svg>
