<svg width="271" height="24" viewBox="0 0 271 24" fill="none" xmlns="http://www.w3.org/2000/svg">
<path fill-rule="evenodd" clip-rule="evenodd" d="M143.679 0C142.2 0 141 1.17985 141 2.63492V21.3651C141 22.8204 142.199 24 143.679 24H176.321C177.8 24 179 22.8201 179 21.3651V12.865V2.63492C179 1.17958 177.801 0 176.321 0H143.679Z" fill="#4D4D4D"/>
<path fill-rule="evenodd" clip-rule="evenodd" d="M161.224 7.72266C162.732 7.72266 163.954 8.85224 163.954 10.2476V10.2492C163.954 11.6446 162.732 12.7758 161.224 12.7758C159.717 12.7758 158.495 11.6446 158.495 10.2492V10.2476C158.495 8.85224 159.717 7.72266 161.224 7.72266ZM156.938 7.75537C157.369 7.75537 157.73 7.84086 158.169 8.0471V9.13701C157.753 8.76032 157.392 8.60268 156.914 8.60268C155.976 8.60268 155.238 9.32193 155.238 10.2339C155.238 11.1955 155.953 11.872 156.961 11.872C157.415 11.872 157.769 11.7225 158.169 11.3518V12.4423C157.714 12.6407 157.345 12.719 156.914 12.719C155.391 12.719 154.207 11.6365 154.207 10.2406C154.207 8.85968 155.422 7.75537 156.938 7.75537ZM152.207 7.78525C152.769 7.78525 153.284 7.96348 153.714 8.31192L153.191 8.94655C152.93 8.6761 152.684 8.56201 152.384 8.56201C151.953 8.56201 151.638 8.78931 151.638 9.08839C151.638 9.34491 151.815 9.48067 152.415 9.68635C153.554 10.0717 153.891 10.4133 153.891 11.1678C153.891 12.0873 153.161 12.7272 152.121 12.7272C151.36 12.7272 150.806 12.4497 150.345 11.8232L150.992 11.2469C151.222 11.6594 151.607 11.8803 152.084 11.8803C152.53 11.8803 152.861 11.5952 152.861 11.2104C152.861 11.011 152.761 10.8399 152.561 10.719C152.46 10.6618 152.261 10.5764 151.869 10.4485C150.929 10.1353 150.607 9.80052 150.607 9.14622C150.607 8.36897 151.299 7.78525 152.207 7.78525ZM163.642 7.86816H164.735L166.103 11.0582L167.489 7.86816H168.574L166.358 12.7393H165.819L163.642 7.86816ZM144.284 7.87549H145.753C147.376 7.87549 148.507 8.85184 148.507 10.2535C148.507 10.9524 148.161 11.6281 147.576 12.0766C147.083 12.4551 146.522 12.6248 145.745 12.6248H144.284V7.87549ZM148.968 7.87549H149.968V12.6248H148.968V7.87549ZM169.026 7.87549H171.864V8.68022H170.026V9.7344H171.797V10.5388H170.026V11.8208H171.864V12.6248H169.026V7.87549ZM172.527 7.87549H174.011C175.165 7.87549 175.827 8.38855 175.827 9.27772C175.827 10.0049 175.412 10.4821 174.658 10.6241L176.273 12.6248H175.042L173.657 10.7169H173.527V12.6248H172.527V7.87549ZM173.527 8.62354V10.0619H173.819C174.458 10.0619 174.797 9.80502 174.797 9.3276C174.797 8.8654 174.458 8.62354 173.835 8.62354H173.527ZM145.284 8.68009V11.8206H145.553C146.199 11.8206 146.608 11.7059 146.922 11.4432C147.268 11.1579 147.476 10.7023 147.476 10.2465C147.476 9.79147 147.268 9.34948 146.922 9.06416C146.592 8.78728 146.199 8.68009 145.553 8.68009H145.284Z" fill="white"/>
<path fill-rule="evenodd" clip-rule="evenodd" d="M178.999 13.8135C177.73 14.6916 168.229 20.9675 151.778 23.999H176.32C177.799 23.999 178.999 22.8192 178.999 21.3641V13.8135Z" fill="#F47216"/>
<rect x="94" width="39" height="24" rx="2.32268" fill="#2557D6"/>
<path fill-rule="evenodd" clip-rule="evenodd" d="M94.0001 11.2707H95.8734L96.2958 10.2766H97.2414L97.6627 11.2707H101.348V10.5107L101.677 11.274H103.591L103.92 10.4993V11.2707H113.08L113.075 9.63884H113.253C113.377 9.64303 113.413 9.65423 113.413 9.85417V11.2707H118.15V10.8908C118.533 11.0906 119.127 11.2707 119.909 11.2707H121.902L122.329 10.2766H123.274L123.691 11.2707H127.532V10.3264L128.114 11.2707H131.191V5.02832H128.146V5.76556L127.719 5.02832H124.594V5.76556L124.202 5.02832H119.98C119.273 5.02832 118.652 5.12458 118.15 5.39282V5.02832H115.237V5.39282C114.918 5.11634 114.483 5.02832 113.999 5.02832H103.355L102.641 6.64063L101.908 5.02832H98.5552V5.76556L98.1869 5.02832H95.3277L94 7.9963V11.2707H94.0001H94.0001ZM105.825 10.3703H104.701L104.697 6.86489L103.107 10.3703H102.144L100.55 6.86179V10.3703H98.3204L97.8991 9.37198H95.6163L95.1908 10.3703H94L95.9633 5.89451H97.5923L99.4569 10.1322V5.89451H101.246L102.681 8.9308L103.999 5.89451H105.825V10.3703H105.825H105.825ZM97.5244 8.44299L96.774 6.65869L96.0278 8.44299H97.5244ZM110.298 10.3703H106.635V5.89451H110.298V6.82655H107.732V7.63331H110.236V8.55077H107.732V9.44461H110.298V10.3703ZM115.459 7.09995C115.459 7.81356 114.971 8.18224 114.687 8.29294C114.927 8.38204 115.132 8.53945 115.229 8.66986C115.384 8.89248 115.411 9.09133 115.411 9.49107V10.3703H114.305L114.301 9.80589C114.301 9.53656 114.327 9.14925 114.128 8.93392C113.967 8.77651 113.723 8.74236 113.328 8.74236H112.151V10.3703H111.055V5.89453H113.577C114.137 5.89453 114.55 5.90898 114.904 6.10891C115.251 6.30885 115.459 6.60072 115.459 7.09995H115.459ZM114.073 7.76473C113.922 7.85396 113.744 7.85693 113.531 7.85693H112.199V6.86279H113.549C113.74 6.86279 113.939 6.87116 114.069 6.94352C114.211 7.00873 114.299 7.14751 114.299 7.33921C114.299 7.53482 114.215 7.69223 114.073 7.76473ZM117.217 10.3703H116.099V5.89453H117.217V10.3703ZM130.204 10.3703H128.65L126.572 7.01096V10.3703H124.339L123.913 9.37198H121.635L121.221 10.3703H119.938C119.405 10.3703 118.731 10.2553 118.348 9.87526C117.963 9.49524 117.763 8.98048 117.763 8.16656C117.763 7.50277 117.882 6.89594 118.354 6.41642C118.708 6.05921 119.263 5.89451 120.019 5.89451H121.08V6.85355H120.041C119.641 6.85355 119.415 6.9116 119.197 7.11869C119.01 7.30715 118.882 7.66342 118.882 8.13254C118.882 8.61206 118.98 8.9578 119.184 9.18365C119.352 9.36078 119.659 9.41451 119.948 9.41451H120.44L121.985 5.89465H123.628L125.484 10.1281V5.89465H127.154L129.081 9.0118V5.89465H130.204V10.3703ZM123.54 8.44299L122.781 6.65869L122.026 8.44299H123.54Z" fill="white"/>
<path fill-rule="evenodd" clip-rule="evenodd" d="M132.998 17.5175C132.731 17.8975 132.212 18.0901 131.51 18.0901H129.393V17.1301H131.501C131.711 17.1301 131.857 17.1033 131.945 17.0193C132.021 16.95 132.075 16.8495 132.075 16.7273C132.075 16.5969 132.021 16.4933 131.941 16.4312C131.861 16.3629 131.745 16.3319 131.554 16.3319C130.525 16.2977 129.241 16.3629 129.241 14.9462C129.241 14.2969 129.663 13.6134 130.814 13.6134H132.998V12.7227H130.969C130.356 12.7227 129.911 12.8658 129.596 13.0882V12.7227H126.595C126.115 12.7227 125.552 12.8388 125.285 13.0882V12.7227H119.926V13.0882C119.499 12.788 118.78 12.7227 118.448 12.7227H114.913V13.0882C114.575 12.7694 113.825 12.7227 113.367 12.7227H109.411L108.506 13.6787L107.658 12.7227H101.748V18.9694H107.546L108.479 17.9982L109.358 18.9694L112.932 18.9725V17.503H113.284C113.758 17.5102 114.317 17.4915 114.811 17.2834V18.9692H117.759V17.3411H117.901C118.083 17.3411 118.101 17.3484 118.101 17.5254V18.9691H127.057C127.626 18.9691 128.22 18.8271 128.549 18.5694V18.9691H131.39C131.981 18.9691 132.558 18.8882 132.998 18.6812V17.5175V17.5175ZM115.239 15.1145C115.239 16.3581 114.289 16.6149 113.33 16.6149H111.962V18.1165H109.831L108.481 16.6345L107.078 18.1165H102.735V13.6396H107.145L108.494 15.1071L109.888 13.6396H113.392C114.262 13.6396 115.239 13.8747 115.239 15.1145ZM106.523 17.1752H103.828V16.2845H106.235V15.371H103.828V14.5571H106.576L107.776 15.8618L106.523 17.1752ZM110.866 17.6874L109.183 15.8638L110.866 14.0981V17.6874ZM113.356 15.6972H111.939V14.5571H113.369C113.764 14.5571 114.039 14.7145 114.039 15.106C114.039 15.4932 113.777 15.6972 113.356 15.6972ZM120.778 13.6397H124.438V14.5655H121.87V15.3794H124.375V16.2928H121.87V17.1835L124.438 17.1876V18.1165H120.778V13.6396V13.6397ZM119.372 16.036C119.616 16.1239 119.815 16.2815 119.909 16.4119C120.064 16.6304 120.086 16.8344 120.091 17.229V18.1165H118.99V17.5564C118.99 17.2871 119.016 16.8883 118.813 16.6801C118.652 16.5197 118.408 16.4814 118.008 16.4814H116.837V18.1165H115.735V13.6396H118.266C118.821 13.6396 119.225 13.6635 119.585 13.8509C119.931 14.0549 120.149 14.3344 120.149 14.8451C120.149 15.5596 119.66 15.9243 119.372 16.036ZM118.752 15.4704C118.606 15.5553 118.424 15.5626 118.211 15.5626H116.879V14.5571H118.229C118.424 14.5571 118.619 14.5612 118.752 14.638C118.894 14.7105 118.979 14.8491 118.979 15.0407C118.979 15.2323 118.894 15.3866 118.752 15.4704ZM128.649 15.7552C128.863 15.9708 128.977 16.243 128.977 16.7037C128.977 17.6668 128.361 18.1164 127.255 18.1164H125.12V17.1564H127.246C127.454 17.1564 127.602 17.1295 127.694 17.0456C127.77 16.9763 127.824 16.8757 127.824 16.7536C127.824 16.6232 127.765 16.5196 127.69 16.4575C127.606 16.3892 127.49 16.3581 127.3 16.3581C126.274 16.324 124.99 16.3892 124.99 14.9725C124.99 14.3232 125.408 13.6396 126.558 13.6396H128.756V14.5925H126.745C126.545 14.5925 126.416 14.5998 126.305 14.6733C126.185 14.7458 126.141 14.8534 126.141 14.9955C126.141 15.1643 126.243 15.2792 126.381 15.3289C126.496 15.3682 126.62 15.3797 126.807 15.3797L127.397 15.3952C127.993 15.4094 128.401 15.5098 128.649 15.7552ZM133 14.5571H131.002C130.802 14.5571 130.67 14.5644 130.558 14.638C130.442 14.7105 130.398 14.8181 130.398 14.9601C130.398 15.129 130.496 15.2439 130.638 15.2936C130.753 15.3328 130.878 15.3443 131.06 15.3443L131.654 15.3598C132.254 15.3743 132.654 15.4749 132.898 15.7202C132.943 15.7543 132.969 15.7926 133 15.831V14.5571Z" fill="white"/>
<rect x="47" width="39" height="24" rx="2.32268" fill="black"/>
<path fill-rule="evenodd" clip-rule="evenodd" d="M69.5683 12.0002C69.5683 17.052 65.3891 21.1469 60.2339 21.1469C55.0788 21.1469 50.8999 17.052 50.8999 12.0002C50.8999 6.94884 55.0788 2.85352 60.2339 2.85352C65.3891 2.85352 69.5683 6.94884 69.5683 12.0002Z" fill="#D9222A"/>
<path fill-rule="evenodd" clip-rule="evenodd" d="M72.7654 2.85352C70.3537 2.85352 68.156 3.75012 66.4994 5.22124C66.162 5.52103 65.847 5.84481 65.5569 6.18918H67.4427C67.7006 6.4964 67.938 6.81955 68.1543 7.15797H64.8453C64.6471 7.46901 64.467 7.79216 64.3076 8.12655H68.6918C68.8415 8.44035 68.9737 8.76328 69.087 9.09492H63.9124C63.8045 9.41042 63.7137 9.73335 63.6411 10.0635H69.3581C69.4952 10.6877 69.5682 11.3357 69.5682 12.0002C69.5682 13.0159 69.399 13.9932 69.087 14.9057H63.9124C64.0255 15.2376 64.1576 15.5607 64.3074 15.8743H68.6918C68.5319 16.2087 68.3523 16.5319 68.1538 16.8431H64.8453C65.0614 17.1809 65.2993 17.5045 65.5569 17.8111H67.4423C67.1526 18.1561 66.8374 18.4803 66.4996 18.7798C68.1562 20.2508 70.3537 21.1469 72.7654 21.1469C77.9205 21.1469 82.0998 17.052 82.0998 12.0002C82.0998 6.94906 77.9205 2.85352 72.7654 2.85352Z" fill="#EE9F2D"/>
<path fill-rule="evenodd" clip-rule="evenodd" d="M80.856 17.1598C80.856 16.9628 81.0149 16.8027 81.2114 16.8027C81.408 16.8027 81.5669 16.9628 81.5669 17.1598C81.5669 17.3569 81.408 17.517 81.2114 17.517C81.0149 17.517 80.856 17.3569 80.856 17.1598ZM81.2114 17.4313C81.3607 17.4313 81.4818 17.3097 81.4818 17.1598C81.4818 17.0098 81.3607 16.8887 81.2114 16.8887C81.0619 16.8887 80.9413 17.0098 80.9413 17.1598C80.9413 17.3097 81.0619 17.4313 81.2114 17.4313ZM81.1632 17.3167H81.0903V17.0029H81.2222C81.2498 17.0029 81.2779 17.0029 81.3022 17.0186C81.3275 17.0358 81.3418 17.066 81.3418 17.0973C81.3418 17.1325 81.3211 17.1653 81.2876 17.1782L81.3451 17.3167H81.2644L81.2166 17.1925H81.1632V17.3167ZM81.1636 17.1659H81.2051C81.2207 17.1659 81.237 17.1676 81.2509 17.1577C81.2633 17.1474 81.2696 17.1281 81.2696 17.1096C81.2696 17.0935 81.262 17.075 81.2515 17.0671C81.2383 17.0564 81.2175 17.0588 81.2036 17.0588H81.1636V17.1659Z" fill="black"/>
<path fill-rule="evenodd" clip-rule="evenodd" d="M58.0547 13.0016C57.9483 12.9895 57.9015 12.9863 57.8285 12.9863C57.2541 12.9863 56.9634 13.1793 56.9634 13.5604C56.9634 13.7955 57.1053 13.9449 57.3267 13.9449C57.7395 13.9449 58.037 13.5598 58.0547 13.0016ZM58.7916 14.6827H57.952L57.9713 14.2916C57.7152 14.6008 57.3735 14.7477 56.9092 14.7477C56.36 14.7477 55.9834 14.3273 55.9834 13.7169C55.9834 12.7984 56.6384 12.2626 57.7627 12.2626C57.8775 12.2626 58.0248 12.2728 58.1756 12.2916C58.207 12.1672 58.2153 12.1139 58.2153 12.0471C58.2153 11.797 58.0387 11.7038 57.5653 11.7038C57.0695 11.6982 56.6607 11.8195 56.4928 11.8736C56.5034 11.811 56.6332 11.0248 56.6332 11.0248C57.1382 10.8798 57.4712 10.8252 57.8461 10.8252C58.7162 10.8252 59.1771 11.208 59.1762 11.9316C59.1779 12.1254 59.1452 12.3647 59.0941 12.6791C59.0061 13.2258 58.8174 14.3972 58.7916 14.6827Z" fill="black"/>
<path fill-rule="evenodd" clip-rule="evenodd" d="M55.5592 14.6827H54.5458L55.1263 11.116L53.8302 14.6827H53.1397L53.0543 11.1364L52.4442 14.6827H51.4956L52.288 10.043H53.745L53.8334 12.64L54.7222 10.043H56.3429L55.5592 14.6827Z" fill="black"/>
<path fill-rule="evenodd" clip-rule="evenodd" d="M74.0179 13.0016C73.912 12.9895 73.865 12.9863 73.7922 12.9863C73.218 12.9863 72.9272 13.1793 72.9272 13.5604C72.9272 13.7955 73.0689 13.9449 73.2904 13.9449C73.7031 13.9449 74.0008 13.5598 74.0179 13.0016ZM74.7553 14.6827H73.9157L73.9347 14.2916C73.6786 14.6008 73.3367 14.7477 72.8729 14.7477C72.3234 14.7477 71.9473 14.3273 71.9473 13.7169C71.9473 12.7984 72.6018 12.2626 73.7263 12.2626C73.8411 12.2626 73.9883 12.2728 74.1388 12.2916C74.1703 12.1672 74.1785 12.1139 74.1785 12.0471C74.1785 11.797 74.0021 11.7038 73.5287 11.7038C73.033 11.6982 72.6246 11.8195 72.456 11.8736C72.4666 11.811 72.5968 11.0248 72.5968 11.0248C73.1019 10.8798 73.4347 10.8252 73.8091 10.8252C74.6796 10.8252 75.1405 11.208 75.1396 11.9316C75.1414 12.1254 75.1086 12.3647 75.0575 12.6791C74.97 13.2258 74.7808 14.3972 74.7553 14.6827Z" fill="black"/>
<path fill-rule="evenodd" clip-rule="evenodd" d="M63.2949 14.6249C63.0176 14.7105 62.8013 14.7472 62.5669 14.7472C62.0488 14.7472 61.7661 14.4555 61.7661 13.9184C61.7587 13.7517 61.8406 13.313 61.905 12.9126C61.9635 12.5602 62.3444 10.3379 62.3444 10.3379H63.3517L63.234 10.909H63.8424L63.705 11.8158H63.0945C62.9775 12.5334 62.8109 13.4273 62.8089 13.5457C62.8089 13.7402 62.9149 13.8252 63.1558 13.8252C63.2713 13.8252 63.3608 13.8137 63.429 13.7895L63.2949 14.6249Z" fill="black"/>
<path fill-rule="evenodd" clip-rule="evenodd" d="M66.3833 14.5948C66.0373 14.6984 65.7034 14.7485 65.3496 14.7477C64.2221 14.7466 63.6343 14.1696 63.6343 13.0645C63.6343 11.7747 64.382 10.8252 65.3971 10.8252C66.2276 10.8252 66.758 11.3568 66.758 12.1906C66.758 12.4672 66.7216 12.7373 66.6338 13.1186H64.6279C64.5601 13.666 64.9176 13.894 65.5035 13.894C65.864 13.894 66.1892 13.8212 66.5508 13.6564L66.3833 14.5948ZM65.817 12.358C65.8226 12.2795 65.9238 11.6846 65.3483 11.6846C65.0274 11.6846 64.798 11.9243 64.7046 12.358H65.817Z" fill="black"/>
<path fill-rule="evenodd" clip-rule="evenodd" d="M59.3991 12.1023C59.3991 12.5795 59.6353 12.9086 60.1709 13.1558C60.5813 13.3447 60.6447 13.4008 60.6447 13.5721C60.6447 13.8074 60.4638 13.9135 60.0628 13.9135C59.7605 13.9135 59.4793 13.8672 59.1549 13.7647C59.1549 13.7647 59.0217 14.5963 59.0156 14.636C59.2459 14.6853 59.4513 14.7309 60.0701 14.7477C61.1394 14.7477 61.6332 14.3488 61.6332 13.4866C61.6332 12.9681 61.4265 12.6638 60.9188 12.4352C60.4939 12.2441 60.4452 12.2014 60.4452 12.0252C60.4452 11.8212 60.6135 11.7171 60.9411 11.7171C61.14 11.7171 61.4117 11.7379 61.6691 11.7738L61.8134 10.8987C61.5511 10.8579 61.1533 10.8252 60.9216 10.8252C59.788 10.8252 59.3957 11.4055 59.3991 12.1023Z" fill="black"/>
<path fill-rule="evenodd" clip-rule="evenodd" d="M71.3116 10.924C71.5931 10.924 71.8555 10.9964 72.2171 11.1748L72.3828 10.1677C72.2344 10.1106 71.7118 9.77539 71.2692 9.77539C70.591 9.77539 70.0177 10.1051 69.6145 10.6493C69.0265 10.4584 68.7847 10.8442 68.4883 11.2285L68.225 11.2886C68.2449 11.162 68.2629 11.0363 68.2569 10.9091H67.3263C67.1991 12.0769 66.9738 13.2597 66.7974 14.4289L66.7515 14.6824H67.7652C67.9345 13.6051 68.0272 12.9153 68.0835 12.4484L68.4653 12.2404C68.5223 12.0325 68.7008 11.9622 69.059 11.9707C69.0122 12.217 68.987 12.476 68.987 12.7444C68.987 13.9788 69.6667 14.7474 70.7576 14.7474C71.0386 14.7474 71.2798 14.7111 71.6531 14.6119L71.8314 13.5542C71.4956 13.7162 71.22 13.7924 70.9704 13.7924C70.3813 13.7924 70.0249 13.3663 70.0249 12.662C70.0249 11.6404 70.555 10.924 71.3116 10.924Z" fill="black"/>
<path fill-rule="evenodd" clip-rule="evenodd" d="M55.8507 14.4066H54.8371L55.418 10.8404L54.1219 14.4066H53.4312L53.3458 10.8608L52.7357 14.4066H51.7871L52.5795 9.76758H54.0365L54.0775 12.6396L55.0605 9.76758H56.6344L55.8507 14.4066Z" fill="white"/>
<path fill-rule="evenodd" clip-rule="evenodd" d="M79.8909 10.043L79.6662 11.3835C79.3891 11.0262 79.0914 10.7676 78.6984 10.7676C78.187 10.7676 77.7216 11.1474 77.417 11.7065C76.9928 11.6203 76.554 11.474 76.554 11.474L76.5538 11.4774C76.588 11.1648 76.6017 10.9742 76.5987 10.9094H75.6679C75.5411 12.0772 75.3158 13.26 75.1396 14.4292L75.0933 14.6827H76.1068C76.2438 13.8115 76.3486 13.0882 76.4258 12.5145C76.772 12.2079 76.9453 11.9404 77.2952 11.9583C77.1403 12.3253 77.0495 12.7483 77.0495 13.182C77.0495 14.1253 77.5366 14.7476 78.2733 14.7476C78.6446 14.7476 78.9296 14.6222 79.2075 14.3313L79.1601 14.682H80.1186L80.8904 10.043H79.8909ZM78.6236 13.8106C78.2787 13.8106 78.1045 13.5605 78.1045 13.0668C78.1045 12.3252 78.4306 11.7993 78.8903 11.7993C79.2385 11.7993 79.427 12.0594 79.427 12.5386C79.427 13.2866 79.0957 13.8106 78.6236 13.8106Z" fill="black"/>
<path fill-rule="evenodd" clip-rule="evenodd" d="M58.3458 12.7272C58.2396 12.7151 58.1926 12.7119 58.1198 12.7119C57.5454 12.7119 57.2549 12.9049 57.2549 13.286C57.2549 13.5206 57.3968 13.6705 57.6178 13.6705C58.031 13.6705 58.3285 13.2854 58.3458 12.7272ZM59.0831 14.4079H58.2435L58.2626 14.0174C58.0067 14.3259 57.6646 14.4735 57.2007 14.4735C56.6513 14.4735 56.2749 14.0531 56.2749 13.4427C56.2749 12.5238 56.9297 11.9884 58.0542 11.9884C58.169 11.9884 58.3163 11.9986 58.4669 12.0174C58.4983 11.893 58.5066 11.8397 58.5066 11.7724C58.5066 11.5223 58.3302 11.4295 57.8568 11.4295C57.3608 11.424 56.9522 11.5453 56.7841 11.5988C56.7947 11.5363 56.9245 10.751 56.9245 10.751C57.4293 10.6053 57.7628 10.5508 58.1372 10.5508C59.0075 10.5508 59.4686 10.9338 59.4677 11.6567C59.4692 11.8514 59.4363 12.0905 59.3854 12.4045C59.2976 12.951 59.1087 14.123 59.0831 14.4079Z" fill="white"/>
<path fill-rule="evenodd" clip-rule="evenodd" d="M72.6748 9.89332L72.5089 10.9005C72.1475 10.7224 71.8849 10.6498 71.6036 10.6498C70.847 10.6498 70.3166 11.3661 70.3166 12.3878C70.3166 13.092 70.6733 13.5179 71.2622 13.5179C71.5118 13.5179 71.7872 13.4419 72.123 13.2797L71.9451 14.3371C71.5716 14.4368 71.3306 14.4732 71.0494 14.4732C69.9587 14.4732 69.2788 13.7046 69.2788 12.4702C69.2788 10.8116 70.2178 9.65234 71.561 9.65234C72.0034 9.65234 72.5262 9.83621 72.6748 9.89332Z" fill="white"/>
<path fill-rule="evenodd" clip-rule="evenodd" d="M74.3097 12.7272C74.2035 12.7151 74.1567 12.7119 74.0837 12.7119C73.5095 12.7119 73.2188 12.9049 73.2188 13.286C73.2188 13.5206 73.3607 13.6705 73.5819 13.6705C73.9946 13.6705 74.2923 13.2854 74.3097 12.7272ZM75.047 14.4079H74.2072L74.2265 14.0174C73.9704 14.3259 73.6285 14.4735 73.1646 14.4735C72.6153 14.4735 72.2388 14.0531 72.2388 13.4427C72.2388 12.5238 72.8938 11.9884 74.0178 11.9884C74.1329 11.9884 74.28 11.9986 74.4308 12.0174C74.462 11.893 74.4704 11.8397 74.4704 11.7724C74.4704 11.5223 74.2941 11.4295 73.8207 11.4295C73.3249 11.424 72.9161 11.5453 72.7479 11.5988C72.7586 11.5363 72.8886 10.751 72.8886 10.751C73.3934 10.6053 73.7266 10.5508 74.101 10.5508C74.9716 10.5508 75.4324 10.9338 75.4314 11.6567C75.4331 11.8514 75.4004 12.0905 75.3492 12.4045C75.2617 12.951 75.0723 14.123 75.047 14.4079Z" fill="white"/>
<path fill-rule="evenodd" clip-rule="evenodd" d="M63.5869 14.3503C63.3093 14.4359 63.0931 14.473 62.8589 14.473C62.3408 14.473 62.0581 14.1813 62.0581 13.6442C62.0509 13.4771 62.1328 13.0388 62.1972 12.6384C62.2554 12.2856 62.6363 10.0635 62.6363 10.0635H63.6434L63.526 10.6348H64.0429L63.9054 11.5412H63.3867C63.2697 12.2592 63.1026 13.1524 63.1009 13.2711C63.1009 13.4662 63.207 13.5505 63.4478 13.5505C63.5632 13.5505 63.6525 13.5395 63.721 13.5153L63.5869 14.3503Z" fill="white"/>
<path fill-rule="evenodd" clip-rule="evenodd" d="M66.6748 14.3206C66.329 14.4242 65.9947 14.4741 65.6411 14.4735C64.5136 14.4724 63.9258 13.8954 63.9258 12.7903C63.9258 11.5 64.6735 10.5508 65.6886 10.5508C66.5191 10.5508 67.0495 11.0822 67.0495 11.9164C67.0495 12.1932 67.0131 12.4633 66.9255 12.8444H64.9196C64.8518 13.3918 65.2093 13.62 65.7952 13.62C66.1555 13.62 66.4809 13.547 66.8423 13.3818L66.6748 14.3206ZM66.1082 12.0831C66.1143 12.0048 66.2153 11.4097 65.6396 11.4097C65.3189 11.4097 65.0895 11.65 64.9961 12.0831H66.1082Z" fill="white"/>
<path fill-rule="evenodd" clip-rule="evenodd" d="M59.6909 11.8281C59.6909 12.3053 59.9271 12.634 60.4627 12.8816C60.873 13.0705 60.9365 13.1268 60.9365 13.2979C60.9365 13.5332 60.7554 13.6393 60.3548 13.6393C60.0523 13.6393 59.7711 13.593 59.4465 13.4905C59.4465 13.4905 59.3137 14.3221 59.3076 14.3618C59.5375 14.4111 59.7431 14.4561 60.3619 14.4735C61.4314 14.4735 61.925 14.0746 61.925 13.2126C61.925 12.6939 61.7185 12.3896 61.2106 12.161C60.7859 11.9695 60.7368 11.9274 60.7368 11.751C60.7368 11.5472 60.9055 11.4423 61.2329 11.4423C61.4316 11.4423 61.7033 11.4637 61.9611 11.4996L62.1052 10.6242C61.8431 10.5835 61.4453 10.5508 61.2136 10.5508C60.0798 10.5508 59.6877 11.1306 59.6909 11.8281Z" fill="white"/>
<path fill-rule="evenodd" clip-rule="evenodd" d="M80.4107 14.4066H79.4519L79.4996 14.0555C79.2216 14.3468 78.9367 14.4722 78.5653 14.4722C77.8286 14.4722 77.3418 13.85 77.3418 12.9066C77.3418 11.6517 78.0969 10.5937 78.9906 10.5937C79.3837 10.5937 79.6811 10.751 79.958 11.1081L80.1829 9.76758H81.1824L80.4107 14.4066ZM78.9161 13.5348C79.388 13.5348 79.7195 13.0108 79.7195 12.2632C79.7195 11.784 79.5307 11.5239 79.1826 11.5239C78.723 11.5239 78.3965 12.0496 78.3965 12.7914C78.3965 13.2851 78.5711 13.5348 78.9161 13.5348Z" fill="white"/>
<path fill-rule="evenodd" clip-rule="evenodd" d="M75.9601 10.6345C75.8331 11.8022 75.6078 12.985 75.4316 14.1536L75.3853 14.4071H76.3988C76.7613 12.1001 76.8491 11.6495 77.4174 11.706C77.5079 11.2338 77.6765 10.8202 77.8022 10.6115C77.3777 10.5249 77.1407 10.7599 76.8304 11.2064C76.8549 11.0134 76.8998 10.826 76.8909 10.6345H75.9601Z" fill="white"/>
<path fill-rule="evenodd" clip-rule="evenodd" d="M67.6178 10.6345C67.4906 11.8022 67.2653 12.985 67.0891 14.1536L67.043 14.4071H68.057C68.419 12.1001 68.5066 11.6495 69.0747 11.706C69.1657 11.2338 69.3342 10.8202 69.4595 10.6115C69.0354 10.5249 68.7982 10.7599 68.4881 11.2064C68.5126 11.0134 68.557 10.826 68.5486 10.6345H67.6178Z" fill="white"/>
<rect width="39" height="24" rx="2.34425" fill="#0E4595"/>
<path fill-rule="evenodd" clip-rule="evenodd" d="M14.4663 17.0308L16.2011 7.05566H18.9757L17.2398 17.0308H14.4663Z" fill="white"/>
<path fill-rule="evenodd" clip-rule="evenodd" d="M27.2642 7.27052C26.7145 7.06843 25.8531 6.85156 24.7774 6.85156C22.0358 6.85156 20.1045 8.20448 20.088 10.1435C20.0726 11.5768 21.4668 12.3764 22.5192 12.8535C23.5992 13.3425 23.9624 13.6543 23.9572 14.0909C23.9503 14.7595 23.0947 15.065 22.2972 15.065C21.1866 15.065 20.5967 14.9138 19.6855 14.5414L19.3279 14.3828L18.9385 16.6159C19.5866 16.8943 20.7849 17.1356 22.0293 17.1481C24.9459 17.1481 26.8393 15.8106 26.8608 13.7401C26.8713 12.6053 26.1321 11.7418 24.5313 11.0299C23.5614 10.5684 22.9675 10.2605 22.9738 9.79322C22.9738 9.37859 23.4765 8.93523 24.5627 8.93523C25.4701 8.92142 26.1273 9.11531 26.6394 9.3174L26.8881 9.43251L27.2642 7.27052Z" fill="white"/>
<path fill-rule="evenodd" clip-rule="evenodd" d="M34.4037 7.05566H32.2597C31.5955 7.05566 31.0985 7.23329 30.8068 7.88287L26.686 17.0244H29.5996C29.5996 17.0244 30.0761 15.7953 30.1838 15.5254C30.5022 15.5254 33.3326 15.5297 33.7373 15.5297C33.8203 15.8789 34.0749 17.0244 34.0749 17.0244H36.6495L34.4037 7.05566ZM31.002 13.4968C31.2315 12.9221 32.1075 10.7084 32.1075 10.7084C32.0911 10.7349 32.3353 10.1308 32.4754 9.7563L32.663 10.6163C32.663 10.6163 33.1943 12.9974 33.3053 13.4967H31.002V13.4968Z" fill="white"/>
<path fill-rule="evenodd" clip-rule="evenodd" d="M12.1109 7.05566L9.39439 13.858L9.10495 12.4756C8.59926 10.882 7.02366 9.15554 5.26221 8.29118L7.74609 17.0149L10.6818 17.0116L15.05 7.05566H12.1109Z" fill="white"/>
<path fill-rule="evenodd" clip-rule="evenodd" d="M6.85964 7.05566H2.38551L2.3501 7.26321C5.83093 8.08889 8.13416 10.0843 9.09023 12.4818L8.11737 7.8978C7.94941 7.26616 7.46227 7.07768 6.85964 7.05566Z" fill="#F2AE14"/>
<path d="M221.597 0H190.403C190.273 0 190.143 0 190.013 0.000747416C189.904 0.00151748 189.794 0.00271788 189.685 0.00566224C189.446 0.0120266 189.206 0.0259104 188.97 0.0676751C188.731 0.110165 188.508 0.17947 188.291 0.288593C188.077 0.395745 187.882 0.535897 187.712 0.703137C187.543 0.870377 187.401 1.06296 187.292 1.27389C187.182 1.48822 187.111 1.70798 187.069 1.94426C187.026 2.1767 187.012 2.41399 187.005 2.64907C187.003 2.75697 187.001 2.86487 187.001 2.97274C187 3.10096 187 3.22909 187 3.35753V20.6427C187 20.7712 187 20.8991 187.001 21.0275C187.001 21.1354 187.003 21.2433 187.005 21.3512C187.012 21.5861 187.026 21.8234 187.069 22.0557C187.111 22.2921 187.182 22.5118 187.292 22.7261C187.401 22.9371 187.543 23.1299 187.712 23.2969C187.882 23.4644 188.077 23.6045 188.291 23.7114C188.508 23.8208 188.731 23.8902 188.97 23.9326C189.206 23.9741 189.446 23.9882 189.685 23.9946C189.794 23.9971 189.904 23.9985 190.013 23.999C190.143 24 190.273 24 190.403 24H221.597C221.727 24 221.857 24 221.986 23.999C222.096 23.9985 222.205 23.9971 222.315 23.9946C222.553 23.9882 222.794 23.9741 223.03 23.9326C223.269 23.8902 223.491 23.8208 223.709 23.7114C223.923 23.6045 224.118 23.4644 224.287 23.2969C224.457 23.1299 224.599 22.9371 224.708 22.7261C224.818 22.5118 224.889 22.2921 224.931 22.0557C224.974 21.8234 224.988 21.5861 224.994 21.3512C224.997 21.2433 224.998 21.1354 224.999 21.0275C225 20.8991 225 20.7712 225 20.6427V3.35753C225 3.22909 225 3.10096 224.999 2.97274C224.998 2.86487 224.997 2.75697 224.994 2.64907C224.988 2.41399 224.974 2.1767 224.931 1.94426C224.889 1.70798 224.818 1.48822 224.708 1.27389C224.599 1.06296 224.457 0.870377 224.287 0.703137C224.118 0.535897 223.923 0.395745 223.709 0.288593C223.491 0.17947 223.269 0.110165 223.03 0.0676751C222.794 0.0259104 222.553 0.0120266 222.315 0.00566224C222.205 0.00271788 222.096 0.00151748 221.986 0.000747416C221.857 0 221.727 0 221.597 0Z" fill="white"/>
<path d="M221.597 0.799805L221.981 0.800529C222.085 0.801254 222.189 0.802364 222.293 0.805172C222.475 0.810019 222.688 0.819736 222.886 0.854796C223.058 0.885418 223.203 0.931984 223.342 1.00165C223.479 1.0703 223.604 1.16026 223.714 1.26819C223.824 1.37683 223.915 1.50081 223.985 1.63741C224.056 1.77319 224.103 1.91511 224.133 2.08638C224.169 2.27985 224.179 2.49026 224.184 2.67074C224.186 2.77262 224.188 2.8745 224.188 2.97879C224.189 3.10493 224.189 3.23099 224.189 3.35737V20.6426C224.189 20.7689 224.189 20.8948 224.188 21.0236C224.188 21.1255 224.186 21.2273 224.184 21.3294C224.179 21.5096 224.169 21.7199 224.133 21.9157C224.103 22.0846 224.056 22.2265 223.985 22.363C223.915 22.4992 223.824 22.6231 223.714 22.731C223.604 22.8398 223.479 22.9295 223.34 22.9987C223.203 23.0681 223.058 23.1146 222.888 23.1449C222.685 23.1804 222.464 23.1902 222.297 23.1947C222.192 23.197 222.087 23.1984 221.98 23.1989C221.853 23.1999 221.725 23.1999 221.597 23.1999H190.403C190.402 23.1999 190.4 23.1999 190.398 23.1999C190.272 23.1999 190.146 23.1999 190.017 23.1989C189.913 23.1984 189.808 23.197 189.707 23.1948C189.536 23.1902 189.315 23.1805 189.114 23.1451C188.942 23.1146 188.798 23.0681 188.658 22.9978C188.521 22.9292 188.396 22.8396 188.286 22.7306C188.176 22.6229 188.085 22.4995 188.015 22.363C187.945 22.2267 187.898 22.0843 187.867 21.9134C187.831 21.718 187.821 21.5085 187.816 21.3296C187.813 21.2271 187.812 21.1246 187.812 21.0227L187.811 20.722L187.811 20.6426V3.35737L187.811 3.27796L187.812 2.97784C187.812 2.87536 187.813 2.77289 187.816 2.6705C187.821 2.49132 187.831 2.28177 187.867 2.08477C187.898 1.91538 187.945 1.77301 188.015 1.636C188.085 1.50059 188.176 1.37697 188.286 1.26853C188.396 1.16044 188.521 1.0706 188.659 1.00129C188.797 0.931961 188.942 0.885418 189.114 0.854864C189.312 0.819713 189.525 0.810019 189.707 0.80515C189.811 0.802364 189.915 0.801254 190.018 0.800552L190.403 0.799805H221.597" fill="white"/>
<path d="M197.374 8.07153C197.7 7.67004 197.92 7.13096 197.862 6.58008C197.386 6.60344 196.805 6.89008 196.468 7.29188C196.166 7.63596 195.898 8.19762 195.968 8.7254C196.503 8.77116 197.037 8.46175 197.374 8.07153Z" fill="black"/>
<path d="M197.856 8.82825C197.079 8.78262 196.419 9.263 196.048 9.263C195.677 9.263 195.11 8.85124 194.495 8.86234C193.696 8.87393 192.954 9.3198 192.549 10.0289C191.714 11.4476 192.329 13.5519 193.14 14.7073C193.534 15.2789 194.009 15.9083 194.634 15.8857C195.226 15.8628 195.457 15.5081 196.176 15.5081C196.894 15.5081 197.103 15.8857 197.728 15.8743C198.377 15.8628 198.783 15.3024 199.177 14.7302C199.629 14.0786 199.814 13.4494 199.826 13.4149C199.814 13.4034 198.574 12.9343 198.563 11.5274C198.551 10.3494 199.536 9.78912 199.582 9.75437C199.026 8.94276 198.157 8.85124 197.856 8.82825Z" fill="black"/>
<path d="M204.617 7.23438C206.304 7.23438 207.48 8.38202 207.48 10.0529C207.48 11.7297 206.28 12.8834 204.574 12.8834H202.706V15.8148H201.356V7.23438H204.617V7.23438ZM202.706 11.7654H204.255C205.43 11.7654 206.099 11.1411 206.099 10.0589C206.099 8.97671 205.43 8.35828 204.261 8.35828H202.706V11.7654V11.7654Z" fill="black"/>
<path d="M207.833 14.0369C207.833 12.9427 208.682 12.2708 210.189 12.1875L211.925 12.0865V11.6049C211.925 10.9091 211.449 10.4929 210.653 10.4929C209.9 10.4929 209.43 10.8496 209.315 11.4086H208.086C208.158 10.2787 209.134 9.44629 210.702 9.44629C212.239 9.44629 213.221 10.249 213.221 11.5037V15.8147H211.973V14.786H211.943C211.576 15.4818 210.774 15.9218 209.942 15.9218C208.701 15.9218 207.833 15.1606 207.833 14.0369ZM211.925 13.472V12.9784L210.364 13.0735C209.586 13.1271 209.146 13.466 209.146 14.0012C209.146 14.5482 209.605 14.905 210.304 14.905C211.214 14.905 211.925 14.2865 211.925 13.472Z" fill="black"/>
<path d="M214.399 18.1163V17.0757C214.495 17.0994 214.712 17.0994 214.821 17.0994C215.423 17.0994 215.749 16.8497 215.948 16.2075C215.948 16.1956 216.062 15.827 216.062 15.821L213.772 9.55957H215.182L216.786 14.6496H216.81L218.413 9.55957H219.787L217.412 16.142C216.87 17.6584 216.243 18.146 214.929 18.146C214.821 18.146 214.495 18.1341 214.399 18.1163Z" fill="black"/>
<path d="M267.597 0H236.403C236.273 0 236.143 0 236.013 0.000747416C235.904 0.00151748 235.794 0.00271788 235.685 0.00566224C235.446 0.0120266 235.206 0.0259104 234.97 0.0676751C234.731 0.110165 234.508 0.17947 234.291 0.288593C234.077 0.395745 233.882 0.535897 233.712 0.703137C233.543 0.870377 233.401 1.06296 233.292 1.27389C233.182 1.48822 233.111 1.70798 233.069 1.94426C233.026 2.1767 233.012 2.41399 233.005 2.64907C233.003 2.75697 233.001 2.86487 233.001 2.97274C233 3.10096 233 3.22909 233 3.35753V20.6427C233 20.7712 233 20.8991 233.001 21.0275C233.001 21.1354 233.003 21.2433 233.005 21.3512C233.012 21.5861 233.026 21.8234 233.069 22.0557C233.111 22.2921 233.182 22.5118 233.292 22.7261C233.401 22.9371 233.543 23.1299 233.712 23.2969C233.882 23.4644 234.077 23.6045 234.291 23.7114C234.508 23.8208 234.731 23.8902 234.97 23.9326C235.206 23.9741 235.446 23.9882 235.685 23.9946C235.794 23.9971 235.904 23.9985 236.013 23.999C236.143 24 236.273 24 236.403 24H267.597C267.727 24 267.857 24 267.986 23.999C268.096 23.9985 268.205 23.9971 268.315 23.9946C268.553 23.9882 268.794 23.9741 269.03 23.9326C269.269 23.8902 269.491 23.8208 269.709 23.7114C269.923 23.6045 270.118 23.4644 270.287 23.2969C270.457 23.1299 270.599 22.9371 270.708 22.7261C270.818 22.5118 270.889 22.2921 270.931 22.0557C270.974 21.8234 270.988 21.5861 270.994 21.3512C270.997 21.2433 270.998 21.1354 270.999 21.0275C271 20.8991 271 20.7712 271 20.6427V3.35753C271 3.22909 271 3.10096 270.999 2.97274C270.998 2.86487 270.997 2.75697 270.994 2.64907C270.988 2.41399 270.974 2.1767 270.931 1.94426C270.889 1.70798 270.818 1.48822 270.708 1.27389C270.599 1.06296 270.457 0.870377 270.287 0.703137C270.118 0.535897 269.923 0.395745 269.709 0.288593C269.491 0.17947 269.269 0.110165 269.03 0.0676751C268.794 0.0259104 268.553 0.0120266 268.315 0.00566224C268.205 0.00271788 268.096 0.00151748 267.986 0.000747416C267.857 0 267.727 0 267.597 0Z" fill="white"/>
<path d="M267.597 0.799805L267.981 0.800529C268.085 0.801254 268.189 0.802364 268.293 0.805172C268.475 0.810019 268.688 0.819736 268.886 0.854796C269.058 0.885418 269.203 0.931984 269.342 1.00165C269.479 1.0703 269.604 1.16026 269.714 1.26819C269.824 1.37683 269.915 1.50081 269.985 1.63741C270.056 1.77319 270.103 1.91511 270.133 2.08638C270.169 2.27985 270.179 2.49026 270.184 2.67074C270.186 2.77262 270.188 2.8745 270.188 2.97879C270.189 3.10493 270.189 3.23099 270.189 3.35737V20.6426C270.189 20.7689 270.189 20.8948 270.188 21.0236C270.188 21.1255 270.186 21.2273 270.184 21.3294C270.179 21.5096 270.169 21.7199 270.133 21.9157C270.103 22.0846 270.056 22.2265 269.985 22.363C269.915 22.4992 269.824 22.6231 269.714 22.731C269.604 22.8398 269.479 22.9295 269.34 22.9987C269.203 23.0681 269.058 23.1146 268.888 23.1449C268.685 23.1804 268.464 23.1902 268.297 23.1947C268.192 23.197 268.087 23.1984 267.98 23.1989C267.853 23.1999 267.725 23.1999 267.597 23.1999H236.403C236.402 23.1999 236.4 23.1999 236.398 23.1999C236.272 23.1999 236.146 23.1999 236.017 23.1989C235.913 23.1984 235.808 23.197 235.707 23.1948C235.536 23.1902 235.315 23.1805 235.114 23.1451C234.942 23.1146 234.798 23.0681 234.658 22.9978C234.521 22.9292 234.396 22.8396 234.286 22.7306C234.176 22.6229 234.085 22.4995 234.015 22.363C233.945 22.2267 233.898 22.0843 233.867 21.9134C233.831 21.718 233.821 21.5085 233.816 21.3296C233.813 21.2271 233.812 21.1246 233.812 21.0227L233.811 20.722L233.811 20.6426V3.35737L233.811 3.27796L233.812 2.97784C233.812 2.87536 233.813 2.77289 233.816 2.6705C233.821 2.49132 233.831 2.28177 233.867 2.08477C233.898 1.91538 233.945 1.77301 234.015 1.636C234.085 1.50059 234.176 1.37697 234.286 1.26853C234.396 1.16044 234.521 1.0706 234.659 1.00129C234.797 0.931961 234.942 0.885418 235.114 0.854864C235.312 0.819713 235.525 0.810019 235.707 0.80515C235.811 0.802364 235.915 0.801254 236.018 0.800552L236.403 0.799805H267.597" fill="white"/>
<path d="M251.071 11.7752V15.2762H249.964V6.63086H252.899C253.642 6.63086 254.276 6.87969 254.795 7.37734C255.325 7.875 255.591 8.4826 255.591 9.20015C255.591 9.93506 255.325 10.5427 254.795 11.0345C254.282 11.5264 253.648 11.7694 252.899 11.7694H251.071V11.7752ZM251.071 7.69561V10.7105H252.922C253.36 10.7105 253.729 10.56 254.017 10.2649C254.311 9.96978 254.461 9.611 254.461 9.20593C254.461 8.80665 254.311 8.45367 254.017 8.15855C253.729 7.85185 253.365 7.7014 252.922 7.7014H251.071V7.69561Z" fill="#3C4043"/>
<path d="M258.485 9.16602C259.303 9.16602 259.949 9.38591 260.421 9.8257C260.894 10.2655 261.13 10.8673 261.13 11.6311V15.2768H260.076V14.455H260.029C259.574 15.1321 258.963 15.4677 258.202 15.4677C257.551 15.4677 257.009 15.2768 256.571 14.889C256.133 14.5013 255.914 14.021 255.914 13.4424C255.914 12.829 256.144 12.3429 256.605 11.9841C257.066 11.6196 257.683 11.4402 258.45 11.4402C259.107 11.4402 259.649 11.5617 260.07 11.8047V11.5501C260.07 11.1624 259.92 10.8384 259.614 10.5664C259.309 10.2944 258.951 10.1613 258.542 10.1613C257.925 10.1613 257.435 10.4217 257.078 10.9483L256.104 10.3349C256.64 9.55372 257.435 9.16602 258.485 9.16602ZM257.055 13.4597C257.055 13.7491 257.176 13.9921 257.424 14.1831C257.666 14.374 257.954 14.4724 258.283 14.4724C258.75 14.4724 259.165 14.2988 259.528 13.9516C259.891 13.6044 260.076 13.1993 260.076 12.7306C259.73 12.4586 259.251 12.3198 258.634 12.3198C258.185 12.3198 257.81 12.4297 257.51 12.6438C257.205 12.8695 257.055 13.1415 257.055 13.4597Z" fill="#3C4043"/>
<path d="M267.148 9.35645L263.459 17.8744H262.318L263.689 14.8943L261.257 9.35645H262.462L264.214 13.6039H264.237L265.943 9.35645H267.148Z" fill="#3C4043"/>
<path d="M246.669 12.0695C246.669 11.7073 246.636 11.3607 246.576 11.0273H241.937V12.937L244.609 12.9375C244.501 13.5729 244.152 14.1145 243.617 14.4756V15.7146H245.208C246.136 14.8518 246.669 13.5764 246.669 12.0695Z" fill="#4285F4"/>
<path d="M243.618 14.4754C243.175 14.7751 242.605 14.9505 241.938 14.9505C240.65 14.9505 239.557 14.079 239.165 12.9043H237.525V14.182C238.338 15.8011 240.008 16.9122 241.938 16.9122C243.272 16.9122 244.393 16.4718 245.208 15.7137L243.618 14.4754Z" fill="#34A853"/>
<path d="M239.011 11.9566C239.011 11.6268 239.066 11.3079 239.166 11.0082V9.73047H237.525C237.189 10.4 237 11.1557 237 11.9566C237 12.7575 237.19 13.5132 237.525 14.1827L239.166 12.905C239.066 12.6053 239.011 12.2864 239.011 11.9566Z" fill="#FABB05"/>
<path d="M241.938 8.96169C242.666 8.96169 243.318 9.21341 243.833 9.70528L245.242 8.29159C244.386 7.49129 243.27 7 241.938 7C240.009 7 238.338 8.11104 237.525 9.73016L239.165 11.0079C239.557 9.83316 240.65 8.96169 241.938 8.96169Z" fill="#E94235"/>
</svg>
