<svg width="48" height="81" viewBox="0 0 48 81" fill="none" xmlns="http://www.w3.org/2000/svg">
<path d="M5.06055 59.6953C5.32364 60.2801 5.59752 60.8487 5.88126 61.4015C5.7393 61.1251 5.60008 60.8446 5.46323 60.5603C5.32638 60.276 5.1921 59.9877 5.06055 59.6953Z" fill="#000129"/>
<path d="M23.7486 78.3316C23.6663 78.2978 23.5647 78.2551 23.4453 78.2031C23.5647 78.2551 23.6663 78.2978 23.7486 78.3316Z" fill="#000129"/>
<path d="M46.0572 48.5195C45.9058 49.6793 45.7124 50.7986 45.4824 51.8782C45.7124 50.7986 45.9058 49.6793 46.0572 48.5195Z" fill="#000129"/>
<path d="M11.2034 69.137C10.8557 68.7486 10.5102 68.3463 10.168 67.9297C10.5102 68.3463 10.8557 68.7486 11.2034 69.137Z" fill="#000129"/>
<path d="M44.3743 55.9922C44.1605 56.6432 43.9331 57.2772 43.6934 57.8948C43.9331 57.2772 44.1605 56.6432 44.3743 55.9922Z" fill="#000129"/>
<path d="M18.3359 75.344C18.0266 75.1357 17.7097 74.9156 17.3867 74.6836C17.7097 74.9156 18.0266 75.1357 18.3359 75.344Z" fill="#000129"/>
<path d="M40.3133 64.5312C39.8387 65.2671 39.3485 65.9687 38.8477 66.6374C39.3485 65.9687 39.8387 65.2671 40.3133 64.5312Z" fill="#000129"/>
<path d="M24.5553 78.2031C24.4359 78.2549 24.3343 78.2978 24.252 78.3316C24.3343 78.2978 24.4359 78.2549 24.5553 78.2031Z" fill="#000129"/>
<path d="M43.8829 60.1254C41.9683 64.3819 39.2994 68.2201 35.95 71.5338C30.2455 77.177 24.5975 79.3204 24.36 79.4088L23.9999 79.5428L23.64 79.4088C23.4025 79.3204 17.7545 77.177 12.05 71.5338C8.70065 68.2201 6.03149 64.3819 4.1171 60.1254C1.72876 54.8159 0.51797 48.8451 0.51797 42.3788V15.2262L0.890874 14.9142C2.72963 13.376 6.26627 10.6478 10.1817 8.02169C15.4047 4.51862 19.9387 2.07862 23.6575 0.769602L23.9999 0.649016L24.3425 0.769602C28.0613 2.07862 32.5953 4.51862 37.8183 8.02169C41.7337 10.6478 45.2704 13.376 47.1091 14.9142L47.482 15.2262V42.3788C47.482 48.8451 46.2711 54.8159 43.8829 60.1254ZM47.9998 15.7137V14.9823L47.4406 14.5145C47.3132 14.408 34.6005 3.82905 24.5137 0.278628L23.9999 0.0976562L23.4861 0.278628C19.7262 1.60196 15.1533 4.0616 9.89408 7.5889C5.9617 10.2264 2.40788 12.9679 0.559446 14.5145L0 14.9823V42.3788C0 48.9195 1.22632 54.9624 3.64499 60.3396C5.58606 64.6548 8.29157 68.5457 11.6866 71.9044C17.4693 77.6252 23.2181 79.8066 23.46 79.8967L23.9999 80.0977L24.54 79.8967C24.7819 79.8066 30.5306 77.6252 36.3132 71.9044C39.7084 68.5457 42.4139 64.6548 44.3548 60.3396C46.7735 54.9624 48 48.9195 48 42.3788L47.9998 15.7137Z" fill="#000129"/>
<path d="M42.9399 59.6953C42.6768 60.2801 42.4029 60.8487 42.1191 61.4015C42.4029 60.8487 42.6768 60.2801 42.9399 59.6953Z" fill="#000129"/>
<path d="M30.613 74.6836C30.29 74.9156 29.9732 75.1357 29.6641 75.344C29.9732 75.1357 30.29 74.9156 30.613 74.6836Z" fill="#000129"/>
<path d="M12.7773 70.793C13.3034 71.3135 13.8295 71.8034 14.351 72.2642C14.0033 71.957 13.6536 71.6369 13.3034 71.3034C13.1281 71.1366 12.9527 70.9664 12.7773 70.793Z" fill="#000129"/>
<path d="M3.625 55.9922C3.83877 56.6432 4.06605 57.2772 4.30595 57.8948C4.18609 57.5861 4.06916 57.2731 3.9557 56.956C3.84205 56.639 3.73188 56.3176 3.625 55.9922Z" fill="#000129"/>
<path d="M11.2031 69.1367C11.7246 69.7191 12.2506 70.2701 12.7768 70.7904C12.6014 70.617 12.426 70.4401 12.2508 70.2598C11.9005 69.8993 11.5508 69.5251 11.2031 69.1367Z" fill="#000129"/>
<path d="M19.6719 76.207C19.9554 76.381 20.2295 76.544 20.4926 76.696C20.361 76.62 20.2268 76.5413 20.0899 76.4598C19.9531 76.3783 19.8137 76.294 19.6719 76.207Z" fill="#000129"/>
<path d="M7.6875 64.5312C8.16217 65.2671 8.65237 65.9687 9.15317 66.6374C8.81937 66.1917 8.49013 65.7312 8.1671 65.2557C8.00559 65.018 7.84572 64.7765 7.6875 64.5312Z" fill="#000129"/>
<path d="M35.2266 70.7904C35.7526 70.2699 36.2788 69.7191 36.8002 69.1367C36.6265 69.3307 36.452 69.5214 36.2773 69.7086C35.928 70.0831 35.5774 70.4435 35.2266 70.7904Z" fill="#000129"/>
<path d="M33.6484 72.2642C34.1699 71.8035 34.6961 71.3135 35.2221 70.793C35.0467 70.9666 34.8713 71.1366 34.6961 71.3034C34.3458 71.6369 33.9961 71.9572 33.6484 72.2642Z" fill="#000129"/>
<path d="M27.5078 76.696C27.7709 76.544 28.0448 76.381 28.3285 76.207C28.1866 76.294 28.0473 76.3783 27.9105 76.4598C27.7737 76.5413 27.6394 76.62 27.5078 76.696Z" fill="#000129"/>
<path d="M2.1085 49.6658C2.04901 49.2882 1.99389 48.9061 1.94336 48.5195C2.09478 49.6792 2.28787 50.7984 2.51815 51.8782C2.44147 51.5184 2.36898 51.1541 2.30051 50.7853C2.23224 50.4166 2.16817 50.0434 2.1085 49.6658Z" fill="#000129"/>
<path d="M36.7969 69.137C37.1446 68.7486 37.4901 68.3463 37.8323 67.9297C37.6613 68.138 37.4891 68.3428 37.3167 68.544C37.144 68.7452 36.9706 68.9428 36.7969 69.137Z" fill="#000129"/>
<path d="M46.0563 48.5208C45.9049 49.6806 45.7116 50.7998 45.4816 51.8794C45.1746 53.3191 44.8019 54.6885 44.3745 55.9904C44.1608 56.6414 43.9333 57.2756 43.6936 57.893C43.5737 58.2019 43.4508 58.5064 43.3249 58.807C43.199 59.1075 43.0702 59.4039 42.9387 59.6965C42.6757 60.2812 42.4017 60.8498 42.1181 61.4025C41.8346 61.9551 41.5413 62.492 41.2398 63.0134C40.9386 63.5347 40.6289 64.0405 40.3124 64.5311C39.8378 65.2669 39.3476 65.9686 38.8466 66.6373C38.6798 66.8601 38.5115 67.0792 38.3423 67.2949C38.1731 67.5104 38.003 67.7224 37.8318 67.9307C37.4896 68.3473 37.1441 68.7496 36.7964 69.138C36.275 69.7204 35.749 70.2714 35.2228 70.7917C34.6968 71.3122 34.1706 71.8023 33.6491 72.263C33.3016 72.5701 32.956 72.8643 32.6137 73.1456C32.1005 73.5678 31.595 73.9615 31.1019 74.3276C30.9374 74.4497 30.7744 74.5688 30.6129 74.6848C30.2899 74.9168 29.9731 75.1369 29.6638 75.3452C29.3546 75.5535 29.0528 75.7501 28.7599 75.9355C28.6136 76.0282 28.4694 76.1179 28.3276 76.2049C28.0439 76.3791 27.77 76.5419 27.5069 76.6939C27.2438 76.846 26.9919 76.9872 26.752 77.1178C25.793 77.6406 25.0313 77.9952 24.5546 78.2031C24.4353 78.2551 24.334 78.2978 24.2518 78.332C24.0874 78.3999 23.9997 78.4326 23.9997 78.4326C23.9997 78.4326 23.912 78.3999 23.7476 78.332C23.6653 78.2978 23.5639 78.2551 23.4448 78.2031C22.8488 77.9432 21.8078 77.4541 20.4925 76.6939C20.2294 76.5419 19.9555 76.3791 19.6718 76.2049C19.53 76.1179 19.3858 76.0282 19.2395 75.9355C18.9466 75.7501 18.6448 75.5535 18.3356 75.3452C18.0263 75.1369 17.7095 74.9168 17.3865 74.6848C16.7406 74.2206 16.0699 73.7086 15.3857 73.1456C15.0434 72.8643 14.6979 72.5701 14.3503 72.263C13.8288 71.8023 13.3026 71.3122 12.7766 70.7917C12.2504 70.2714 11.7244 69.7204 11.203 69.138C10.8553 68.7496 10.5098 68.3473 10.1676 67.9307C9.82536 67.514 9.48662 67.0829 9.15264 66.6373C8.65184 65.9686 8.16164 65.2669 7.68697 64.5311C7.37052 64.0405 7.06083 63.5347 6.75955 63.0134C6.60882 62.7528 6.46009 62.4881 6.31375 62.2198C6.1674 61.9513 6.02306 61.6789 5.88128 61.4025C5.59772 60.8498 5.32366 60.2812 5.06075 59.6965C4.9292 59.4039 4.80039 59.1075 4.67451 58.807C4.54862 58.5064 4.42566 58.2019 4.30581 57.893C4.0661 57.2756 3.83863 56.6414 3.62486 55.9904C3.51798 55.665 3.41457 55.3353 3.31481 55.0013C3.01517 53.9993 2.74806 52.9592 2.51803 51.8794C2.28782 50.7998 2.0947 49.6806 1.94305 48.5208C1.69037 46.5877 1.55352 44.542 1.55352 42.3782V15.7131C2.60646 14.8322 4.58937 13.2587 7.08166 11.4517C7.19494 11.3696 7.30931 11.287 7.4246 11.2039C8.19544 10.6491 9.01195 10.0744 9.86135 9.49311C9.94302 9.43732 10.0247 9.38152 10.1069 9.32554C10.2794 9.20808 10.4533 9.09061 10.6284 8.97277C10.8454 8.82686 11.0643 8.68058 11.285 8.53448C11.5041 8.3893 11.7244 8.24411 11.9466 8.0993C12.0807 8.01194 12.2152 7.92457 12.3502 7.83739C12.5374 7.71643 12.726 7.59585 12.9153 7.47563C13.0826 7.36917 13.2506 7.26291 13.4192 7.157C13.5569 7.07055 13.6953 6.98429 13.8337 6.89821C14.3009 6.6084 14.7718 6.3217 15.2453 6.03978C15.4666 5.90819 15.6886 5.77787 15.9109 5.64847C16.2515 5.45043 16.5926 5.25478 16.9345 5.06298C19.3354 3.71578 21.7552 2.54112 23.9997 1.75097C26.2442 2.54112 28.664 3.71578 31.0649 5.06298C31.4886 5.30066 31.9118 5.54386 32.3333 5.79109C32.4736 5.8735 32.6139 5.95646 32.7541 6.03978C33.3144 6.3731 33.8711 6.71338 34.4216 7.05752C34.697 7.2295 34.9708 7.40258 35.2427 7.57639C35.6507 7.83702 36.0545 8.09912 36.4529 8.36158C36.8516 8.62405 37.245 8.88669 37.6321 9.14861C37.8901 9.32316 38.1454 9.49752 38.3975 9.67097C39.6583 10.5386 40.8417 11.3882 41.9078 12.1767C43.2938 13.2018 44.482 14.1235 45.3855 14.8472C45.4549 14.9028 45.5227 14.9573 45.5888 15.0106C45.9193 15.2769 46.2065 15.5129 46.4459 15.7131V42.3782C46.4459 44.542 46.3088 46.5877 46.0563 48.5208ZM47.4818 15.2257L47.1087 14.9136C45.27 13.3754 41.7335 10.6472 37.8181 8.02111C32.5949 4.51804 28.0611 2.07804 24.3423 0.769027L23.9997 0.648438L23.6571 0.769027C19.9383 2.07804 15.4045 4.51804 10.1813 8.02111C6.26588 10.6472 2.72942 13.3754 0.890665 14.9136L0.517762 15.2257V15.7131L0.517578 42.3782C0.517578 48.8446 1.72856 54.8154 4.11671 60.1248C6.03128 64.3814 8.70044 68.2196 12.0498 71.5332C17.7541 77.1764 23.4021 79.3198 23.6398 79.4083L23.9997 79.5422L24.3596 79.4083C24.5973 79.3198 30.2453 77.1764 35.9496 71.5332C39.2991 68.2196 41.9681 64.3814 43.8827 60.1248C46.2708 54.8154 47.4818 48.8446 47.4818 42.3782V15.2257Z" fill="#4D5871"/>
<path d="M27.0114 61.6711C27.2281 59.8204 26.6427 59.5216 26.6427 59.5216C26.8381 60.5588 26.5982 62.3219 25.736 63.5102C25.7731 62.9248 25.518 62.5179 25.518 62.5179C25.518 62.5179 25.4206 64.0079 24.0052 65.2296C22.5896 64.0079 22.4922 62.5179 22.4922 62.5179C22.4922 62.5179 22.2372 62.9248 22.2744 63.5102C21.4122 62.3219 21.1722 60.5588 21.3677 59.5216C21.3677 59.5216 20.7821 59.8204 20.9988 61.6711C19.4083 59.2067 20.5007 56.8371 23.6899 56.6914C18.8518 56.8393 17.1729 60.3815 19.553 64.0694C19.232 61.3286 20.0991 60.8862 20.0991 60.8862C19.8097 62.4221 20.1651 65.0332 21.442 66.7928C21.387 65.9259 21.7647 65.3234 21.7647 65.3234C21.7647 65.3234 22.2837 68.006 24.0052 68.006C25.7265 68.006 26.2455 65.3234 26.2455 65.3234C26.2455 65.3234 26.6234 65.9259 26.5682 66.7928C27.8451 65.0332 28.2007 62.4221 27.9111 60.8862C27.9111 60.8862 28.7782 61.3286 28.4572 64.0694C30.8373 60.3815 29.1586 56.8393 24.3206 56.6914C27.5095 56.8371 28.6019 59.2067 27.0114 61.6711Z" fill="#B5BABC"/>
<path d="M23.1145 70.2647C23.0604 69.6926 24.0062 69.7553 24.0062 69.7553C24.0062 69.7553 24.9521 69.6926 24.898 70.2647C24.801 71.2921 24.0062 71.6065 24.0062 71.6065C24.0062 71.6065 23.2115 71.2921 23.1145 70.2647ZM25.8477 70.4073C25.9592 69.226 24.0062 69.3558 24.0062 69.3558C24.0062 69.3558 22.0533 69.226 22.1648 70.4073C22.3652 72.5288 24.0062 73.1782 24.0062 73.1782C24.0062 73.1782 25.6475 72.5288 25.8477 70.4073Z" fill="#B5BABC"/>
<path d="M24.8982 70.2636C24.9522 69.6915 24.0064 69.7543 24.0064 69.7543C24.0064 69.7543 23.0605 69.6915 23.1146 70.2636C23.2116 71.2911 24.0064 71.6055 24.0064 71.6055C24.0064 71.6055 24.8011 71.2911 24.8982 70.2636Z" fill="white"/>
<path d="M20.9986 61.6704C20.7819 59.8198 21.3675 59.521 21.3675 59.521C21.172 60.5582 21.4119 62.3213 22.2741 63.5095C22.237 62.9242 22.492 62.5173 22.492 62.5173C22.492 62.5173 22.5894 64.0073 24.0048 65.2289C25.4204 64.0073 25.5178 62.5173 25.5178 62.5173C25.5178 62.5173 25.7729 62.9242 25.7356 63.5095C26.598 62.3213 26.8379 60.5582 26.6424 59.521C26.6424 59.521 27.228 59.8198 27.0113 61.6704C28.6017 59.206 27.5093 56.8365 24.3202 56.6908C24.2173 56.686 24.1123 56.6836 24.0048 56.6836C23.8976 56.6836 23.7925 56.686 23.6897 56.6908C20.5005 56.8365 19.4081 59.206 20.9986 61.6704Z" fill="white"/>
<path d="M20.8021 69.2883C20.7787 69.1783 20.7794 69.0137 20.8025 68.8702C20.8065 68.8458 20.8116 68.8226 20.8169 68.7999C20.833 68.7292 20.8551 68.6683 20.8836 68.6281C20.868 68.6673 20.8595 68.7132 20.8551 68.7701C20.8765 68.7551 20.9008 68.7395 20.9305 68.7241C20.9305 68.7241 22.0756 68.1228 24.0007 68.1228C25.9257 68.1228 27.0707 68.7241 27.0707 68.7241C27.1 68.7382 27.1245 68.7518 27.1447 68.7646C27.1398 68.7037 27.1296 68.6554 27.1109 68.6147C27.1506 68.6547 27.1773 68.7224 27.1941 68.8021C27.1985 68.8228 27.2025 68.8434 27.2054 68.8654C27.2217 68.9874 27.2176 69.1251 27.1964 69.2314C27.1736 69.3463 27.1345 69.4147 27.0918 69.4147C27.0854 69.4147 27.0788 69.4134 27.0722 69.4105C27.0605 69.4059 25.9042 68.9564 24 68.9564C22.096 68.9564 20.9395 69.4059 20.9282 69.4105C20.9145 69.4184 20.9022 69.4223 20.8909 69.4223C20.852 69.4223 20.8205 69.3747 20.8021 69.2883ZM20.9296 69.4153C20.9296 69.4153 22.0746 68.9617 23.9998 68.9617C25.925 68.9617 27.0698 69.4153 27.0698 69.4153C27.1003 69.4287 27.1272 69.4125 27.1495 69.3782C27.1506 69.3766 27.1513 69.3736 27.1524 69.372C27.2452 69.2187 27.256 68.7316 27.1055 68.6016C27.1005 68.5972 27.0949 68.5947 27.0896 68.5912C27.083 68.5866 27.077 68.5813 27.0698 68.5781C27.0698 68.5781 25.925 68.0547 23.9998 68.0547C22.0746 68.0547 20.9296 68.5781 20.9296 68.5781C20.9271 68.5794 20.9249 68.5827 20.9225 68.5844C20.9108 68.5914 20.8997 68.6 20.8894 68.6123C20.7676 68.758 20.7416 69.2628 20.8379 69.3949C20.8406 69.3988 20.8439 69.4013 20.8469 69.4046C20.869 69.4281 20.8962 69.4351 20.9296 69.4153Z" fill="#FBC333"/>
<path d="M27.07 68.8334C27.07 68.8334 25.9249 68.3125 24 68.3125C22.0748 68.3125 20.9298 68.8334 20.9298 68.8334C20.8972 68.8483 20.872 68.8571 20.8501 68.8633C20.8492 68.9197 20.8497 68.9835 20.8503 69.0595C20.8527 69.3117 20.9586 69.241 20.9586 69.241C20.9586 69.241 22.0925 68.6858 23.999 68.6858C25.9054 68.6858 27.0395 69.241 27.0395 69.241C27.0395 69.241 27.1454 69.3117 27.1478 69.0595C27.1483 68.983 27.1489 68.9187 27.148 68.8622C27.1255 68.8569 27.1003 68.8486 27.07 68.8334Z" fill="#FBC333"/>
<path d="M20.8832 68.6289C20.8547 68.669 20.8327 68.7298 20.8164 68.8001C20.8268 68.7907 20.8402 68.7808 20.8547 68.7706C20.8591 68.7138 20.8677 68.6679 20.8832 68.6289Z" fill="#E3A500"/>
<path d="M27.1113 68.6172C27.13 68.6578 27.1401 68.706 27.1452 68.7669C27.1664 68.7803 27.1823 68.7927 27.1946 68.8043C27.1778 68.7248 27.1509 68.6573 27.1113 68.6172Z" fill="#E3A500"/>
<path d="M20.8913 69.4244C20.9026 69.4244 20.9149 69.4206 20.9286 69.4127C20.9399 69.4081 22.0964 68.9586 24.0004 68.9586C25.9044 68.9586 27.0609 69.4081 27.0726 69.4127C27.0792 69.4156 27.0858 69.4169 27.092 69.4169C27.1347 69.4169 27.174 69.3484 27.1969 69.2335C27.2179 69.1273 27.2221 68.9896 27.2058 68.8676C27.1934 68.8714 27.1733 68.8696 27.1494 68.8639C27.1503 68.9204 27.1497 68.9847 27.1492 69.0612C27.1468 69.3134 27.0408 69.2427 27.0408 69.2427C27.0408 69.2427 25.907 68.6875 24.0004 68.6875C22.0941 68.6875 20.96 69.2427 20.96 69.2427C20.96 69.2427 20.854 69.3134 20.8517 69.0612C20.8511 68.9852 20.8506 68.9213 20.8515 68.865C20.8303 68.871 20.8146 68.8731 20.8029 68.8723C20.7797 69.0159 20.7789 69.1805 20.8025 69.2904C20.8208 69.3769 20.8524 69.4244 20.8913 69.4244Z" fill="#E3A500"/>
<path d="M20.9312 68.8351C20.9312 68.8351 22.0762 68.3142 24.0012 68.3142C25.9264 68.3142 27.0714 68.8351 27.0714 68.8351C27.1017 68.8504 27.1269 68.8586 27.1492 68.8639C27.1733 68.8696 27.1934 68.8715 27.2057 68.8676C27.2027 68.8456 27.1987 68.825 27.1943 68.8045C27.1821 68.7929 27.1662 68.7804 27.145 68.7668C27.1247 68.754 27.1004 68.7404 27.071 68.7263C27.071 68.7263 25.9262 68.125 24.001 68.125C22.0758 68.125 20.9308 68.7263 20.9308 68.7263C20.901 68.7419 20.8767 68.7573 20.8554 68.7724C20.8409 68.7826 20.8276 68.7927 20.8172 68.8021C20.8119 68.825 20.8068 68.848 20.8027 68.8724C20.8144 68.8733 20.8301 68.8713 20.8515 68.865C20.8733 68.8588 20.8987 68.85 20.9312 68.8351Z" fill="#FEE749"/>
<path d="M16.0401 48.2344C15.5057 48.4822 14.9148 48.7789 14.3111 49.1227C14.2651 49.3777 14.2402 49.6409 14.2402 49.9103C14.2402 50.3958 14.319 50.861 14.463 51.2931C14.9846 50.9099 15.4814 50.5927 15.9432 50.3284C15.8837 50.0518 15.8486 49.7631 15.8486 49.4639C15.8486 49.0297 15.918 48.6161 16.0401 48.2344Z" fill="#B5BABC"/>
<path d="M16.2495 51.21C15.8449 51.5706 15.4277 51.9679 15.0215 52.3946C15.4083 52.939 15.9191 53.375 16.5086 53.6545C16.8599 53.2491 17.2035 52.893 17.5311 52.5813C16.995 52.2974 16.5482 51.8141 16.2495 51.21Z" fill="#B5BABC"/>
<path d="M14.7637 47.8385C15.3715 47.6596 15.9182 47.5403 16.3883 47.4625C16.8973 46.6154 17.7182 46.0628 18.6475 46.0628C20.193 46.0628 21.4458 47.5854 21.4458 49.4638C21.4458 51.3422 20.193 52.8648 18.6475 52.8648C18.5607 52.8648 18.4753 52.8584 18.3908 52.849C18.1393 53.1963 17.879 53.574 17.6223 53.976C17.7577 53.9918 17.8949 54.0004 18.0343 54.0004C20.1294 54.0004 21.8278 52.1692 21.8278 49.9103C21.8278 47.8956 20.4762 46.2223 18.6975 45.8838C18.4821 45.8429 18.2607 45.8203 18.0343 45.8203C17.9855 45.8203 17.9373 45.8223 17.889 45.8242C16.5564 45.8783 15.4 46.6732 14.7637 47.8385Z" fill="#B5BABC"/>
<path d="M21.4443 49.4635C21.4443 47.5852 20.1915 46.0625 18.646 46.0625C17.7169 46.0625 16.8958 46.6151 16.3868 47.4622C17.5684 47.2667 18.2713 47.3273 18.2713 47.3273C18.2713 47.3273 17.3188 47.6406 16.0391 48.234C15.9171 48.6157 15.8477 49.0294 15.8477 49.4635C15.8477 49.7629 15.8826 50.0516 15.9423 50.328C17.7357 49.302 18.9895 49.0915 18.9895 49.0915C18.9895 49.0915 17.7018 49.9141 16.2481 51.2101C16.5467 51.8145 16.9934 52.2974 17.5296 52.5815C19.0076 51.176 20.156 50.6754 20.156 50.6754C20.156 50.6754 19.3372 51.5401 18.3893 52.8488C18.4739 52.8581 18.5594 52.8645 18.646 52.8645C20.1915 52.8645 21.4443 51.3419 21.4443 49.4635Z" fill="white"/>
<path d="M16.8369 32.5766C15.0123 31.9922 13.5889 31.0858 13.0675 30.7233C12.5462 30.3606 11.8646 29.9578 11.7042 30.1189C11.5438 30.28 11.8044 30.9247 12.3459 31.3879C12.8871 31.8512 13.4084 32.6368 16.8369 32.5766Z" fill="#EB5437"/>
<path d="M12.7293 36.2024C14.7387 36.2024 16.4021 35.3517 17.2471 34.1667C15.8472 34.6124 12.4905 35.4078 11.0238 34.3952C11.7403 34.3952 12.198 34.3035 13.4947 33.7549C11.9592 33.035 10.9355 32.3152 10.1166 29.9842C9.83782 30.569 9.7229 31.3964 9.84367 32.4866C9.05237 31.3964 8.86089 30.3571 8.6833 29.0586C8.44213 29.322 8.23128 29.6393 8.0579 29.9906C7.88816 31.4079 7.76904 32.4192 8.74049 33.457C8.45473 33.309 7.63822 32.8265 7.59675 31.5856C7.57391 31.7972 7.56587 32.0118 7.57263 32.2278C7.57628 32.2937 7.57975 32.3589 7.58323 32.4233C7.58542 32.4611 7.58944 32.4987 7.59291 32.5362C7.59675 32.5741 7.59985 32.612 7.60478 32.6499C7.85327 34.608 9.91108 36.2024 12.7293 36.2024Z" fill="#B5BABC"/>
<path d="M11.9668 46.91C12.7557 45.6927 12.9956 44.4179 12.9445 43.2234C12.9501 43.866 12.8444 44.5192 12.5641 45.1397C12.7406 43.1984 12.584 41.6016 11.5745 39.9503C11.3474 39.6783 11.0838 39.4072 10.7754 39.1445C12.1561 41.229 12.5137 44.3505 11.9668 46.91Z" fill="#B5BABC"/>
<path d="M12.5633 45.1405C12.8435 44.5201 12.9494 43.8669 12.9436 43.2242C12.9436 43.2085 12.9434 43.1924 12.9431 43.1767C12.9132 42.7337 12.7252 41.3304 11.5737 39.9512C12.5831 41.6026 12.7397 43.1992 12.5633 45.1405Z" fill="white"/>
<path d="M8.74139 33.4548C7.76995 32.4171 7.88907 31.4058 8.05881 29.9883C7.82202 30.4681 7.65923 31.0132 7.59766 31.5834C7.63931 32.8244 8.45564 33.3069 8.74139 33.4548Z" fill="white"/>
<path d="M7.29825 48.2524C6.11103 52.0089 6.59447 54.977 7.12651 56.3464C6.91567 52.8749 7.6622 51.116 8.42993 49.1233C8.70272 48.4157 8.90899 47.5131 9.02958 46.5361C9.07763 45.7744 9.07379 45.0595 9.02921 44.3879C9.12239 45.9757 8.88908 46.7831 8.53865 47.7544C7.88602 49.5629 7.06567 51.0184 6.89539 54.1883C6.74812 52.2134 6.85355 50.5206 8.29784 46.5756C9.2227 44.0497 8.7568 42.9958 8.88524 43.0609C8.69175 41.8026 8.36288 40.7149 8.00021 39.7656C8.47269 44.3822 8.21434 45.3537 7.29825 48.2524Z" fill="#B5BABC"/>
<path d="M8.29948 46.5761C6.85501 50.5211 6.74977 52.2139 6.89703 54.189C7.06731 51.0189 7.88766 49.5634 8.54029 47.755C8.89072 46.7836 9.12403 45.9763 9.03085 44.3884C9.0283 44.3492 9.02629 44.3093 9.02336 44.2702C9.02135 44.2407 9.01861 44.2091 9.01642 44.179C8.98554 43.7923 8.94188 43.4197 8.88688 43.0614C8.75826 42.9963 9.22434 44.0502 8.29948 46.5761Z" fill="white"/>
<path d="M9.56947 58.2635C8.84522 60.4128 9.24572 62.0702 9.64201 62.8258C9.41618 60.8773 9.88555 59.8655 10.3642 58.7213C10.5373 58.3078 10.6566 57.781 10.715 57.2161C10.7646 55.6237 10.3407 54.4143 9.85047 53.4648C10.2822 56.0506 10.1282 56.6051 9.56947 58.2635Z" fill="#B5BABC"/>
<path d="M12.4398 63.2871C12.0052 65.1409 12.3554 66.5092 12.6679 67.1193C12.4312 65.4951 12.7278 64.6141 13.0258 63.6214C13.2114 63.0025 13.2743 62.1138 13.1878 61.2695C13.0431 60.4991 12.7724 59.8707 12.4756 59.3438C12.8595 61.3943 12.7693 61.8823 12.4398 63.2871Z" fill="#B5BABC"/>
<path d="M38.3584 62.8258C38.7547 62.0702 39.155 60.4128 38.4309 58.2635C37.872 56.6051 37.7182 56.0506 38.1497 53.4648C37.6597 54.4143 37.2358 55.6237 37.2852 57.2161C37.3438 57.781 37.4631 58.3078 37.6361 58.7213C38.1147 59.8655 38.5842 60.8773 38.3584 62.8258Z" fill="#B5BABC"/>
<path d="M34.9739 63.6214C35.2719 64.6141 35.5682 65.495 35.3316 67.1193C35.644 66.509 35.9943 65.1409 35.5598 63.2871C35.2304 61.8823 35.1401 61.3943 35.5238 59.3438C35.2271 59.8707 34.9565 60.4991 34.8116 61.2693C34.7252 62.1136 34.7881 63.0025 34.9739 63.6214Z" fill="#B5BABC"/>
<path d="M40.8731 56.3462C41.4053 54.977 41.8886 52.0088 40.7016 48.2522C39.7855 45.3537 39.5271 44.3822 39.9996 39.7656C39.6367 40.7147 39.3079 41.8024 39.1146 43.0607C39.243 42.9956 38.7769 44.0495 39.7018 46.5754C41.1463 50.5204 41.2517 52.2134 41.1042 54.1883C40.934 51.0182 40.1136 49.5629 39.4612 47.7544C39.1106 46.783 38.8772 45.9757 38.9704 44.3877C38.926 45.0595 38.922 45.7742 38.9701 46.5359C39.0908 47.5131 39.2971 48.4157 39.5697 49.1231C40.3376 51.1158 41.084 52.8749 40.8731 56.3462Z" fill="#B5BABC"/>
<path d="M39.4605 47.755C40.1131 49.5634 40.9335 51.0187 41.1038 54.1888C41.251 52.2139 41.1456 50.5209 39.7013 46.5761C38.7765 44.05 39.2424 42.9961 39.1139 43.0614C39.0587 43.4197 39.0151 43.7921 38.9844 44.1788C38.982 44.2091 38.9794 44.2405 38.9774 44.2703C38.9745 44.3092 38.9725 44.349 38.9698 44.3883C38.8768 45.9763 39.1099 46.7835 39.4605 47.755Z" fill="white"/>
<path d="M32.0558 50.3284C32.5179 50.5927 33.0147 50.9099 33.5363 51.2929C33.6801 50.861 33.759 50.3958 33.759 49.9103C33.759 49.6409 33.7342 49.3777 33.6879 49.1227C33.0843 48.7789 32.4936 48.4822 31.959 48.2344C32.081 48.6161 32.1506 49.0297 32.1506 49.4639C32.1506 49.7631 32.1156 50.0518 32.0558 50.3284Z" fill="#B5BABC"/>
<path d="M29.3522 52.8648C27.8067 52.8648 26.5539 51.3422 26.5539 49.4638C26.5539 47.5854 27.8067 46.0628 29.3522 46.0628C30.2813 46.0628 31.1024 46.6154 31.6114 47.4625C32.0815 47.5403 32.6282 47.6596 33.236 47.8385C32.5995 46.6732 31.4433 45.8783 30.1105 45.8242C30.0622 45.8221 30.0142 45.8203 29.9654 45.8203C29.739 45.8203 29.5176 45.8429 29.302 45.8838C27.5234 46.2223 26.1719 47.8956 26.1719 49.9103C26.1719 52.1692 27.8703 54.0004 29.9654 54.0004C30.1046 54.0004 30.242 53.9918 30.3774 53.976C30.1207 53.574 29.8603 53.1963 29.6089 52.849C29.5244 52.8584 29.4388 52.8648 29.3522 52.8648Z" fill="#B5BABC"/>
<path d="M30.4686 52.5852C30.7963 52.8969 31.1399 53.2532 31.4912 53.6587C32.0806 53.379 32.5913 52.9429 32.978 52.3984C32.5718 51.9719 32.1549 51.5746 31.7503 51.214C31.4515 51.8182 31.0048 52.3013 30.4686 52.5852Z" fill="#B5BABC"/>
<path d="M29.353 46.0625C27.8075 46.0625 26.5547 47.5852 26.5547 49.4635C26.5547 51.3419 27.8075 52.8645 29.353 52.8645C29.4396 52.8645 29.5251 52.8581 29.6097 52.8488C28.6618 51.5401 27.8428 50.6754 27.8428 50.6754C27.8428 50.6754 28.9914 51.176 30.4693 52.5815C31.0054 52.2974 31.4523 51.8145 31.7508 51.2101C30.2972 49.9141 29.0095 49.0915 29.0095 49.0915C29.0095 49.0915 30.2631 49.302 32.0567 50.328C32.1164 50.0516 32.1513 49.7629 32.1513 49.4635C32.1513 49.0294 32.0819 48.6157 31.9599 48.234C30.6802 47.6406 29.7277 47.3273 29.7277 47.3273C29.7277 47.3273 30.4306 47.2667 31.6122 47.4622C31.1032 46.6151 30.2821 46.0625 29.353 46.0625Z" fill="white"/>
<path d="M34.9325 30.723C34.4113 31.0854 32.9878 31.992 31.1631 32.5761C34.5916 32.6365 35.1131 31.851 35.6544 31.3877C36.1958 30.9244 36.4563 30.2799 36.2958 30.1187C36.1355 29.9576 35.4538 30.3605 34.9325 30.723Z" fill="#EB5437"/>
<path d="M35.2697 36.2024C38.088 36.2024 40.1458 34.608 40.3944 32.6499C40.3992 32.612 40.4023 32.5741 40.4061 32.5362C40.4096 32.4987 40.4136 32.4611 40.4158 32.4233C40.4193 32.3589 40.4229 32.2937 40.4264 32.2278C40.4332 32.0118 40.4251 31.7972 40.4023 31.5856C40.3608 32.8265 39.5445 33.309 39.2586 33.457C40.2302 32.4192 40.1109 31.4079 39.9413 29.9906C39.7678 29.6393 39.5569 29.322 39.3158 29.0586C39.1382 30.3571 38.9467 31.3964 38.1554 32.4866C38.2762 31.3964 38.1612 30.569 37.8824 29.9842C37.0635 32.3152 36.0398 33.035 34.5044 33.7549C35.801 34.3035 36.2587 34.3952 36.9753 34.3952C35.5087 35.4078 32.1518 34.6124 30.752 34.1667C31.597 35.3517 33.2603 36.2024 35.2697 36.2024Z" fill="#B5BABC"/>
<path d="M35.4358 45.1397C35.1555 44.5192 35.0497 43.866 35.0554 43.2234C35.0042 44.4179 35.2441 45.6927 36.0331 46.91C35.4862 44.3505 35.8438 41.2288 37.2245 39.1445C36.9161 39.4072 36.6524 39.6783 36.4253 39.9503C35.4159 41.6016 35.2593 43.1984 35.4358 45.1397Z" fill="#B5BABC"/>
<path d="M35.0569 43.225C35.0515 43.8676 35.1571 44.5207 35.4373 45.1414C35.2608 43.2 35.4175 41.6033 36.4268 39.9519C35.2753 41.3314 35.0876 42.7344 35.0575 43.1775C35.0573 43.1933 35.0571 43.2094 35.0569 43.225Z" fill="white"/>
<path d="M39.2598 33.4548C39.5455 33.3069 40.3618 32.8244 40.4035 31.5834C40.3419 31.0132 40.1791 30.4681 39.9424 29.9883C40.1121 31.4058 40.2312 32.4171 39.2598 33.4548Z" fill="white"/>
<path d="M27.6382 35.5983C27.4866 34.2267 28.1953 33.1306 27.7677 31.5433C28.8801 32.4577 28.1958 34.4548 28.2464 35.4452C28.2969 36.4358 28.991 37.0424 29.1174 38.1347C28.2377 36.7364 27.7657 36.752 27.6382 35.5983ZM24.0005 28.6485C22.6606 28.6485 20.6632 28.0303 19.6773 27.3811C18.6913 26.7321 16.7445 26.3304 15.9355 26.3612C15.9622 26.3265 15.9974 26.2931 16.0373 26.2604C16.0027 26.2604 15.9668 26.2599 15.9355 26.261C16.3146 25.8545 18.0845 25.6259 19.4497 25.9561C20.815 26.2863 22.5595 26.4387 24.0005 26.4387C25.4417 26.4387 27.1862 26.2863 28.5515 25.9561C29.9167 25.6259 31.6866 25.8545 32.0657 26.261C32.0345 26.2599 31.9985 26.2604 31.964 26.2604C32.0038 26.2931 32.039 26.3265 32.0657 26.3612C31.2567 26.3304 29.31 26.7321 28.3239 27.3811C27.3378 28.0303 25.3407 28.6485 24.0005 28.6485ZM20.363 35.5983C20.2355 36.752 19.7636 36.7364 18.8838 38.1347C19.0103 37.0424 19.7044 36.4358 19.7548 35.4452C19.8054 34.4548 19.121 32.4577 20.2335 31.5433C19.8058 33.1306 20.5147 34.2267 20.363 35.5983ZM15.9554 28.7289C14.8384 28.3607 13.8958 27.0807 13.8958 27.0807C13.8958 27.0807 14.8557 27.7471 16.095 28.2372C17.3343 28.7274 19.3242 28.9394 19.3242 28.9394C19.3242 28.9394 17.0725 29.0973 15.9554 28.7289ZM32.0458 28.7289C30.9287 29.0973 28.6771 28.9394 28.6771 28.9394C28.6771 28.9394 30.6669 28.7274 31.9062 28.2372C33.1455 27.7471 34.1054 27.0807 34.1054 27.0807C34.1054 27.0807 33.1629 28.3607 32.0458 28.7289ZM29.9761 37.6672C29.5495 37.0244 29.3332 35.9821 29.2292 34.8981C29.1402 33.9721 29.1327 33.0159 29.1494 32.2509C29.1854 30.5898 28.9541 29.8006 28.1788 29.3983C28.2185 29.3997 28.2537 29.4047 28.2916 29.4074C28.2766 29.4019 28.266 29.3983 28.266 29.3983C28.266 29.3983 29.0684 29.4353 30.7117 29.4607C32.3551 29.4862 33.3158 29.0543 34.7064 27.6321C35.856 26.4563 36.6102 26.0798 38.0362 26.013C37.6713 25.612 37.2844 25.246 36.8789 24.9138C36.1039 24.4729 34.2894 23.7006 30.5935 23.25C31.0634 23.6006 31.306 23.8838 31.4498 24.0903C28.5758 23.0083 25.3752 23.2959 25.3752 23.2959L24.0005 24.8846L22.626 23.2959C22.626 23.2959 19.4254 23.0083 16.5514 24.0903C16.6952 23.8838 16.9378 23.6006 17.4078 23.25C13.7125 23.7006 11.8979 24.4726 11.1227 24.9136C10.7193 25.244 10.3341 25.6081 9.9707 26.0068C11.5074 26.0519 12.275 26.4108 13.469 27.6321C14.8596 29.0543 15.8202 29.4862 17.4637 29.4607C18.6714 29.442 19.4232 29.4172 19.7378 29.4052C19.7665 29.4032 19.7926 29.3994 19.8224 29.3983C19.82 29.3996 19.8178 29.4008 19.8155 29.4021C19.8774 29.3997 19.9094 29.3983 19.9094 29.3983C19.9094 29.3983 19.7632 29.446 19.5451 29.5783C18.9916 30.0234 18.8206 30.8079 18.8519 32.2509C18.8685 33.0159 18.861 33.9721 18.772 34.8981C18.6679 35.9821 18.4517 37.0244 18.0251 37.6672C17.3718 38.6517 17.0391 40.5969 18.2809 41.5895C18.2864 41.5939 18.2919 41.5981 18.2974 41.6025C17.095 39.7293 18.6301 38.443 19.829 37.7406C21.0425 37.0294 21.0931 35.1499 20.9667 32.8894C20.8403 30.6291 22.9134 30.0449 24.0005 30.0449C25.0878 30.0449 27.161 30.6291 27.0345 32.8894C26.9081 35.1499 26.9587 37.0294 28.1723 37.7406C29.371 38.443 30.9063 39.7293 29.7039 41.6025C29.7094 41.5981 29.7148 41.5939 29.7203 41.5895C30.9622 40.5969 30.6295 38.6517 29.9761 37.6672Z" fill="#B5BABC"/>
<path d="M13.8945 27.082C13.8945 27.082 14.837 28.362 15.9541 28.7301C17.0712 29.0985 19.3231 28.9404 19.3231 28.9404C19.3231 28.9404 17.3331 28.7284 16.0937 28.2384C14.8544 27.7482 13.8945 27.082 13.8945 27.082Z" fill="white"/>
<path d="M28.6758 28.9414C28.6758 28.9414 30.9277 29.0996 32.0448 28.7314C33.162 28.3631 34.1044 27.0832 34.1044 27.0832C34.1044 27.0832 33.1444 27.7496 31.9052 28.2395C30.6659 28.7296 28.6758 28.9414 28.6758 28.9414Z" fill="white"/>
<path d="M35.886 24.1876C34.6811 23.5564 32.6082 22.8039 29.2042 22.4065C29.8118 22.7195 30.2607 23.002 30.5934 23.2501C34.2893 23.7007 36.1038 24.473 36.8789 24.9141C36.5584 24.6514 36.2266 24.4097 35.886 24.1876Z" fill="white"/>
<path d="M18.7961 22.4093C15.3928 22.8067 13.3199 23.5592 12.1149 24.1905C11.7743 24.4126 11.4423 24.6543 11.1217 24.9169C11.8972 24.4759 13.7117 23.7037 17.4069 23.2529C17.7396 23.0045 18.1884 22.7221 18.7961 22.4093Z" fill="white"/>
<path d="M19.5702 22.0352C17.153 22.0787 14.4292 22.6807 12.1152 24.1901C13.3202 23.5591 15.393 22.8066 18.7966 22.4096C19.0305 22.289 19.2859 22.1646 19.5702 22.0352Z" fill="#B5BABC"/>
<path d="M28.4297 22.0352C28.714 22.1646 28.9694 22.289 29.2034 22.4096C32.6074 22.8068 34.6804 23.5593 35.8854 24.1905C33.5712 22.6809 30.8471 22.0787 28.4297 22.0352Z" fill="#B5BABC"/>
<path d="M24.0064 56.6836C24.1136 56.6836 24.2187 56.686 24.3217 56.6908C29.1598 56.8387 30.8387 60.3809 28.4586 64.0686C28.7794 61.3279 27.9125 60.8856 27.9125 60.8856C28.2019 62.4215 27.8463 65.0325 26.5696 66.7921C26.6246 65.9253 26.2469 65.3227 26.2469 65.3227C26.2469 65.3227 25.7279 68.0052 24.0064 68.0052C22.2849 68.0052 21.7659 65.3227 21.7659 65.3227C21.7659 65.3227 21.3882 65.9253 21.4432 66.7921C20.1665 65.0325 19.8109 62.4215 20.1003 60.8856C20.1003 60.8856 19.2334 61.3279 19.5542 64.0686C17.1741 60.3809 18.853 56.8387 23.691 56.6908C23.7941 56.686 23.8991 56.6836 24.0064 56.6836C17.0309 56.6836 14.2979 61.6499 17.6356 66.8215C17.1951 63.0593 18.6443 62.4519 18.6443 62.4519C18.247 64.5605 18.3465 68.1448 20.0994 70.5602C20.0238 69.3703 20.9307 68.5431 20.9307 68.5431C20.9307 68.5431 20.9276 68.5591 20.9229 68.5863C20.9254 68.5846 20.9276 68.5813 20.9302 68.58C20.9302 68.58 22.0752 68.0566 24.0004 68.0566C25.9254 68.0566 27.0704 68.58 27.0704 68.58C27.0775 68.5831 27.0835 68.5885 27.0901 68.593C27.0852 68.5607 27.0821 68.5431 27.0821 68.5431C27.0821 68.5431 27.989 69.3703 27.9134 70.5602C29.6663 68.1448 29.7658 64.5605 29.3685 62.4519C29.3685 62.4519 30.8177 63.0593 30.3772 66.8215C33.7149 61.6499 30.9818 56.6836 24.0064 56.6836Z" fill="#5C667D"/>
<path d="M25.8464 70.4069C25.6462 72.5285 24.0049 73.1777 24.0049 73.1777C24.0049 73.1777 22.3638 72.5285 22.1636 70.4069C22.052 69.2257 24.0049 69.3554 24.0049 69.3554C24.0049 69.3554 25.9578 69.2257 25.8464 70.4069ZM27.1485 69.3813C27.1263 69.4158 27.0994 69.4318 27.0689 69.4186C27.0689 69.4186 25.924 68.9648 23.9989 68.9648C22.0737 68.9648 20.9287 69.4186 20.9287 69.4186C20.8952 69.4384 20.868 69.4312 20.8459 69.4077C20.7993 70.8406 21.1057 73.7507 24.0049 75.7362C26.8926 73.8434 27.1918 70.8245 27.1515 69.3751C27.1504 69.3769 27.1496 69.3796 27.1485 69.3813Z" fill="#5C667D"/>
<path d="M14.462 51.2954C14.318 50.8635 14.2393 50.398 14.2393 49.9128C14.2393 49.6431 14.2641 49.3799 14.3101 49.125C13.4485 49.6156 12.5635 50.2009 11.7851 50.8756C11.6527 51.8174 11.7376 52.7228 11.9755 53.5127C12.8306 52.6022 13.6734 51.8746 14.462 51.2954Z" fill="#5C667D"/>
<path d="M15.021 52.3945C14.2789 53.1738 13.5743 54.0504 13.0551 54.9786C13.0026 55.0722 12.9531 55.1601 12.9023 55.2508C13.2192 55.6153 13.5827 55.8926 13.9746 56.0525C14.1784 56.1357 14.4058 56.2001 14.6496 56.2472C15.2598 55.2172 15.8949 54.3621 16.5079 53.6547C15.9185 53.3752 15.4078 52.9389 15.021 52.3945Z" fill="#5C667D"/>
<path d="M7.59259 32.5341C7.58233 32.4314 7.57538 32.3289 7.57227 32.2266C7.57593 32.2921 7.57941 32.3573 7.58307 32.4215C7.58508 32.4592 7.58911 32.4966 7.59259 32.5341Z" fill="#5C667D"/>
<path d="M14.9838 45.85C14.1787 46.3503 13.3764 47.1636 12.6437 48.4219C12.5889 48.5161 12.5374 48.6106 12.4879 48.7053C13.3121 48.3199 14.0771 48.0405 14.7639 47.8384C15.4002 46.6731 16.5566 45.8782 17.8892 45.8241C17.9375 45.8221 17.9857 45.8202 18.0343 45.8202C18.2609 45.8202 18.4821 45.8428 18.6977 45.8837C20.4763 46.2222 21.8278 47.8955 21.8278 49.9103C21.8278 52.1691 20.1294 54.0003 18.0343 54.0003C17.8951 54.0003 17.7577 53.9917 17.6223 53.9759C17.1677 54.6877 16.7259 55.4736 16.3666 56.2894C18.2397 56.064 20.3569 54.9951 21.3078 52.8205C22.7198 49.592 22.086 47.7531 20.2399 46.2025C19.9644 45.9713 19.5718 45.7242 19.0984 45.5295C17.4929 44.7764 14.3992 43.3318 16.396 39.5121C16.8197 41.3181 18.0149 41.6217 18.3411 41.6716C18.3195 41.6428 18.3014 41.6175 18.2811 41.5898C17.0391 40.5972 17.3718 38.652 18.0252 37.6675C18.4518 37.0247 18.6681 35.9824 18.7722 34.8984C18.7651 34.85 18.7582 34.8022 18.7505 34.7474C18.5459 35.5357 17.9316 37.2154 16.8396 37.6952C17.215 37.1125 17.7268 35.4329 17.2492 34.1646L17.2477 34.165C16.4027 35.3499 14.7396 36.2006 12.7302 36.2006C10.0237 36.2006 8.01944 34.7299 7.64453 32.8789C7.71871 33.291 7.84953 33.6993 8.05708 34.0888C9.07238 35.994 10.6634 35.5357 11.8917 38.4837C13.1202 41.4318 12.9496 43.3171 12.9496 43.3171C12.9496 43.3171 12.9501 43.2664 12.9439 43.1739C12.9441 43.1897 12.9443 43.2057 12.9445 43.2215C12.9956 44.4159 12.7557 45.6908 11.9668 46.9081C12.5135 44.3486 12.1561 41.2269 10.7754 39.1426C10.3732 38.8001 9.89711 38.4721 9.33255 38.1752C12.6774 42.5701 11.5987 45.7909 11.0728 48.7332C12.4393 47.1527 12.818 46.3653 14.9838 45.85Z" fill="#5C667D"/>
<path d="M7.64464 32.8785C7.63073 32.8018 7.61535 32.7253 7.60547 32.6484C7.61535 32.7259 7.62908 32.8024 7.64464 32.8785Z" fill="#5C667D"/>
<path d="M9.03079 46.5372C8.91002 47.5143 8.70375 48.417 8.43115 49.1244C7.66323 51.1171 6.91688 52.8761 7.12772 56.3474C6.5955 54.9782 6.11224 52.01 7.29947 48.2534C8.21555 45.355 8.47372 44.3835 8.00124 39.7669C7.68041 38.9272 7.3329 38.1956 7.02906 37.5508C7.52419 40.602 7.72207 44.3466 6.66602 48.9696C5.49981 54.0752 6.66602 57.5685 7.55708 59.2329C7.29307 54.8872 7.72919 54.3402 8.74522 48.8311C8.89431 48.0218 8.9853 47.259 9.03079 46.5372Z" fill="#5C667D"/>
<path d="M9.64167 62.823C9.24538 62.0673 8.84507 60.41 9.56914 58.2607C10.128 56.6022 10.2819 56.0477 9.85032 53.462C9.61098 52.9984 9.3561 52.5966 9.1332 52.2422C9.54337 53.946 9.76682 56.0487 9.15275 58.6821C8.47454 61.5905 9.35446 63.5239 10.0032 64.4354C9.7206 61.9961 10.0062 61.6755 10.572 58.5443C10.6572 58.0726 10.7019 57.63 10.7149 57.2132C10.6562 57.7782 10.5371 58.3049 10.3641 58.7184C9.8854 59.8626 9.41585 60.8745 9.64167 62.823Z" fill="#5C667D"/>
<path d="M13.027 63.6216C12.729 64.6144 12.4325 65.4952 12.6693 67.1195C12.3569 66.5092 12.0066 65.1411 12.4411 63.2873C12.7705 61.8825 12.8608 61.3945 12.4771 59.344C12.2396 58.922 11.9856 58.5648 11.7656 58.2539C12.1815 59.6604 12.4601 61.4145 12.0682 63.6686C11.6355 66.1577 12.4508 67.7272 13.029 68.4522C12.6863 66.4189 12.9088 66.1311 13.2386 63.4615C13.3422 62.6226 13.3077 61.899 13.1893 61.2697C13.2755 62.1138 13.2128 63.0027 13.027 63.6216Z" fill="#5C667D"/>
<path d="M38.8668 52.2422C38.6438 52.5966 38.3891 52.9984 38.1497 53.462C37.7182 56.0477 37.872 56.6022 38.4307 58.2607C39.155 60.41 38.7545 62.0673 38.3584 62.823C38.584 60.8745 38.1146 59.8626 37.636 58.7184C37.4629 58.3049 37.3436 57.7782 37.2852 57.2132C37.2981 57.63 37.3429 58.0726 37.428 58.5443C37.9939 61.6755 38.2794 61.9961 37.9968 64.4354C38.6454 63.5239 39.5253 61.5905 38.8473 58.6821C38.2332 56.0487 38.4567 53.946 38.8668 52.2422Z" fill="#5C667D"/>
<path d="M35.5242 59.344C35.1405 61.3945 35.2308 61.8825 35.5602 63.2873C35.9947 65.1411 35.6444 66.5092 35.332 67.1195C35.5686 65.4953 35.2722 64.6144 34.9743 63.6216C34.7884 63.0027 34.7256 62.1138 34.812 61.2697C34.6936 61.8989 34.6591 62.6224 34.7627 63.4615C35.0925 66.1311 35.3148 66.4189 34.9722 68.4522C35.5503 67.7274 36.3657 66.1577 35.9329 63.6686C35.5412 61.4145 35.8198 59.6604 36.2357 58.2539C36.0157 58.565 35.7617 58.9222 35.5242 59.344Z" fill="#5C667D"/>
<path d="M41.3335 48.9698C40.2775 44.3468 40.4755 40.6022 40.9705 37.5508C40.6666 38.1957 40.3193 38.9272 39.9983 39.7669C39.5258 44.3835 39.7842 45.355 40.7003 48.2536C41.8875 52.0102 41.404 54.9782 40.8718 56.3476C41.0828 52.8761 40.3363 51.1172 39.5684 49.1245C39.2958 48.417 39.0895 47.5143 38.9688 46.5373C39.0144 47.2592 39.1052 48.0218 39.2545 48.8311C40.2703 54.3404 40.7065 54.8874 40.4425 59.2331C41.3335 57.5687 42.4997 54.0754 41.3335 48.9698Z" fill="#5C667D"/>
<path d="M35.0979 55.2508C35.0471 55.1601 34.9976 55.0722 34.9451 54.9788C34.4259 54.0504 33.7214 53.174 32.9792 52.3945C32.5923 52.9389 32.0816 53.3752 31.4922 53.6547C32.1053 54.3621 32.7404 55.2172 33.3507 56.2472C33.5944 56.2003 33.8219 56.1357 34.0256 56.0525C34.4173 55.8926 34.7811 55.6155 35.0979 55.2508Z" fill="#5C667D"/>
<path d="M33.6889 49.125C33.7352 49.3799 33.76 49.6431 33.76 49.9128C33.76 50.398 33.6811 50.8635 33.5371 51.2954C34.3259 51.8746 35.1685 52.602 36.0237 53.5127C36.2616 52.7228 36.3464 51.8174 36.2141 50.8754C35.4356 50.2009 34.5506 49.6156 33.6889 49.125Z" fill="#5C667D"/>
<path d="M40.4266 32.2266C40.4235 32.3291 40.4165 32.4314 40.4062 32.5341C40.4095 32.4967 40.4138 32.4592 40.4158 32.4215C40.4194 32.3573 40.4229 32.2923 40.4266 32.2266Z" fill="#5C667D"/>
<path d="M40.3555 32.8789C40.371 32.8026 40.3848 32.7259 40.3946 32.6484C40.3849 32.7253 40.3694 32.8022 40.3555 32.8789Z" fill="#5C667D"/>
<path d="M38.6685 38.1787C38.1037 38.4755 37.6278 38.8037 37.2256 39.1462C35.8449 41.2305 35.4876 44.3521 36.0342 46.9116C35.2453 45.6944 35.0054 44.4193 35.0566 43.225C35.0567 43.209 35.0569 43.1932 35.0571 43.1775C35.0509 43.2698 35.0514 43.3206 35.0514 43.3206C35.0514 43.3206 34.8808 41.4353 36.1093 38.4872C37.3376 35.5392 38.9286 35.9975 39.9439 34.0924C40.1515 33.7031 40.2821 33.2947 40.3565 32.8828C39.9814 34.7336 37.9773 36.2042 35.2709 36.2042C33.2615 36.2042 31.5981 35.3535 30.7531 34.1685C30.7527 34.1683 30.7524 34.1682 30.7518 34.168C30.2742 35.4364 30.786 37.116 31.1613 37.6988C30.0694 37.219 29.4552 35.5392 29.2505 34.7507C29.2428 34.8058 29.2359 34.8535 29.2288 34.902C29.3329 35.9859 29.5492 37.0283 29.9757 37.671C30.6292 38.6556 30.9619 40.6007 29.7199 41.5933C29.6996 41.621 29.6815 41.6464 29.66 41.6752C29.9861 41.6253 31.1814 41.3217 31.6049 39.5156C33.6019 43.3353 30.5081 44.78 28.9027 45.533C28.4293 45.7278 28.0366 45.9748 27.7611 46.2061C25.915 47.7566 25.2812 49.5954 26.6932 52.824C27.6442 54.9986 29.7614 56.0674 31.6345 56.293C31.2751 55.4771 30.8333 54.6912 30.3787 53.9794C30.2433 53.9952 30.106 54.0038 29.9667 54.0038C27.8716 54.0038 26.173 52.1726 26.173 49.9138C26.173 47.8989 27.5247 46.2257 29.3033 45.8873C29.5189 45.8463 29.7404 45.8236 29.9667 45.8236C30.0153 45.8236 30.0636 45.8256 30.1118 45.8276C31.4445 45.8818 32.6008 46.6767 33.2372 47.842C33.924 48.0441 34.689 48.3234 35.5131 48.7089C35.4636 48.6141 35.4121 48.5196 35.3573 48.4255C34.6246 47.1671 33.8224 46.3538 33.0172 45.8535C35.183 46.3689 35.5617 47.1563 36.9282 48.7368C36.4024 45.7944 35.3235 42.5734 38.6685 38.1787Z" fill="#5C667D"/>
<path d="M16.7671 30.627C18.1401 30.4855 18.3742 29.4977 19.7379 29.4063C19.4233 29.4182 18.6714 29.4432 17.4637 29.4617C15.8203 29.4872 14.8594 29.0553 13.4691 27.6331C12.2751 26.412 11.5075 26.053 9.97078 26.0078C9.57175 26.4454 9.19866 26.9241 8.85938 27.4495C9.41243 27.5384 11.0878 27.7744 12.6335 28.8577C14.179 29.9409 15.3654 30.7714 16.7671 30.627Z" fill="#5C667D"/>
<path d="M28.2656 29.4009C28.2656 29.4009 28.2762 29.4045 28.2912 29.4102C29.6297 29.5134 29.8705 30.4882 31.2339 30.6286C32.6356 30.773 33.8219 29.9425 35.3674 28.8592C36.9129 27.776 38.5883 27.5399 39.1416 27.4509C38.8038 26.9282 38.4329 26.4515 38.036 26.0156C36.6098 26.0824 35.8556 26.4589 34.706 27.6346C33.3154 29.0569 32.3548 29.4888 30.7113 29.4633C29.0681 29.4379 28.2656 29.4009 28.2656 29.4009Z" fill="#5C667D"/>
<path d="M19.9099 29.3984C19.9099 29.3984 19.8779 29.3999 19.8158 29.4023C19.7166 29.4541 19.6267 29.5125 19.5449 29.578C19.7635 29.446 19.9099 29.3984 19.9099 29.3984Z" fill="#5C667D"/>
<path d="M19.6774 27.3824C20.6634 28.0314 22.6608 28.6496 24.0007 28.6496C25.3407 28.6496 27.3381 28.0314 28.3241 27.3824C29.31 26.7334 31.2567 26.3316 32.0659 26.3625C32.0391 26.3276 32.004 26.2942 31.964 26.2617C31.1047 26.2636 29.272 26.5875 28.3241 27.1003C27.3381 27.6337 25.3407 28.1416 24.0007 28.1416C22.6608 28.1416 20.6634 27.6337 19.6774 27.1003C18.7295 26.5875 16.8966 26.2636 16.0373 26.2617C15.9975 26.2942 15.9622 26.3276 15.9355 26.3625C16.7446 26.3316 18.6913 26.7334 19.6774 27.3824Z" fill="#5C667D"/>
<path d="M28.1711 37.7426C26.9575 37.0314 26.9069 35.1519 27.0334 32.8916C27.1598 30.6311 25.0866 30.0469 23.9993 30.0469C22.9122 30.0469 20.8391 30.6311 20.9655 32.8916C21.0919 35.1519 21.0413 37.0314 19.8278 37.7426C18.6289 38.4452 17.0938 39.7314 18.2962 41.6045C18.3267 41.6283 18.3574 41.652 18.3897 41.6746C18.4303 41.2034 18.7599 40.8162 19.202 40.6969L19.2018 40.6965C19.2144 40.6932 19.2313 40.689 19.2512 40.6842C19.259 40.6825 19.2669 40.6805 19.2747 40.6791C19.5758 40.6119 20.527 40.4737 21.9209 40.9703C23.1386 41.404 23.4216 41.4213 23.9997 41.4213C24.578 41.4213 24.8612 41.404 26.0789 40.9703C27.4724 40.4737 28.4241 40.6119 28.725 40.6791C28.7329 40.6805 28.7406 40.6824 28.7484 40.6842C28.7683 40.6888 28.7853 40.6932 28.7978 40.6965V40.6969C29.2397 40.8162 29.5691 41.2033 29.6099 41.6742C29.642 41.6516 29.6725 41.6282 29.7027 41.6045C30.9051 39.7314 29.37 38.4452 28.1711 37.7426Z" fill="white"/>
<path d="M18.9362 16.8517C18.9362 16.8517 18.9308 16.8517 18.9219 16.8516L18.929 16.8825L18.9362 16.8517Z" fill="#FBC333"/>
<path d="M29.0332 16.8517L29.0403 16.8825L29.0475 16.8516C29.0385 16.8517 29.0332 16.8517 29.0332 16.8517Z" fill="#FBC333"/>
<path d="M18.623 15.5039L18.8753 16.5938L18.623 15.5039Z" fill="#FBC333"/>
<path d="M18.9358 16.8503L18.8755 16.5899L18.6233 15.5C18.6185 15.5006 18.6141 15.5015 18.6094 15.502L18.9215 16.8501C18.9304 16.8503 18.9358 16.8503 18.9358 16.8503Z" fill="#FEE749"/>
<path d="M18.1561 19.4255C18.2413 19.2267 18.3019 19.0132 18.3396 18.793C16.7639 19.1896 14.1218 19.9689 12.5215 21.0641C15.1534 20.0064 17.0206 19.5884 18.1561 19.4255Z" fill="#FEE749"/>
<path d="M18.0624 16.8781C18.3538 17.4274 18.4508 18.1379 18.3392 18.7926C18.3018 19.0127 18.2411 19.2261 18.156 19.4251C17.9648 19.8711 17.6522 20.2413 17.2128 20.4432C17.5426 20.3744 17.8777 20.3112 18.217 20.2529L18.1538 20.2334L18.9275 16.883L18.9204 16.852L18.6091 15.5039C17.7573 15.6269 16.9408 15.779 16.161 15.9609C16.1299 15.9789 16.1009 15.9962 16.0684 16.0145C17.0234 15.7526 17.6961 16.1874 18.0624 16.8781Z" fill="#E3A500"/>
<path d="M29.0477 16.8521L29.3591 15.5039C29.3544 15.5031 29.3498 15.5025 29.3453 15.5018L29.0333 16.8523C29.0333 16.8523 29.0386 16.852 29.0477 16.8521Z" fill="#FEE749"/>
<path d="M29.6289 18.793C29.6664 19.013 29.727 19.2267 29.8123 19.4255C30.9479 19.5884 32.8149 20.0062 35.4468 21.0641C33.8465 19.9689 31.2046 19.1896 29.6289 18.793Z" fill="#FEE749"/>
<path d="M29.0391 16.883L29.813 20.2334L29.7496 20.2529C30.0889 20.3112 30.424 20.3744 30.7538 20.4432C30.3144 20.2413 30.0017 19.8711 29.8108 19.4251C29.7255 19.2261 29.6648 19.0127 29.6274 18.7926C29.5157 18.1379 29.6128 17.4274 29.9042 16.8781C30.2707 16.1874 30.9432 15.7526 31.8984 16.0145C31.8659 15.9962 31.8367 15.9787 31.8056 15.9609C31.0258 15.779 30.2093 15.6269 29.3577 15.5039L29.0462 16.852L29.0391 16.883Z" fill="#E3A500"/>
<path d="M29.5686 13.6112L29.4751 14.0161L28.8205 16.8499L29.5686 20.0887L26.4023 21.0575L26.5087 21.2425L29.7508 20.2506L29.8142 20.2313L29.0403 16.8808L29.0331 16.8499L29.345 15.4996L29.8142 13.4688L29.5686 13.6112Z" fill="#FBC333"/>
<path d="M21.5655 12.6449L23.9834 10.3747V10.0898L21.4592 12.4601H21.459L21.5655 12.6449Z" fill="#FBC333"/>
<path d="M18.9354 16.8499L18.9282 16.8808L18.1543 20.2311L18.2177 20.2506L21.4598 21.2423L23.9841 23.6125V23.3277L21.5662 21.0575L18.3999 20.0887L19.148 16.8499C19.1479 16.8503 19.1479 16.8507 19.1479 16.8511L19.148 16.8499L19.1479 16.849C19.1479 16.8494 19.1479 16.8496 19.148 16.8499L18.3999 13.6112L18.1543 13.4688L18.6235 15.4996L18.8753 16.5895L18.9354 16.8499Z" fill="#FBC333"/>
<path d="M23.9843 10.375L21.5664 12.6452L23.9843 10.375Z" fill="#FBC333"/>
<path d="M19.0058 19.0165C19.3352 18.2745 19.9826 18.064 20.5729 18.2444C19.4452 18.9556 19.5523 20.2474 21.565 21.0592L21.5657 21.0594L21.8434 20.0985L23.9838 21.6619L26.1242 20.0985L26.4018 21.0594L26.4025 21.0592C28.4152 20.2474 28.5224 18.9556 27.3946 18.2444C27.9849 18.064 28.6324 18.2745 28.9619 19.0165C29.0501 18.5208 28.9827 17.9975 28.8201 16.852L29.4745 14.018L28.8201 16.8519C28.9827 15.7064 29.0501 15.1831 28.9619 14.6873C28.6324 15.4294 27.9849 15.6399 27.3946 15.4593C28.5224 14.7483 28.4152 13.4563 26.4025 12.6447L26.4018 12.6445L26.1242 13.6054V20.077L23.9838 21.6404L21.8434 20.077V13.6054L21.5657 12.6445L21.5652 12.6447C19.5523 13.4563 19.4452 14.7483 20.5729 15.4593C19.9826 15.6399 19.3352 15.4294 19.0058 14.6873C18.9176 15.1829 18.985 15.706 19.1474 16.8511L19.1478 16.852L19.1474 16.853C18.985 17.9977 18.9176 18.521 19.0058 19.0165Z" fill="#FBC333"/>
<path d="M25.9176 19.9711L23.9844 21.3832V21.6405L26.1248 20.077V13.6055L25.9176 13.7114V19.9711Z" fill="#FAB911"/>
<path d="M22.0509 19.972V13.7123L23.9842 12.3001V12.043L21.8438 13.6064V20.0779L23.9842 21.6414V21.3841L22.0509 19.972Z" fill="#FEE749"/>
<path d="M25.3992 13.978V19.7076L23.984 20.7415L22.5688 19.7076V13.978L23.984 12.9441L25.3992 13.978ZM22.0508 13.7129V19.9726L23.984 21.3848L25.9172 19.9726V13.7129L23.984 12.3008L22.0508 13.7129Z" fill="#021324"/>
<path d="M24.8816 19.4413L23.9844 20.0968V20.7401L25.3996 19.7062V13.9766L24.8816 14.2414V19.4413Z" fill="#C22516"/>
<path d="M23.9836 20.0969L23.0861 19.4415V14.2416L22.5684 13.9766V19.7064L23.9836 20.7402V20.0969Z" fill="#B31D0F"/>
<path d="M23.0859 19.4413L23.9834 20.0967L24.8807 19.4413V14.2414L23.9834 13.5859L23.0859 14.2414V19.4413Z" fill="#EB5437"/>
<path d="M23.9843 13.5857L24.8817 14.2409L25.3998 13.9762L23.9844 12.9425L23.9843 13.5857Z" fill="#F4A898"/>
<path d="M23.9844 13.5868V12.9434L22.5691 13.9772L23.0869 14.2422L23.9844 13.5868Z" fill="#A35242"/>
<path d="M24.6937 5.94955L24.6545 5.82805L24 3.80469V6.91021L24.0753 6.80596L24.6937 5.94955Z" fill="#FFEF80"/>
<path d="M23.8779 6.74156L23.3049 5.95054L21.0598 5.95045L24 6.91016L23.8779 6.74156Z" fill="#FFEF80"/>
<path d="M23.8035 6.97476L22.8773 7.27779L22.7072 7.80382L22.1836 9.42265L24.0006 6.91016L23.8787 6.95017L23.8035 6.97476Z" fill="#FEE749"/>
<path d="M24.6952 5.94922L24.2929 6.50461L24.0755 6.8047L24 6.90896L26.9401 5.94922H24.6952Z" fill="#FEE749"/>
<path d="M25.8172 9.42265L25.1235 7.27779L24 6.91016L25.8172 9.42265Z" fill="#FEE749"/>
<path d="M17.1117 9.73579L17.5637 9.1112L17.535 9.02255L17.3102 8.32894L17.0566 7.54688V9.81178L17.1117 9.73579Z" fill="#FFEF80"/>
<path d="M16.9676 9.68962L16.5497 9.11278L14.9122 9.11279L17.0566 9.8125L16.9676 9.68962Z" fill="#FFEF80"/>
<path d="M16.9118 9.85967L16.2364 10.0807L16.1123 10.4643L15.7305 11.645L17.0556 9.8125L16.9668 9.84168L16.9118 9.85967Z" fill="#FEE749"/>
<path d="M17.5637 9.11328L17.2702 9.51836L17.1116 9.73714L17.0566 9.81312L19.2009 9.11328H17.5637Z" fill="#FEE749"/>
<path d="M17.8753 10.0834L17.0628 9.81752L17.056 9.81513L18.3811 11.6478L17.8753 10.0834Z" fill="#FEE749"/>
<path d="M10.9102 12.615L10.8848 12.6937L11.286 13.2482L11.3349 13.3157V11.3047L10.9102 12.615Z" fill="#FFEF80"/>
<path d="M11.7839 12.6949L11.413 13.2071L11.3339 13.3164L13.2375 12.695L11.7839 12.6949Z" fill="#FFEF80"/>
<path d="M12.5108 14.9435L12.0615 13.5545L11.4617 13.3583L11.4131 13.3423L11.334 13.3164L12.5108 14.9435Z" fill="#FEE749"/>
<path d="M10.8838 12.6953H9.43001L11.334 13.3168L11.285 13.2492L10.8838 12.6953Z" fill="#FEE749"/>
<path d="M10.1582 14.9435L11.335 13.3164L10.6075 13.5545L10.1582 14.9435Z" fill="#FEE749"/>
<path d="M30.435 9.02255L30.4062 9.1112L30.8582 9.73579L30.9131 9.81178V7.54688L30.6598 8.32894L30.435 9.02255Z" fill="#FFEF80"/>
<path d="M31.4196 9.11442L31.0015 9.69156L30.9125 9.81429L33.0566 9.11448L31.4196 9.11442Z" fill="#FFEF80"/>
<path d="M31.7314 10.0807L31.0559 9.85967L31.0011 9.84168L30.9121 9.8125L32.2373 11.645L31.7314 10.0807Z" fill="#FEE749"/>
<path d="M30.4051 9.11328H28.7679L30.9121 9.81312L30.8571 9.73714L30.4051 9.11328Z" fill="#FEE749"/>
<path d="M30.7375 9.86995L30.0938 10.0807L29.8055 10.9721L29.5879 11.6448L30.9131 9.8125L30.9063 9.8147L30.7375 9.86995Z" fill="#FEE749"/>
<path d="M36.6348 13.3159L36.6836 13.2484L37.0849 12.6937L37.0594 12.6152L36.6348 11.3047V13.3159Z" fill="#FFEF80"/>
<path d="M36.1846 12.6953H34.7308L36.6348 13.3168L36.5557 13.2076L36.1846 12.6953Z" fill="#FFEF80"/>
<path d="M36.5061 13.3583L35.9063 13.5545L35.457 14.9435L36.6338 13.3164L36.5549 13.3423L36.5061 13.3583Z" fill="#FEE749"/>
<path d="M37.0848 12.6948L36.6836 13.2489L36.6347 13.3164L38.5383 12.6949L37.0848 12.6948Z" fill="#FEE749"/>
<path d="M37.8116 14.9435L37.3623 13.5545L36.6348 13.3164L37.8116 14.9435Z" fill="#FEE749"/>
<path d="M21.0591 5.94885H23.304L23.8771 6.73991L23.9992 6.90859V3.80288L24.6536 5.82643L24.6929 5.94775L24.0744 6.80434L23.9992 6.90859L24.0746 6.80434L24.292 6.50425L24.6944 5.94885H26.9395L23.9992 6.90859L25.1226 7.27604L25.8164 9.42108L23.9992 6.90859L22.1821 9.4209L22.7058 7.80207L22.8759 7.27604L23.802 6.97301L23.8773 6.94842L23.9992 6.90859L21.0591 5.94885ZM21.9499 9.74192L23.9992 8.24624L26.0482 9.74192L25.8904 9.25333L25.2657 7.32192L27.3149 5.82643H24.7819V5.82624L23.9993 3.40625L23.2166 5.82643H20.6836L22.7328 7.32192L21.9499 9.74192Z" fill="#FAB911"/>
<path d="M16.5498 9.11213L16.9676 9.689L17.0568 9.81197V7.54707L17.3098 8.32914L17.534 9.02275L17.5627 9.1114L17.1118 9.73599L17.0568 9.81197L17.1118 9.73599L17.2704 9.51721L17.5638 9.11213H19.201L17.0568 9.81197L17.0635 9.81418L17.876 10.0801L18.382 11.6445L17.0568 9.81197L15.7314 11.6445L16.1135 10.4637L16.2375 10.0801L16.913 9.85914L16.9678 9.84116L17.0568 9.81197L14.9125 9.11213H16.5498ZM15.3766 9.56144L16.1332 10.1135L15.5623 11.8785L17.0568 10.7877L18.5511 11.8785L18.4035 11.4216L18.3898 11.3796L17.9804 10.1135L19.4749 9.02275H17.6276L17.0568 7.25781L16.6223 8.60115L16.486 9.02275H14.6387L15.3766 9.56144Z" fill="#FAB911"/>
<path d="M11.3347 11.3036V13.3149L11.4138 13.2057L11.7849 12.6934H13.2386L11.3347 13.3149L11.4136 13.3406L11.4624 13.3566L12.0622 13.5528L12.5115 14.9418H12.5113L11.3347 13.3149L10.1579 14.9418L10.6071 13.5528L11.3347 13.3149L9.43068 12.6934H10.8845L11.2857 13.2474L11.3347 13.3149L11.2859 13.2474L10.8854 12.6927L10.9108 12.614L11.3347 11.3036ZM10.9592 12.2074L10.8278 12.614H9.1875L10.5145 13.5825L10.0079 15.1496L11.3347 14.181L12.2683 14.8623L12.6618 15.1496L12.5374 14.7652L12.1548 13.5825L13.0567 12.9241L13.4818 12.614H11.8415L11.5093 11.5869L11.3347 11.0469L10.9592 12.2074Z" fill="#FAB911"/>
<path d="M30.9123 7.54707V9.81197L31.0012 9.68919L31.4193 9.11213H33.0565L30.9123 9.81197L31.0012 9.84116L31.056 9.85914L31.7315 10.0801L32.2374 11.6445L30.9123 9.81197L29.5871 11.6445L29.8047 10.9716L30.093 10.0801L30.5019 9.94633L30.7367 9.86942L30.9055 9.81436L30.9123 9.81197L28.768 9.11213H30.4052L30.8573 9.73599L30.9123 9.81197L30.8573 9.73599L30.4063 9.1114L30.435 9.02275L30.6592 8.32914L30.9123 7.54707ZM30.3413 9.02275H28.4941L29.9887 10.1135L29.4179 11.8785L30.9123 10.7877L32.4068 11.8785L31.8358 10.1135L32.5924 9.56144L32.7715 9.43076L33.3304 9.02275H31.483L31.3467 8.60115L30.9123 7.25781L30.3413 9.02275Z" fill="#FAB911"/>
<path d="M37.0572 12.614L37.0826 12.6927L36.6821 13.2472L36.6399 13.3057L36.6335 13.3147L36.6823 13.2474L37.0835 12.6932H38.5373L36.6335 13.3147H36.6333L37.3608 13.5528L37.8101 14.9418L36.6333 13.3147L35.4567 14.9418L35.906 13.5528L36.5056 13.3566L36.5544 13.3406L36.6333 13.3147L34.7293 12.6932H36.1831L36.5544 13.2057L36.6333 13.3147V11.3036L37.0572 12.614ZM36.1265 12.614H34.4863L35.139 13.0902L35.8133 13.5825L35.3063 15.1496L35.853 14.7507L36.6333 14.181L37.9603 15.1496L37.6117 14.0718L37.4535 13.5825L38.7805 12.614H37.1403L37.0088 12.2074L36.6335 11.0469H36.6333L36.4586 11.5869L36.1265 12.614Z" fill="#FAB911"/>
<path d="M23.9852 12.3L25.9181 13.7124L26.1253 13.6064L23.985 12.0427L23.9852 12.3Z" fill="#E3A500"/>
<path d="M26.4023 12.6445L26.5087 12.4595L23.9845 10.0897L23.9845 10.3745L26.4023 12.6445Z" fill="#FAB911"/>
<path d="M23.9849 12.0416L26.1254 13.605L26.4029 12.6442L23.9849 10.3739L23.9849 12.0416Z" fill="#FEE749"/>
<path d="M23.9844 12.0421V10.3744L21.5664 12.6446L21.8442 13.6055L23.9844 12.0421Z" fill="#FAB911"/>
<path d="M23.9844 23.3288V23.6137L26.5088 21.2436V21.2434L26.4023 21.0586L23.9844 23.3288Z" fill="#E3A500"/>
<path d="M26.4012 21.0607L26.1235 20.0997L23.9833 21.6631L23.9833 23.3308L26.4012 21.0607Z" fill="#FBC333"/>
<path d="M23.9839 21.6615L21.8436 20.0981L21.566 21.059L23.9839 23.329L23.9839 21.6615Z" fill="#E3A500"/>
<path d="M29.5683 13.6149L29.8138 13.4725L26.5085 12.4615L26.4022 12.6463L29.5683 13.6149Z" fill="#FEE749"/>
<path d="M21.5664 12.6445L21.4601 12.4597L18.1545 13.4709L18.4002 13.6132L21.5664 12.6445Z" fill="#FEE749"/>
<path d="M18.1569 19.4243C17.0214 19.5873 15.1541 20.0052 12.5222 21.0629C14.1226 19.9678 16.7647 19.1884 18.3403 18.7918C18.452 18.1371 18.3548 17.4266 18.0634 16.8773C16.6691 16.9606 13.8774 17.3014 11.7366 18.6742C13.6665 18.1013 15.6189 17.9359 16.8166 18.1874C16.5801 18.2122 16.3505 18.2412 16.125 18.2726C16.1024 18.2757 16.0792 18.2784 16.0565 18.2817C15.8429 18.3122 15.6352 18.346 15.4313 18.3821C15.4008 18.3876 15.3699 18.3928 15.3396 18.3985C15.1413 18.4346 14.948 18.4735 14.7589 18.5148C14.7275 18.5218 14.6964 18.5286 14.6652 18.5356C14.4772 18.5778 14.2934 18.6224 14.1143 18.6694C14.0882 18.6764 14.0625 18.6833 14.0363 18.6903C13.8538 18.7393 13.6753 18.7903 13.5019 18.8441C13.4864 18.8489 13.4712 18.8538 13.4559 18.8588C13.0906 18.9733 12.7455 19.0978 12.4199 19.2312C12.4091 19.2358 12.3978 19.24 12.3869 19.2446C12.2297 19.3094 12.0777 19.3767 11.9294 19.4456C11.9135 19.4529 11.8974 19.4603 11.8815 19.4678C11.7364 19.5361 11.5957 19.606 11.4591 19.6778C11.4434 19.686 11.4278 19.6941 11.4123 19.7024C11.2753 19.775 11.1423 19.8494 11.0136 19.9254C11.0027 19.9318 10.9919 19.9384 10.9809 19.9448C10.8485 20.0237 10.7197 20.1039 10.5958 20.186C10.594 20.1873 10.5921 20.1886 10.5901 20.1898C10.3638 20.3398 10.1533 20.4949 9.95467 20.6533C9.81271 20.7663 9.67605 20.8811 9.5476 20.9976C9.54505 20.9998 9.54249 21.0022 9.53993 21.0044C9.43908 21.0962 9.34242 21.1889 9.24961 21.2821C9.24687 21.2848 9.24413 21.2876 9.24139 21.2904C9.14802 21.3847 9.0585 21.4796 8.97299 21.5752C8.84656 21.7164 8.72798 21.8584 8.61799 22.0012C8.61489 22.0001 8.61233 21.9979 8.60922 21.9964C8.5482 22.0706 8.48517 22.149 8.42524 22.227C8.31434 20.6681 8.29406 19.1402 7.54332 17.4615C7.70063 18.2157 7.59849 18.9295 7.27821 19.7135C5.75956 16.8854 3.82141 16.508 3.82031 16.5078C3.82031 16.5078 5.53976 17.8093 6.41638 20.0981C7.29301 22.387 7.21993 25.0906 7.21993 25.0906L7.22102 25.0884C9.83902 22.9013 13.1718 21.2863 17.214 20.4424C17.6532 20.2407 17.9658 19.8703 18.1569 19.4243Z" fill="#FBC333"/>
<path d="M8.35701 15.9729L8.50609 17.3295L8.35701 15.9729L3.81989 16.5083L8.35701 15.9729Z" fill="#FEE749"/>
<path d="M3.82031 16.5086C3.82141 16.5088 5.75956 16.8861 7.27821 19.7143C7.59849 18.9302 7.70063 18.2164 7.54332 17.4623C8.29405 19.1409 8.31452 20.6691 8.42524 22.2279C8.48535 22.1497 8.5482 22.0715 8.60922 21.9974C8.61233 21.9987 8.61489 22.0009 8.61799 22.0022C8.72798 21.8594 8.84656 21.7171 8.97299 21.576C9.0585 21.4805 9.14802 21.3855 9.24139 21.2913C9.24413 21.2886 9.24687 21.2858 9.24961 21.2831C9.34242 21.1896 9.43907 21.0969 9.53993 21.0054C9.54249 21.003 9.54504 21.0006 9.5476 20.9984C9.67604 20.8818 9.81271 20.7673 9.95467 20.6541C10.1533 20.4957 10.3637 20.3406 10.5901 20.1906C10.5921 20.1893 10.594 20.188 10.5958 20.1868C10.7197 20.1049 10.8485 20.0245 10.9809 19.9456C10.9919 19.9392 11.0027 19.9327 11.0136 19.9261C11.1423 19.8503 11.2753 19.776 11.4123 19.7033C11.4278 19.6951 11.4434 19.6868 11.4591 19.6785C11.5957 19.607 11.7364 19.5368 11.8815 19.4686C11.8974 19.461 11.9135 19.4539 11.9294 19.4464C12.0777 19.3775 12.2297 19.3104 12.387 19.2454C12.3978 19.2408 12.4091 19.2366 12.4199 19.232C12.7457 19.0987 13.0906 18.9741 13.4559 18.8596C13.4712 18.8546 13.4864 18.8497 13.5019 18.8449C13.6753 18.7911 13.854 18.7401 14.0363 18.6913C14.0625 18.6843 14.0882 18.6771 14.1143 18.6702C14.2934 18.6232 14.4772 18.5788 14.6654 18.5365C14.6964 18.5294 14.7277 18.5226 14.7589 18.5158C14.948 18.4743 15.1413 18.4354 15.3396 18.3993C15.3699 18.3937 15.4008 18.3884 15.4315 18.3831C15.6352 18.3469 15.8431 18.313 16.0565 18.2825C16.0792 18.2794 16.1024 18.2765 16.125 18.2733C16.3505 18.242 16.5801 18.2131 16.8167 18.1884C15.6191 17.9367 13.6667 18.1023 11.7366 18.6749C13.8774 17.3022 16.6691 16.9614 18.0634 16.8782C17.697 16.1874 17.0245 15.7528 16.0693 16.0145C16.1018 15.9961 16.1311 15.9789 16.1619 15.9611C13.1824 16.6565 10.7222 17.7737 8.71483 19.2261L8.71446 19.2226L8.02201 16.441L3.82031 16.5086Z" fill="#FEE749"/>
<path d="M7.21901 25.0882L7.21993 25.0906C7.21993 25.0906 7.29301 22.387 6.41638 20.0981C5.53976 17.8091 3.82031 16.5078 3.82031 16.5078L7.21901 25.0882Z" fill="#E3A500"/>
<path d="M8.02148 16.4405L8.71376 19.2219L8.71394 19.2221L8.50584 17.3292L8.35675 15.9727L8.02148 16.4405Z" fill="#E3A500"/>
<path d="M3.82031 16.508L8.02201 16.4405L8.35745 15.9727L3.82031 16.508Z" fill="#FAB911"/>
<path d="M41.553 20.0981C42.4296 17.8093 44.1489 16.508 44.149 16.5078C44.148 16.508 42.2098 16.8854 40.6912 19.7135C40.3709 18.9295 40.2687 18.2157 40.426 17.4615C39.6753 19.1402 39.6548 20.6681 39.5441 22.227C39.4842 22.149 39.4212 22.0706 39.3601 21.9964C39.357 21.9979 39.3545 22.0001 39.3514 22.0012C39.2416 21.8586 39.1228 21.7163 38.9966 21.5754C38.9107 21.4796 38.8208 21.3841 38.7271 21.2896C38.7249 21.2874 38.7227 21.2852 38.7207 21.283C38.6273 21.1892 38.5301 21.0962 38.4289 21.004C38.4267 21.002 38.4245 21.0002 38.4225 20.9983C38.326 20.9108 38.2246 20.8245 38.1207 20.7388C37.8919 20.5503 37.646 20.3664 37.3787 20.1895C37.377 20.1884 37.3754 20.1873 37.3738 20.186C37.2495 20.1039 37.1205 20.0235 36.9877 19.9444C36.9771 19.9382 36.9669 19.9318 36.9563 19.9255C36.8273 19.8496 36.6941 19.775 36.5569 19.7023C36.5413 19.6941 36.526 19.686 36.5105 19.6779C36.3738 19.6062 36.2329 19.5361 36.0879 19.4678C36.072 19.4603 36.0559 19.4529 36.04 19.4456C35.8916 19.3767 35.7396 19.3094 35.5823 19.2446C35.5715 19.24 35.5602 19.2358 35.5494 19.2312C35.2239 19.0978 34.8787 18.9733 34.5135 18.8588C34.4981 18.8538 34.483 18.8489 34.4674 18.8439C34.2941 18.7903 34.1154 18.7393 33.9328 18.6903C33.9069 18.6833 33.8811 18.6764 33.855 18.6694C33.676 18.6224 33.492 18.5778 33.304 18.5356C33.2729 18.5286 33.2417 18.5218 33.2104 18.5148C33.0213 18.4735 32.828 18.4346 32.6298 18.3985C32.5995 18.3928 32.5686 18.3876 32.5379 18.3821C32.3342 18.346 32.1263 18.3122 31.9129 18.2817C31.8902 18.2784 31.867 18.2757 31.8443 18.2726C31.6189 18.2412 31.3892 18.2122 31.1526 18.1874C32.3502 17.9359 34.3026 18.1013 36.2328 18.6742C34.092 17.3014 31.3002 16.9606 29.906 16.8773C29.6146 17.4266 29.5174 18.1371 29.629 18.7918C31.2047 19.1884 33.8468 19.9678 35.4471 21.0629C32.8152 20.0052 30.948 19.5873 29.8125 19.4243C30.0036 19.8703 30.3162 20.2405 30.7554 20.4424C34.7976 21.2863 38.1302 22.9013 40.7482 25.0884L40.7494 25.0906C40.7494 25.09 40.6764 22.3866 41.553 20.0981Z" fill="#FBC333"/>
<path d="M29.9043 16.8781C31.2985 16.9615 34.0905 17.3023 36.231 18.675C34.3011 18.1022 32.3487 17.9368 31.1511 18.1883C31.3875 18.213 31.6173 18.2418 31.8428 18.2732C31.8655 18.2764 31.8887 18.2793 31.9111 18.2824C32.1247 18.3131 32.3326 18.3468 32.5364 18.383C32.5669 18.3885 32.5978 18.3936 32.6281 18.3991C32.8263 18.4355 33.0196 18.4744 33.2087 18.5157C33.2401 18.5225 33.2714 18.5295 33.3024 18.5364C33.4905 18.5786 33.6743 18.6231 33.8533 18.6702C33.8796 18.677 33.9054 18.6842 33.9313 18.6912C34.1138 18.7402 34.2925 18.791 34.4657 18.8448C34.4815 18.8495 34.4964 18.8547 34.512 18.8595C34.8772 18.974 35.2221 19.0986 35.5477 19.2321C35.5587 19.2365 35.5698 19.2409 35.5808 19.2453C35.7379 19.3102 35.8901 19.3774 36.0383 19.4464C36.0542 19.4538 36.0704 19.4611 36.0862 19.4685C36.2314 19.5367 36.3721 19.6068 36.5089 19.6786C36.5245 19.6867 36.5398 19.6949 36.5552 19.703C36.6924 19.7759 36.8258 19.8504 36.9546 19.9264C36.9652 19.9326 36.9756 19.9391 36.9862 19.9453C37.119 20.0242 37.248 20.1048 37.372 20.1868C37.3737 20.1879 37.3753 20.189 37.3772 20.1901C37.6443 20.3673 37.8902 20.5512 38.1189 20.7397C38.2229 20.8252 38.3245 20.9115 38.4208 20.999C38.423 21.0008 38.4252 21.0029 38.4272 21.0047C38.5286 21.0968 38.6258 21.1899 38.719 21.2839C38.7211 21.2861 38.7233 21.2881 38.7255 21.2903C38.8193 21.385 38.9092 21.4802 38.995 21.5761C39.1213 21.7172 39.2399 21.8593 39.3497 22.0021C39.3528 22.0008 39.3553 21.9986 39.3584 21.9973C39.4195 22.0714 39.4825 22.1498 39.5424 22.2278C39.6533 20.669 39.6738 19.1408 40.4245 17.4622C40.267 18.2165 40.3692 18.9303 40.6894 19.7142C42.2083 16.886 44.1464 16.5088 44.1473 16.5085L39.9456 16.4411L39.2534 19.2227L39.6104 15.9733L44.1473 16.5085H44.1475L39.6104 15.9733L39.2528 19.2262C37.2456 17.7736 34.7853 16.6564 31.8057 15.961C31.8366 15.9788 31.8658 15.9962 31.8984 16.0146C30.9433 15.7527 30.2706 16.1875 29.9043 16.8781Z" fill="#FEE749"/>
<path d="M41.5531 20.0981C40.6765 22.3866 40.7495 25.09 40.7495 25.0906L40.7499 25.0898L40.7505 25.0882L44.1492 16.5078C44.149 16.508 42.4297 17.8093 41.5531 20.0981Z" fill="#E3A500"/>
<path d="M39.2539 19.2221L39.9462 16.4405L39.6109 15.9727L39.2539 19.2221Z" fill="#E3A500"/>
<path d="M39.6113 15.9727L39.9466 16.4405L44.1485 16.508L39.6113 15.9727Z" fill="#FAB911"/>
<path d="M28.9622 19.0161C28.6328 18.274 27.9855 18.0635 27.3952 18.2439C28.5228 18.9551 28.4158 20.2469 26.4031 21.0587C26.4027 21.0587 26.4025 21.0589 26.4023 21.0589L29.5686 20.0903L28.8205 16.8516C28.9831 17.997 29.0505 18.5203 28.9622 19.0161Z" fill="#FEE749"/>
<path d="M20.5739 18.2441C19.9835 18.0637 19.3362 18.2742 19.0068 19.0162C18.9185 18.5207 18.9858 17.9974 19.1484 16.8527C19.1484 16.8523 19.1484 16.8519 19.1486 16.8516L18.4004 20.0903L21.5667 21.0591C21.5665 21.0591 21.5661 21.0589 21.566 21.0587C19.5533 20.2471 19.446 18.9553 20.5739 18.2441Z" fill="#FEE749"/>
<path d="M26.4031 12.6449C28.4158 13.4565 28.523 14.7485 27.3952 15.4597C27.9855 15.6401 28.633 15.4296 28.9624 14.6875C29.0507 15.1833 28.9833 15.7066 28.8206 16.852L29.4751 14.0182L29.5686 13.6133L26.4023 12.6447V12.6445V12.6447C26.4027 12.6447 26.4029 12.6449 26.4031 12.6449Z" fill="#FAB911"/>
<path d="M19.0068 14.6873C19.3362 15.4294 19.9835 15.6399 20.5739 15.4595C19.4462 14.7483 19.5533 13.4565 21.5661 12.6447C21.5663 12.6447 21.5665 12.6445 21.5667 12.6445L18.4006 13.6131H18.4004L19.1486 16.8519C19.1486 16.8517 19.1486 16.8515 19.1484 16.8511C18.986 15.7062 18.9185 15.1829 19.0068 14.6873Z" fill="#FAB911"/>
<path d="M36.6328 13.3129L36.6394 13.3039L36.6816 13.2453L36.6328 13.3129L38.5368 12.6914L36.6328 13.3129Z" fill="#05063A"/>
<path d="M40.7506 25.0875C40.7506 25.088 40.7506 25.0886 40.7505 25.0893C40.7505 25.0891 40.7503 25.0889 40.7501 25.0889L40.7499 25.0891L40.7497 25.0899L40.7484 25.0875C38.1304 22.9006 34.7979 21.2856 30.7557 20.4417C30.4259 20.3728 30.0908 20.3097 29.7515 20.2513L26.5094 21.243V21.2432L23.985 23.6133L21.4607 21.243L18.2186 20.2513C17.8793 20.3097 17.5442 20.3728 17.2144 20.4417C13.1722 21.2856 9.8395 22.9006 7.2215 25.0877L7.2204 25.0899L7.22004 25.0889C7.21986 25.0889 7.21967 25.0891 7.21949 25.0893V25.0875L3.82079 16.5069L8.35793 15.9717L8.50684 17.3283L8.71494 19.2211V19.2209L8.71531 19.2246C10.7227 17.7721 13.1828 16.6548 16.1624 15.9594C16.9422 15.7775 17.7587 15.6254 18.6105 15.5024C18.6151 15.5018 18.6196 15.5009 18.6244 15.5004L18.1552 13.4695L21.4605 12.4584H21.4607L23.985 10.0881L26.5094 12.4584L29.8149 13.4695L29.3458 15.5004C29.3503 15.5009 29.3549 15.5017 29.3595 15.5024C30.2112 15.6254 31.0277 15.7775 31.8075 15.9594C34.7871 16.6548 37.2474 17.7721 39.2546 19.2246L39.6122 15.9717L44.1493 16.5069L40.7506 25.0875ZM40.4439 59.2315C40.7079 54.8858 40.2718 54.3388 39.2559 48.8296C39.1066 48.0204 39.0158 47.2576 38.9702 46.5357C38.9223 45.7741 38.9261 45.0593 38.9705 44.3876C38.9733 44.3483 38.9753 44.3085 38.9782 44.2696C38.9804 44.2391 38.9826 44.2084 38.9851 44.1782C39.0158 43.7914 39.0595 43.419 39.1147 43.0606C39.3082 41.8022 39.637 40.7145 39.9997 39.7655C40.3207 38.9258 40.668 38.1942 40.9719 37.5494C40.4769 40.6006 40.2789 44.3452 41.3349 48.9682C42.5011 54.0738 41.3349 57.5671 40.4439 59.2315ZM37.9978 64.4351C38.2804 61.9958 37.9949 61.6752 37.429 58.5439C37.3439 58.0722 37.2991 57.6297 37.2862 57.2129C37.2368 55.6205 37.6607 54.4111 38.1507 53.4617C38.3901 52.9981 38.6449 52.5963 38.8678 52.2419C38.4577 53.9457 38.2342 56.0483 38.8483 58.6818C39.5265 61.5902 38.6466 63.5236 37.9978 64.4351ZM35.6551 31.3862C35.1138 31.8495 34.5923 32.6349 31.1637 32.5745C32.9884 31.9905 34.412 31.084 34.9333 30.7215C35.4545 30.359 36.1362 29.9561 36.2966 30.1172C36.457 30.2784 36.1965 30.9228 35.6551 31.3862ZM11.7051 30.1172C11.8655 29.9561 12.5472 30.359 13.0685 30.7215C13.5897 31.084 15.0134 31.9905 16.8381 32.5745C13.4094 32.6349 12.8879 31.8495 12.3466 31.3862C11.8052 30.9228 11.5447 30.2784 11.7051 30.1172ZM35.3579 48.4218C35.4127 48.516 35.4642 48.6105 35.5137 48.7054C34.6894 48.3198 33.9245 48.0404 33.2378 47.8383C32.6301 47.6594 32.0832 47.5401 31.6131 47.4623C30.4316 47.2668 29.7289 47.3274 29.7289 47.3274C29.7289 47.3274 30.6812 47.6407 31.961 48.2341C32.4954 48.482 33.0863 48.7788 33.6898 49.1224C34.5516 49.613 35.4366 50.1983 36.215 50.8728C36.3474 51.8148 36.2625 52.7202 36.0246 53.5101C35.1695 52.5994 34.3267 51.872 33.5381 51.2928C33.0165 50.9095 32.5197 50.5924 32.0577 50.3281C30.2642 49.3021 29.0105 49.0916 29.0105 49.0916C29.0105 49.0916 30.2982 49.9142 31.752 51.2102C32.1565 51.5708 32.5738 51.9682 32.98 52.3948C33.7221 53.1741 34.4266 54.0507 34.9459 54.9788C34.9983 55.0724 35.0476 55.1604 35.0986 55.251C34.7818 55.6155 34.418 55.8929 34.0263 56.0527C33.8224 56.1359 33.5949 56.2003 33.3512 56.2475C32.741 55.2174 32.1061 54.3623 31.4929 53.6549C31.1416 53.2495 30.7981 52.8933 30.4703 52.5816C28.9924 51.176 27.8439 50.6755 27.8439 50.6755C27.8439 50.6755 28.6628 51.5402 29.6107 52.8488C29.8623 53.1961 30.1224 53.5738 30.3793 53.9758C30.8339 54.6875 31.2757 55.4735 31.6351 56.2893C29.762 56.0639 27.6448 54.995 26.6938 52.8204C25.2818 49.5919 25.9156 47.753 27.7617 46.2024C28.0372 45.9712 28.4298 45.7241 28.9032 45.5294C30.5087 44.7763 33.6024 43.3317 31.6055 39.512C31.1819 41.318 29.9867 41.6216 29.6606 41.6715C29.6821 41.6427 29.7002 41.6174 29.7205 41.5899C29.715 41.5941 29.7095 41.5985 29.704 41.6027C29.6739 41.6264 29.6434 41.6499 29.6114 41.6723C29.5705 41.2015 29.2411 40.8144 28.7991 40.6951L28.7993 40.6947C28.7867 40.6914 28.7697 40.687 28.7498 40.6824C28.7419 40.6806 28.7342 40.6788 28.7264 40.6773C28.4255 40.6101 27.4737 40.4719 26.0802 40.9686C24.8625 41.4023 24.5793 41.4195 24.0012 41.4195C23.4231 41.4195 23.14 41.4023 21.9224 40.9686C20.5285 40.4719 19.5772 40.6101 19.2761 40.6773C19.2682 40.6788 19.2604 40.6808 19.2525 40.6824C19.2328 40.6872 19.2158 40.6914 19.2034 40.6947V40.6951C18.7612 40.8144 18.4318 41.2017 18.3911 41.6728C18.3587 41.6502 18.328 41.6266 18.2977 41.6027C18.2922 41.5985 18.2867 41.5941 18.2812 41.5899C18.3015 41.6174 18.3196 41.6427 18.3412 41.6715C18.015 41.6216 16.82 41.318 16.3963 39.512C14.3993 43.3317 17.4931 44.7763 19.0985 45.5294C19.5719 45.7241 19.9645 45.9712 20.24 46.2024C22.0861 47.753 22.7199 49.5919 21.308 52.8204C20.357 54.995 18.2398 56.0639 16.3667 56.2893C16.7261 55.4735 17.1678 54.6875 17.6224 53.9758C17.8793 53.5738 18.1395 53.1961 18.3911 52.8488C19.3389 51.5402 20.1578 50.6755 20.1578 50.6755C20.1578 50.6755 19.0093 51.176 17.5314 52.5816C17.2037 52.8933 16.8602 53.2495 16.5088 53.6549C15.8957 54.3623 15.2608 55.2174 14.6503 56.2475C14.4068 56.2003 14.1793 56.1359 13.9754 56.0527C13.5837 55.8929 13.2199 55.6155 12.9031 55.251C12.9541 55.1604 13.0036 55.0724 13.0559 54.9788C13.5751 54.0507 14.2796 53.1741 15.0218 52.3948C15.4279 51.9682 15.8452 51.5708 16.2497 51.2102C17.7035 49.9142 18.9912 49.0916 18.9912 49.0916C18.9912 49.0916 17.7375 49.3021 15.9441 50.3281C15.482 50.5924 14.9852 50.9095 14.4636 51.2928C13.675 51.872 12.8322 52.5994 11.9772 53.5101C11.7393 52.7202 11.6545 51.8148 11.7868 50.8728C12.5651 50.1983 13.4501 49.613 14.312 49.1224C14.9156 48.7788 15.5063 48.482 16.0407 48.2341C17.3204 47.6407 18.2728 47.3274 18.2728 47.3274C18.2728 47.3274 17.5702 47.2668 16.3886 47.4623C15.9185 47.5401 15.3717 47.6594 14.764 47.8383C14.0772 48.0404 13.3124 48.3198 12.488 48.7054C12.5375 48.6105 12.589 48.516 12.6439 48.4218C13.3765 47.1635 14.179 46.3502 14.984 45.8498C12.8182 46.3652 12.4394 47.1526 11.0729 48.7331C11.5988 45.7907 12.6777 42.57 9.33267 38.1751C9.89742 38.472 10.3734 38.8002 10.7755 39.1425C11.0839 39.4052 11.3476 39.6763 11.5747 39.9483C12.7263 41.3276 12.9141 42.7307 12.944 43.1738C12.9503 43.2663 12.9497 43.317 12.9497 43.317C12.9497 43.317 13.1203 41.4316 11.892 38.4836C10.6635 35.5356 9.0725 35.9939 8.0572 34.0887C7.81091 33.6265 7.66749 33.138 7.60573 32.6481C7.6008 32.6103 7.59769 32.5723 7.59386 32.5345C7.58362 32.4313 7.57668 32.3287 7.57357 32.2259C7.56681 32.0099 7.57485 31.7954 7.59769 31.5839C7.65926 31.0135 7.82187 30.4684 8.05866 29.9888C8.23223 29.6375 8.44307 29.3201 8.68425 29.0569C8.86184 30.3555 9.05331 31.3945 9.84461 32.4847C9.72384 31.3945 9.83877 30.5671 10.1176 29.9823C10.9365 32.3133 11.9602 33.0332 13.4956 33.7532C12.199 34.3016 11.7413 34.3934 11.0247 34.3934C12.4913 35.406 15.8482 34.6105 17.248 34.1649L17.2493 34.1645C17.7269 35.4328 17.2152 37.1124 16.8399 37.6953C17.9317 37.2153 18.546 35.5356 18.7506 34.7472C18.7583 34.8023 18.7652 34.8499 18.7724 34.8983C18.8613 33.9725 18.8687 33.0163 18.8522 32.2511C18.821 30.8083 18.9918 30.0236 19.5452 29.5785C19.6271 29.5128 19.7168 29.4543 19.8158 29.4025C19.8182 29.4012 19.8202 29.3998 19.8226 29.3985C19.793 29.3996 19.7668 29.4036 19.7381 29.4055C18.3744 29.497 18.1404 30.4847 16.7673 30.6262C15.3654 30.7706 14.1793 29.9401 12.6338 28.8569C11.0881 27.7736 9.41269 27.5376 8.85964 27.4487C9.19893 26.9234 9.57202 26.4446 9.97105 26.007C10.3344 25.6085 10.7196 25.2444 11.1228 24.9138C11.4435 24.6512 11.7753 24.4096 12.116 24.1874C14.43 22.6779 17.1538 22.0757 19.571 22.0324C19.2867 22.1618 19.0314 22.2863 18.7974 22.4067C18.1895 22.7196 17.7408 23.0021 17.4079 23.2502C16.938 23.6008 16.6954 23.884 16.5518 24.0905C19.4255 23.0085 22.6262 23.2961 22.6262 23.2961L24.0009 24.885L25.3755 23.2961C25.3755 23.2961 28.5762 23.0085 31.45 24.0905C31.3064 23.884 31.0637 23.6008 30.5938 23.2502C30.2609 23.0021 29.8122 22.7196 29.2043 22.4067C28.9705 22.2863 28.7149 22.1618 28.4308 22.0324C30.8481 22.0757 33.5721 22.6779 35.8863 24.1877C36.2268 24.4098 36.5586 24.6516 36.8793 24.9142C37.2845 25.2462 37.6715 25.6124 38.0365 26.0133C38.4334 26.4492 38.8044 26.9258 39.1421 27.4487C38.589 27.5376 36.9136 27.7736 35.3679 28.8569C33.8224 29.9401 32.6363 30.7706 31.2344 30.6262C29.871 30.4858 29.6302 29.511 28.2917 29.4078C28.2541 29.4049 28.2186 29.4 28.1792 29.3985C28.9544 29.8008 29.1855 30.59 29.1497 32.2511C29.1331 33.0163 29.1404 33.9725 29.2294 34.8983C29.2365 34.8499 29.2434 34.8023 29.2511 34.7472C29.4557 35.5356 30.07 37.2153 31.1619 37.6953C30.7866 37.1124 30.2748 35.4328 30.7524 34.1645C30.753 34.1645 30.7533 34.1647 30.7537 34.1649C32.1536 34.6105 35.5104 35.406 36.977 34.3934C36.2604 34.3934 35.8028 34.3016 34.5061 33.7532C36.0416 33.0332 37.0653 32.3133 37.8842 29.9823C38.163 30.5671 38.2779 31.3945 38.1571 32.4847C38.9484 31.3945 39.1399 30.3555 39.3175 29.0569C39.5587 29.3201 39.7695 29.6375 39.9431 29.9888C40.1799 30.4684 40.3425 31.0135 40.404 31.5839C40.4269 31.7954 40.4349 32.0099 40.4282 32.2259C40.4251 32.3287 40.4181 32.4313 40.4079 32.5345C40.404 32.5723 40.4009 32.6103 40.3962 32.6481C40.3342 33.138 40.1908 33.6265 39.9445 34.0887C38.9292 35.9939 37.3382 35.5356 36.1097 38.4836C34.8814 41.4316 35.052 43.317 35.052 43.317C35.052 43.317 35.0515 43.2663 35.0577 43.1738C35.0877 42.7307 35.2755 41.3276 36.4271 39.9483C36.6542 39.6763 36.9178 39.4052 37.2262 39.1425C37.6284 38.8002 38.1043 38.472 38.6691 38.1751C35.3241 42.57 36.403 45.7907 36.9288 48.7331C35.5623 47.1526 35.1836 46.3652 33.0178 45.8498C33.823 46.3502 34.6252 47.1635 35.3579 48.4218ZM35.9334 63.6682C36.3661 66.1574 35.5508 67.7269 34.9726 68.4519C35.3153 66.4186 35.0928 66.1308 34.7632 63.4612C34.6594 62.622 34.6941 61.8985 34.8125 61.2692C34.9574 60.499 35.228 59.8706 35.5245 59.3436C35.762 58.9217 36.0162 58.5645 36.236 58.2536C35.8201 59.6601 35.5415 61.4142 35.9334 63.6682ZM28.7669 41.8386C28.7289 41.9801 28.5846 42.0639 28.4434 42.0269C28.4319 42.0239 27.7129 41.8499 26.5392 42.2682C25.2453 42.7291 24.8137 42.7987 24.0012 42.7987C23.1887 42.7987 22.7572 42.7291 21.4634 42.2682C20.2859 41.849 19.5664 42.025 19.5589 42.0269C19.418 42.0627 19.273 41.9784 19.2359 41.8365C19.199 41.695 19.2817 41.55 19.4226 41.512C19.4575 41.5025 20.2927 41.2859 21.6407 41.7661C22.9289 42.2249 23.292 42.2658 24.0012 42.2658C24.7105 42.2658 25.0737 42.2249 26.3618 41.7661C27.7098 41.2861 28.5451 41.5025 28.5798 41.512C28.7213 41.5502 28.8051 41.6965 28.7669 41.8386ZM30.3773 66.8204C30.818 63.0581 29.3688 62.4508 29.3688 62.4508C29.7662 64.5593 29.6666 68.1437 27.9137 70.5591C27.9893 69.3692 27.0824 68.542 27.0824 68.542C27.0824 68.542 27.0855 68.5596 27.0904 68.5919C27.0955 68.5954 27.1014 68.598 27.1063 68.6022C27.2569 68.7323 27.2461 69.2194 27.1531 69.3727C27.1937 70.8221 26.8944 73.841 24.0067 75.7339C21.1075 73.7481 20.801 70.8383 20.8477 69.4052C20.8448 69.4021 20.8415 69.3995 20.8386 69.3956C20.7425 69.2635 20.7682 68.7588 20.8901 68.613C20.9003 68.6007 20.9117 68.5921 20.9232 68.5851C20.9279 68.558 20.931 68.542 20.931 68.542C20.931 68.542 20.0241 69.3692 20.0995 70.5591C18.3468 68.1437 18.2473 64.5593 18.6447 62.4508C18.6447 62.4508 17.1954 63.0581 17.6359 66.8204C14.2983 61.6487 17.0312 56.6825 24.0067 56.6825C30.9821 56.6825 33.7152 61.6487 30.3773 66.8204ZM13.2386 63.4612C12.909 66.1308 12.6864 66.4186 13.0292 68.4519C12.4509 67.7269 11.6357 66.1574 12.0683 63.6682C12.4602 61.4142 12.1816 59.6601 11.7658 58.2536C11.9856 58.5645 12.2397 58.9217 12.477 59.3436C12.7738 59.8706 13.0445 60.499 13.1894 61.2693C13.3076 61.8987 13.3423 62.622 13.2386 63.4612ZM10.7156 57.2129C10.7026 57.6297 10.6578 58.0722 10.5727 58.5439C10.0069 61.6752 9.72128 61.9958 10.0039 64.4351C9.35514 63.5236 8.47523 61.5902 9.15343 58.6818C9.76751 56.0483 9.54406 53.9457 9.13389 52.2419C9.35679 52.5963 9.61166 52.9981 9.85101 53.4617C10.341 54.4111 10.7649 55.6205 10.7156 57.2129ZM7.55786 59.2315C6.6668 57.5671 5.50059 54.0738 6.6668 48.9682C7.72285 44.3452 7.52479 40.6006 7.02984 37.5494C7.33368 38.1942 7.68101 38.9258 8.00202 39.7655C8.36469 40.7147 8.69356 41.8022 8.88705 43.0606C8.94223 43.419 8.98589 43.7914 9.01677 44.1782C9.01915 44.2084 9.02134 44.2391 9.02353 44.2696C9.02645 44.3085 9.02847 44.3483 9.03121 44.3876C9.0756 45.0593 9.07944 45.7741 9.03157 46.5357C8.98589 47.2576 8.89509 48.0204 8.74582 48.8296C7.72997 54.3388 7.29385 54.8858 7.55786 59.2315ZM9.18797 12.6142H10.8283L10.9599 12.2076L11.3351 11.0471L11.5098 11.5871L11.8421 12.6142H13.4823L13.0573 12.9244L12.1553 13.5827L12.5379 14.7655L12.6623 15.1498L12.2688 14.8626L11.3351 14.1813L10.0083 15.1498L10.5151 13.5827L9.18797 12.6142ZM14.6388 9.02264H16.4862L16.6225 8.60105L17.0569 7.25771L17.6279 9.02264H19.4751L17.9805 10.1132L18.39 11.3795L18.4037 11.4215L18.5513 11.8782L17.0569 10.7874L15.5624 11.8782L16.1334 10.1132L15.3768 9.56115L14.6388 9.02264ZM23.2182 5.82682L24.0009 3.40683L24.7836 5.82682H27.3164L25.2672 7.3225L25.8919 9.2539L26.0497 9.74231L24.0009 8.24681L21.9515 9.74231L22.7343 7.3225L20.6853 5.82682H23.2182ZM28.4949 9.02264H30.3422L30.913 7.25771H30.9132L31.3477 8.60105L31.484 9.02264H33.3313L32.7722 9.43047L32.5934 9.56115L31.8368 10.1132L32.4077 11.8782L30.9132 10.7874L29.4188 11.8782L29.9894 10.1132L28.4949 9.02264ZM34.4877 12.6142H36.128L36.4601 11.5871L36.6348 11.0471L37.0103 12.2076L37.1418 12.6142H38.782L37.455 13.5827L37.6132 14.072L37.9618 15.1498L36.6348 14.1813L35.8543 14.7508L35.3078 15.1498L35.8146 13.5827L35.1405 13.0905L34.4877 12.6142ZM46.447 18.5829V15.7122C46.2077 15.5119 45.9205 15.2759 45.59 15.0096C45.5238 14.9562 45.456 14.9018 45.3866 14.846C44.4831 14.1225 43.295 13.2006 41.909 12.1757C40.8429 11.3872 39.6595 10.5376 38.3987 9.66999C38.1465 9.49636 37.8913 9.32218 37.6333 9.14763C37.2461 8.88572 36.8528 8.62289 36.4541 8.36042C36.0556 8.09796 35.6519 7.83587 35.2439 7.57524C34.972 7.40161 34.6981 7.22852 34.4228 7.05636C33.8723 6.71222 33.3156 6.37212 32.7552 6.03881C32.6151 5.95548 32.4748 5.87252 32.3345 5.79011C31.913 5.5427 31.4898 5.29969 31.0661 5.06182C28.6654 3.71463 26.2454 2.53996 24.0009 1.75C21.7563 2.53996 19.3366 3.71463 16.9356 5.06182C16.5938 5.25362 16.2527 5.44927 15.9121 5.6475C15.6897 5.7769 15.4678 5.90703 15.2465 6.03881C14.7729 6.32055 14.3021 6.60742 13.8349 6.89724C13.6964 6.98313 13.5581 7.06939 13.4204 7.15602C13.2517 7.26193 13.0838 7.36802 12.9165 7.47447C12.7272 7.59487 12.5386 7.71546 12.3513 7.83641C12.2163 7.92341 12.0819 8.01078 11.9477 8.09815C11.7256 8.24296 11.5052 8.38814 11.2862 8.53332C11.0655 8.6796 10.8466 8.8257 10.6295 8.9718C10.4545 9.08945 10.2806 9.2071 10.1081 9.32457C10.0259 9.38036 9.94419 9.43616 9.86252 9.49196C9.01312 10.0732 8.1966 10.6479 7.42577 11.2029C7.31048 11.2859 7.19611 11.3685 7.08283 11.4507C4.59053 13.2575 2.60762 14.8312 1.55469 15.7122V42.3771C1.55469 44.9738 1.75183 47.4004 2.10957 49.666C2.16913 50.0436 2.23308 50.4167 2.30141 50.7855C2.57474 52.2604 2.91658 53.6643 3.31597 55.0001C3.51567 55.6682 3.72962 56.3191 3.95673 56.9532C4.07037 57.2703 4.18712 57.5831 4.30697 57.892C4.42683 58.2007 4.54979 58.5054 4.67567 58.8059C4.92744 59.407 5.19072 59.9917 5.46442 60.5603C5.73811 61.1291 6.02204 61.6818 6.31491 62.2186C6.46126 62.4871 6.60998 62.7516 6.76072 63.0123C7.21273 63.7943 7.68338 64.5413 8.16792 65.2546C8.49076 65.73 8.82 66.1905 9.15398 66.6361C9.48779 67.0819 9.82653 67.5129 10.1687 67.9297C10.5109 68.3463 10.8564 68.7487 11.2041 69.1368C11.5518 69.5252 11.9015 69.8995 12.2518 70.2601C12.6022 70.6206 12.9534 70.9675 13.3036 71.301C13.654 71.6345 14.0037 71.9548 14.3514 72.2618C14.6991 72.5691 15.0446 72.8631 15.3868 73.1447C16.0711 73.7074 16.7418 74.2197 17.3876 74.6836C17.7107 74.9156 18.0275 75.1357 18.3368 75.344C18.6459 75.5524 18.9478 75.7491 19.2406 75.9343C19.5335 76.1197 19.8174 76.2937 20.091 76.4567C20.2278 76.5382 20.3621 76.6169 20.4936 76.6929C21.8089 77.4529 22.85 77.9421 23.446 78.202C23.5651 78.2541 23.6665 78.2968 23.7487 78.3308C23.9132 78.3987 24.0009 78.4314 24.0009 78.4314C24.0009 78.4314 24.0886 78.3987 24.253 78.3308C24.3352 78.2968 24.4364 78.2541 24.5557 78.202C25.0324 77.994 25.7941 77.6394 26.7532 77.1167C26.993 76.986 27.245 76.8448 27.5081 76.6929C27.6396 76.6169 27.7739 76.5382 27.9108 76.4567C28.1843 76.2937 28.4684 76.1197 28.7611 75.9343C29.054 75.7491 29.3558 75.5524 29.6649 75.344C29.9743 75.1357 30.2911 74.9156 30.6141 74.6836C30.7756 74.5676 30.9386 74.4485 31.103 74.3265C31.5961 73.9603 32.1017 73.5668 32.6149 73.1447C32.9571 72.8631 33.3028 72.5691 33.6503 72.2618C33.998 71.9548 34.3477 71.6345 34.6981 71.301C35.2236 70.8007 35.7507 70.2704 36.2747 69.7089C36.6242 69.3345 36.9721 68.9463 37.3174 68.5438C37.6625 68.1415 38.0051 67.7249 38.3435 67.2937C38.5127 67.0782 38.6809 66.8591 38.8478 66.6361C39.6827 65.5218 40.4875 64.3156 41.241 63.0123C41.9945 61.7089 42.6966 60.3087 43.3261 58.8059C45.2141 54.2977 46.447 48.8686 46.447 42.3771V18.5829Z" fill="#05063A"/>
<path d="M30.5028 9.94761L30.0938 10.0811L30.7374 9.87109L30.5028 9.94761Z" fill="#05063A"/>
<path d="M22.1836 9.42265L24.0006 6.91016L22.1836 9.42265Z" fill="#05063A"/>
<path d="M31.9642 26.2632C31.9987 26.2632 32.0347 26.2626 32.0659 26.2635C31.6866 25.8572 29.917 25.6287 28.5518 25.9588C27.1864 26.289 25.4419 26.4414 24.0007 26.4414C22.5597 26.4414 20.8153 26.289 19.4499 25.9588C18.0847 25.6287 16.3148 25.8572 15.9355 26.2635C15.967 26.2626 16.003 26.2632 16.0375 26.2632C16.8968 26.265 18.7295 26.5889 19.6776 27.1018C20.6634 27.6351 22.6608 28.143 24.0007 28.143C25.3407 28.143 27.3381 27.6351 28.3241 27.1018C29.272 26.5889 31.1049 26.265 31.9642 26.2632Z" fill="#05063A"/>
<path d="M20.2321 31.5449C19.1197 32.4594 19.804 34.4563 19.7534 35.4468C19.703 36.4374 19.0089 37.0441 18.8825 38.1361C19.7623 36.738 20.234 36.7536 20.3617 35.5999C20.5133 34.2283 19.8046 33.1319 20.2321 31.5449Z" fill="#05063A"/>
<path d="M27.7662 31.5456C28.1938 33.1326 27.4851 34.2289 27.6367 35.6006C27.7643 36.7543 28.2361 36.7387 29.1159 38.1368C28.9895 37.0448 28.2954 36.4381 28.2449 35.4475C28.1943 34.457 28.8787 32.4601 27.7662 31.5456Z" fill="#05063A"/>
<path d="M19.5584 42.0288C19.5659 42.0271 20.2854 41.8509 21.4628 42.2701C22.7565 42.731 23.1882 42.8007 24.0006 42.8007C24.8131 42.8007 25.2448 42.731 26.5385 42.2701C27.7122 41.852 28.4312 42.0258 28.4429 42.0288C28.5839 42.0658 28.7283 41.982 28.7663 41.8405C28.8045 41.6984 28.7206 41.5521 28.5794 41.5139C28.5446 41.5046 27.7093 41.288 26.3611 41.768C25.073 42.2268 24.7098 42.2677 24.0006 42.2677C23.2915 42.2677 22.9283 42.2268 21.6402 41.768C20.292 41.2878 19.457 41.5044 19.4219 41.5139C19.2813 41.5519 19.1983 41.6969 19.2354 41.8384C19.2723 41.9803 19.4176 42.0646 19.5584 42.0288Z" fill="#EB5437"/>
<path opacity="0.2" fill-rule="evenodd" clip-rule="evenodd" d="M24.1017 0.0179693L24.0507 0L23.5369 0.180972C19.777 1.50431 15.2041 3.96394 9.94487 7.49124C6.01248 10.1287 2.45866 12.8703 0.610227 14.4168L0.0507812 14.8847V42.2811C0.0507812 48.8218 1.2771 54.8647 3.69577 60.242C5.63684 64.5572 8.34235 68.4481 11.7374 71.8067C17.52 77.5275 23.2689 79.7089 23.5108 79.799L24.0507 80L24.1017 79.981V0.0179693Z" fill="white"/>
</svg>
