<svg xmlns="http://www.w3.org/2000/svg" xmlns:xlink="http://www.w3.org/1999/xlink" width="1920" zoomAndPan="magnify" viewBox="0 0 1440 809.999993" height="1080" preserveAspectRatio="xMidYMid meet" version="1.0"><defs><filter x="0%" y="0%" width="100%" height="100%" id="id1"><feColorMatrix values="0 0 0 0 1 0 0 0 0 1 0 0 0 0 1 0 0 0 1 0" color-interpolation-filters="sRGB"/></filter><clipPath id="id2"><path d="M 0 523.074219 L 689.820312 523.074219 L 689.820312 810 L 0 810 Z M 0 523.074219 " clip-rule="nonzero"/></clipPath><clipPath id="id3"><path d="M 0 523.074219 L 348 523.074219 L 348 810 L 0 810 Z M 0 523.074219 " clip-rule="nonzero"/></clipPath><mask id="id4"><g filter="url(#id1)"><rect x="-144" width="1728" fill="#000000" y="-80.999999" height="971.999992" fill-opacity="0.098"/></g></mask><clipPath id="id5"><path d="M 0 0.0742188 L 347 0.0742188 L 347 287 L 0 287 Z M 0 0.0742188 " clip-rule="nonzero"/></clipPath><clipPath id="id6"><rect x="0" width="348" y="0" height="287"/></clipPath><clipPath id="id7"><path d="M 328.363281 566.359375 L 1157.113281 566.359375 L 1157.113281 810 L 328.363281 810 Z M 328.363281 566.359375 " clip-rule="nonzero"/></clipPath><clipPath id="id8"><path d="M 328.363281 566.359375 L 798 566.359375 L 798 810 L 328.363281 810 Z M 328.363281 566.359375 " clip-rule="nonzero"/></clipPath><mask id="id9"><g filter="url(#id1)"><rect x="-144" width="1728" fill="#000000" y="-80.999999" height="971.999992" fill-opacity="0.098"/></g></mask><clipPath id="id10"><path d="M 0.363281 0.359375 L 469 0.359375 L 469 244 L 0.363281 244 Z M 0.363281 0.359375 " clip-rule="nonzero"/></clipPath><clipPath id="id11"><rect x="0" width="470" y="0" height="244"/></clipPath><clipPath id="id12"><path d="M 896.816406 561.605469 L 1440 561.605469 L 1440 810 L 896.816406 810 Z M 896.816406 561.605469 " clip-rule="nonzero"/></clipPath><clipPath id="id13"><path d="M 896.816406 561.605469 L 1304 561.605469 L 1304 810 L 896.816406 810 Z M 896.816406 561.605469 " clip-rule="nonzero"/></clipPath><mask id="id14"><g filter="url(#id1)"><rect x="-144" width="1728" fill="#000000" y="-80.999999" height="971.999992" fill-opacity="0.098"/></g></mask><clipPath id="id15"><path d="M 0.816406 0.605469 L 407 0.605469 L 407 249 L 0.816406 249 Z M 0.816406 0.605469 " clip-rule="nonzero"/></clipPath><clipPath id="id16"><rect x="0" width="408" y="0" height="249"/></clipPath><clipPath id="id17"><path d="M 897.546875 53.84375 L 1358.796875 53.84375 L 1358.796875 515.09375 L 897.546875 515.09375 Z M 897.546875 53.84375 " clip-rule="nonzero"/></clipPath><mask id="id18"><g filter="url(#id1)"><rect x="-144" width="1728" fill="#000000" y="-80.999999" height="971.999992" fill-opacity="0.2"/></g></mask><clipPath id="id19"><path d="M 1 1 L 265.480469 1 L 265.480469 94 L 1 94 Z M 1 1 " clip-rule="nonzero"/></clipPath><clipPath id="id20"><rect x="0" width="266" y="0" height="95"/></clipPath><mask id="id21"><g filter="url(#id1)"><rect x="-144" width="1728" fill="#000000" y="-80.999999" height="971.999992" fill-opacity="0.0784"/></g></mask><clipPath id="id22"><path d="M 0.359375 1 L 221.878906 1 L 221.878906 55 L 0.359375 55 Z M 0.359375 1 " clip-rule="nonzero"/></clipPath><clipPath id="id23"><rect x="0" width="222" y="0" height="56"/></clipPath><mask id="id24"><g filter="url(#id1)"><rect x="-144" width="1728" fill="#000000" y="-80.999999" height="971.999992" fill-opacity="0.149"/></g></mask><clipPath id="id25"><rect x="0" width="133" y="0" height="18"/></clipPath><mask id="id26"><g filter="url(#id1)"><rect x="-144" width="1728" fill="#000000" y="-80.999999" height="971.999992" fill-opacity="0.098"/></g></mask><clipPath id="id27"><rect x="0" width="275" y="0" height="109"/></clipPath><mask id="id28"><g filter="url(#id1)"><rect x="-144" width="1728" fill="#000000" y="-80.999999" height="971.999992" fill-opacity="0.0667"/></g></mask><clipPath id="id29"><rect x="0" width="186" y="0" height="37"/></clipPath><mask id="id30"><g filter="url(#id1)"><rect x="-144" width="1728" fill="#000000" y="-80.999999" height="971.999992" fill-opacity="0.2471"/></g></mask><clipPath id="id31"><path d="M 1 0.28125 L 15 0.28125 L 15 14 L 1 14 Z M 1 0.28125 " clip-rule="nonzero"/></clipPath><clipPath id="id32"><rect x="0" width="16" y="0" height="15"/></clipPath><mask id="id33"><g filter="url(#id1)"><rect x="-144" width="1728" fill="#000000" y="-80.999999" height="971.999992" fill-opacity="0.2471"/></g></mask><clipPath id="id34"><rect x="0" width="21" y="0" height="21"/></clipPath><mask id="id35"><g filter="url(#id1)"><rect x="-144" width="1728" fill="#000000" y="-80.999999" height="971.999992" fill-opacity="0.2471"/></g></mask><clipPath id="id36"><rect x="0" width="17" y="0" height="17"/></clipPath><mask id="id37"><g filter="url(#id1)"><rect x="-144" width="1728" fill="#000000" y="-80.999999" height="971.999992" fill-opacity="0.2471"/></g></mask><clipPath id="id38"><path d="M 2 0.441406 L 26 0.441406 L 26 24 L 2 24 Z M 2 0.441406 " clip-rule="nonzero"/></clipPath><clipPath id="id39"><rect x="0" width="28" y="0" height="26"/></clipPath></defs><g clip-path="url(#id2)"><path fill="#fbf1ef" d="M 689.8125 839.507812 C 689.8125 840.5625 689.8125 841.878906 689.8125 842.929688 L -100.667969 842.929688 C -100.667969 841.878906 -100.667969 840.5625 -100.667969 839.507812 C -100.667969 774.984375 -48.234375 722.3125 16.585938 722.3125 C 30.285156 722.3125 43.460938 724.679688 55.847656 729.15625 C 51.367188 714.410156 48.996094 698.871094 48.996094 682.804688 C 48.996094 594.578125 120.929688 522.945312 209.464844 522.945312 C 267.695312 522.945312 318.550781 554.019531 346.742188 600.375 C 355.703125 598.265625 365.1875 597.214844 374.675781 597.214844 C 396.542969 597.214844 417.359375 602.742188 435.277344 612.75 C 474.011719 634.082031 500.097656 675.167969 500.097656 722.3125 C 500.097656 731.792969 499.042969 741.273438 496.9375 750.226562 C 517.488281 732.84375 543.835938 722.3125 572.820312 722.3125 C 637.378906 722.574219 689.8125 774.984375 689.8125 839.507812 Z M 689.8125 839.507812 " fill-opacity="1" fill-rule="nonzero"/></g><g clip-path="url(#id3)"><g mask="url(#id4)"><g transform="matrix(1, 0, 0, 1, 0, 523)"><g clip-path="url(#id6)"><g clip-path="url(#id5)"><path fill="#b175ff" d="M 346.21875 77.109375 C 298.261719 88.699219 261.109375 128.464844 253.46875 177.976562 C 238.976562 172.183594 223.164062 168.761719 206.566406 168.761719 C 137.792969 168.761719 81.933594 224.332031 81.933594 293.332031 C 81.933594 302.550781 82.984375 311.503906 84.832031 320.195312 L -100.667969 320.195312 C -100.667969 319.140625 -100.667969 317.824219 -100.667969 316.769531 C -100.667969 252.246094 -48.234375 199.574219 16.585938 199.574219 C 30.285156 199.574219 43.460938 201.945312 55.847656 206.421875 C 51.367188 191.671875 48.996094 176.132812 48.996094 160.070312 C 48.996094 71.578125 120.929688 -0.0546875 209.464844 -0.0546875 C 267.433594 -0.0546875 318.285156 30.757812 346.21875 77.109375 Z M 346.21875 77.109375 " fill-opacity="1" fill-rule="nonzero"/></g></g></g></g></g><g clip-path="url(#id7)"><path fill="#b175ff" d="M 1157.109375 898.355469 C 1157.109375 899.460938 1157.109375 900.839844 1157.109375 901.945312 L 328.371094 901.945312 C 328.371094 900.839844 328.371094 899.460938 328.371094 898.355469 C 328.371094 830.65625 383.34375 775.394531 451.300781 775.394531 C 465.664062 775.394531 479.476562 777.882812 492.460938 782.578125 C 487.765625 767.105469 485.277344 750.800781 485.277344 733.945312 C 485.277344 641.382812 560.691406 566.222656 653.511719 566.222656 C 714.5625 566.222656 767.878906 598.828125 797.4375 647.460938 C 806.828125 645.25 816.773438 644.144531 826.71875 644.144531 C 849.648438 644.144531 871.46875 649.945312 890.253906 660.445312 C 930.863281 682.828125 958.210938 725.933594 958.210938 775.394531 C 958.210938 785.339844 957.105469 795.289062 954.898438 804.683594 C 976.445312 786.445312 1004.070312 775.394531 1034.457031 775.394531 C 1102.136719 775.671875 1157.109375 830.65625 1157.109375 898.355469 Z M 1157.109375 898.355469 " fill-opacity="1" fill-rule="nonzero"/></g><g clip-path="url(#id8)"><g mask="url(#id9)"><g transform="matrix(1, 0, 0, 1, 328, 566)"><g clip-path="url(#id11)"><g clip-path="url(#id10)"><path fill="#fbf1ef" d="M 468.882812 81.183594 C 418.605469 93.339844 379.65625 135.066406 371.644531 187.011719 C 356.453125 180.933594 339.875 177.339844 322.472656 177.339844 C 250.371094 177.339844 191.808594 235.644531 191.808594 308.039062 C 191.808594 317.710938 192.914062 327.105469 194.847656 336.222656 L 0.371094 336.222656 C 0.371094 335.117188 0.371094 333.738281 0.371094 332.632812 C 0.371094 264.933594 55.34375 209.671875 123.300781 209.671875 C 137.664062 209.671875 151.476562 212.15625 164.460938 216.855469 C 159.765625 201.382812 157.277344 185.078125 157.277344 168.222656 C 157.277344 75.382812 232.691406 0.222656 325.511719 0.222656 C 386.285156 0.222656 439.601562 32.550781 468.882812 81.183594 Z M 468.882812 81.183594 " fill-opacity="1" fill-rule="nonzero"/></g></g></g></g></g><g clip-path="url(#id12)"><path fill="#fbf1ef" d="M 1613.808594 849.132812 C 1613.808594 850.089844 1613.808594 851.289062 1613.808594 852.246094 L 896.820312 852.246094 C 896.820312 851.289062 896.820312 850.089844 896.820312 849.132812 C 896.820312 790.503906 944.378906 742.640625 1003.171875 742.640625 C 1015.601562 742.640625 1027.550781 744.796875 1038.785156 748.863281 C 1034.722656 735.460938 1032.570312 721.34375 1032.570312 706.746094 C 1032.570312 626.578125 1097.816406 561.484375 1178.117188 561.484375 C 1230.9375 561.484375 1277.0625 589.722656 1302.636719 631.839844 C 1310.761719 629.925781 1319.367188 628.96875 1327.96875 628.96875 C 1347.804688 628.96875 1366.6875 633.996094 1382.9375 643.089844 C 1418.070312 662.472656 1441.730469 699.804688 1441.730469 742.640625 C 1441.730469 751.257812 1440.777344 759.871094 1438.863281 768.007812 C 1457.503906 752.214844 1481.40625 742.640625 1507.695312 742.640625 C 1566.25 742.882812 1613.808594 790.503906 1613.808594 849.132812 Z M 1613.808594 849.132812 " fill-opacity="1" fill-rule="nonzero"/></g><g clip-path="url(#id13)"><g mask="url(#id14)"><g transform="matrix(1, 0, 0, 1, 896, 561)"><g clip-path="url(#id16)"><g clip-path="url(#id15)"><path fill="#b175ff" d="M 406.15625 70.601562 C 362.660156 81.132812 328.960938 117.269531 322.03125 162.257812 C 308.886719 156.992188 294.546875 153.882812 279.488281 153.882812 C 217.113281 153.882812 166.445312 204.375 166.445312 267.074219 C 166.445312 275.449219 167.402344 283.585938 169.074219 291.484375 L 0.820312 291.484375 C 0.820312 290.527344 0.820312 289.332031 0.820312 288.375 C 0.820312 229.742188 48.378906 181.882812 107.171875 181.882812 C 119.601562 181.882812 131.550781 184.035156 142.785156 188.101562 C 138.722656 174.703125 136.570312 160.582031 136.570312 145.984375 C 136.570312 65.578125 201.816406 0.484375 282.117188 0.484375 C 334.699219 0.484375 380.824219 28.484375 406.15625 70.601562 Z M 406.15625 70.601562 " fill-opacity="1" fill-rule="nonzero"/></g></g></g></g></g><g clip-path="url(#id17)"><path fill="#2d1674" d="M 1358.796875 284.46875 C 1358.796875 288.242188 1358.703125 292.015625 1358.519531 295.785156 C 1358.332031 299.554688 1358.054688 303.316406 1357.683594 307.074219 C 1357.316406 310.832031 1356.851562 314.574219 1356.300781 318.308594 C 1355.746094 322.042969 1355.101562 325.761719 1354.363281 329.460938 C 1353.628906 333.164062 1352.800781 336.84375 1351.882812 340.507812 C 1350.964844 344.167969 1349.960938 347.804688 1348.863281 351.414062 C 1347.769531 355.027344 1346.585938 358.609375 1345.3125 362.164062 C 1344.042969 365.71875 1342.683594 369.238281 1341.238281 372.726562 C 1339.796875 376.210938 1338.265625 379.660156 1336.652344 383.074219 C 1335.039062 386.484375 1333.34375 389.855469 1331.5625 393.183594 C 1329.785156 396.511719 1327.925781 399.796875 1325.984375 403.035156 C 1324.042969 406.269531 1322.023438 409.460938 1319.929688 412.597656 C 1317.832031 415.734375 1315.660156 418.820312 1313.410156 421.851562 C 1311.160156 424.882812 1308.839844 427.859375 1306.445312 430.777344 C 1304.050781 433.695312 1301.585938 436.550781 1299.050781 439.347656 C 1296.515625 442.144531 1293.914062 444.875 1291.246094 447.546875 C 1288.578125 450.214844 1285.84375 452.816406 1283.046875 455.351562 C 1280.253906 457.886719 1277.394531 460.351562 1274.476562 462.746094 C 1271.558594 465.140625 1268.585938 467.460938 1265.554688 469.707031 C 1262.523438 471.957031 1259.4375 474.128906 1256.296875 476.226562 C 1253.160156 478.324219 1249.972656 480.34375 1246.734375 482.28125 C 1243.496094 484.222656 1240.214844 486.082031 1236.886719 487.863281 C 1233.558594 489.640625 1230.1875 491.335938 1226.773438 492.953125 C 1223.363281 494.566406 1219.914062 496.09375 1216.425781 497.539062 C 1212.941406 498.984375 1209.417969 500.339844 1205.867188 501.613281 C 1202.3125 502.882812 1198.730469 504.066406 1195.117188 505.164062 C 1191.503906 506.257812 1187.867188 507.265625 1184.207031 508.183594 C 1180.546875 509.097656 1176.863281 509.925781 1173.164062 510.664062 C 1169.460938 511.398438 1165.742188 512.042969 1162.011719 512.597656 C 1158.277344 513.152344 1154.53125 513.613281 1150.777344 513.984375 C 1147.019531 514.355469 1143.257812 514.632812 1139.488281 514.816406 C 1135.71875 515 1131.945312 515.09375 1128.171875 515.09375 C 1124.394531 515.09375 1120.625 515 1116.855469 514.816406 C 1113.085938 514.632812 1109.320312 514.355469 1105.566406 513.984375 C 1101.808594 513.613281 1098.0625 513.152344 1094.332031 512.597656 C 1090.597656 512.042969 1086.878906 511.398438 1083.175781 510.664062 C 1079.476562 509.925781 1075.792969 509.097656 1072.132812 508.183594 C 1068.472656 507.265625 1064.835938 506.257812 1061.222656 505.164062 C 1057.613281 504.066406 1054.027344 502.882812 1050.476562 501.613281 C 1046.921875 500.339844 1043.402344 498.984375 1039.914062 497.539062 C 1036.425781 496.09375 1032.976562 494.566406 1029.566406 492.953125 C 1026.152344 491.335938 1022.785156 489.640625 1019.453125 487.863281 C 1016.125 486.082031 1012.84375 484.222656 1009.605469 482.28125 C 1006.367188 480.34375 1003.179688 478.324219 1000.042969 476.226562 C 996.902344 474.128906 993.820312 471.957031 990.789062 469.707031 C 987.753906 467.460938 984.78125 465.140625 981.863281 462.746094 C 978.945312 460.351562 976.089844 457.886719 973.292969 455.351562 C 970.496094 452.816406 967.761719 450.214844 965.09375 447.546875 C 962.425781 444.875 959.824219 442.144531 957.289062 439.347656 C 954.753906 436.550781 952.289062 433.695312 949.894531 430.777344 C 947.5 427.859375 945.179688 424.882812 942.929688 421.851562 C 940.683594 418.820312 938.507812 415.734375 936.414062 412.597656 C 934.316406 409.460938 932.296875 406.269531 930.355469 403.035156 C 928.417969 399.796875 926.554688 396.511719 924.777344 393.183594 C 923 389.855469 921.300781 386.484375 919.6875 383.074219 C 918.074219 379.660156 916.546875 376.210938 915.101562 372.726562 C 913.65625 369.238281 912.296875 365.71875 911.027344 362.164062 C 909.753906 358.609375 908.570312 355.027344 907.476562 351.414062 C 906.378906 347.804688 905.375 344.167969 904.457031 340.507812 C 903.539062 336.84375 902.714844 333.164062 901.976562 329.460938 C 901.242188 325.761719 900.59375 322.042969 900.042969 318.308594 C 899.488281 314.574219 899.027344 310.832031 898.65625 307.074219 C 898.285156 303.316406 898.007812 299.554688 897.824219 295.785156 C 897.636719 292.015625 897.546875 288.242188 897.546875 284.46875 C 897.546875 280.695312 897.636719 276.921875 897.824219 273.152344 C 898.007812 269.382812 898.285156 265.621094 898.65625 261.863281 C 899.027344 258.109375 899.488281 254.363281 900.042969 250.628906 C 900.59375 246.894531 901.242188 243.179688 901.976562 239.476562 C 902.714844 235.773438 903.539062 232.09375 904.457031 228.433594 C 905.375 224.769531 906.378906 221.132812 907.476562 217.523438 C 908.570312 213.910156 909.753906 210.328125 911.027344 206.773438 C 912.296875 203.21875 913.65625 199.699219 915.101562 196.210938 C 916.546875 192.726562 918.074219 189.277344 919.6875 185.863281 C 921.300781 182.453125 923 179.082031 924.777344 175.753906 C 926.554688 172.425781 928.417969 169.140625 930.355469 165.902344 C 932.296875 162.667969 934.316406 159.480469 936.414062 156.339844 C 938.507812 153.203125 940.683594 150.117188 942.929688 147.085938 C 945.179688 144.054688 947.5 141.078125 949.894531 138.164062 C 952.289062 135.246094 954.753906 132.386719 957.289062 129.589844 C 959.824219 126.792969 962.425781 124.0625 965.09375 121.394531 C 967.761719 118.722656 970.496094 116.121094 973.292969 113.585938 C 976.089844 111.050781 978.945312 108.589844 981.863281 106.195312 C 984.78125 103.800781 987.753906 101.476562 990.789062 99.230469 C 993.820312 96.980469 996.902344 94.808594 1000.042969 92.710938 C 1003.179688 90.613281 1006.367188 88.597656 1009.605469 86.65625 C 1012.84375 84.714844 1016.125 82.855469 1019.453125 81.074219 C 1022.78125 79.296875 1026.152344 77.601562 1029.566406 75.988281 C 1032.976562 74.371094 1036.425781 72.84375 1039.914062 71.398438 C 1043.402344 69.953125 1046.921875 68.597656 1050.476562 67.324219 C 1054.027344 66.054688 1057.613281 64.871094 1061.222656 63.773438 C 1064.835938 62.679688 1068.472656 61.671875 1072.132812 60.753906 C 1075.792969 59.839844 1079.476562 59.011719 1083.175781 58.277344 C 1086.878906 57.539062 1090.597656 56.894531 1094.332031 56.339844 C 1098.0625 55.785156 1101.808594 55.324219 1105.566406 54.953125 C 1109.320312 54.585938 1113.085938 54.308594 1116.855469 54.121094 C 1120.625 53.9375 1124.394531 53.84375 1128.171875 53.84375 C 1131.945312 53.84375 1135.71875 53.9375 1139.488281 54.121094 C 1143.257812 54.308594 1147.019531 54.585938 1150.777344 54.953125 C 1154.53125 55.324219 1158.277344 55.785156 1162.011719 56.339844 C 1165.742188 56.894531 1169.460938 57.539062 1173.164062 58.277344 C 1176.863281 59.011719 1180.546875 59.839844 1184.207031 60.753906 C 1187.867188 61.671875 1191.503906 62.679688 1195.117188 63.773438 C 1198.730469 64.871094 1202.3125 66.054688 1205.867188 67.324219 C 1209.417969 68.597656 1212.941406 69.953125 1216.425781 71.398438 C 1219.914062 72.84375 1223.363281 74.371094 1226.773438 75.988281 C 1230.1875 77.601562 1233.558594 79.296875 1236.886719 81.074219 C 1240.214844 82.855469 1243.496094 84.714844 1246.734375 86.65625 C 1249.972656 88.597656 1253.160156 90.613281 1256.296875 92.710938 C 1259.4375 94.808594 1262.523438 96.980469 1265.554688 99.230469 C 1268.585938 101.476562 1271.558594 103.800781 1274.476562 106.195312 C 1277.394531 108.589844 1280.253906 111.050781 1283.046875 113.585938 C 1285.84375 116.121094 1288.578125 118.722656 1291.246094 121.394531 C 1293.914062 124.0625 1296.515625 126.792969 1299.050781 129.589844 C 1301.585938 132.386719 1304.050781 135.246094 1306.445312 138.164062 C 1308.839844 141.078125 1311.160156 144.054688 1313.410156 147.085938 C 1315.660156 150.117188 1317.832031 153.203125 1319.929688 156.339844 C 1322.023438 159.480469 1324.042969 162.667969 1325.984375 165.902344 C 1327.925781 169.140625 1329.785156 172.425781 1331.5625 175.753906 C 1333.34375 179.082031 1335.039062 182.453125 1336.652344 185.863281 C 1338.265625 189.277344 1339.796875 192.726562 1341.238281 196.210938 C 1342.683594 199.699219 1344.042969 203.21875 1345.3125 206.773438 C 1346.585938 210.328125 1347.769531 213.910156 1348.863281 217.523438 C 1349.960938 221.132812 1350.964844 224.769531 1351.882812 228.433594 C 1352.800781 232.09375 1353.628906 235.773438 1354.363281 239.476562 C 1355.101562 243.179688 1355.746094 246.894531 1356.300781 250.628906 C 1356.851562 254.363281 1357.316406 258.109375 1357.683594 261.863281 C 1358.054688 265.621094 1358.332031 269.382812 1358.519531 273.152344 C 1358.703125 276.921875 1358.796875 280.695312 1358.796875 284.46875 Z M 1358.796875 284.46875 " fill-opacity="1" fill-rule="nonzero"/></g><path fill="#fbf1ef" d="M 1268.699219 284.46875 C 1268.699219 301.226562 1265.777344 317.21875 1260.394531 332.132812 C 1255.320312 346.429688 1247.941406 359.5 1238.714844 371.183594 C 1238.410156 371.644531 1238.101562 371.953125 1237.792969 372.414062 C 1225.648438 387.480469 1210.425781 400.089844 1193.207031 409.007812 C 1173.835938 419.152344 1151.695312 424.84375 1128.324219 424.84375 C 1104.953125 424.84375 1082.8125 419.152344 1063.441406 409.007812 C 1046.222656 399.933594 1031 387.480469 1018.855469 372.414062 C 1018.546875 371.953125 1018.238281 371.644531 1017.933594 371.183594 C 1008.707031 359.5 1001.328125 346.277344 996.253906 332.132812 C 990.871094 317.21875 987.949219 301.226562 987.949219 284.46875 C 987.949219 279.085938 988.257812 273.859375 988.871094 268.632812 C 988.871094 267.863281 989.027344 266.941406 989.179688 266.171875 C 989.949219 260.636719 990.871094 255.257812 992.253906 249.875 C 996.097656 234.652344 1002.402344 220.355469 1010.859375 207.59375 C 1018.238281 196.371094 1027.15625 186.222656 1037.457031 177.613281 C 1061.902344 156.703125 1093.730469 144.09375 1128.476562 144.09375 C 1163.226562 144.09375 1194.898438 156.703125 1219.496094 177.613281 C 1229.644531 186.222656 1238.714844 196.371094 1246.097656 207.59375 C 1254.554688 220.355469 1260.855469 234.652344 1264.699219 249.875 C 1266.085938 255.257812 1267.160156 260.636719 1267.773438 266.171875 C 1267.929688 266.941406 1267.929688 267.710938 1268.082031 268.632812 C 1268.238281 273.859375 1268.699219 279.085938 1268.699219 284.46875 Z M 1268.699219 284.46875 " fill-opacity="1" fill-rule="nonzero"/><g mask="url(#id18)"><g transform="matrix(1, 0, 0, 1, 995, 331)"><g clip-path="url(#id20)"><g clip-path="url(#id19)"><path fill="#2d1674" d="M 265.394531 1.132812 C 260.320312 15.429688 252.941406 28.5 243.714844 40.183594 C 243.410156 40.644531 243.101562 40.953125 242.792969 41.414062 C 230.648438 56.480469 215.425781 69.089844 198.207031 78.007812 C 178.835938 88.152344 156.695312 93.84375 133.324219 93.84375 C 109.953125 93.84375 87.8125 88.152344 68.441406 78.007812 C 51.222656 68.933594 36 56.480469 23.855469 41.414062 C 23.546875 40.953125 23.238281 40.644531 22.933594 40.183594 C 13.707031 28.5 6.328125 15.277344 1.253906 1.132812 Z M 265.394531 1.132812 " fill-opacity="1" fill-rule="nonzero"/></g></g></g></g><g mask="url(#id21)"><g transform="matrix(1, 0, 0, 1, 1017, 370)"><g clip-path="url(#id23)"><g clip-path="url(#id22)"><path fill="#2d1674" d="M 221.714844 1.183594 C 221.410156 1.644531 221.101562 1.953125 220.792969 2.414062 C 208.648438 17.480469 193.425781 30.089844 176.207031 39.007812 C 156.835938 49.152344 134.695312 54.84375 111.324219 54.84375 C 87.953125 54.84375 65.8125 49.152344 46.441406 39.007812 C 29.222656 29.933594 14 17.480469 1.855469 2.414062 C 1.546875 1.953125 1.238281 1.644531 0.933594 1.183594 Z M 221.714844 1.183594 " fill-opacity="1" fill-rule="nonzero"/></g></g></g></g><g mask="url(#id24)"><g transform="matrix(1, 0, 0, 1, 1062, 408)"><g clip-path="url(#id25)"><path fill="#2d1674" d="M 131.054688 1.007812 C 111.679688 11.152344 89.539062 16.84375 66.171875 16.84375 C 42.800781 16.84375 20.660156 11.152344 1.289062 1.007812 Z M 131.054688 1.007812 " fill-opacity="1" fill-rule="nonzero"/></g></g></g><g mask="url(#id26)"><g transform="matrix(1, 0, 0, 1, 991, 142)"><g clip-path="url(#id27)"><path fill="#2d1674" d="M 273.394531 107.875 L 1.101562 107.875 C 4.945312 92.652344 11.25 78.355469 19.707031 65.59375 C 27.085938 54.371094 36.003906 44.222656 46.304688 35.613281 C 70.75 14.703125 102.578125 2.09375 137.324219 2.09375 C 172.070312 2.09375 203.742188 14.703125 228.34375 35.613281 C 238.492188 44.222656 247.5625 54.371094 254.941406 65.59375 C 263.089844 78.355469 269.394531 92.652344 273.394531 107.875 Z M 273.394531 107.875 " fill-opacity="1" fill-rule="nonzero"/></g></g></g><g mask="url(#id28)"><g transform="matrix(1, 0, 0, 1, 1035, 142)"><g clip-path="url(#id29)"><path fill="#2d1674" d="M 184.191406 35.460938 L 2.152344 35.460938 C 26.597656 14.550781 58.421875 1.941406 93.171875 1.941406 C 127.917969 1.941406 159.589844 14.550781 184.191406 35.460938 Z M 184.191406 35.460938 " fill-opacity="1" fill-rule="nonzero"/></g></g></g><path fill="#b175ff" d="M 1337.425781 289.695312 C 1337.425781 305.839844 1307.75 320.445312 1261.011719 329.980469 C 1224.878906 337.359375 1178.601562 341.816406 1128.171875 341.816406 C 1077.742188 341.816406 1031.460938 337.359375 995.332031 329.980469 C 948.746094 320.445312 918.917969 305.992188 918.917969 289.695312 C 918.917969 273.859375 947.207031 259.714844 991.949219 250.183594 C 990.5625 255.71875 989.488281 261.558594 988.71875 267.402344 C 979.339844 270.9375 974.113281 274.9375 974.113281 279.242188 C 974.113281 283.238281 979.03125 287.082031 987.644531 290.617188 C 1011.78125 300.304688 1065.59375 306.917969 1128.015625 306.917969 C 1190.4375 306.917969 1244.25 300.152344 1268.390625 290.617188 C 1277.152344 287.082031 1281.921875 283.238281 1281.921875 279.242188 C 1281.921875 275.089844 1276.691406 271.09375 1267.3125 267.402344 C 1266.699219 261.558594 1265.621094 255.871094 1264.085938 250.183594 C 1309.132812 259.714844 1337.425781 274.015625 1337.425781 289.695312 Z M 1337.425781 289.695312 " fill-opacity="1" fill-rule="nonzero"/><path fill="#fbf1ef" d="M 1258.242188 165.003906 L 1263.164062 174.078125 C 1263.316406 174.230469 1263.46875 174.382812 1263.625 174.539062 L 1272.695312 179.457031 C 1273.464844 179.917969 1273.464844 180.996094 1272.695312 181.457031 L 1263.625 186.375 C 1263.46875 186.53125 1263.316406 186.683594 1263.164062 186.835938 L 1258.242188 195.910156 C 1257.78125 196.679688 1256.707031 196.679688 1256.246094 195.910156 L 1251.324219 186.835938 C 1251.171875 186.683594 1251.015625 186.53125 1250.863281 186.375 L 1241.792969 181.457031 C 1241.023438 180.996094 1241.023438 179.917969 1241.792969 179.457031 L 1250.863281 174.539062 C 1251.015625 174.382812 1251.171875 174.230469 1251.324219 174.078125 L 1256.246094 165.003906 C 1256.550781 164.238281 1257.78125 164.238281 1258.242188 165.003906 Z M 1258.242188 165.003906 " fill-opacity="1" fill-rule="nonzero"/><path fill="#fbf1ef" d="M 1220.421875 425.457031 L 1225.03125 433.914062 C 1225.1875 434.066406 1225.339844 434.222656 1225.496094 434.375 L 1233.949219 438.988281 C 1234.71875 439.449219 1234.71875 440.523438 1233.949219 440.832031 L 1225.496094 445.445312 C 1225.339844 445.597656 1225.1875 445.753906 1225.03125 445.90625 L 1220.421875 454.363281 C 1219.960938 455.132812 1218.882812 455.132812 1218.574219 454.363281 L 1213.964844 445.90625 C 1213.808594 445.753906 1213.65625 445.597656 1213.5 445.445312 L 1205.046875 440.832031 C 1204.277344 440.371094 1204.277344 439.296875 1205.046875 438.988281 L 1213.5 434.375 C 1213.65625 434.222656 1213.808594 434.066406 1213.964844 433.914062 L 1218.574219 425.457031 C 1218.882812 424.6875 1219.960938 424.6875 1220.421875 425.457031 Z M 1220.421875 425.457031 " fill-opacity="1" fill-rule="nonzero"/><path fill="#fbf1ef" d="M 962.273438 340.125 L 970.578125 355.347656 C 970.730469 355.65625 971.039062 355.960938 971.34375 356.117188 L 986.566406 364.417969 C 987.949219 365.1875 987.949219 367.1875 986.566406 367.800781 L 971.34375 376.105469 C 971.039062 376.257812 970.730469 376.566406 970.578125 376.871094 L 962.273438 392.09375 C 961.503906 393.476562 959.507812 393.476562 958.890625 392.09375 L 950.589844 376.871094 C 950.433594 376.566406 950.128906 376.257812 949.820312 376.105469 L 934.597656 367.800781 C 933.214844 367.03125 933.214844 365.035156 934.597656 364.417969 L 949.820312 356.117188 C 950.128906 355.960938 950.433594 355.65625 950.589844 355.347656 L 958.890625 340.125 C 959.660156 338.742188 961.503906 338.742188 962.273438 340.125 Z M 962.273438 340.125 " fill-opacity="1" fill-rule="nonzero"/><path fill="#fbf1ef" d="M 1068.207031 85.976562 L 1074.820312 97.96875 C 1074.972656 98.277344 1075.125 98.429688 1075.433594 98.585938 L 1087.425781 105.195312 C 1088.503906 105.8125 1088.503906 107.347656 1087.425781 107.964844 L 1075.433594 114.574219 C 1075.125 114.730469 1074.972656 114.882812 1074.820312 115.191406 L 1068.207031 127.183594 C 1067.59375 128.257812 1066.054688 128.257812 1065.441406 127.183594 L 1058.828125 115.191406 C 1058.675781 114.882812 1058.523438 114.730469 1058.214844 114.574219 L 1046.222656 107.964844 C 1045.144531 107.347656 1045.144531 105.8125 1046.222656 105.195312 L 1058.214844 98.585938 C 1058.523438 98.429688 1058.675781 98.277344 1058.828125 97.96875 L 1065.441406 85.976562 C 1066.054688 84.902344 1067.59375 84.902344 1068.207031 85.976562 Z M 1068.207031 85.976562 " fill-opacity="1" fill-rule="nonzero"/><path fill="#fbf1ef" d="M 979.339844 200.058594 L 982.109375 205.132812 C 982.109375 205.289062 982.261719 205.289062 982.414062 205.441406 L 987.488281 208.210938 C 987.949219 208.515625 987.949219 209.132812 987.488281 209.285156 L 982.414062 212.054688 C 982.261719 212.054688 982.261719 212.207031 982.109375 212.359375 L 979.339844 217.433594 C 979.03125 217.894531 978.417969 217.894531 978.265625 217.433594 L 975.496094 212.359375 C 975.496094 212.207031 975.34375 212.207031 975.1875 212.054688 L 970.117188 209.285156 C 969.652344 208.976562 969.652344 208.363281 970.117188 208.210938 L 975.1875 205.441406 C 975.34375 205.441406 975.34375 205.289062 975.496094 205.132812 L 978.265625 200.058594 C 978.417969 199.597656 979.03125 199.597656 979.339844 200.058594 Z M 979.339844 200.058594 " fill-opacity="1" fill-rule="nonzero"/><path fill="#fbf1ef" d="M 1271.3125 342.125 L 1273.308594 345.816406 C 1273.308594 345.96875 1273.464844 345.96875 1273.464844 345.96875 L 1277.152344 347.96875 C 1277.460938 348.121094 1277.460938 348.582031 1277.152344 348.738281 L 1273.464844 350.734375 C 1273.308594 350.734375 1273.308594 350.890625 1273.308594 350.890625 L 1271.3125 354.578125 C 1271.15625 354.886719 1270.695312 354.886719 1270.542969 354.578125 L 1268.542969 350.890625 C 1268.542969 350.734375 1268.390625 350.734375 1268.390625 350.734375 L 1264.699219 348.738281 C 1264.394531 348.582031 1264.394531 348.121094 1264.699219 347.96875 L 1268.390625 345.96875 C 1268.542969 345.96875 1268.542969 345.816406 1268.542969 345.816406 L 1270.542969 342.125 C 1270.695312 341.816406 1271.15625 341.816406 1271.3125 342.125 Z M 1271.3125 342.125 " fill-opacity="1" fill-rule="nonzero"/><path fill="#fbf1ef" d="M 1197.664062 109.347656 L 1199.664062 113.039062 C 1199.664062 113.191406 1199.816406 113.191406 1199.816406 113.191406 L 1203.507812 115.34375 C 1203.816406 115.496094 1203.816406 115.960938 1203.507812 116.113281 L 1199.816406 118.113281 C 1199.664062 118.113281 1199.664062 118.265625 1199.664062 118.265625 L 1197.664062 121.957031 C 1197.511719 122.261719 1197.050781 122.261719 1196.898438 121.957031 L 1194.898438 118.265625 C 1194.898438 118.113281 1194.742188 118.113281 1194.742188 118.113281 L 1191.054688 116.113281 C 1190.746094 115.960938 1190.746094 115.496094 1191.054688 115.34375 L 1194.742188 113.34375 C 1194.898438 113.34375 1194.898438 113.191406 1194.898438 113.191406 L 1196.898438 109.5 C 1197.050781 109.039062 1197.511719 109.039062 1197.664062 109.347656 Z M 1197.664062 109.347656 " fill-opacity="1" fill-rule="nonzero"/><path fill="#fbf1ef" d="M 1056.0625 427.917969 L 1059.597656 434.527344 C 1059.75 434.683594 1059.75 434.835938 1059.90625 434.835938 L 1066.515625 438.371094 C 1067.132812 438.679688 1067.132812 439.601562 1066.515625 439.910156 L 1059.90625 443.445312 C 1059.75 443.601562 1059.597656 443.601562 1059.597656 443.753906 L 1056.0625 450.367188 C 1055.753906 450.980469 1054.832031 450.980469 1054.523438 450.367188 L 1050.988281 443.753906 C 1050.835938 443.601562 1050.835938 443.445312 1050.679688 443.445312 L 1044.070312 439.910156 C 1043.453125 439.601562 1043.453125 438.679688 1044.070312 438.371094 L 1050.679688 434.835938 C 1050.835938 434.683594 1050.988281 434.683594 1050.988281 434.527344 L 1054.523438 427.917969 C 1054.984375 427.457031 1055.753906 427.457031 1056.0625 427.917969 Z M 1056.0625 427.917969 " fill-opacity="1" fill-rule="nonzero"/><g mask="url(#id30)"><g transform="matrix(1, 0, 0, 1, 1263, 341)"><g clip-path="url(#id32)"><g clip-path="url(#id31)"><path fill="#2d1674" d="M 8.3125 1.125 L 10.308594 4.816406 C 10.308594 4.96875 10.464844 4.96875 10.464844 4.96875 L 14.152344 6.96875 C 14.460938 7.121094 14.460938 7.582031 14.152344 7.738281 L 10.464844 9.734375 C 10.308594 9.734375 10.308594 9.890625 10.308594 9.890625 L 8.3125 13.578125 C 8.15625 13.886719 7.695312 13.886719 7.542969 13.578125 L 5.542969 9.890625 C 5.542969 9.734375 5.390625 9.734375 5.390625 9.734375 L 1.699219 7.738281 C 1.394531 7.582031 1.394531 7.121094 1.699219 6.96875 L 5.390625 4.96875 C 5.542969 4.96875 5.542969 4.816406 5.542969 4.816406 L 7.542969 1.125 C 7.695312 0.816406 8.15625 0.816406 8.3125 1.125 Z M 8.3125 1.125 " fill-opacity="1" fill-rule="nonzero"/></g></g></g></g><g mask="url(#id33)"><g transform="matrix(1, 0, 0, 1, 968, 198)"><g clip-path="url(#id34)"><path fill="#2d1674" d="M 11.339844 2.058594 L 14.109375 7.132812 C 14.109375 7.289062 14.261719 7.289062 14.414062 7.441406 L 19.488281 10.210938 C 19.949219 10.515625 19.949219 11.132812 19.488281 11.285156 L 14.414062 14.054688 C 14.261719 14.054688 14.261719 14.207031 14.109375 14.359375 L 11.339844 19.433594 C 11.03125 19.894531 10.417969 19.894531 10.265625 19.433594 L 7.496094 14.359375 C 7.496094 14.207031 7.34375 14.207031 7.1875 14.054688 L 2.117188 11.285156 C 1.652344 10.976562 1.652344 10.363281 2.117188 10.210938 L 7.1875 7.441406 C 7.34375 7.441406 7.34375 7.289062 7.496094 7.132812 L 10.265625 2.058594 C 10.417969 1.597656 11.03125 1.597656 11.339844 2.058594 Z M 11.339844 2.058594 " fill-opacity="1" fill-rule="nonzero"/></g></g></g><g mask="url(#id35)"><g transform="matrix(1, 0, 0, 1, 1189, 107)"><g clip-path="url(#id36)"><path fill="#2d1674" d="M 8.664062 2.347656 L 10.664062 6.039062 C 10.664062 6.191406 10.816406 6.191406 10.816406 6.191406 L 14.507812 8.34375 C 14.816406 8.496094 14.816406 8.960938 14.507812 9.113281 L 10.816406 11.113281 C 10.664062 11.113281 10.664062 11.265625 10.664062 11.265625 L 8.664062 14.957031 C 8.511719 15.261719 8.050781 15.261719 7.898438 14.957031 L 5.898438 11.265625 C 5.898438 11.113281 5.742188 11.113281 5.742188 11.113281 L 2.054688 9.113281 C 1.746094 8.960938 1.746094 8.496094 2.054688 8.34375 L 5.742188 6.34375 C 5.898438 6.34375 5.898438 6.191406 5.898438 6.191406 L 7.898438 2.5 C 8.050781 2.039062 8.511719 2.039062 8.664062 2.347656 Z M 8.664062 2.347656 " fill-opacity="1" fill-rule="nonzero"/></g></g></g><g mask="url(#id37)"><g transform="matrix(1, 0, 0, 1, 1041, 427)"><g clip-path="url(#id39)"><g clip-path="url(#id38)"><path fill="#2d1674" d="M 15.0625 0.917969 L 18.597656 7.527344 C 18.75 7.683594 18.75 7.835938 18.90625 7.835938 L 25.515625 11.371094 C 26.132812 11.679688 26.132812 12.601562 25.515625 12.910156 L 18.90625 16.445312 C 18.75 16.601562 18.597656 16.601562 18.597656 16.753906 L 15.0625 23.367188 C 14.753906 23.980469 13.832031 23.980469 13.523438 23.367188 L 9.988281 16.753906 C 9.835938 16.601562 9.835938 16.445312 9.679688 16.445312 L 3.070312 12.910156 C 2.453125 12.601562 2.453125 11.679688 3.070312 11.371094 L 9.679688 7.835938 C 9.835938 7.683594 9.988281 7.683594 9.988281 7.527344 L 13.523438 0.917969 C 13.984375 0.457031 14.753906 0.457031 15.0625 0.917969 Z M 15.0625 0.917969 " fill-opacity="1" fill-rule="nonzero"/></g></g></g></g></svg>