<svg width="10" height="10" viewBox="0 0 10 10" fill="none" xmlns="http://www.w3.org/2000/svg">
<path fill-rule="evenodd" clip-rule="evenodd" d="M9.70711 1.70711C10.0976 1.31658 10.0976 0.683418 9.70711 0.292893C9.31658 -0.0976311 8.68342 -0.0976311 8.29289 0.292893L5 3.58579L1.70711 0.292893C1.31658 -0.0976311 0.683418 -0.0976311 0.292894 0.292893C-0.0976307 0.683417 -0.0976307 1.31658 0.292894 1.70711L3.58579 5L0.292894 8.29289C-0.0976312 8.68342 -0.0976312 9.31658 0.292894 9.70711C0.683417 10.0976 1.31658 10.0976 1.70711 9.70711L5 6.41421L8.29289 9.70711C8.68342 10.0976 9.31658 10.0976 9.70711 9.70711C10.0976 9.31658 10.0976 8.68342 9.70711 8.29289L6.41421 5L9.70711 1.70711Z" fill="url(#paint0_linear_2215_29856)"/>
<defs>
<linearGradient id="paint0_linear_2215_29856" x1="-5" y1="5" x2="5" y2="15" gradientUnits="userSpaceOnUse">
<stop stop-color="#258CBF"/>
<stop offset="1" stop-color="#4ED3BE"/>
</linearGradient>
</defs>
</svg>
