<svg xmlns="http://www.w3.org/2000/svg" xmlns:xlink="http://www.w3.org/1999/xlink" width="280" zoomAndPan="magnify" viewBox="0 0 210 209.999996" height="280" preserveAspectRatio="xMidYMid meet" version="1.0"><defs><g/><clipPath id="id1"><path d="M 36.4375 26.914062 L 162.699219 26.914062 L 162.699219 126.515625 L 36.4375 126.515625 Z M 36.4375 26.914062 " clip-rule="nonzero"/></clipPath><clipPath id="id2"><path d="M 162.574219 26.984375 L 115.152344 38.5 L 125.03125 48.402344 L 101.167969 69.949219 L 92.765625 61.53125 L 36.457031 126.433594 L 91.257812 86.757812 L 101.167969 96.6875 L 102.535156 98.058594 L 140.550781 63.953125 L 151.082031 74.503906 Z M 162.574219 26.984375 " clip-rule="nonzero"/></clipPath><clipPath id="id3"><path d="M 162.574219 26.984375 L 115.152344 38.5 L 125.03125 48.402344 L 101.167969 69.949219 L 92.765625 61.53125 L 36.457031 126.433594 L 91.257812 86.757812 L 101.167969 96.6875 L 102.535156 98.058594 L 140.550781 63.953125 L 151.082031 74.503906 L 162.574219 26.984375 " clip-rule="nonzero"/></clipPath><clipPath id="id4"><path d="M 210.765625 88.554688 L 114.535156 -34.386719 L -11.734375 64.867188 L 84.496094 187.804688 Z M 210.765625 88.554688 " clip-rule="nonzero"/></clipPath><radialGradient gradientTransform="matrix(-0.786004, 0.617818, -0.616527, -0.78765, 162.865264, 27.462209)" gradientUnits="userSpaceOnUse" r="160.952931" cx="0" id="id5" cy="0" fx="0" fy="0"><stop stop-opacity="1" stop-color="rgb(94.099426%, 61.004639%, 6.494141%)" offset="0"/><stop stop-opacity="1" stop-color="rgb(94.099426%, 60.627747%, 6.694031%)" offset="0.0078125"/><stop stop-opacity="1" stop-color="rgb(94.099426%, 60.400391%, 6.698608%)" offset="0.0195312"/><stop stop-opacity="1" stop-color="rgb(94.099426%, 60.169983%, 6.698608%)" offset="0.0234375"/><stop stop-opacity="1" stop-color="rgb(94.099426%, 59.791565%, 6.70166%)" offset="0.0351562"/><stop stop-opacity="1" stop-color="rgb(94.099426%, 59.599304%, 6.90155%)" offset="0.0390625"/><stop stop-opacity="1" stop-color="rgb(94.099426%, 59.599304%, 7.098389%)" offset="0.0429688"/><stop stop-opacity="1" stop-color="rgb(94.099426%, 59.410095%, 7.099915%)" offset="0.046875"/><stop stop-opacity="1" stop-color="rgb(94.099426%, 59.034729%, 7.099915%)" offset="0.0507812"/><stop stop-opacity="1" stop-color="rgb(94.099426%, 58.824158%, 7.099915%)" offset="0.0625"/><stop stop-opacity="1" stop-color="rgb(94.099426%, 58.782959%, 7.115173%)" offset="0.0664062"/><stop stop-opacity="1" stop-color="rgb(94.099426%, 58.581543%, 7.315063%)" offset="0.0703125"/><stop stop-opacity="1" stop-color="rgb(94.099426%, 58.200073%, 7.499695%)" offset="0.0820312"/><stop stop-opacity="1" stop-color="rgb(94.099426%, 57.818604%, 7.499695%)" offset="0.0859375"/><stop stop-opacity="1" stop-color="rgb(94.099426%, 57.466125%, 7.649231%)" offset="0.0976562"/><stop stop-opacity="1" stop-color="rgb(94.099426%, 57.284546%, 7.798767%)" offset="0.109375"/><stop stop-opacity="1" stop-color="rgb(94.099426%, 57.084656%, 7.798767%)" offset="0.113281"/><stop stop-opacity="1" stop-color="rgb(94.099426%, 56.703186%, 7.798767%)" offset="0.125"/><stop stop-opacity="1" stop-color="rgb(94.099426%, 56.321716%, 7.980347%)" offset="0.128906"/><stop stop-opacity="1" stop-color="rgb(94.099426%, 56.117249%, 8.180237%)" offset="0.140625"/><stop stop-opacity="1" stop-color="rgb(94.099426%, 56.077576%, 8.198547%)" offset="0.144531"/><stop stop-opacity="1" stop-color="rgb(94.099426%, 55.870056%, 8.198547%)" offset="0.148438"/><stop stop-opacity="1" stop-color="rgb(94.099426%, 55.491638%, 8.198547%)" offset="0.160156"/><stop stop-opacity="1" stop-color="rgb(94.099426%, 55.110168%, 8.387756%)" offset="0.171875"/><stop stop-opacity="1" stop-color="rgb(94.099426%, 54.734802%, 8.587646%)" offset="0.175781"/><stop stop-opacity="1" stop-color="rgb(94.099426%, 54.502869%, 8.599854%)" offset="0.1875"/><stop stop-opacity="1" stop-color="rgb(94.099426%, 54.272461%, 8.599854%)" offset="0.191406"/><stop stop-opacity="1" stop-color="rgb(94.099426%, 53.892517%, 8.601379%)" offset="0.203125"/><stop stop-opacity="1" stop-color="rgb(94.099426%, 53.69873%, 8.798218%)" offset="0.207031"/><stop stop-opacity="1" stop-color="rgb(94.099426%, 53.69873%, 8.996582%)" offset="0.210938"/><stop stop-opacity="1" stop-color="rgb(94.099426%, 53.511047%, 8.999634%)" offset="0.214844"/><stop stop-opacity="1" stop-color="rgb(94.099426%, 53.311157%, 8.999634%)" offset="0.21875"/><stop stop-opacity="1" stop-color="rgb(94.099426%, 53.29895%, 8.999634%)" offset="0.222656"/><stop stop-opacity="1" stop-color="rgb(94.099426%, 53.09906%, 8.999634%)" offset="0.226562"/><stop stop-opacity="1" stop-color="rgb(94.099426%, 52.89917%, 8.999634%)" offset="0.230469"/><stop stop-opacity="1" stop-color="rgb(94.099426%, 52.885437%, 8.999634%)" offset="0.234375"/><stop stop-opacity="1" stop-color="rgb(94.099426%, 52.685547%, 9.008789%)" offset="0.238281"/><stop stop-opacity="1" stop-color="rgb(94.099426%, 52.352905%, 9.208679%)" offset="0.242188"/><stop stop-opacity="1" stop-color="rgb(94.099426%, 52.107239%, 9.399414%)" offset="0.253906"/><stop stop-opacity="1" stop-color="rgb(94.099426%, 51.902771%, 9.399414%)" offset="0.257812"/><stop stop-opacity="1" stop-color="rgb(94.099426%, 51.699829%, 9.399414%)" offset="0.265625"/><stop stop-opacity="1" stop-color="rgb(94.099426%, 51.49231%, 9.407043%)" offset="0.273438"/><stop stop-opacity="1" stop-color="rgb(94.099426%, 51.187134%, 9.606934%)" offset="0.277344"/><stop stop-opacity="1" stop-color="rgb(94.099426%, 50.796509%, 9.799194%)" offset="0.285156"/><stop stop-opacity="1" stop-color="rgb(94.099426%, 50.59967%, 9.799194%)" offset="0.292969"/><stop stop-opacity="1" stop-color="rgb(94.099426%, 50.408936%, 9.799194%)" offset="0.300781"/><stop stop-opacity="1" stop-color="rgb(94.099426%, 50.109863%, 9.898376%)" offset="0.308594"/><stop stop-opacity="1" stop-color="rgb(94.099426%, 49.899292%, 10.098267%)" offset="0.3125"/><stop stop-opacity="1" stop-color="rgb(94.099426%, 49.694824%, 10.198975%)" offset="0.320312"/><stop stop-opacity="1" stop-color="rgb(94.099426%, 49.397278%, 10.198975%)" offset="0.328125"/><stop stop-opacity="1" stop-color="rgb(94.099426%, 49.099731%, 10.198975%)" offset="0.335938"/><stop stop-opacity="1" stop-color="rgb(94.099426%, 48.89679%, 10.301208%)" offset="0.34375"/><stop stop-opacity="1" stop-color="rgb(94.099426%, 48.686218%, 10.501099%)" offset="0.351562"/><stop stop-opacity="1" stop-color="rgb(94.099426%, 48.381042%, 10.598755%)" offset="0.355469"/><stop stop-opacity="1" stop-color="rgb(94.099426%, 47.991943%, 10.598755%)" offset="0.363281"/><stop stop-opacity="1" stop-color="rgb(94.099426%, 47.799683%, 10.598755%)" offset="0.371094"/><stop stop-opacity="1" stop-color="rgb(94.099426%, 47.654724%, 10.791016%)" offset="0.378906"/><stop stop-opacity="1" stop-color="rgb(94.099426%, 47.315979%, 10.990906%)" offset="0.386719"/><stop stop-opacity="1" stop-color="rgb(94.099426%, 47.102356%, 10.998535%)" offset="0.394531"/><stop stop-opacity="1" stop-color="rgb(94.099426%, 46.887207%, 10.998535%)" offset="0.402344"/><stop stop-opacity="1" stop-color="rgb(94.099426%, 46.496582%, 10.998535%)" offset="0.410156"/><stop stop-opacity="1" stop-color="rgb(94.099426%, 46.105957%, 11.192322%)" offset="0.417969"/><stop stop-opacity="1" stop-color="rgb(94.099426%, 45.904541%, 11.393738%)" offset="0.425781"/><stop stop-opacity="1" stop-color="rgb(94.099426%, 45.799255%, 11.399841%)" offset="0.433594"/><stop stop-opacity="1" stop-color="rgb(94.099426%, 45.588684%, 11.399841%)" offset="0.4375"/><stop stop-opacity="1" stop-color="rgb(94.099426%, 45.288086%, 11.399841%)" offset="0.441406"/><stop stop-opacity="1" stop-color="rgb(94.099426%, 44.902039%, 11.59668%)" offset="0.457031"/><stop stop-opacity="1" stop-color="rgb(94.099426%, 44.511414%, 11.795044%)" offset="0.464844"/><stop stop-opacity="1" stop-color="rgb(94.099426%, 44.206238%, 11.799622%)" offset="0.472656"/><stop stop-opacity="1" stop-color="rgb(94.099426%, 43.997192%, 11.799622%)" offset="0.476562"/><stop stop-opacity="1" stop-color="rgb(94.099426%, 43.79425%, 11.799622%)" offset="0.484375"/><stop stop-opacity="1" stop-color="rgb(94.099426%, 43.495178%, 11.898804%)" offset="0.492188"/><stop stop-opacity="1" stop-color="rgb(94.099426%, 43.199158%, 12.098694%)" offset="0.5"/><stop stop-opacity="1" stop-color="rgb(94.099426%, 43.099976%, 12.199402%)" offset="0.507812"/><stop stop-opacity="1" stop-color="rgb(94.099426%, 42.918396%, 12.199402%)" offset="0.511719"/><stop stop-opacity="1" stop-color="rgb(94.099426%, 42.567444%, 12.199402%)" offset="0.515625"/><stop stop-opacity="1" stop-color="rgb(94.099426%, 42.399597%, 12.199402%)" offset="0.527344"/><stop stop-opacity="1" stop-color="rgb(94.099426%, 42.391968%, 12.199402%)" offset="0.53125"/><stop stop-opacity="1" stop-color="rgb(94.099426%, 42.192078%, 12.200928%)" offset="0.535156"/><stop stop-opacity="1" stop-color="rgb(94.099426%, 41.999817%, 12.350464%)" offset="0.539062"/><stop stop-opacity="1" stop-color="rgb(94.099426%, 41.80603%, 12.498474%)" offset="0.542969"/><stop stop-opacity="1" stop-color="rgb(94.099426%, 41.426086%, 12.5%)" offset="0.546875"/><stop stop-opacity="1" stop-color="rgb(94.099426%, 41.218567%, 12.5%)" offset="0.558594"/><stop stop-opacity="1" stop-color="rgb(94.099426%, 41.178894%, 12.5%)" offset="0.5625"/><stop stop-opacity="1" stop-color="rgb(94.099426%, 40.9729%, 12.506104%)" offset="0.566406"/><stop stop-opacity="1" stop-color="rgb(94.099426%, 40.592957%, 12.705994%)" offset="0.578125"/><stop stop-opacity="1" stop-color="rgb(94.099426%, 40.39917%, 12.89978%)" offset="0.582031"/><stop stop-opacity="1" stop-color="rgb(94.099426%, 40.206909%, 12.89978%)" offset="0.585938"/><stop stop-opacity="1" stop-color="rgb(94.099426%, 39.828491%, 12.89978%)" offset="0.589844"/><stop stop-opacity="1" stop-color="rgb(94.099426%, 39.620972%, 12.89978%)" offset="0.601562"/><stop stop-opacity="1" stop-color="rgb(94.099426%, 39.579773%, 12.89978%)" offset="0.605469"/><stop stop-opacity="1" stop-color="rgb(94.099426%, 39.375305%, 12.904358%)" offset="0.609375"/><stop stop-opacity="1" stop-color="rgb(94.099426%, 38.993835%, 13.104248%)" offset="0.621094"/><stop stop-opacity="1" stop-color="rgb(94.099426%, 38.606262%, 13.299561%)" offset="0.625"/><stop stop-opacity="1" stop-color="rgb(94.099426%, 38.218689%, 13.299561%)" offset="0.636719"/><stop stop-opacity="1" stop-color="rgb(94.099426%, 38.002014%, 13.299561%)" offset="0.644531"/><stop stop-opacity="1" stop-color="rgb(94.099426%, 37.786865%, 13.302612%)" offset="0.652344"/><stop stop-opacity="1" stop-color="rgb(94.099426%, 37.446594%, 13.502502%)" offset="0.660156"/><stop stop-opacity="1" stop-color="rgb(94.099426%, 37.104797%, 13.697815%)" offset="0.667969"/><stop stop-opacity="1" stop-color="rgb(94.099426%, 36.903381%, 13.699341%)" offset="0.675781"/><stop stop-opacity="1" stop-color="rgb(94.099426%, 36.798096%, 13.699341%)" offset="0.683594"/><stop stop-opacity="1" stop-color="rgb(94.099426%, 36.58905%, 13.699341%)" offset="0.6875"/><stop stop-opacity="1" stop-color="rgb(94.099426%, 36.283875%, 13.703918%)" offset="0.691406"/><stop stop-opacity="1" stop-color="rgb(94.099426%, 35.89325%, 13.903809%)" offset="0.699219"/><stop stop-opacity="1" stop-color="rgb(94.099426%, 35.507202%, 14.099121%)" offset="0.714844"/><stop stop-opacity="1" stop-color="rgb(94.099426%, 35.205078%, 14.099121%)" offset="0.722656"/><stop stop-opacity="1" stop-color="rgb(94.099426%, 34.997559%, 14.099121%)" offset="0.726562"/><stop stop-opacity="1" stop-color="rgb(94.099426%, 34.794617%, 14.202881%)" offset="0.734375"/><stop stop-opacity="1" stop-color="rgb(94.099426%, 34.494019%, 14.402771%)" offset="0.742188"/><stop stop-opacity="1" stop-color="rgb(94.099426%, 34.197998%, 14.498901%)" offset="0.75"/><stop stop-opacity="1" stop-color="rgb(94.099426%, 34.098816%, 14.498901%)" offset="0.757812"/><stop stop-opacity="1" stop-color="rgb(94.099426%, 33.917236%, 14.498901%)" offset="0.761719"/><stop stop-opacity="1" stop-color="rgb(94.099426%, 33.717346%, 14.498901%)" offset="0.765625"/><stop stop-opacity="1" stop-color="rgb(94.099426%, 33.499146%, 14.498901%)" offset="0.769531"/><stop stop-opacity="1" stop-color="rgb(94.099426%, 33.299255%, 14.498901%)" offset="0.773438"/><stop stop-opacity="1" stop-color="rgb(94.099426%, 33.287048%, 14.498901%)" offset="0.777344"/><stop stop-opacity="1" stop-color="rgb(94.099426%, 33.087158%, 14.498901%)" offset="0.78125"/><stop stop-opacity="1" stop-color="rgb(94.099426%, 32.899475%, 14.501953%)" offset="0.785156"/><stop stop-opacity="1" stop-color="rgb(94.099426%, 32.899475%, 14.700317%)" offset="0.789062"/><stop stop-opacity="1" stop-color="rgb(94.099426%, 32.705688%, 14.897156%)" offset="0.792969"/><stop stop-opacity="1" stop-color="rgb(94.099426%, 32.354736%, 14.898682%)" offset="0.796875"/><stop stop-opacity="1" stop-color="rgb(94.099426%, 32.199097%, 14.898682%)" offset="0.808594"/><stop stop-opacity="1" stop-color="rgb(94.099426%, 31.988525%, 14.898682%)" offset="0.8125"/><stop stop-opacity="1" stop-color="rgb(94.099426%, 31.588745%, 14.898682%)" offset="0.816406"/><stop stop-opacity="1" stop-color="rgb(94.099426%, 31.39801%, 14.898682%)" offset="0.824219"/><stop stop-opacity="1" stop-color="rgb(94.099426%, 31.202698%, 15.09552%)" offset="0.832031"/><stop stop-opacity="1" stop-color="rgb(94.099426%, 30.812073%, 15.29541%)" offset="0.839844"/><stop stop-opacity="1" stop-color="rgb(94.099426%, 30.595398%, 15.299988%)" offset="0.847656"/><stop stop-opacity="1" stop-color="rgb(94.099426%, 30.380249%, 15.299988%)" offset="0.855469"/><stop stop-opacity="1" stop-color="rgb(94.099426%, 29.99115%, 15.299988%)" offset="0.863281"/><stop stop-opacity="1" stop-color="rgb(94.099426%, 29.608154%, 15.489197%)" offset="0.878906"/><stop stop-opacity="1" stop-color="rgb(94.099426%, 29.408264%, 15.689087%)" offset="0.882812"/><stop stop-opacity="1" stop-color="rgb(94.099426%, 29.217529%, 15.699768%)" offset="0.886719"/><stop stop-opacity="1" stop-color="rgb(94.099426%, 29.017639%, 15.699768%)" offset="0.890625"/><stop stop-opacity="1" stop-color="rgb(94.099426%, 28.97644%, 15.699768%)" offset="0.894531"/><stop stop-opacity="1" stop-color="rgb(94.099426%, 28.77655%, 15.699768%)" offset="0.898438"/><stop stop-opacity="1" stop-color="rgb(94.099426%, 28.585815%, 15.699768%)" offset="0.902344"/><stop stop-opacity="1" stop-color="rgb(94.099426%, 28.385925%, 15.699768%)" offset="0.90625"/><stop stop-opacity="1" stop-color="rgb(94.099426%, 28.004456%, 15.893555%)" offset="0.917969"/><stop stop-opacity="1" stop-color="rgb(94.099426%, 27.633667%, 16.093445%)" offset="0.925781"/><stop stop-opacity="1" stop-color="rgb(94.099426%, 27.278137%, 16.099548%)" offset="0.941406"/><stop stop-opacity="1" stop-color="rgb(94.099426%, 27.087402%, 16.099548%)" offset="0.945312"/><stop stop-opacity="1" stop-color="rgb(94.099426%, 26.887512%, 16.099548%)" offset="0.949219"/><stop stop-opacity="1" stop-color="rgb(94.099426%, 26.698303%, 16.099548%)" offset="0.953125"/><stop stop-opacity="1" stop-color="rgb(94.099426%, 26.502991%, 16.099548%)" offset="0.957031"/><stop stop-opacity="1" stop-color="rgb(94.099426%, 26.303101%, 16.099548%)" offset="0.964844"/><stop stop-opacity="1" stop-color="rgb(94.099426%, 26.119995%, 16.27655%)" offset="0.972656"/><stop stop-opacity="1" stop-color="rgb(94.099426%, 25.909424%, 16.47644%)" offset="0.976562"/><stop stop-opacity="1" stop-color="rgb(94.099426%, 25.686646%, 16.499329%)" offset="0.980469"/><stop stop-opacity="1" stop-color="rgb(94.099426%, 25.494385%, 16.499329%)" offset="0.988281"/><stop stop-opacity="1" stop-color="rgb(94.099426%, 25.294495%, 16.499329%)" offset="0.992188"/><stop stop-opacity="1" stop-color="rgb(94.099426%, 25.099182%, 16.499329%)" offset="1"/></radialGradient><clipPath id="id6"><path d="M 53.777344 10.511719 L 150.632812 10.511719 L 150.632812 91.832031 L 53.777344 91.832031 Z M 53.777344 10.511719 " clip-rule="nonzero"/></clipPath><clipPath id="id7"><path d="M 113.796875 22.429688 C 117.632812 22.429688 121.367188 22.886719 124.945312 23.742188 L 115.917969 31.875 L 150.558594 23.15625 C 140.410156 15.234375 127.652344 10.515625 113.796875 10.515625 C 80.730469 10.515625 53.921875 37.375 53.921875 70.511719 C 53.921875 78.015625 55.304688 85.199219 57.816406 91.824219 L 67.011719 81.222656 C 66.230469 77.777344 65.816406 74.191406 65.816406 70.511719 C 65.816406 43.957031 87.296875 22.429688 113.796875 22.429688 Z M 113.796875 22.429688 " clip-rule="nonzero"/></clipPath><clipPath id="id8"><path d="M 113.796875 22.429688 C 117.632812 22.429688 121.367188 22.886719 124.945312 23.742188 L 115.917969 31.875 L 150.558594 23.15625 C 140.410156 15.234375 127.652344 10.515625 113.796875 10.515625 C 80.730469 10.515625 53.921875 37.375 53.921875 70.511719 C 53.921875 78.015625 55.304688 85.199219 57.816406 91.824219 L 67.011719 81.222656 C 66.230469 77.777344 65.816406 74.191406 65.816406 70.511719 C 65.816406 43.957031 87.296875 22.429688 113.796875 22.429688 " clip-rule="nonzero"/></clipPath><clipPath id="id9"><path d="M 190.832031 56.054688 L 108.046875 -37.554688 L 13.648438 46.28125 L 96.433594 139.890625 Z M 190.832031 56.054688 " clip-rule="nonzero"/></clipPath><radialGradient gradientTransform="matrix(-0.747605, 0.663954, -0.662566, -0.749171, 209.316788, -13.59968)" gradientUnits="userSpaceOnUse" r="180.469377" cx="0" id="id10" cy="0" fx="0" fy="0"><stop stop-opacity="1" stop-color="rgb(48.00415%, 47.099304%, 47.303772%)" offset="0"/><stop stop-opacity="1" stop-color="rgb(47.659302%, 46.907043%, 47.103882%)" offset="0.0078125"/><stop stop-opacity="1" stop-color="rgb(47.505188%, 46.644592%, 47.036743%)" offset="0.0195312"/><stop stop-opacity="1" stop-color="rgb(47.499084%, 46.502686%, 46.902466%)" offset="0.0234375"/><stop stop-opacity="1" stop-color="rgb(47.494507%, 46.360779%, 46.760559%)" offset="0.0273438"/><stop stop-opacity="1" stop-color="rgb(47.296143%, 46.095276%, 46.495056%)" offset="0.03125"/><stop stop-opacity="1" stop-color="rgb(46.905518%, 45.899963%, 46.104431%)" offset="0.0429688"/><stop stop-opacity="1" stop-color="rgb(46.638489%, 45.834351%, 45.838928%)" offset="0.0546875"/><stop stop-opacity="1" stop-color="rgb(46.496582%, 45.697021%, 45.697021%)" offset="0.0585938"/><stop stop-opacity="1" stop-color="rgb(46.356201%, 45.556641%, 45.562744%)" offset="0.0625"/><stop stop-opacity="1" stop-color="rgb(46.092224%, 45.291138%, 45.497131%)" offset="0.0664062"/><stop stop-opacity="1" stop-color="rgb(45.899963%, 44.900513%, 45.300293%)" offset="0.078125"/><stop stop-opacity="1" stop-color="rgb(45.706177%, 44.509888%, 44.909668%)" offset="0.0898438"/><stop stop-opacity="1" stop-color="rgb(45.443726%, 44.306946%, 44.642639%)" offset="0.101562"/><stop stop-opacity="1" stop-color="rgb(45.301819%, 44.299316%, 44.500732%)" offset="0.105469"/><stop stop-opacity="1" stop-color="rgb(45.159912%, 44.294739%, 44.360352%)" offset="0.109375"/><stop stop-opacity="1" stop-color="rgb(44.894409%, 44.094849%, 44.094849%)" offset="0.113281"/><stop stop-opacity="1" stop-color="rgb(44.699097%, 43.704224%, 43.899536%)" offset="0.125"/><stop stop-opacity="1" stop-color="rgb(44.633484%, 43.437195%, 43.832397%)" offset="0.136719"/><stop stop-opacity="1" stop-color="rgb(44.496155%, 43.295288%, 43.695068%)" offset="0.140625"/><stop stop-opacity="1" stop-color="rgb(44.354248%, 43.154907%, 43.554688%)" offset="0.144531"/><stop stop-opacity="1" stop-color="rgb(44.088745%, 42.89093%, 43.289185%)" offset="0.148438"/><stop stop-opacity="1" stop-color="rgb(43.69812%, 42.698669%, 42.89856%)" offset="0.160156"/><stop stop-opacity="1" stop-color="rgb(43.501282%, 42.553711%, 42.700195%)" offset="0.171875"/><stop stop-opacity="1" stop-color="rgb(43.435669%, 42.340088%, 42.651367%)" offset="0.183594"/><stop stop-opacity="1" stop-color="rgb(43.299866%, 42.199707%, 42.550659%)" offset="0.1875"/><stop stop-opacity="1" stop-color="rgb(43.159485%, 42.059326%, 42.442322%)" offset="0.191406"/><stop stop-opacity="1" stop-color="rgb(42.893982%, 41.793823%, 42.193604%)" offset="0.195312"/><stop stop-opacity="1" stop-color="rgb(42.552185%, 41.598511%, 41.802979%)" offset="0.207031"/><stop stop-opacity="1" stop-color="rgb(42.33551%, 41.531372%, 41.53595%)" offset="0.21875"/><stop stop-opacity="1" stop-color="rgb(42.195129%, 41.394043%, 41.394043%)" offset="0.222656"/><stop stop-opacity="1" stop-color="rgb(42.062378%, 41.253662%, 41.261292%)" offset="0.226562"/><stop stop-opacity="1" stop-color="rgb(41.996765%, 40.988159%, 41.195679%)" offset="0.230469"/><stop stop-opacity="1" stop-color="rgb(41.798401%, 40.597534%, 40.997314%)" offset="0.242188"/><stop stop-opacity="1" stop-color="rgb(41.407776%, 40.400696%, 40.606689%)" offset="0.253906"/><stop stop-opacity="1" stop-color="rgb(41.20636%, 40.209961%, 40.405273%)" offset="0.261719"/><stop stop-opacity="1" stop-color="rgb(41.101074%, 40.010071%, 40.299988%)" offset="0.269531"/><stop stop-opacity="1" stop-color="rgb(40.901184%, 39.892578%, 40.100098%)" offset="0.273438"/><stop stop-opacity="1" stop-color="rgb(40.696716%, 39.692688%, 39.897156%)" offset="0.28125"/><stop stop-opacity="1" stop-color="rgb(40.496826%, 39.501953%, 39.697266%)" offset="0.289062"/><stop stop-opacity="1" stop-color="rgb(40.306091%, 39.302063%, 39.506531%)" offset="0.296875"/><stop stop-opacity="1" stop-color="rgb(40.106201%, 39.099121%, 39.306641%)" offset="0.304688"/><stop stop-opacity="1" stop-color="rgb(39.891052%, 38.899231%, 39.091492%)" offset="0.3125"/><stop stop-opacity="1" stop-color="rgb(39.691162%, 38.694763%, 38.890076%)" offset="0.320312"/><stop stop-opacity="1" stop-color="rgb(39.500427%, 38.494873%, 38.699341%)" offset="0.328125"/><stop stop-opacity="1" stop-color="rgb(39.300537%, 38.304138%, 38.499451%)" offset="0.335938"/><stop stop-opacity="1" stop-color="rgb(39.199829%, 38.113403%, 38.398743%)" offset="0.34375"/><stop stop-opacity="1" stop-color="rgb(39.097595%, 37.905884%, 38.296509%)" offset="0.347656"/><stop stop-opacity="1" stop-color="rgb(38.896179%, 37.696838%, 38.096619%)" offset="0.351562"/><stop stop-opacity="1" stop-color="rgb(38.693237%, 37.519836%, 37.893677%)" offset="0.359375"/><stop stop-opacity="1" stop-color="rgb(38.493347%, 37.3703%, 37.693787%)" offset="0.367188"/><stop stop-opacity="1" stop-color="rgb(38.302612%, 37.203979%, 37.527466%)" offset="0.375"/><stop stop-opacity="1" stop-color="rgb(38.102722%, 37.004089%, 37.376404%)" offset="0.382812"/><stop stop-opacity="1" stop-color="rgb(37.89978%, 36.801147%, 37.200928%)" offset="0.390625"/><stop stop-opacity="1" stop-color="rgb(37.69989%, 36.601257%, 37.001038%)" offset="0.398438"/><stop stop-opacity="1" stop-color="rgb(37.522888%, 36.39679%, 36.79657%)" offset="0.40625"/><stop stop-opacity="1" stop-color="rgb(37.371826%, 36.196899%, 36.500549%)" offset="0.414062"/><stop stop-opacity="1" stop-color="rgb(37.207031%, 36.006165%, 36.201477%)" offset="0.421875"/><stop stop-opacity="1" stop-color="rgb(37.007141%, 35.806274%, 35.998535%)" offset="0.429688"/><stop stop-opacity="1" stop-color="rgb(36.790466%, 35.591125%, 35.798645%)" offset="0.4375"/><stop stop-opacity="1" stop-color="rgb(36.590576%, 35.391235%, 35.595703%)" offset="0.445312"/><stop stop-opacity="1" stop-color="rgb(36.399841%, 35.2005%, 35.395813%)" offset="0.453125"/><stop stop-opacity="1" stop-color="rgb(36.199951%, 35.00061%, 35.205078%)" offset="0.460938"/><stop stop-opacity="1" stop-color="rgb(35.997009%, 34.797668%, 35.005188%)" offset="0.46875"/><stop stop-opacity="1" stop-color="rgb(35.797119%, 34.596252%, 34.790039%)" offset="0.476562"/><stop stop-opacity="1" stop-color="rgb(35.594177%, 34.393311%, 34.588623%)" offset="0.484375"/><stop stop-opacity="1" stop-color="rgb(35.295105%, 34.094238%, 34.397888%)" offset="0.492188"/><stop stop-opacity="1" stop-color="rgb(34.999084%, 33.798218%, 34.135437%)" offset="0.5"/><stop stop-opacity="1" stop-color="rgb(34.83429%, 33.634949%, 33.834839%)" offset="0.507812"/><stop stop-opacity="1" stop-color="rgb(34.698486%, 33.499146%, 33.699036%)" offset="0.519531"/><stop stop-opacity="1" stop-color="rgb(34.558105%, 33.357239%, 33.692932%)" offset="0.523438"/><stop stop-opacity="1" stop-color="rgb(34.292603%, 33.091736%, 33.493042%)" offset="0.527344"/><stop stop-opacity="1" stop-color="rgb(33.901978%, 32.701111%, 33.102417%)" offset="0.539062"/><stop stop-opacity="1" stop-color="rgb(33.511353%, 32.357788%, 32.711792%)" offset="0.550781"/><stop stop-opacity="1" stop-color="rgb(33.303833%, 32.200623%, 32.357788%)" offset="0.5625"/><stop stop-opacity="1" stop-color="rgb(33.096313%, 31.996155%, 32.199097%)" offset="0.574219"/><stop stop-opacity="1" stop-color="rgb(32.705688%, 31.60553%, 32.003784%)" offset="0.585938"/><stop stop-opacity="1" stop-color="rgb(32.455444%, 31.340027%, 31.739807%)" offset="0.597656"/><stop stop-opacity="1" stop-color="rgb(32.348633%, 31.19812%, 31.5979%)" offset="0.601562"/><stop stop-opacity="1" stop-color="rgb(32.246399%, 31.056213%, 31.45752%)" offset="0.605469"/><stop stop-opacity="1" stop-color="rgb(32.197571%, 30.792236%, 31.193542%)" offset="0.609375"/><stop stop-opacity="1" stop-color="rgb(32.000732%, 30.599976%, 30.999756%)" offset="0.621094"/><stop stop-opacity="1" stop-color="rgb(31.611633%, 30.409241%, 30.809021%)" offset="0.632812"/><stop stop-opacity="1" stop-color="rgb(31.396484%, 30.197144%, 30.596924%)" offset="0.640625"/><stop stop-opacity="1" stop-color="rgb(31.187439%, 29.988098%, 30.387878%)" offset="0.648438"/><stop stop-opacity="1" stop-color="rgb(30.99823%, 29.797363%, 30.197144%)" offset="0.65625"/><stop stop-opacity="1" stop-color="rgb(30.801392%, 29.600525%, 30.000305%)" offset="0.664062"/><stop stop-opacity="1" stop-color="rgb(30.603027%, 29.402161%, 29.60968%)" offset="0.671875"/><stop stop-opacity="1" stop-color="rgb(30.412292%, 29.211426%, 29.406738%)" offset="0.679688"/><stop stop-opacity="1" stop-color="rgb(30.210876%, 29.011536%, 29.301453%)" offset="0.6875"/><stop stop-opacity="1" stop-color="rgb(30.093384%, 28.894043%, 29.101562%)" offset="0.691406"/><stop stop-opacity="1" stop-color="rgb(29.893494%, 28.694153%, 28.898621%)" offset="0.699219"/><stop stop-opacity="1" stop-color="rgb(29.702759%, 28.503418%, 28.69873%)" offset="0.707031"/><stop stop-opacity="1" stop-color="rgb(29.502869%, 28.303528%, 28.507996%)" offset="0.714844"/><stop stop-opacity="1" stop-color="rgb(29.299927%, 28.100586%, 28.308105%)" offset="0.722656"/><stop stop-opacity="1" stop-color="rgb(29.100037%, 27.819824%, 28.091431%)" offset="0.730469"/><stop stop-opacity="1" stop-color="rgb(28.897095%, 27.568054%, 27.891541%)" offset="0.738281"/><stop stop-opacity="1" stop-color="rgb(28.697205%, 27.401733%, 27.726746%)" offset="0.746094"/><stop stop-opacity="1" stop-color="rgb(28.599548%, 27.206421%, 27.580261%)" offset="0.753906"/><stop stop-opacity="1" stop-color="rgb(28.536987%, 27.104187%, 27.441406%)" offset="0.757812"/><stop stop-opacity="1" stop-color="rgb(28.410339%, 27.099609%, 27.310181%)" offset="0.761719"/><stop stop-opacity="1" stop-color="rgb(28.279114%, 27.099609%, 27.178955%)" offset="0.765625"/><stop stop-opacity="1" stop-color="rgb(28.144836%, 27.037048%, 27.107239%)" offset="0.769531"/><stop stop-opacity="1" stop-color="rgb(28.00293%, 26.902771%, 27.099609%)" offset="0.773438"/><stop stop-opacity="1" stop-color="rgb(27.862549%, 26.760864%, 27.095032%)" offset="0.777344"/><stop stop-opacity="1" stop-color="rgb(27.645874%, 26.495361%, 26.895142%)" offset="0.78125"/><stop stop-opacity="1" stop-color="rgb(27.49939%, 26.104736%, 26.504517%)" offset="0.792969"/><stop stop-opacity="1" stop-color="rgb(27.433777%, 25.839233%, 26.239014%)" offset="0.804688"/><stop stop-opacity="1" stop-color="rgb(27.296448%, 25.697327%, 26.097107%)" offset="0.808594"/><stop stop-opacity="1" stop-color="rgb(27.151489%, 25.563049%, 25.96283%)" offset="0.8125"/><stop stop-opacity="1" stop-color="rgb(26.889038%, 25.492859%, 25.892639%)" offset="0.816406"/><stop stop-opacity="1" stop-color="rgb(26.698303%, 25.292969%, 25.692749%)" offset="0.824219"/><stop stop-opacity="1" stop-color="rgb(26.502991%, 25.099182%, 25.498962%)" offset="0.832031"/><stop stop-opacity="1" stop-color="rgb(26.303101%, 24.906921%, 25.306702%)" offset="0.839844"/><stop stop-opacity="1" stop-color="rgb(26.196289%, 24.707031%, 25.106812%)" offset="0.847656"/><stop stop-opacity="1" stop-color="rgb(25.996399%, 24.589539%, 24.989319%)" offset="0.851562"/><stop stop-opacity="1" stop-color="rgb(25.793457%, 24.389648%, 24.789429%)" offset="0.859375"/><stop stop-opacity="1" stop-color="rgb(25.593567%, 24.198914%, 24.598694%)" offset="0.867188"/><stop stop-opacity="1" stop-color="rgb(25.434875%, 23.934937%, 24.334717%)" offset="0.875"/><stop stop-opacity="1" stop-color="rgb(25.306702%, 23.706055%, 24.105835%)" offset="0.882812"/><stop stop-opacity="1" stop-color="rgb(25.177002%, 23.576355%, 23.976135%)" offset="0.886719"/><stop stop-opacity="1" stop-color="rgb(25.041199%, 23.504639%, 23.840332%)" offset="0.890625"/><stop stop-opacity="1" stop-color="rgb(24.899292%, 23.498535%, 23.698425%)" offset="0.894531"/><stop stop-opacity="1" stop-color="rgb(24.757385%, 23.492432%, 23.562622%)" offset="0.898438"/><stop stop-opacity="1" stop-color="rgb(24.621582%, 23.422241%, 23.498535%)" offset="0.902344"/><stop stop-opacity="1" stop-color="rgb(24.491882%, 23.292542%, 23.498535%)" offset="0.90625"/><stop stop-opacity="1" stop-color="rgb(24.363708%, 23.06366%, 23.399353%)" offset="0.910156"/><stop stop-opacity="1" stop-color="rgb(24.205017%, 22.799683%, 23.199463%)" offset="0.917969"/><stop stop-opacity="1" stop-color="rgb(24.005127%, 22.631836%, 23.008728%)" offset="0.925781"/><stop stop-opacity="1" stop-color="rgb(23.802185%, 22.4823%, 22.808838%)" offset="0.933594"/><stop stop-opacity="1" stop-color="rgb(23.600769%, 22.264099%, 22.596741%)" offset="0.941406"/><stop stop-opacity="1" stop-color="rgb(23.497009%, 22.062683%, 22.447205%)" offset="0.953125"/><stop stop-opacity="1" stop-color="rgb(23.301697%, 21.998596%, 22.203064%)" offset="0.957031"/><stop stop-opacity="1" stop-color="rgb(22.911072%, 21.807861%, 22.003174%)" offset="0.964844"/><stop stop-opacity="1" stop-color="rgb(22.706604%, 21.542358%, 21.934509%)" offset="0.972656"/><stop stop-opacity="1" stop-color="rgb(22.618103%, 21.333313%, 21.734619%)" offset="0.976562"/><stop stop-opacity="1" stop-color="rgb(22.468567%, 21.194458%, 21.594238%)" offset="0.988281"/><stop stop-opacity="1" stop-color="rgb(22.399902%, 20.994568%, 21.394348%)" offset="0.992188"/><stop stop-opacity="1" stop-color="rgb(22.399902%, 20.799255%, 21.199036%)" offset="1"/></radialGradient><clipPath id="id11"><path d="M 69.339844 40.917969 L 173.6875 40.917969 L 173.6875 130.511719 L 69.339844 130.511719 Z M 69.339844 40.917969 " clip-rule="nonzero"/></clipPath><clipPath id="id12"><path d="M 165.921875 40.984375 L 160.941406 61.570312 C 161.488281 64.46875 161.773438 67.457031 161.773438 70.511719 C 161.773438 97.0625 140.292969 118.589844 113.796875 118.589844 C 101.921875 118.589844 91.054688 114.265625 82.675781 107.105469 L 88.734375 96.847656 L 79.109375 103.730469 C 79.09375 103.714844 79.078125 103.695312 79.0625 103.679688 L 69.351562 110.710938 C 80.308594 122.867188 96.160156 130.507812 113.796875 130.507812 C 146.859375 130.507812 173.667969 103.648438 173.667969 70.511719 C 173.667969 59.777344 170.851562 49.699219 165.921875 40.984375 Z M 165.921875 40.984375 " clip-rule="nonzero"/></clipPath><clipPath id="id13"><path d="M 165.921875 40.984375 L 160.941406 61.570312 C 161.488281 64.46875 161.773438 67.457031 161.773438 70.511719 C 161.773438 97.0625 140.292969 118.589844 113.796875 118.589844 C 101.921875 118.589844 91.054688 114.265625 82.675781 107.105469 L 88.734375 96.847656 L 79.109375 103.730469 C 79.09375 103.714844 79.078125 103.695312 79.0625 103.679688 L 69.351562 110.710938 C 80.308594 122.867188 96.160156 130.507812 113.796875 130.507812 C 146.859375 130.507812 173.667969 103.648438 173.667969 70.511719 C 173.667969 59.777344 170.851562 49.699219 165.921875 40.984375 " clip-rule="nonzero"/></clipPath><clipPath id="id14"><path d="M 218.011719 91.125 L 127.777344 -10.90625 L 25.007812 80.367188 L 115.242188 182.394531 Z M 218.011719 91.125 " clip-rule="nonzero"/></clipPath><radialGradient gradientTransform="matrix(-0.747605, 0.663954, -0.662566, -0.749171, 209.316788, -13.59968)" gradientUnits="userSpaceOnUse" r="180.469377" cx="0" id="id15" cy="0" fx="0" fy="0"><stop stop-opacity="1" stop-color="rgb(48.00415%, 47.099304%, 47.303772%)" offset="0"/><stop stop-opacity="1" stop-color="rgb(47.659302%, 46.907043%, 47.103882%)" offset="0.0078125"/><stop stop-opacity="1" stop-color="rgb(47.505188%, 46.644592%, 47.036743%)" offset="0.0195312"/><stop stop-opacity="1" stop-color="rgb(47.499084%, 46.502686%, 46.902466%)" offset="0.0234375"/><stop stop-opacity="1" stop-color="rgb(47.494507%, 46.360779%, 46.760559%)" offset="0.0273438"/><stop stop-opacity="1" stop-color="rgb(47.296143%, 46.095276%, 46.495056%)" offset="0.03125"/><stop stop-opacity="1" stop-color="rgb(46.905518%, 45.899963%, 46.104431%)" offset="0.0429688"/><stop stop-opacity="1" stop-color="rgb(46.638489%, 45.834351%, 45.838928%)" offset="0.0546875"/><stop stop-opacity="1" stop-color="rgb(46.496582%, 45.697021%, 45.697021%)" offset="0.0585938"/><stop stop-opacity="1" stop-color="rgb(46.356201%, 45.556641%, 45.562744%)" offset="0.0625"/><stop stop-opacity="1" stop-color="rgb(46.092224%, 45.291138%, 45.497131%)" offset="0.0664062"/><stop stop-opacity="1" stop-color="rgb(45.899963%, 44.900513%, 45.300293%)" offset="0.078125"/><stop stop-opacity="1" stop-color="rgb(45.706177%, 44.509888%, 44.909668%)" offset="0.0898438"/><stop stop-opacity="1" stop-color="rgb(45.443726%, 44.306946%, 44.642639%)" offset="0.101562"/><stop stop-opacity="1" stop-color="rgb(45.301819%, 44.299316%, 44.500732%)" offset="0.105469"/><stop stop-opacity="1" stop-color="rgb(45.159912%, 44.294739%, 44.360352%)" offset="0.109375"/><stop stop-opacity="1" stop-color="rgb(44.894409%, 44.094849%, 44.094849%)" offset="0.113281"/><stop stop-opacity="1" stop-color="rgb(44.699097%, 43.704224%, 43.899536%)" offset="0.125"/><stop stop-opacity="1" stop-color="rgb(44.633484%, 43.437195%, 43.832397%)" offset="0.136719"/><stop stop-opacity="1" stop-color="rgb(44.496155%, 43.295288%, 43.695068%)" offset="0.140625"/><stop stop-opacity="1" stop-color="rgb(44.354248%, 43.154907%, 43.554688%)" offset="0.144531"/><stop stop-opacity="1" stop-color="rgb(44.088745%, 42.89093%, 43.289185%)" offset="0.148438"/><stop stop-opacity="1" stop-color="rgb(43.69812%, 42.698669%, 42.89856%)" offset="0.160156"/><stop stop-opacity="1" stop-color="rgb(43.501282%, 42.553711%, 42.700195%)" offset="0.171875"/><stop stop-opacity="1" stop-color="rgb(43.435669%, 42.340088%, 42.651367%)" offset="0.183594"/><stop stop-opacity="1" stop-color="rgb(43.299866%, 42.199707%, 42.550659%)" offset="0.1875"/><stop stop-opacity="1" stop-color="rgb(43.159485%, 42.059326%, 42.442322%)" offset="0.191406"/><stop stop-opacity="1" stop-color="rgb(42.893982%, 41.793823%, 42.193604%)" offset="0.195312"/><stop stop-opacity="1" stop-color="rgb(42.552185%, 41.598511%, 41.802979%)" offset="0.207031"/><stop stop-opacity="1" stop-color="rgb(42.33551%, 41.531372%, 41.53595%)" offset="0.21875"/><stop stop-opacity="1" stop-color="rgb(42.195129%, 41.394043%, 41.394043%)" offset="0.222656"/><stop stop-opacity="1" stop-color="rgb(42.062378%, 41.253662%, 41.261292%)" offset="0.226562"/><stop stop-opacity="1" stop-color="rgb(41.996765%, 40.988159%, 41.195679%)" offset="0.230469"/><stop stop-opacity="1" stop-color="rgb(41.798401%, 40.597534%, 40.997314%)" offset="0.242188"/><stop stop-opacity="1" stop-color="rgb(41.407776%, 40.400696%, 40.606689%)" offset="0.253906"/><stop stop-opacity="1" stop-color="rgb(41.20636%, 40.209961%, 40.405273%)" offset="0.261719"/><stop stop-opacity="1" stop-color="rgb(41.101074%, 40.010071%, 40.299988%)" offset="0.269531"/><stop stop-opacity="1" stop-color="rgb(40.901184%, 39.892578%, 40.100098%)" offset="0.273438"/><stop stop-opacity="1" stop-color="rgb(40.696716%, 39.692688%, 39.897156%)" offset="0.28125"/><stop stop-opacity="1" stop-color="rgb(40.496826%, 39.501953%, 39.697266%)" offset="0.289062"/><stop stop-opacity="1" stop-color="rgb(40.306091%, 39.302063%, 39.506531%)" offset="0.296875"/><stop stop-opacity="1" stop-color="rgb(40.106201%, 39.099121%, 39.306641%)" offset="0.304688"/><stop stop-opacity="1" stop-color="rgb(39.891052%, 38.899231%, 39.091492%)" offset="0.3125"/><stop stop-opacity="1" stop-color="rgb(39.691162%, 38.694763%, 38.890076%)" offset="0.320312"/><stop stop-opacity="1" stop-color="rgb(39.500427%, 38.494873%, 38.699341%)" offset="0.328125"/><stop stop-opacity="1" stop-color="rgb(39.300537%, 38.304138%, 38.499451%)" offset="0.335938"/><stop stop-opacity="1" stop-color="rgb(39.199829%, 38.113403%, 38.398743%)" offset="0.34375"/><stop stop-opacity="1" stop-color="rgb(39.097595%, 37.905884%, 38.296509%)" offset="0.347656"/><stop stop-opacity="1" stop-color="rgb(38.896179%, 37.696838%, 38.096619%)" offset="0.351562"/><stop stop-opacity="1" stop-color="rgb(38.693237%, 37.519836%, 37.893677%)" offset="0.359375"/><stop stop-opacity="1" stop-color="rgb(38.493347%, 37.3703%, 37.693787%)" offset="0.367188"/><stop stop-opacity="1" stop-color="rgb(38.302612%, 37.203979%, 37.527466%)" offset="0.375"/><stop stop-opacity="1" stop-color="rgb(38.102722%, 37.004089%, 37.376404%)" offset="0.382812"/><stop stop-opacity="1" stop-color="rgb(37.89978%, 36.801147%, 37.200928%)" offset="0.390625"/><stop stop-opacity="1" stop-color="rgb(37.69989%, 36.601257%, 37.001038%)" offset="0.398438"/><stop stop-opacity="1" stop-color="rgb(37.522888%, 36.39679%, 36.79657%)" offset="0.40625"/><stop stop-opacity="1" stop-color="rgb(37.371826%, 36.196899%, 36.500549%)" offset="0.414062"/><stop stop-opacity="1" stop-color="rgb(37.207031%, 36.006165%, 36.201477%)" offset="0.421875"/><stop stop-opacity="1" stop-color="rgb(37.007141%, 35.806274%, 35.998535%)" offset="0.429688"/><stop stop-opacity="1" stop-color="rgb(36.790466%, 35.591125%, 35.798645%)" offset="0.4375"/><stop stop-opacity="1" stop-color="rgb(36.590576%, 35.391235%, 35.595703%)" offset="0.445312"/><stop stop-opacity="1" stop-color="rgb(36.399841%, 35.2005%, 35.395813%)" offset="0.453125"/><stop stop-opacity="1" stop-color="rgb(36.199951%, 35.00061%, 35.205078%)" offset="0.460938"/><stop stop-opacity="1" stop-color="rgb(35.997009%, 34.797668%, 35.005188%)" offset="0.46875"/><stop stop-opacity="1" stop-color="rgb(35.797119%, 34.596252%, 34.790039%)" offset="0.476562"/><stop stop-opacity="1" stop-color="rgb(35.594177%, 34.393311%, 34.588623%)" offset="0.484375"/><stop stop-opacity="1" stop-color="rgb(35.295105%, 34.094238%, 34.397888%)" offset="0.492188"/><stop stop-opacity="1" stop-color="rgb(34.999084%, 33.798218%, 34.135437%)" offset="0.5"/><stop stop-opacity="1" stop-color="rgb(34.83429%, 33.634949%, 33.834839%)" offset="0.507812"/><stop stop-opacity="1" stop-color="rgb(34.698486%, 33.499146%, 33.699036%)" offset="0.519531"/><stop stop-opacity="1" stop-color="rgb(34.558105%, 33.357239%, 33.692932%)" offset="0.523438"/><stop stop-opacity="1" stop-color="rgb(34.292603%, 33.091736%, 33.493042%)" offset="0.527344"/><stop stop-opacity="1" stop-color="rgb(33.901978%, 32.701111%, 33.102417%)" offset="0.539062"/><stop stop-opacity="1" stop-color="rgb(33.511353%, 32.357788%, 32.711792%)" offset="0.550781"/><stop stop-opacity="1" stop-color="rgb(33.303833%, 32.200623%, 32.357788%)" offset="0.5625"/><stop stop-opacity="1" stop-color="rgb(33.096313%, 31.996155%, 32.199097%)" offset="0.574219"/><stop stop-opacity="1" stop-color="rgb(32.705688%, 31.60553%, 32.003784%)" offset="0.585938"/><stop stop-opacity="1" stop-color="rgb(32.455444%, 31.340027%, 31.739807%)" offset="0.597656"/><stop stop-opacity="1" stop-color="rgb(32.348633%, 31.19812%, 31.5979%)" offset="0.601562"/><stop stop-opacity="1" stop-color="rgb(32.246399%, 31.056213%, 31.45752%)" offset="0.605469"/><stop stop-opacity="1" stop-color="rgb(32.197571%, 30.792236%, 31.193542%)" offset="0.609375"/><stop stop-opacity="1" stop-color="rgb(32.000732%, 30.599976%, 30.999756%)" offset="0.621094"/><stop stop-opacity="1" stop-color="rgb(31.611633%, 30.409241%, 30.809021%)" offset="0.632812"/><stop stop-opacity="1" stop-color="rgb(31.396484%, 30.197144%, 30.596924%)" offset="0.640625"/><stop stop-opacity="1" stop-color="rgb(31.187439%, 29.988098%, 30.387878%)" offset="0.648438"/><stop stop-opacity="1" stop-color="rgb(30.99823%, 29.797363%, 30.197144%)" offset="0.65625"/><stop stop-opacity="1" stop-color="rgb(30.801392%, 29.600525%, 30.000305%)" offset="0.664062"/><stop stop-opacity="1" stop-color="rgb(30.603027%, 29.402161%, 29.60968%)" offset="0.671875"/><stop stop-opacity="1" stop-color="rgb(30.412292%, 29.211426%, 29.406738%)" offset="0.679688"/><stop stop-opacity="1" stop-color="rgb(30.210876%, 29.011536%, 29.301453%)" offset="0.6875"/><stop stop-opacity="1" stop-color="rgb(30.093384%, 28.894043%, 29.101562%)" offset="0.691406"/><stop stop-opacity="1" stop-color="rgb(29.893494%, 28.694153%, 28.898621%)" offset="0.699219"/><stop stop-opacity="1" stop-color="rgb(29.702759%, 28.503418%, 28.69873%)" offset="0.707031"/><stop stop-opacity="1" stop-color="rgb(29.502869%, 28.303528%, 28.507996%)" offset="0.714844"/><stop stop-opacity="1" stop-color="rgb(29.299927%, 28.100586%, 28.308105%)" offset="0.722656"/><stop stop-opacity="1" stop-color="rgb(29.100037%, 27.819824%, 28.091431%)" offset="0.730469"/><stop stop-opacity="1" stop-color="rgb(28.897095%, 27.568054%, 27.891541%)" offset="0.738281"/><stop stop-opacity="1" stop-color="rgb(28.697205%, 27.401733%, 27.726746%)" offset="0.746094"/><stop stop-opacity="1" stop-color="rgb(28.599548%, 27.206421%, 27.580261%)" offset="0.753906"/><stop stop-opacity="1" stop-color="rgb(28.536987%, 27.104187%, 27.441406%)" offset="0.757812"/><stop stop-opacity="1" stop-color="rgb(28.410339%, 27.099609%, 27.310181%)" offset="0.761719"/><stop stop-opacity="1" stop-color="rgb(28.279114%, 27.099609%, 27.178955%)" offset="0.765625"/><stop stop-opacity="1" stop-color="rgb(28.144836%, 27.037048%, 27.107239%)" offset="0.769531"/><stop stop-opacity="1" stop-color="rgb(28.00293%, 26.902771%, 27.099609%)" offset="0.773438"/><stop stop-opacity="1" stop-color="rgb(27.862549%, 26.760864%, 27.095032%)" offset="0.777344"/><stop stop-opacity="1" stop-color="rgb(27.645874%, 26.495361%, 26.895142%)" offset="0.78125"/><stop stop-opacity="1" stop-color="rgb(27.49939%, 26.104736%, 26.504517%)" offset="0.792969"/><stop stop-opacity="1" stop-color="rgb(27.433777%, 25.839233%, 26.239014%)" offset="0.804688"/><stop stop-opacity="1" stop-color="rgb(27.296448%, 25.697327%, 26.097107%)" offset="0.808594"/><stop stop-opacity="1" stop-color="rgb(27.151489%, 25.563049%, 25.96283%)" offset="0.8125"/><stop stop-opacity="1" stop-color="rgb(26.889038%, 25.492859%, 25.892639%)" offset="0.816406"/><stop stop-opacity="1" stop-color="rgb(26.698303%, 25.292969%, 25.692749%)" offset="0.824219"/><stop stop-opacity="1" stop-color="rgb(26.502991%, 25.099182%, 25.498962%)" offset="0.832031"/><stop stop-opacity="1" stop-color="rgb(26.303101%, 24.906921%, 25.306702%)" offset="0.839844"/><stop stop-opacity="1" stop-color="rgb(26.196289%, 24.707031%, 25.106812%)" offset="0.847656"/><stop stop-opacity="1" stop-color="rgb(25.996399%, 24.589539%, 24.989319%)" offset="0.851562"/><stop stop-opacity="1" stop-color="rgb(25.793457%, 24.389648%, 24.789429%)" offset="0.859375"/><stop stop-opacity="1" stop-color="rgb(25.593567%, 24.198914%, 24.598694%)" offset="0.867188"/><stop stop-opacity="1" stop-color="rgb(25.434875%, 23.934937%, 24.334717%)" offset="0.875"/><stop stop-opacity="1" stop-color="rgb(25.306702%, 23.706055%, 24.105835%)" offset="0.882812"/><stop stop-opacity="1" stop-color="rgb(25.177002%, 23.576355%, 23.976135%)" offset="0.886719"/><stop stop-opacity="1" stop-color="rgb(25.041199%, 23.504639%, 23.840332%)" offset="0.890625"/><stop stop-opacity="1" stop-color="rgb(24.899292%, 23.498535%, 23.698425%)" offset="0.894531"/><stop stop-opacity="1" stop-color="rgb(24.757385%, 23.492432%, 23.562622%)" offset="0.898438"/><stop stop-opacity="1" stop-color="rgb(24.621582%, 23.422241%, 23.498535%)" offset="0.902344"/><stop stop-opacity="1" stop-color="rgb(24.491882%, 23.292542%, 23.498535%)" offset="0.90625"/><stop stop-opacity="1" stop-color="rgb(24.363708%, 23.06366%, 23.399353%)" offset="0.910156"/><stop stop-opacity="1" stop-color="rgb(24.205017%, 22.799683%, 23.199463%)" offset="0.917969"/><stop stop-opacity="1" stop-color="rgb(24.005127%, 22.631836%, 23.008728%)" offset="0.925781"/><stop stop-opacity="1" stop-color="rgb(23.802185%, 22.4823%, 22.808838%)" offset="0.933594"/><stop stop-opacity="1" stop-color="rgb(23.600769%, 22.264099%, 22.596741%)" offset="0.941406"/><stop stop-opacity="1" stop-color="rgb(23.497009%, 22.062683%, 22.447205%)" offset="0.953125"/><stop stop-opacity="1" stop-color="rgb(23.301697%, 21.998596%, 22.203064%)" offset="0.957031"/><stop stop-opacity="1" stop-color="rgb(22.911072%, 21.807861%, 22.003174%)" offset="0.964844"/><stop stop-opacity="1" stop-color="rgb(22.706604%, 21.542358%, 21.934509%)" offset="0.972656"/><stop stop-opacity="1" stop-color="rgb(22.618103%, 21.333313%, 21.734619%)" offset="0.976562"/><stop stop-opacity="1" stop-color="rgb(22.468567%, 21.194458%, 21.594238%)" offset="0.988281"/><stop stop-opacity="1" stop-color="rgb(22.399902%, 20.994568%, 21.394348%)" offset="0.992188"/><stop stop-opacity="1" stop-color="rgb(22.399902%, 20.799255%, 21.199036%)" offset="1"/></radialGradient></defs><g clip-path="url(#id1)"><g clip-path="url(#id2)"><g clip-path="url(#id3)"><g clip-path="url(#id4)"><path fill="url(#id5)" d="M 210.765625 88.554688 L 114.535156 -34.386719 L -11.734375 64.867188 L 84.496094 187.804688 Z M 210.765625 88.554688 " fill-rule="nonzero"/></g></g></g></g><g clip-path="url(#id6)"><g clip-path="url(#id7)"><g clip-path="url(#id8)"><g clip-path="url(#id9)"><path fill="url(#id10)" d="M 190.832031 56.054688 L 108.046875 -37.554688 L 13.648438 46.28125 L 96.433594 139.890625 Z M 190.832031 56.054688 " fill-rule="nonzero"/></g></g></g></g><g clip-path="url(#id11)"><g clip-path="url(#id12)"><g clip-path="url(#id13)"><g clip-path="url(#id14)"><path fill="url(#id15)" d="M 218.011719 91.125 L 127.777344 -10.90625 L 25.007812 80.367188 L 115.242188 182.394531 Z M 218.011719 91.125 " fill-rule="nonzero"/></g></g></g></g><g fill="#000000" fill-opacity="1"><g transform="translate(67.463023, 144.728398)"><g><path d="M 7.890625 0 L 6.015625 -3.125 C 5.910156 -3.113281 5.753906 -3.109375 5.546875 -3.109375 L 3.09375 -3.109375 L 3.09375 0 L 1.359375 0 L 1.359375 -10.3125 L 5.546875 -10.3125 C 6.859375 -10.3125 7.875 -10.003906 8.59375 -9.390625 C 9.320312 -8.773438 9.6875 -7.910156 9.6875 -6.796875 C 9.6875 -5.972656 9.503906 -5.273438 9.140625 -4.703125 C 8.773438 -4.128906 8.25 -3.710938 7.5625 -3.453125 L 9.875 0 Z M 3.09375 -4.671875 L 5.546875 -4.671875 C 7.210938 -4.671875 8.046875 -5.363281 8.046875 -6.75 C 8.046875 -8.082031 7.210938 -8.75 5.546875 -8.75 L 3.09375 -8.75 Z M 3.09375 -4.671875 "/></g></g></g><g fill="#000000" fill-opacity="1"><g transform="translate(78.114578, 144.728398)"><g><path d="M 8.71875 -8.75 L 3.09375 -8.75 L 3.09375 -5.96875 L 8.140625 -5.96875 L 8.140625 -4.40625 L 3.09375 -4.40625 L 3.09375 -1.5625 L 8.90625 -1.5625 L 8.90625 0 L 1.359375 0 L 1.359375 -10.3125 L 8.71875 -10.3125 Z M 8.71875 -8.75 "/></g></g></g><g fill="#000000" fill-opacity="1"><g transform="translate(87.779061, 144.728398)"><g><path d="M 8.015625 -2.328125 L 2.8125 -2.328125 L 1.828125 0 L 0.015625 0 L 4.5625 -10.3125 L 6.34375 -10.3125 L 10.859375 0 L 9 0 Z M 7.359375 -3.875 L 5.40625 -8.453125 L 3.46875 -3.875 Z M 7.359375 -3.875 "/></g></g></g><g fill="#000000" fill-opacity="1"><g transform="translate(98.651601, 144.728398)"><g><path d="M 3.09375 -1.578125 L 7.5625 -1.578125 L 7.5625 0 L 1.359375 0 L 1.359375 -10.3125 L 3.09375 -10.3125 Z M 3.09375 -1.578125 "/></g></g></g><g fill="#000000" fill-opacity="1"><g transform="translate(106.518726, 144.728398)"><g/></g></g><g fill="#000000" fill-opacity="1"><g transform="translate(110.319697, 144.728398)"><g><path d="M 1.359375 -10.3125 L 5.828125 -10.3125 C 6.898438 -10.3125 7.742188 -10.082031 8.359375 -9.625 C 8.984375 -9.164062 9.296875 -8.535156 9.296875 -7.734375 C 9.296875 -7.148438 9.132812 -6.65625 8.8125 -6.25 C 8.488281 -5.84375 8.046875 -5.570312 7.484375 -5.4375 C 8.171875 -5.320312 8.707031 -5.03125 9.09375 -4.5625 C 9.488281 -4.101562 9.6875 -3.523438 9.6875 -2.828125 C 9.6875 -1.941406 9.351562 -1.25 8.6875 -0.75 C 8.019531 -0.25 7.101562 0 5.9375 0 L 1.359375 0 Z M 3.09375 -8.765625 L 3.09375 -6.046875 L 5.75 -6.046875 C 6.300781 -6.046875 6.734375 -6.164062 7.046875 -6.40625 C 7.359375 -6.65625 7.515625 -6.992188 7.515625 -7.421875 C 7.515625 -7.859375 7.359375 -8.191406 7.046875 -8.421875 C 6.742188 -8.648438 6.3125 -8.765625 5.75 -8.765625 Z M 3.09375 -4.515625 L 3.09375 -1.546875 L 5.75 -1.546875 C 6.4375 -1.546875 6.96875 -1.675781 7.34375 -1.9375 C 7.71875 -2.195312 7.90625 -2.566406 7.90625 -3.046875 C 7.90625 -3.503906 7.710938 -3.863281 7.328125 -4.125 C 6.953125 -4.382812 6.425781 -4.515625 5.75 -4.515625 Z M 3.09375 -4.515625 "/></g></g></g><g fill="#000000" fill-opacity="1"><g transform="translate(120.7208, 144.728398)"><g><path d="M 2.078125 -8.859375 C 3.128906 -9.859375 4.425781 -10.359375 5.96875 -10.359375 C 7.507812 -10.359375 8.804688 -9.859375 9.859375 -8.859375 C 10.910156 -7.859375 11.4375 -6.625 11.4375 -5.15625 C 11.4375 -3.6875 10.910156 -2.445312 9.859375 -1.4375 C 8.804688 -0.425781 7.507812 0.078125 5.96875 0.078125 C 4.425781 0.078125 3.128906 -0.425781 2.078125 -1.4375 C 1.023438 -2.445312 0.5 -3.6875 0.5 -5.15625 C 0.5 -6.625 1.023438 -7.859375 2.078125 -8.859375 Z M 5.984375 -8.796875 C 4.960938 -8.796875 4.085938 -8.441406 3.359375 -7.734375 C 2.628906 -7.035156 2.265625 -6.175781 2.265625 -5.15625 C 2.265625 -4.132812 2.628906 -3.265625 3.359375 -2.546875 C 4.097656 -1.835938 4.972656 -1.484375 5.984375 -1.484375 C 6.992188 -1.484375 7.859375 -1.835938 8.578125 -2.546875 C 9.296875 -3.265625 9.65625 -4.132812 9.65625 -5.15625 C 9.65625 -6.175781 9.296875 -7.035156 8.578125 -7.734375 C 7.859375 -8.441406 6.992188 -8.796875 5.984375 -8.796875 Z M 5.984375 -8.796875 "/></g></g></g><g fill="#000000" fill-opacity="1"><g transform="translate(132.654071, 144.728398)"><g><path d="M 2.078125 -8.859375 C 3.128906 -9.859375 4.425781 -10.359375 5.96875 -10.359375 C 7.507812 -10.359375 8.804688 -9.859375 9.859375 -8.859375 C 10.910156 -7.859375 11.4375 -6.625 11.4375 -5.15625 C 11.4375 -3.6875 10.910156 -2.445312 9.859375 -1.4375 C 8.804688 -0.425781 7.507812 0.078125 5.96875 0.078125 C 4.425781 0.078125 3.128906 -0.425781 2.078125 -1.4375 C 1.023438 -2.445312 0.5 -3.6875 0.5 -5.15625 C 0.5 -6.625 1.023438 -7.859375 2.078125 -8.859375 Z M 5.984375 -8.796875 C 4.960938 -8.796875 4.085938 -8.441406 3.359375 -7.734375 C 2.628906 -7.035156 2.265625 -6.175781 2.265625 -5.15625 C 2.265625 -4.132812 2.628906 -3.265625 3.359375 -2.546875 C 4.097656 -1.835938 4.972656 -1.484375 5.984375 -1.484375 C 6.992188 -1.484375 7.859375 -1.835938 8.578125 -2.546875 C 9.296875 -3.265625 9.65625 -4.132812 9.65625 -5.15625 C 9.65625 -6.175781 9.296875 -7.035156 8.578125 -7.734375 C 7.859375 -8.441406 6.992188 -8.796875 5.984375 -8.796875 Z M 5.984375 -8.796875 "/></g></g></g><g fill="#000000" fill-opacity="1"><g transform="translate(144.587342, 144.728398)"><g><path d="M 4.75 -10.390625 C 6.082031 -10.390625 7.285156 -10.035156 8.359375 -9.328125 L 7.625 -7.796875 C 6.582031 -8.429688 5.578125 -8.75 4.609375 -8.75 C 4.085938 -8.75 3.675781 -8.65625 3.375 -8.46875 C 3.082031 -8.28125 2.9375 -8.015625 2.9375 -7.671875 C 2.9375 -7.328125 3.070312 -7.035156 3.34375 -6.796875 C 3.613281 -6.554688 3.957031 -6.378906 4.375 -6.265625 C 4.789062 -6.148438 5.238281 -6.003906 5.71875 -5.828125 C 6.195312 -5.660156 6.640625 -5.484375 7.046875 -5.296875 C 7.460938 -5.109375 7.804688 -4.804688 8.078125 -4.390625 C 8.347656 -3.984375 8.484375 -3.492188 8.484375 -2.921875 C 8.484375 -2.015625 8.125 -1.289062 7.40625 -0.75 C 6.6875 -0.207031 5.75 0.0625 4.59375 0.0625 C 3.8125 0.0625 3.050781 -0.0820312 2.3125 -0.375 C 1.570312 -0.675781 0.929688 -1.078125 0.390625 -1.578125 L 1.140625 -3.078125 C 1.660156 -2.597656 2.226562 -2.226562 2.84375 -1.96875 C 3.46875 -1.707031 4.0625 -1.578125 4.625 -1.578125 C 5.238281 -1.578125 5.710938 -1.6875 6.046875 -1.90625 C 6.390625 -2.125 6.5625 -2.429688 6.5625 -2.828125 C 6.5625 -3.179688 6.421875 -3.476562 6.140625 -3.71875 C 5.867188 -3.957031 5.523438 -4.132812 5.109375 -4.25 C 4.703125 -4.363281 4.253906 -4.5 3.765625 -4.65625 C 3.285156 -4.820312 2.835938 -4.992188 2.421875 -5.171875 C 2.015625 -5.359375 1.671875 -5.648438 1.390625 -6.046875 C 1.117188 -6.453125 0.984375 -6.941406 0.984375 -7.515625 C 0.984375 -8.390625 1.328125 -9.085938 2.015625 -9.609375 C 2.703125 -10.128906 3.613281 -10.390625 4.75 -10.390625 Z M 4.75 -10.390625 "/></g></g></g><g fill="#000000" fill-opacity="1"><g transform="translate(153.750919, 144.728398)"><g><path d="M 8.40625 -8.75 L 5.125 -8.75 L 5.125 0 L 3.390625 0 L 3.390625 -8.75 L 0.125 -8.75 L 0.125 -10.3125 L 8.40625 -10.3125 Z M 8.40625 -8.75 "/></g></g></g><g fill="#000000" fill-opacity="1"><g transform="translate(38.870171, 156.599551)"><g><path d="M 3.71875 -3.375 L 5.90625 -3.375 L 5.90625 -0.234375 C 5.5625 -0.128906 5.210938 -0.0507812 4.859375 0 C 4.515625 0.0625 4.109375 0.09375 3.640625 0.09375 C 2.660156 0.09375 1.898438 -0.195312 1.359375 -0.78125 C 0.816406 -1.363281 0.546875 -2.175781 0.546875 -3.21875 C 0.546875 -3.882812 0.679688 -4.46875 0.953125 -4.96875 C 1.222656 -5.476562 1.609375 -5.863281 2.109375 -6.125 C 2.617188 -6.394531 3.210938 -6.53125 3.890625 -6.53125 C 4.578125 -6.53125 5.21875 -6.40625 5.8125 -6.15625 L 5.515625 -5.484375 C 4.929688 -5.734375 4.375 -5.859375 3.84375 -5.859375 C 3.050781 -5.859375 2.4375 -5.625 2 -5.15625 C 1.5625 -4.6875 1.34375 -4.039062 1.34375 -3.21875 C 1.34375 -2.351562 1.550781 -1.691406 1.96875 -1.234375 C 2.394531 -0.785156 3.019531 -0.5625 3.84375 -0.5625 C 4.289062 -0.5625 4.726562 -0.613281 5.15625 -0.71875 L 5.15625 -2.703125 L 3.71875 -2.703125 Z M 3.71875 -3.375 "/></g></g></g><g fill="#000000" fill-opacity="1"><g transform="translate(46.080482, 156.599551)"><g><path d="M 3.734375 0 L 3.59375 -0.6875 L 3.5625 -0.6875 C 3.320312 -0.382812 3.082031 -0.175781 2.84375 -0.0625 C 2.601562 0.0390625 2.304688 0.09375 1.953125 0.09375 C 1.472656 0.09375 1.09375 -0.03125 0.8125 -0.28125 C 0.539062 -0.53125 0.40625 -0.878906 0.40625 -1.328125 C 0.40625 -2.304688 1.1875 -2.816406 2.75 -2.859375 L 3.5625 -2.890625 L 3.5625 -3.1875 C 3.5625 -3.570312 3.476562 -3.851562 3.3125 -4.03125 C 3.15625 -4.207031 2.898438 -4.296875 2.546875 -4.296875 C 2.140625 -4.296875 1.6875 -4.175781 1.1875 -3.9375 L 0.953125 -4.484375 C 1.191406 -4.617188 1.453125 -4.722656 1.734375 -4.796875 C 2.015625 -4.867188 2.300781 -4.90625 2.59375 -4.90625 C 3.164062 -4.90625 3.585938 -4.773438 3.859375 -4.515625 C 4.140625 -4.265625 4.28125 -3.859375 4.28125 -3.296875 L 4.28125 0 Z M 2.09375 -0.515625 C 2.539062 -0.515625 2.894531 -0.640625 3.15625 -0.890625 C 3.414062 -1.140625 3.546875 -1.488281 3.546875 -1.9375 L 3.546875 -2.375 L 2.828125 -2.34375 C 2.242188 -2.320312 1.820312 -2.226562 1.5625 -2.0625 C 1.3125 -1.90625 1.1875 -1.660156 1.1875 -1.328125 C 1.1875 -1.054688 1.265625 -0.851562 1.421875 -0.71875 C 1.578125 -0.582031 1.800781 -0.515625 2.09375 -0.515625 Z M 2.09375 -0.515625 "/></g></g></g><g fill="#000000" fill-opacity="1"><g transform="translate(51.741835, 156.599551)"><g><path d="M 1.5 0 L 0.78125 0 L 0.78125 -4.828125 L 1.5 -4.828125 Z M 0.71875 -6.125 C 0.71875 -6.300781 0.753906 -6.425781 0.828125 -6.5 C 0.910156 -6.570312 1.015625 -6.609375 1.140625 -6.609375 C 1.265625 -6.609375 1.367188 -6.566406 1.453125 -6.484375 C 1.535156 -6.410156 1.578125 -6.289062 1.578125 -6.125 C 1.578125 -5.96875 1.535156 -5.847656 1.453125 -5.765625 C 1.367188 -5.679688 1.265625 -5.640625 1.140625 -5.640625 C 1.015625 -5.640625 0.910156 -5.679688 0.828125 -5.765625 C 0.753906 -5.847656 0.71875 -5.96875 0.71875 -6.125 Z M 0.71875 -6.125 "/></g></g></g><g fill="#000000" fill-opacity="1"><g transform="translate(54.67051, 156.599551)"><g><path d="M 4.078125 0 L 4.078125 -3.125 C 4.078125 -3.519531 3.988281 -3.8125 3.8125 -4 C 3.632812 -4.195312 3.351562 -4.296875 2.96875 -4.296875 C 2.457031 -4.296875 2.082031 -4.15625 1.84375 -3.875 C 1.613281 -3.601562 1.5 -3.15625 1.5 -2.53125 L 1.5 0 L 0.78125 0 L 0.78125 -4.828125 L 1.375 -4.828125 L 1.484375 -4.171875 L 1.515625 -4.171875 C 1.671875 -4.398438 1.882812 -4.578125 2.15625 -4.703125 C 2.425781 -4.835938 2.726562 -4.90625 3.0625 -4.90625 C 3.632812 -4.90625 4.066406 -4.765625 4.359375 -4.484375 C 4.660156 -4.210938 4.8125 -3.765625 4.8125 -3.140625 L 4.8125 0 Z M 4.078125 0 "/></g></g></g><g fill="#000000" fill-opacity="1"><g transform="translate(60.851115, 156.599551)"><g/></g></g><g fill="#000000" fill-opacity="1"><g transform="translate(63.841397, 156.599551)"><g><path d="M 3.015625 0.09375 C 2.703125 0.09375 2.414062 0.0351562 2.15625 -0.078125 C 1.894531 -0.203125 1.675781 -0.382812 1.5 -0.625 L 1.453125 -0.625 C 1.484375 -0.34375 1.5 -0.0703125 1.5 0.1875 L 1.5 2.171875 L 0.78125 2.171875 L 0.78125 -4.828125 L 1.375 -4.828125 L 1.46875 -4.171875 L 1.5 -4.171875 C 1.6875 -4.429688 1.90625 -4.617188 2.15625 -4.734375 C 2.40625 -4.847656 2.691406 -4.90625 3.015625 -4.90625 C 3.660156 -4.90625 4.15625 -4.6875 4.5 -4.25 C 4.84375 -3.8125 5.015625 -3.203125 5.015625 -2.421875 C 5.015625 -1.628906 4.835938 -1.007812 4.484375 -0.5625 C 4.140625 -0.125 3.648438 0.09375 3.015625 0.09375 Z M 2.921875 -4.296875 C 2.421875 -4.296875 2.0625 -4.15625 1.84375 -3.875 C 1.625 -3.601562 1.507812 -3.171875 1.5 -2.578125 L 1.5 -2.421875 C 1.5 -1.742188 1.613281 -1.257812 1.84375 -0.96875 C 2.070312 -0.675781 2.4375 -0.53125 2.9375 -0.53125 C 3.351562 -0.53125 3.675781 -0.695312 3.90625 -1.03125 C 4.144531 -1.363281 4.265625 -1.828125 4.265625 -2.421875 C 4.265625 -3.023438 4.144531 -3.488281 3.90625 -3.8125 C 3.675781 -4.132812 3.347656 -4.296875 2.921875 -4.296875 Z M 2.921875 -4.296875 "/></g></g></g><g fill="#000000" fill-opacity="1"><g transform="translate(70.013202, 156.599551)"><g><path d="M 4.9375 -2.421875 C 4.9375 -1.628906 4.738281 -1.007812 4.34375 -0.5625 C 3.945312 -0.125 3.398438 0.09375 2.703125 0.09375 C 2.273438 0.09375 1.890625 -0.00390625 1.546875 -0.203125 C 1.210938 -0.410156 0.953125 -0.703125 0.765625 -1.078125 C 0.585938 -1.460938 0.5 -1.910156 0.5 -2.421875 C 0.5 -3.203125 0.695312 -3.8125 1.09375 -4.25 C 1.488281 -4.6875 2.035156 -4.90625 2.734375 -4.90625 C 3.410156 -4.90625 3.945312 -4.679688 4.34375 -4.234375 C 4.738281 -3.785156 4.9375 -3.179688 4.9375 -2.421875 Z M 1.265625 -2.421875 C 1.265625 -1.804688 1.382812 -1.335938 1.625 -1.015625 C 1.875 -0.691406 2.238281 -0.53125 2.71875 -0.53125 C 3.195312 -0.53125 3.5625 -0.6875 3.8125 -1 C 4.0625 -1.320312 4.1875 -1.796875 4.1875 -2.421875 C 4.1875 -3.035156 4.0625 -3.5 3.8125 -3.8125 C 3.5625 -4.132812 3.195312 -4.296875 2.71875 -4.296875 C 2.238281 -4.296875 1.875 -4.132812 1.625 -3.8125 C 1.382812 -3.5 1.265625 -3.035156 1.265625 -2.421875 Z M 1.265625 -2.421875 "/></g></g></g><g fill="#000000" fill-opacity="1"><g transform="translate(76.105798, 156.599551)"><g><path d="M 3.015625 0.09375 C 2.703125 0.09375 2.414062 0.0351562 2.15625 -0.078125 C 1.894531 -0.203125 1.675781 -0.382812 1.5 -0.625 L 1.453125 -0.625 C 1.484375 -0.34375 1.5 -0.0703125 1.5 0.1875 L 1.5 2.171875 L 0.78125 2.171875 L 0.78125 -4.828125 L 1.375 -4.828125 L 1.46875 -4.171875 L 1.5 -4.171875 C 1.6875 -4.429688 1.90625 -4.617188 2.15625 -4.734375 C 2.40625 -4.847656 2.691406 -4.90625 3.015625 -4.90625 C 3.660156 -4.90625 4.15625 -4.6875 4.5 -4.25 C 4.84375 -3.8125 5.015625 -3.203125 5.015625 -2.421875 C 5.015625 -1.628906 4.835938 -1.007812 4.484375 -0.5625 C 4.140625 -0.125 3.648438 0.09375 3.015625 0.09375 Z M 2.921875 -4.296875 C 2.421875 -4.296875 2.0625 -4.15625 1.84375 -3.875 C 1.625 -3.601562 1.507812 -3.171875 1.5 -2.578125 L 1.5 -2.421875 C 1.5 -1.742188 1.613281 -1.257812 1.84375 -0.96875 C 2.070312 -0.675781 2.4375 -0.53125 2.9375 -0.53125 C 3.351562 -0.53125 3.675781 -0.695312 3.90625 -1.03125 C 4.144531 -1.363281 4.265625 -1.828125 4.265625 -2.421875 C 4.265625 -3.023438 4.144531 -3.488281 3.90625 -3.8125 C 3.675781 -4.132812 3.347656 -4.296875 2.921875 -4.296875 Z M 2.921875 -4.296875 "/></g></g></g><g fill="#000000" fill-opacity="1"><g transform="translate(82.277603, 156.599551)"><g><path d="M 1.46875 -4.828125 L 1.46875 -1.6875 C 1.46875 -1.300781 1.554688 -1.007812 1.734375 -0.8125 C 1.910156 -0.625 2.191406 -0.53125 2.578125 -0.53125 C 3.078125 -0.53125 3.441406 -0.664062 3.671875 -0.9375 C 3.910156 -1.207031 4.03125 -1.660156 4.03125 -2.296875 L 4.03125 -4.828125 L 4.765625 -4.828125 L 4.765625 0 L 4.15625 0 L 4.046875 -0.640625 L 4.015625 -0.640625 C 3.859375 -0.410156 3.644531 -0.226562 3.375 -0.09375 C 3.113281 0.03125 2.816406 0.09375 2.484375 0.09375 C 1.890625 0.09375 1.445312 -0.046875 1.15625 -0.328125 C 0.863281 -0.609375 0.71875 -1.054688 0.71875 -1.671875 L 0.71875 -4.828125 Z M 1.46875 -4.828125 "/></g></g></g><g fill="#000000" fill-opacity="1"><g transform="translate(88.458209, 156.599551)"><g><path d="M 1.5 0 L 0.78125 0 L 0.78125 -6.84375 L 1.5 -6.84375 Z M 1.5 0 "/></g></g></g><g fill="#000000" fill-opacity="1"><g transform="translate(91.386884, 156.599551)"><g><path d="M 3.734375 0 L 3.59375 -0.6875 L 3.5625 -0.6875 C 3.320312 -0.382812 3.082031 -0.175781 2.84375 -0.0625 C 2.601562 0.0390625 2.304688 0.09375 1.953125 0.09375 C 1.472656 0.09375 1.09375 -0.03125 0.8125 -0.28125 C 0.539062 -0.53125 0.40625 -0.878906 0.40625 -1.328125 C 0.40625 -2.304688 1.1875 -2.816406 2.75 -2.859375 L 3.5625 -2.890625 L 3.5625 -3.1875 C 3.5625 -3.570312 3.476562 -3.851562 3.3125 -4.03125 C 3.15625 -4.207031 2.898438 -4.296875 2.546875 -4.296875 C 2.140625 -4.296875 1.6875 -4.175781 1.1875 -3.9375 L 0.953125 -4.484375 C 1.191406 -4.617188 1.453125 -4.722656 1.734375 -4.796875 C 2.015625 -4.867188 2.300781 -4.90625 2.59375 -4.90625 C 3.164062 -4.90625 3.585938 -4.773438 3.859375 -4.515625 C 4.140625 -4.265625 4.28125 -3.859375 4.28125 -3.296875 L 4.28125 0 Z M 2.09375 -0.515625 C 2.539062 -0.515625 2.894531 -0.640625 3.15625 -0.890625 C 3.414062 -1.140625 3.546875 -1.488281 3.546875 -1.9375 L 3.546875 -2.375 L 2.828125 -2.34375 C 2.242188 -2.320312 1.820312 -2.226562 1.5625 -2.0625 C 1.3125 -1.90625 1.1875 -1.660156 1.1875 -1.328125 C 1.1875 -1.054688 1.265625 -0.851562 1.421875 -0.71875 C 1.578125 -0.582031 1.800781 -0.515625 2.09375 -0.515625 Z M 2.09375 -0.515625 "/></g></g></g><g fill="#000000" fill-opacity="1"><g transform="translate(97.048237, 156.599551)"><g><path d="M 2.96875 -4.90625 C 3.1875 -4.90625 3.378906 -4.890625 3.546875 -4.859375 L 3.453125 -4.1875 C 3.253906 -4.226562 3.078125 -4.25 2.921875 -4.25 C 2.535156 -4.25 2.203125 -4.085938 1.921875 -3.765625 C 1.640625 -3.453125 1.5 -3.0625 1.5 -2.59375 L 1.5 0 L 0.78125 0 L 0.78125 -4.828125 L 1.375 -4.828125 L 1.46875 -3.9375 L 1.5 -3.9375 C 1.675781 -4.25 1.890625 -4.488281 2.140625 -4.65625 C 2.390625 -4.820312 2.664062 -4.90625 2.96875 -4.90625 Z M 2.96875 -4.90625 "/></g></g></g><g fill="#000000" fill-opacity="1"><g transform="translate(101.376255, 156.599551)"><g><path d="M 1.5 0 L 0.78125 0 L 0.78125 -4.828125 L 1.5 -4.828125 Z M 0.71875 -6.125 C 0.71875 -6.300781 0.753906 -6.425781 0.828125 -6.5 C 0.910156 -6.570312 1.015625 -6.609375 1.140625 -6.609375 C 1.265625 -6.609375 1.367188 -6.566406 1.453125 -6.484375 C 1.535156 -6.410156 1.578125 -6.289062 1.578125 -6.125 C 1.578125 -5.96875 1.535156 -5.847656 1.453125 -5.765625 C 1.367188 -5.679688 1.265625 -5.640625 1.140625 -5.640625 C 1.015625 -5.640625 0.910156 -5.679688 0.828125 -5.765625 C 0.753906 -5.847656 0.71875 -5.96875 0.71875 -6.125 Z M 0.71875 -6.125 "/></g></g></g><g fill="#000000" fill-opacity="1"><g transform="translate(104.304933, 156.599551)"><g><path d="M 2.328125 -0.515625 C 2.460938 -0.515625 2.585938 -0.523438 2.703125 -0.546875 C 2.828125 -0.566406 2.925781 -0.585938 3 -0.609375 L 3 -0.046875 C 2.914062 -0.00390625 2.796875 0.0234375 2.640625 0.046875 C 2.484375 0.078125 2.347656 0.09375 2.234375 0.09375 C 1.296875 0.09375 0.828125 -0.398438 0.828125 -1.390625 L 0.828125 -4.25 L 0.140625 -4.25 L 0.140625 -4.609375 L 0.828125 -4.90625 L 1.140625 -5.9375 L 1.5625 -5.9375 L 1.5625 -4.828125 L 2.953125 -4.828125 L 2.953125 -4.25 L 1.5625 -4.25 L 1.5625 -1.421875 C 1.5625 -1.128906 1.628906 -0.90625 1.765625 -0.75 C 1.898438 -0.59375 2.085938 -0.515625 2.328125 -0.515625 Z M 2.328125 -0.515625 "/></g></g></g><g fill="#000000" fill-opacity="1"><g transform="translate(108.135696, 156.599551)"><g><path d="M 0.015625 -4.828125 L 0.796875 -4.828125 L 1.84375 -2.078125 C 2.082031 -1.441406 2.226562 -0.988281 2.28125 -0.71875 L 2.3125 -0.71875 C 2.351562 -0.863281 2.429688 -1.117188 2.546875 -1.484375 C 2.671875 -1.847656 3.070312 -2.960938 3.75 -4.828125 L 4.53125 -4.828125 L 2.453125 0.671875 C 2.253906 1.210938 2.015625 1.597656 1.734375 1.828125 C 1.460938 2.054688 1.128906 2.171875 0.734375 2.171875 C 0.503906 2.171875 0.285156 2.144531 0.078125 2.09375 L 0.078125 1.5 C 0.234375 1.539062 0.410156 1.5625 0.609375 1.5625 C 1.109375 1.5625 1.46875 1.28125 1.6875 0.71875 L 1.953125 0.03125 Z M 0.015625 -4.828125 "/></g></g></g><g fill="#000000" fill-opacity="1"><g transform="translate(113.326205, 156.599551)"><g/></g></g><g fill="#000000" fill-opacity="1"><g transform="translate(116.31649, 156.599551)"><g><path d="M 2.328125 -0.515625 C 2.460938 -0.515625 2.585938 -0.523438 2.703125 -0.546875 C 2.828125 -0.566406 2.925781 -0.585938 3 -0.609375 L 3 -0.046875 C 2.914062 -0.00390625 2.796875 0.0234375 2.640625 0.046875 C 2.484375 0.078125 2.347656 0.09375 2.234375 0.09375 C 1.296875 0.09375 0.828125 -0.398438 0.828125 -1.390625 L 0.828125 -4.25 L 0.140625 -4.25 L 0.140625 -4.609375 L 0.828125 -4.90625 L 1.140625 -5.9375 L 1.5625 -5.9375 L 1.5625 -4.828125 L 2.953125 -4.828125 L 2.953125 -4.25 L 1.5625 -4.25 L 1.5625 -1.421875 C 1.5625 -1.128906 1.628906 -0.90625 1.765625 -0.75 C 1.898438 -0.59375 2.085938 -0.515625 2.328125 -0.515625 Z M 2.328125 -0.515625 "/></g></g></g><g fill="#000000" fill-opacity="1"><g transform="translate(120.147253, 156.599551)"><g><path d="M 4.9375 -2.421875 C 4.9375 -1.628906 4.738281 -1.007812 4.34375 -0.5625 C 3.945312 -0.125 3.398438 0.09375 2.703125 0.09375 C 2.273438 0.09375 1.890625 -0.00390625 1.546875 -0.203125 C 1.210938 -0.410156 0.953125 -0.703125 0.765625 -1.078125 C 0.585938 -1.460938 0.5 -1.910156 0.5 -2.421875 C 0.5 -3.203125 0.695312 -3.8125 1.09375 -4.25 C 1.488281 -4.6875 2.035156 -4.90625 2.734375 -4.90625 C 3.410156 -4.90625 3.945312 -4.679688 4.34375 -4.234375 C 4.738281 -3.785156 4.9375 -3.179688 4.9375 -2.421875 Z M 1.265625 -2.421875 C 1.265625 -1.804688 1.382812 -1.335938 1.625 -1.015625 C 1.875 -0.691406 2.238281 -0.53125 2.71875 -0.53125 C 3.195312 -0.53125 3.5625 -0.6875 3.8125 -1 C 4.0625 -1.320312 4.1875 -1.796875 4.1875 -2.421875 C 4.1875 -3.035156 4.0625 -3.5 3.8125 -3.8125 C 3.5625 -4.132812 3.195312 -4.296875 2.71875 -4.296875 C 2.238281 -4.296875 1.875 -4.132812 1.625 -3.8125 C 1.382812 -3.5 1.265625 -3.035156 1.265625 -2.421875 Z M 1.265625 -2.421875 "/></g></g></g><g fill="#000000" fill-opacity="1"><g transform="translate(126.239846, 156.599551)"><g><path d="M 4.0625 -0.640625 L 4.015625 -0.640625 C 3.679688 -0.148438 3.175781 0.09375 2.5 0.09375 C 1.875 0.09375 1.382812 -0.117188 1.03125 -0.546875 C 0.675781 -0.984375 0.5 -1.601562 0.5 -2.40625 C 0.5 -3.195312 0.675781 -3.8125 1.03125 -4.25 C 1.382812 -4.6875 1.875 -4.90625 2.5 -4.90625 C 3.15625 -4.90625 3.660156 -4.671875 4.015625 -4.203125 L 4.0625 -4.203125 L 4.03125 -4.546875 L 4.015625 -4.890625 L 4.015625 -6.84375 L 4.75 -6.84375 L 4.75 0 L 4.15625 0 Z M 2.59375 -0.53125 C 3.09375 -0.53125 3.453125 -0.664062 3.671875 -0.9375 C 3.898438 -1.207031 4.015625 -1.644531 4.015625 -2.25 L 4.015625 -2.40625 C 4.015625 -3.082031 3.898438 -3.566406 3.671875 -3.859375 C 3.453125 -4.148438 3.09375 -4.296875 2.59375 -4.296875 C 2.164062 -4.296875 1.835938 -4.128906 1.609375 -3.796875 C 1.378906 -3.460938 1.265625 -2.992188 1.265625 -2.390625 C 1.265625 -1.773438 1.375 -1.3125 1.59375 -1 C 1.820312 -0.6875 2.15625 -0.53125 2.59375 -0.53125 Z M 2.59375 -0.53125 "/></g></g></g><g fill="#000000" fill-opacity="1"><g transform="translate(132.411647, 156.599551)"><g><path d="M 3.734375 0 L 3.59375 -0.6875 L 3.5625 -0.6875 C 3.320312 -0.382812 3.082031 -0.175781 2.84375 -0.0625 C 2.601562 0.0390625 2.304688 0.09375 1.953125 0.09375 C 1.472656 0.09375 1.09375 -0.03125 0.8125 -0.28125 C 0.539062 -0.53125 0.40625 -0.878906 0.40625 -1.328125 C 0.40625 -2.304688 1.1875 -2.816406 2.75 -2.859375 L 3.5625 -2.890625 L 3.5625 -3.1875 C 3.5625 -3.570312 3.476562 -3.851562 3.3125 -4.03125 C 3.15625 -4.207031 2.898438 -4.296875 2.546875 -4.296875 C 2.140625 -4.296875 1.6875 -4.175781 1.1875 -3.9375 L 0.953125 -4.484375 C 1.191406 -4.617188 1.453125 -4.722656 1.734375 -4.796875 C 2.015625 -4.867188 2.300781 -4.90625 2.59375 -4.90625 C 3.164062 -4.90625 3.585938 -4.773438 3.859375 -4.515625 C 4.140625 -4.265625 4.28125 -3.859375 4.28125 -3.296875 L 4.28125 0 Z M 2.09375 -0.515625 C 2.539062 -0.515625 2.894531 -0.640625 3.15625 -0.890625 C 3.414062 -1.140625 3.546875 -1.488281 3.546875 -1.9375 L 3.546875 -2.375 L 2.828125 -2.34375 C 2.242188 -2.320312 1.820312 -2.226562 1.5625 -2.0625 C 1.3125 -1.90625 1.1875 -1.660156 1.1875 -1.328125 C 1.1875 -1.054688 1.265625 -0.851562 1.421875 -0.71875 C 1.578125 -0.582031 1.800781 -0.515625 2.09375 -0.515625 Z M 2.09375 -0.515625 "/></g></g></g><g fill="#000000" fill-opacity="1"><g transform="translate(138.072997, 156.599551)"><g><path d="M 0.015625 -4.828125 L 0.796875 -4.828125 L 1.84375 -2.078125 C 2.082031 -1.441406 2.226562 -0.988281 2.28125 -0.71875 L 2.3125 -0.71875 C 2.351562 -0.863281 2.429688 -1.117188 2.546875 -1.484375 C 2.671875 -1.847656 3.070312 -2.960938 3.75 -4.828125 L 4.53125 -4.828125 L 2.453125 0.671875 C 2.253906 1.210938 2.015625 1.597656 1.734375 1.828125 C 1.460938 2.054688 1.128906 2.171875 0.734375 2.171875 C 0.503906 2.171875 0.285156 2.144531 0.078125 2.09375 L 0.078125 1.5 C 0.234375 1.539062 0.410156 1.5625 0.609375 1.5625 C 1.109375 1.5625 1.46875 1.28125 1.6875 0.71875 L 1.953125 0.03125 Z M 0.015625 -4.828125 "/></g></g></g><g fill="#000000" fill-opacity="1"><g transform="translate(143.263505, 156.599551)"><g/></g></g><g fill="#000000" fill-opacity="1"><g transform="translate(146.25379, 156.599551)"><g><path d="M 4.71875 0 L 3.828125 -2.828125 C 3.773438 -3.003906 3.671875 -3.398438 3.515625 -4.015625 L 3.484375 -4.015625 C 3.367188 -3.492188 3.265625 -3.097656 3.171875 -2.828125 L 2.265625 0 L 1.421875 0 L 0.09375 -4.828125 L 0.875 -4.828125 C 1.175781 -3.609375 1.410156 -2.679688 1.578125 -2.046875 C 1.742188 -1.421875 1.835938 -1 1.859375 -0.78125 L 1.890625 -0.78125 C 1.921875 -0.945312 1.972656 -1.160156 2.046875 -1.421875 C 2.117188 -1.691406 2.179688 -1.90625 2.234375 -2.0625 L 3.125 -4.828125 L 3.90625 -4.828125 L 4.78125 -2.0625 C 4.9375 -1.550781 5.046875 -1.125 5.109375 -0.78125 L 5.140625 -0.78125 C 5.148438 -0.882812 5.179688 -1.046875 5.234375 -1.265625 C 5.285156 -1.492188 5.59375 -2.679688 6.15625 -4.828125 L 6.921875 -4.828125 L 5.578125 0 Z M 4.71875 0 "/></g></g></g><g fill="#000000" fill-opacity="1"><g transform="translate(153.912943, 156.599551)"><g><path d="M 1.5 0 L 0.78125 0 L 0.78125 -4.828125 L 1.5 -4.828125 Z M 0.71875 -6.125 C 0.71875 -6.300781 0.753906 -6.425781 0.828125 -6.5 C 0.910156 -6.570312 1.015625 -6.609375 1.140625 -6.609375 C 1.265625 -6.609375 1.367188 -6.566406 1.453125 -6.484375 C 1.535156 -6.410156 1.578125 -6.289062 1.578125 -6.125 C 1.578125 -5.96875 1.535156 -5.847656 1.453125 -5.765625 C 1.367188 -5.679688 1.265625 -5.640625 1.140625 -5.640625 C 1.015625 -5.640625 0.910156 -5.679688 0.828125 -5.765625 C 0.753906 -5.847656 0.71875 -5.96875 0.71875 -6.125 Z M 0.71875 -6.125 "/></g></g></g><g fill="#000000" fill-opacity="1"><g transform="translate(156.841622, 156.599551)"><g><path d="M 2.328125 -0.515625 C 2.460938 -0.515625 2.585938 -0.523438 2.703125 -0.546875 C 2.828125 -0.566406 2.925781 -0.585938 3 -0.609375 L 3 -0.046875 C 2.914062 -0.00390625 2.796875 0.0234375 2.640625 0.046875 C 2.484375 0.078125 2.347656 0.09375 2.234375 0.09375 C 1.296875 0.09375 0.828125 -0.398438 0.828125 -1.390625 L 0.828125 -4.25 L 0.140625 -4.25 L 0.140625 -4.609375 L 0.828125 -4.90625 L 1.140625 -5.9375 L 1.5625 -5.9375 L 1.5625 -4.828125 L 2.953125 -4.828125 L 2.953125 -4.25 L 1.5625 -4.25 L 1.5625 -1.421875 C 1.5625 -1.128906 1.628906 -0.90625 1.765625 -0.75 C 1.898438 -0.59375 2.085938 -0.515625 2.328125 -0.515625 Z M 2.328125 -0.515625 "/></g></g></g><g fill="#000000" fill-opacity="1"><g transform="translate(160.672385, 156.599551)"><g><path d="M 4.078125 0 L 4.078125 -3.125 C 4.078125 -3.519531 3.988281 -3.8125 3.8125 -4 C 3.632812 -4.195312 3.351562 -4.296875 2.96875 -4.296875 C 2.457031 -4.296875 2.082031 -4.15625 1.84375 -3.875 C 1.613281 -3.601562 1.5 -3.148438 1.5 -2.515625 L 1.5 0 L 0.78125 0 L 0.78125 -6.84375 L 1.5 -6.84375 L 1.5 -4.78125 C 1.5 -4.53125 1.488281 -4.320312 1.46875 -4.15625 L 1.515625 -4.15625 C 1.660156 -4.382812 1.863281 -4.566406 2.125 -4.703125 C 2.394531 -4.835938 2.695312 -4.90625 3.03125 -4.90625 C 3.625 -4.90625 4.066406 -4.765625 4.359375 -4.484375 C 4.660156 -4.203125 4.8125 -3.753906 4.8125 -3.140625 L 4.8125 0 Z M 4.078125 0 "/></g></g></g><g fill="#000000" fill-opacity="1"><g transform="translate(166.852987, 156.599551)"><g/></g></g><g fill="#000000" fill-opacity="1"><g transform="translate(169.843272, 156.599551)"><g><path d="M 1.46875 -4.828125 L 1.46875 -1.6875 C 1.46875 -1.300781 1.554688 -1.007812 1.734375 -0.8125 C 1.910156 -0.625 2.191406 -0.53125 2.578125 -0.53125 C 3.078125 -0.53125 3.441406 -0.664062 3.671875 -0.9375 C 3.910156 -1.207031 4.03125 -1.660156 4.03125 -2.296875 L 4.03125 -4.828125 L 4.765625 -4.828125 L 4.765625 0 L 4.15625 0 L 4.046875 -0.640625 L 4.015625 -0.640625 C 3.859375 -0.410156 3.644531 -0.226562 3.375 -0.09375 C 3.113281 0.03125 2.816406 0.09375 2.484375 0.09375 C 1.890625 0.09375 1.445312 -0.046875 1.15625 -0.328125 C 0.863281 -0.609375 0.71875 -1.054688 0.71875 -1.671875 L 0.71875 -4.828125 Z M 1.46875 -4.828125 "/></g></g></g><g fill="#000000" fill-opacity="1"><g transform="translate(176.023874, 156.599551)"><g><path d="M 3.890625 -1.3125 C 3.890625 -0.863281 3.722656 -0.515625 3.390625 -0.265625 C 3.054688 -0.0234375 2.585938 0.09375 1.984375 0.09375 C 1.335938 0.09375 0.835938 -0.0078125 0.484375 -0.21875 L 0.484375 -0.890625 C 0.710938 -0.773438 0.957031 -0.679688 1.21875 -0.609375 C 1.488281 -0.546875 1.75 -0.515625 2 -0.515625 C 2.375 -0.515625 2.664062 -0.570312 2.875 -0.6875 C 3.082031 -0.8125 3.1875 -1 3.1875 -1.25 C 3.1875 -1.4375 3.101562 -1.597656 2.9375 -1.734375 C 2.769531 -1.867188 2.453125 -2.023438 1.984375 -2.203125 C 1.535156 -2.367188 1.21875 -2.515625 1.03125 -2.640625 C 0.84375 -2.765625 0.703125 -2.90625 0.609375 -3.0625 C 0.515625 -3.226562 0.46875 -3.421875 0.46875 -3.640625 C 0.46875 -4.035156 0.625 -4.34375 0.9375 -4.5625 C 1.257812 -4.789062 1.703125 -4.90625 2.265625 -4.90625 C 2.785156 -4.90625 3.289062 -4.800781 3.78125 -4.59375 L 3.53125 -4 C 3.039062 -4.195312 2.597656 -4.296875 2.203125 -4.296875 C 1.859375 -4.296875 1.597656 -4.238281 1.421875 -4.125 C 1.242188 -4.019531 1.15625 -3.875 1.15625 -3.6875 C 1.15625 -3.5625 1.1875 -3.453125 1.25 -3.359375 C 1.320312 -3.265625 1.429688 -3.175781 1.578125 -3.09375 C 1.722656 -3.007812 2.003906 -2.894531 2.421875 -2.75 C 2.992188 -2.539062 3.378906 -2.328125 3.578125 -2.109375 C 3.785156 -1.898438 3.890625 -1.632812 3.890625 -1.3125 Z M 3.890625 -1.3125 "/></g></g></g><g fill="#000000" fill-opacity="1"><g transform="translate(180.972351, 156.599551)"><g><path d="M 1.4375 -1.78125 L 0.96875 -1.78125 L 0.75 -6.4375 L 1.65625 -6.4375 Z M 0.671875 -0.46875 C 0.671875 -0.863281 0.847656 -1.0625 1.203125 -1.0625 C 1.367188 -1.0625 1.5 -1.007812 1.59375 -0.90625 C 1.6875 -0.800781 1.734375 -0.65625 1.734375 -0.46875 C 1.734375 -0.28125 1.6875 -0.132812 1.59375 -0.03125 C 1.5 0.0703125 1.367188 0.125 1.203125 0.125 C 1.046875 0.125 0.914062 0.078125 0.8125 -0.015625 C 0.71875 -0.109375 0.671875 -0.257812 0.671875 -0.46875 Z M 0.671875 -0.46875 "/></g></g></g></svg>