<svg xmlns="http://www.w3.org/2000/svg" xmlns:xlink="http://www.w3.org/1999/xlink" width="500" zoomAndPan="magnify" viewBox="0 0 375 374.999991" height="500" preserveAspectRatio="xMidYMid meet" version="1.0"><defs><g/><clipPath id="id1"><path d="M 133.871094 85.21875 L 241.121094 85.21875 L 241.121094 221.71875 L 133.871094 221.71875 Z M 133.871094 85.21875 " clip-rule="nonzero"/></clipPath></defs><g clip-path="url(#id1)"><path fill="#1181c5" d="M 169.496094 185.933594 C 171.371094 184.652344 173.390625 183.566406 175.523438 182.699219 L 175.523438 206.578125 L 169.496094 206.578125 Z M 187.5 85.601562 L 133.875 179.300781 L 159.171875 179.300781 L 158.800781 179.300781 L 160.324219 188.386719 L 160.339844 188.386719 C 161.394531 177.414062 166.519531 169.597656 172.648438 166.175781 C 172.648438 154.410156 174.203125 139.265625 187.480469 122.992188 L 187.492188 123.011719 L 187.503906 122.992188 C 200.78125 139.265625 202.335938 154.410156 202.335938 166.175781 C 208.464844 169.597656 213.589844 177.417969 214.644531 188.386719 L 214.660156 188.386719 L 216.183594 179.300781 L 215.8125 179.300781 L 241.105469 179.300781 L 187.484375 85.601562 Z M 187.5 159.933594 C 191.371094 159.933594 194.53125 156.769531 194.53125 152.886719 C 194.53125 149.003906 191.371094 145.84375 187.5 145.84375 C 183.625 145.84375 180.464844 149.003906 180.464844 152.886719 C 180.464844 156.769531 183.625 159.933594 187.5 159.933594 Z M 199.46875 182.699219 C 201.601562 183.566406 203.625 184.652344 205.5 185.933594 L 205.5 206.578125 L 199.46875 206.578125 Z M 187.5 180.378906 C 188.515625 180.378906 189.523438 180.421875 190.515625 180.519531 L 190.515625 221.34375 L 184.488281 221.34375 L 184.488281 180.519531 C 185.480469 180.429688 186.488281 180.378906 187.5 180.378906 Z M 187.5 180.378906 " fill-opacity="1" fill-rule="evenodd"/></g><g fill="#f9f9f9" fill-opacity="1"><g transform="translate(110.934988, 260.379257)"><g><path d="M 2.28125 -19.28125 L 6.75 -19.28125 L 6.75 -3.640625 L 16.421875 -3.640625 L 16.421875 0 L 2.28125 0 Z M 2.28125 -19.28125 "/></g></g></g><g fill="#f9f9f9" fill-opacity="1"><g transform="translate(136.4386, 260.379257)"><g><path d="M 10.859375 0.328125 C 8.097656 0.328125 5.953125 -0.429688 4.421875 -1.953125 C 2.890625 -3.484375 2.125 -5.660156 2.125 -8.484375 L 2.125 -19.28125 L 6.578125 -19.28125 L 6.578125 -8.65625 C 6.578125 -5.195312 8.007812 -3.46875 10.875 -3.46875 C 12.269531 -3.46875 13.332031 -3.882812 14.0625 -4.71875 C 14.800781 -5.5625 15.171875 -6.875 15.171875 -8.65625 L 15.171875 -19.28125 L 19.578125 -19.28125 L 19.578125 -8.484375 C 19.578125 -5.660156 18.8125 -3.484375 17.28125 -1.953125 C 15.75 -0.429688 13.609375 0.328125 10.859375 0.328125 Z M 10.859375 0.328125 "/></g></g></g><g fill="#f9f9f9" fill-opacity="1"><g transform="translate(167.009415, 260.379257)"><g><path d="M 19.828125 0 L 19.8125 -11.5625 L 14.125 -2.03125 L 12.125 -2.03125 L 6.46875 -11.328125 L 6.46875 0 L 2.28125 0 L 2.28125 -19.28125 L 5.984375 -19.28125 L 13.1875 -7.296875 L 20.296875 -19.28125 L 23.96875 -19.28125 L 24.015625 0 Z M 19.828125 0 "/></g></g></g><g fill="#f9f9f9" fill-opacity="1"><g transform="translate(202.179264, 260.379257)"><g><path d="M 2.28125 -19.28125 L 6.75 -19.28125 L 6.75 0 L 2.28125 0 Z M 2.28125 -19.28125 "/></g></g></g><g fill="#f9f9f9" fill-opacity="1"><g transform="translate(220.082079, 260.379257)"><g><path d="M 17.21875 -3.578125 L 17.21875 0 L 2.28125 0 L 2.28125 -19.28125 L 16.859375 -19.28125 L 16.859375 -15.703125 L 6.71875 -15.703125 L 6.71875 -11.515625 L 15.671875 -11.515625 L 15.671875 -8.046875 L 6.71875 -8.046875 L 6.71875 -3.578125 Z M 17.21875 -3.578125 "/></g></g></g><g fill="#f9f9f9" fill-opacity="1"><g transform="translate(247.430824, 260.379257)"><g><path d="M 2.28125 -19.28125 L 6.75 -19.28125 L 6.75 -3.640625 L 16.421875 -3.640625 L 16.421875 0 L 2.28125 0 Z M 2.28125 -19.28125 "/></g></g></g><g fill="#1181c5" fill-opacity="1"><g transform="translate(77.715161, 285.744447)"><g><path d="M 8.03125 -4.890625 C 8.570312 -4.722656 8.992188 -4.4375 9.296875 -4.03125 C 9.597656 -3.632812 9.75 -3.144531 9.75 -2.5625 C 9.75 -1.738281 9.425781 -1.101562 8.78125 -0.65625 C 8.144531 -0.21875 7.210938 0 5.984375 0 L 1.109375 0 L 1.109375 -9.421875 L 5.71875 -9.421875 C 6.863281 -9.421875 7.742188 -9.195312 8.359375 -8.75 C 8.972656 -8.3125 9.28125 -7.71875 9.28125 -6.96875 C 9.28125 -6.507812 9.171875 -6.097656 8.953125 -5.734375 C 8.734375 -5.378906 8.425781 -5.097656 8.03125 -4.890625 Z M 3.28125 -7.78125 L 3.28125 -5.5625 L 5.453125 -5.5625 C 5.984375 -5.5625 6.390625 -5.65625 6.671875 -5.84375 C 6.953125 -6.03125 7.09375 -6.304688 7.09375 -6.671875 C 7.09375 -7.035156 6.953125 -7.3125 6.671875 -7.5 C 6.390625 -7.6875 5.984375 -7.78125 5.453125 -7.78125 Z M 5.828125 -1.640625 C 6.398438 -1.640625 6.832031 -1.734375 7.125 -1.921875 C 7.414062 -2.109375 7.5625 -2.398438 7.5625 -2.796875 C 7.5625 -3.578125 6.984375 -3.96875 5.828125 -3.96875 L 3.28125 -3.96875 L 3.28125 -1.640625 Z M 5.828125 -1.640625 "/></g></g></g><g fill="#1181c5" fill-opacity="1"><g transform="translate(93.298004, 285.744447)"><g><path d="M 5.671875 0.15625 C 4.691406 0.15625 3.8125 -0.0507812 3.03125 -0.46875 C 2.25 -0.894531 1.632812 -1.476562 1.1875 -2.21875 C 0.75 -2.957031 0.53125 -3.785156 0.53125 -4.703125 C 0.53125 -5.628906 0.75 -6.460938 1.1875 -7.203125 C 1.632812 -7.941406 2.25 -8.519531 3.03125 -8.9375 C 3.8125 -9.363281 4.691406 -9.578125 5.671875 -9.578125 C 6.648438 -9.578125 7.53125 -9.363281 8.3125 -8.9375 C 9.09375 -8.519531 9.707031 -7.941406 10.15625 -7.203125 C 10.601562 -6.460938 10.828125 -5.628906 10.828125 -4.703125 C 10.828125 -3.785156 10.601562 -2.957031 10.15625 -2.21875 C 9.707031 -1.476562 9.09375 -0.894531 8.3125 -0.46875 C 7.53125 -0.0507812 6.648438 0.15625 5.671875 0.15625 Z M 5.671875 -1.6875 C 6.234375 -1.6875 6.738281 -1.816406 7.1875 -2.078125 C 7.632812 -2.335938 7.984375 -2.691406 8.234375 -3.140625 C 8.492188 -3.597656 8.625 -4.117188 8.625 -4.703125 C 8.625 -5.285156 8.492188 -5.804688 8.234375 -6.265625 C 7.984375 -6.722656 7.632812 -7.078125 7.1875 -7.328125 C 6.738281 -7.585938 6.234375 -7.71875 5.671875 -7.71875 C 5.117188 -7.71875 4.617188 -7.585938 4.171875 -7.328125 C 3.722656 -7.078125 3.367188 -6.722656 3.109375 -6.265625 C 2.859375 -5.804688 2.734375 -5.285156 2.734375 -4.703125 C 2.734375 -4.117188 2.859375 -3.597656 3.109375 -3.140625 C 3.367188 -2.691406 3.722656 -2.335938 4.171875 -2.078125 C 4.617188 -1.816406 5.117188 -1.6875 5.671875 -1.6875 Z M 5.671875 -1.6875 "/></g></g></g><g fill="#1181c5" fill-opacity="1"><g transform="translate(109.943931, 285.744447)"><g><path d="M 5.671875 0.15625 C 4.691406 0.15625 3.8125 -0.0507812 3.03125 -0.46875 C 2.25 -0.894531 1.632812 -1.476562 1.1875 -2.21875 C 0.75 -2.957031 0.53125 -3.785156 0.53125 -4.703125 C 0.53125 -5.628906 0.75 -6.460938 1.1875 -7.203125 C 1.632812 -7.941406 2.25 -8.519531 3.03125 -8.9375 C 3.8125 -9.363281 4.691406 -9.578125 5.671875 -9.578125 C 6.648438 -9.578125 7.53125 -9.363281 8.3125 -8.9375 C 9.09375 -8.519531 9.707031 -7.941406 10.15625 -7.203125 C 10.601562 -6.460938 10.828125 -5.628906 10.828125 -4.703125 C 10.828125 -3.785156 10.601562 -2.957031 10.15625 -2.21875 C 9.707031 -1.476562 9.09375 -0.894531 8.3125 -0.46875 C 7.53125 -0.0507812 6.648438 0.15625 5.671875 0.15625 Z M 5.671875 -1.6875 C 6.234375 -1.6875 6.738281 -1.816406 7.1875 -2.078125 C 7.632812 -2.335938 7.984375 -2.691406 8.234375 -3.140625 C 8.492188 -3.597656 8.625 -4.117188 8.625 -4.703125 C 8.625 -5.285156 8.492188 -5.804688 8.234375 -6.265625 C 7.984375 -6.722656 7.632812 -7.078125 7.1875 -7.328125 C 6.738281 -7.585938 6.234375 -7.71875 5.671875 -7.71875 C 5.117188 -7.71875 4.617188 -7.585938 4.171875 -7.328125 C 3.722656 -7.078125 3.367188 -6.722656 3.109375 -6.265625 C 2.859375 -5.804688 2.734375 -5.285156 2.734375 -4.703125 C 2.734375 -4.117188 2.859375 -3.597656 3.109375 -3.140625 C 3.367188 -2.691406 3.722656 -2.335938 4.171875 -2.078125 C 4.617188 -1.816406 5.117188 -1.6875 5.671875 -1.6875 Z M 5.671875 -1.6875 "/></g></g></g><g fill="#1181c5" fill-opacity="1"><g transform="translate(126.589856, 285.744447)"><g><path d="M 4.203125 0.15625 C 3.460938 0.15625 2.742188 0.0546875 2.046875 -0.140625 C 1.359375 -0.335938 0.800781 -0.597656 0.375 -0.921875 L 1.109375 -2.5625 C 1.515625 -2.269531 1.992188 -2.035156 2.546875 -1.859375 C 3.109375 -1.679688 3.664062 -1.59375 4.21875 -1.59375 C 4.84375 -1.59375 5.300781 -1.679688 5.59375 -1.859375 C 5.894531 -2.046875 6.046875 -2.289062 6.046875 -2.59375 C 6.046875 -2.820312 5.957031 -3.007812 5.78125 -3.15625 C 5.601562 -3.300781 5.375 -3.414062 5.09375 -3.5 C 4.820312 -3.59375 4.457031 -3.695312 4 -3.8125 C 3.28125 -3.976562 2.691406 -4.144531 2.234375 -4.3125 C 1.773438 -4.488281 1.378906 -4.765625 1.046875 -5.140625 C 0.722656 -5.515625 0.5625 -6.015625 0.5625 -6.640625 C 0.5625 -7.191406 0.707031 -7.6875 1 -8.125 C 1.300781 -8.570312 1.75 -8.925781 2.34375 -9.1875 C 2.9375 -9.445312 3.664062 -9.578125 4.53125 -9.578125 C 5.132812 -9.578125 5.722656 -9.503906 6.296875 -9.359375 C 6.867188 -9.210938 7.367188 -9.007812 7.796875 -8.75 L 7.125 -7.09375 C 6.257812 -7.582031 5.390625 -7.828125 4.515625 -7.828125 C 3.910156 -7.828125 3.460938 -7.726562 3.171875 -7.53125 C 2.878906 -7.332031 2.734375 -7.070312 2.734375 -6.75 C 2.734375 -6.425781 2.898438 -6.1875 3.234375 -6.03125 C 3.566406 -5.875 4.082031 -5.71875 4.78125 -5.5625 C 5.5 -5.394531 6.082031 -5.222656 6.53125 -5.046875 C 6.988281 -4.878906 7.378906 -4.613281 7.703125 -4.25 C 8.035156 -3.882812 8.203125 -3.390625 8.203125 -2.765625 C 8.203125 -2.222656 8.050781 -1.726562 7.75 -1.28125 C 7.457031 -0.84375 7.007812 -0.492188 6.40625 -0.234375 C 5.800781 0.0234375 5.066406 0.15625 4.203125 0.15625 Z M 4.203125 0.15625 "/></g></g></g><g fill="#1181c5" fill-opacity="1"><g transform="translate(140.463706, 285.744447)"><g><path d="M 3.0625 -7.640625 L 0.046875 -7.640625 L 0.046875 -9.421875 L 8.265625 -9.421875 L 8.265625 -7.640625 L 5.25 -7.640625 L 5.25 0 L 3.0625 0 Z M 3.0625 -7.640625 "/></g></g></g><g fill="#1181c5" fill-opacity="1"><g transform="translate(154.068416, 285.744447)"><g><path d="M 1.109375 -9.421875 L 3.296875 -9.421875 L 3.296875 0 L 1.109375 0 Z M 1.109375 -9.421875 "/></g></g></g><g fill="#1181c5" fill-opacity="1"><g transform="translate(163.770691, 285.744447)"><g><path d="M 9.75 -9.421875 L 9.75 0 L 7.96875 0 L 3.265625 -5.71875 L 3.265625 0 L 1.109375 0 L 1.109375 -9.421875 L 2.921875 -9.421875 L 7.59375 -3.703125 L 7.59375 -9.421875 Z M 9.75 -9.421875 "/></g></g></g><g fill="#1181c5" fill-opacity="1"><g transform="translate(179.932176, 285.744447)"><g><path d="M 7.484375 -4.859375 L 9.46875 -4.859375 L 9.46875 -1.03125 C 8.957031 -0.644531 8.363281 -0.347656 7.6875 -0.140625 C 7.019531 0.0546875 6.34375 0.15625 5.65625 0.15625 C 4.6875 0.15625 3.8125 -0.0507812 3.03125 -0.46875 C 2.25 -0.882812 1.632812 -1.460938 1.1875 -2.203125 C 0.75 -2.941406 0.53125 -3.773438 0.53125 -4.703125 C 0.53125 -5.640625 0.75 -6.476562 1.1875 -7.21875 C 1.632812 -7.957031 2.25 -8.535156 3.03125 -8.953125 C 3.820312 -9.367188 4.710938 -9.578125 5.703125 -9.578125 C 6.523438 -9.578125 7.269531 -9.4375 7.9375 -9.15625 C 8.613281 -8.882812 9.179688 -8.484375 9.640625 -7.953125 L 8.25 -6.65625 C 7.570312 -7.363281 6.757812 -7.71875 5.8125 -7.71875 C 5.207031 -7.71875 4.671875 -7.59375 4.203125 -7.34375 C 3.742188 -7.09375 3.382812 -6.738281 3.125 -6.28125 C 2.863281 -5.820312 2.734375 -5.296875 2.734375 -4.703125 C 2.734375 -4.117188 2.863281 -3.597656 3.125 -3.140625 C 3.382812 -2.691406 3.742188 -2.335938 4.203125 -2.078125 C 4.660156 -1.816406 5.1875 -1.6875 5.78125 -1.6875 C 6.40625 -1.6875 6.972656 -1.820312 7.484375 -2.09375 Z M 7.484375 -4.859375 "/></g></g></g><g fill="#1181c5" fill-opacity="1"><g transform="translate(195.595761, 285.744447)"><g/></g></g><g fill="#1181c5" fill-opacity="1"><g transform="translate(204.692479, 285.744447)"><g><path d="M 4.203125 0.15625 C 3.460938 0.15625 2.742188 0.0546875 2.046875 -0.140625 C 1.359375 -0.335938 0.800781 -0.597656 0.375 -0.921875 L 1.109375 -2.5625 C 1.515625 -2.269531 1.992188 -2.035156 2.546875 -1.859375 C 3.109375 -1.679688 3.664062 -1.59375 4.21875 -1.59375 C 4.84375 -1.59375 5.300781 -1.679688 5.59375 -1.859375 C 5.894531 -2.046875 6.046875 -2.289062 6.046875 -2.59375 C 6.046875 -2.820312 5.957031 -3.007812 5.78125 -3.15625 C 5.601562 -3.300781 5.375 -3.414062 5.09375 -3.5 C 4.820312 -3.59375 4.457031 -3.695312 4 -3.8125 C 3.28125 -3.976562 2.691406 -4.144531 2.234375 -4.3125 C 1.773438 -4.488281 1.378906 -4.765625 1.046875 -5.140625 C 0.722656 -5.515625 0.5625 -6.015625 0.5625 -6.640625 C 0.5625 -7.191406 0.707031 -7.6875 1 -8.125 C 1.300781 -8.570312 1.75 -8.925781 2.34375 -9.1875 C 2.9375 -9.445312 3.664062 -9.578125 4.53125 -9.578125 C 5.132812 -9.578125 5.722656 -9.503906 6.296875 -9.359375 C 6.867188 -9.210938 7.367188 -9.007812 7.796875 -8.75 L 7.125 -7.09375 C 6.257812 -7.582031 5.390625 -7.828125 4.515625 -7.828125 C 3.910156 -7.828125 3.460938 -7.726562 3.171875 -7.53125 C 2.878906 -7.332031 2.734375 -7.070312 2.734375 -6.75 C 2.734375 -6.425781 2.898438 -6.1875 3.234375 -6.03125 C 3.566406 -5.875 4.082031 -5.71875 4.78125 -5.5625 C 5.5 -5.394531 6.082031 -5.222656 6.53125 -5.046875 C 6.988281 -4.878906 7.378906 -4.613281 7.703125 -4.25 C 8.035156 -3.882812 8.203125 -3.390625 8.203125 -2.765625 C 8.203125 -2.222656 8.050781 -1.726562 7.75 -1.28125 C 7.457031 -0.84375 7.007812 -0.492188 6.40625 -0.234375 C 5.800781 0.0234375 5.066406 0.15625 4.203125 0.15625 Z M 4.203125 0.15625 "/></g></g></g><g fill="#1181c5" fill-opacity="1"><g transform="translate(218.566322, 285.744447)"><g><path d="M 8.40625 -1.75 L 8.40625 0 L 1.109375 0 L 1.109375 -9.421875 L 8.234375 -9.421875 L 8.234375 -7.671875 L 3.28125 -7.671875 L 3.28125 -5.625 L 7.65625 -5.625 L 7.65625 -3.921875 L 3.28125 -3.921875 L 3.28125 -1.75 Z M 8.40625 -1.75 "/></g></g></g><g fill="#1181c5" fill-opacity="1"><g transform="translate(232.884235, 285.744447)"><g><path d="M 7.109375 0 L 5.296875 -2.625 L 3.296875 -2.625 L 3.296875 0 L 1.109375 0 L 1.109375 -9.421875 L 5.1875 -9.421875 C 6.019531 -9.421875 6.742188 -9.28125 7.359375 -9 C 7.972656 -8.71875 8.445312 -8.320312 8.78125 -7.8125 C 9.113281 -7.300781 9.28125 -6.695312 9.28125 -6 C 9.28125 -5.300781 9.113281 -4.695312 8.78125 -4.1875 C 8.445312 -3.6875 7.96875 -3.300781 7.34375 -3.03125 L 9.453125 0 Z M 7.078125 -6 C 7.078125 -6.53125 6.90625 -6.9375 6.5625 -7.21875 C 6.21875 -7.5 5.722656 -7.640625 5.078125 -7.640625 L 3.296875 -7.640625 L 3.296875 -4.359375 L 5.078125 -4.359375 C 5.722656 -4.359375 6.21875 -4.5 6.5625 -4.78125 C 6.90625 -5.070312 7.078125 -5.476562 7.078125 -6 Z M 7.078125 -6 "/></g></g></g><g fill="#1181c5" fill-opacity="1"><g transform="translate(248.063377, 285.744447)"><g><path d="M 10.171875 -9.421875 L 6.09375 0 L 3.9375 0 L -0.125 -9.421875 L 2.234375 -9.421875 L 5.09375 -2.6875 L 8 -9.421875 Z M 10.171875 -9.421875 "/></g></g></g><g fill="#1181c5" fill-opacity="1"><g transform="translate(263.390537, 285.744447)"><g><path d="M 1.109375 -9.421875 L 3.296875 -9.421875 L 3.296875 0 L 1.109375 0 Z M 1.109375 -9.421875 "/></g></g></g><g fill="#1181c5" fill-opacity="1"><g transform="translate(273.092807, 285.744447)"><g><path d="M 5.625 0.15625 C 4.664062 0.15625 3.796875 -0.0507812 3.015625 -0.46875 C 2.242188 -0.882812 1.632812 -1.460938 1.1875 -2.203125 C 0.75 -2.941406 0.53125 -3.773438 0.53125 -4.703125 C 0.53125 -5.640625 0.75 -6.476562 1.1875 -7.21875 C 1.632812 -7.957031 2.242188 -8.535156 3.015625 -8.953125 C 3.796875 -9.367188 4.671875 -9.578125 5.640625 -9.578125 C 6.453125 -9.578125 7.1875 -9.429688 7.84375 -9.140625 C 8.507812 -8.859375 9.066406 -8.445312 9.515625 -7.90625 L 8.109375 -6.625 C 7.472656 -7.351562 6.6875 -7.71875 5.75 -7.71875 C 5.164062 -7.71875 4.644531 -7.585938 4.1875 -7.328125 C 3.726562 -7.078125 3.367188 -6.722656 3.109375 -6.265625 C 2.859375 -5.804688 2.734375 -5.285156 2.734375 -4.703125 C 2.734375 -4.117188 2.859375 -3.597656 3.109375 -3.140625 C 3.367188 -2.691406 3.726562 -2.335938 4.1875 -2.078125 C 4.644531 -1.816406 5.164062 -1.6875 5.75 -1.6875 C 6.6875 -1.6875 7.472656 -2.0625 8.109375 -2.8125 L 9.515625 -1.515625 C 9.066406 -0.972656 8.507812 -0.554688 7.84375 -0.265625 C 7.175781 0.015625 6.4375 0.15625 5.625 0.15625 Z M 5.625 0.15625 "/></g></g></g><g fill="#1181c5" fill-opacity="1"><g transform="translate(288.245037, 285.744447)"><g><path d="M 8.40625 -1.75 L 8.40625 0 L 1.109375 0 L 1.109375 -9.421875 L 8.234375 -9.421875 L 8.234375 -7.671875 L 3.28125 -7.671875 L 3.28125 -5.625 L 7.65625 -5.625 L 7.65625 -3.921875 L 3.28125 -3.921875 L 3.28125 -1.75 Z M 8.40625 -1.75 "/></g></g></g></svg>