<?xml version="1.0" encoding="UTF-8"?>
<svg width="398px" height="253px" viewBox="0 0 398 253" version="1.1" xmlns="http://www.w3.org/2000/svg" xmlns:xlink="http://www.w3.org/1999/xlink">
    <title>MemberLogin</title>
    <defs>
        <linearGradient x1="0%" y1="29.834846%" x2="100%" y2="70.165154%" id="linearGradient-1">
            <stop stop-color="#5F0058" offset="0%"></stop>
            <stop stop-color="#4ED3BE" offset="100%"></stop>
        </linearGradient>
    </defs>
    <g id="Page-1" stroke="none" stroke-width="1" fill="none" fill-rule="evenodd" fill-opacity="0" opacity="0.200000003">
        <g id="login-validation-[landing-page-real-content]" transform="translate(-545.000000, -229.000000)" fill="#080F28" fill-rule="nonzero" stroke="url(#linearGradient-1)" stroke-width="2">
            <g id="bg" transform="translate(224.000000, 136.000000)">
                <path d="M338.55,199 L338.55,127 L353.4,199 L364.5,199 L379.35,127 L379.35,199 L395.25,199 L395.25,94 L372.45,94 L359.25,161.05 L345.45,94 L322.95,94 L322.95,199 L338.55,199 Z M453.8,199 L453.8,184 L424.55,184 L424.55,153.25 L447.8,153.25 L447.8,138.25 L424.55,138.25 L424.55,109 L453.8,109 L453.8,94 L408.65,94 L408.65,199 L453.8,199 Z M478.75,199 L478.75,127 L493.6,199 L504.7,199 L519.55,127 L519.55,199 L535.45,199 L535.45,94 L512.65,94 L499.45,161.05 L485.65,94 L463.15,94 L463.15,199 L478.75,199 Z M575.4,199 C590.55,199 600.3,189.1 600.3,173.95 L600.3,165.4 C600.3,155.35 595.95,148.3 588.3,144.7 C595.2,140.8 598.95,134.05 598.95,124.6 L598.95,119.05 C598.95,103.9 589.2,94 574.05,94 L548.85,94 L548.85,199 L575.4,199 Z M571.8,137.5 L564.75,137.5 L564.75,109 L573.3,109 C579.45,109 583.05,112.6 583.05,118.75 L583.05,126.25 C583.05,133.9 579.45,137.5 571.8,137.5 Z M574.65,184 L564.75,184 L564.75,152.5 L573.15,152.5 C580.8,152.5 584.4,156.1 584.4,163.75 L584.4,174.25 C584.4,180.4 580.8,184 574.65,184 Z M655.85,199 L655.85,184 L626.6,184 L626.6,153.25 L649.85,153.25 L649.85,138.25 L626.6,138.25 L626.6,109 L655.85,109 L655.85,94 L610.7,94 L610.7,199 L655.85,199 Z M681.1,199 L681.1,155.65 L689.35,155.65 L700.9,199 L717.4,199 L704.05,152.05 C710.95,147.85 715,140.35 715,130.6 L715,119.05 C715,103.9 705.25,94 690.1,94 L665.2,94 L665.2,199 L681.1,199 Z M689.35,140.65 L681.1,140.65 L681.1,109 L689.35,109 C695.5,109 699.1,112.6 699.1,118.75 L699.1,130.9 C699.1,137.05 695.5,140.65 689.35,140.65 Z M433.225,343 L433.225,328 L404.875,328 L404.875,238 L388.975,238 L388.975,343 L433.225,343 Z M465.675,344.5 C480.975,344.5 491.175,334.3 491.175,319.15 L491.175,261.85 C491.175,246.7 480.975,236.5 465.675,236.5 C450.375,236.5 440.175,246.7 440.175,261.85 L440.175,319.15 C440.175,334.3 450.375,344.5 465.675,344.5 Z M465.675,329.5 C459.825,329.5 456.075,325.75 456.075,319.15 L456.075,261.85 C456.075,255.25 459.825,251.5 465.675,251.5 C471.525,251.5 475.275,255.25 475.275,261.85 L475.275,319.15 C475.275,325.75 471.525,329.5 465.675,329.5 Z M527.375,344.5 C542.675,344.5 552.875,334.3 552.875,319.15 L552.875,285.55 L527.375,285.55 L527.375,300.55 L536.975,300.55 L536.975,319.15 C536.975,325.75 533.225,329.5 527.375,329.5 C521.525,329.5 517.775,325.75 517.775,319.15 L517.775,261.85 C517.775,255.25 521.525,251.5 527.375,251.5 C533.225,251.5 536.975,255.25 536.975,261.85 L536.975,270.7 L552.875,270.7 L552.875,261.85 C552.875,246.7 542.675,236.5 527.375,236.5 C512.075,236.5 501.875,246.7 501.875,261.85 L501.875,319.15 C501.875,334.3 512.075,344.5 527.375,344.5 Z M580.225,343 L580.225,238 L564.325,238 L564.325,343 L580.225,343 Z M609.225,343 L609.225,275.8 L630.225,343 L647.025,343 L647.025,238 L631.425,238 L631.425,308.5 L611.175,238 L593.625,238 L593.625,343 L609.225,343 Z" id="MemberLogin"></path>
            </g>
        </g>
    </g>
</svg>