<svg width="24" height="24" viewBox="0 0 24 24" fill="none" xmlns="http://www.w3.org/2000/svg">
<path d="M23 6.1091C22.9139 2.01454 22.9085 2.89961 22.9924 1.62346C22.9974 1.5478 22.9406 1.48243 22.8654 1.47726C16.8009 1.06021 16.5711 1.01213 16.1012 1.01213C7.82808 1.01146 12.1714 0.875539 1.12864 1.53046C1.0536 1.53496 0.996264 1.59945 1.00019 1.67483C1.71188 15.4026 1.68589 13.1632 1.32233 22.3123C1.31973 22.378 1.3638 22.4364 1.4275 22.4515C2.25397 22.6479 2.1075 22.5706 4.03543 22.572C4.03858 22.5729 7.64837 22.1766 7.65163 22.1763C7.66866 22.1791 12.6434 23 12.6607 23C12.6645 23 12.6683 22.9998 12.6721 22.9995C18.5023 22.5083 16.8312 22.627 20.5925 22.4174L22.8011 22.8665C22.887 22.8839 22.9658 22.8171 22.9649 22.7303C22.9171 18.2598 23 6.1091 23 6.1091ZM14.0347 5.78323C14.0512 5.77923 14.0747 5.77344 14.104 5.76561L15.676 5.40943C16.4812 5.20658 16.6002 5.15716 17.2893 4.83145C17.6074 4.94241 18.4798 5.42772 18.7009 5.70635C18.8471 5.8908 18.8374 5.93182 18.7915 6.12934C18.7826 6.16725 18.7725 6.21089 18.7619 6.26242C18.7612 6.26581 18.7606 6.26932 18.7601 6.27276L18.4144 8.9925C18.0724 9.00517 18.0439 8.97882 17.9493 8.89127C17.9102 8.85502 17.8616 8.80999 17.7759 8.75224C17.2558 8.40123 15.5535 7.13492 15.016 6.69904L13.9593 5.84549L13.9678 5.83721C13.9793 5.82576 13.9895 5.81036 13.9962 5.79563C14.0015 5.79146 14.0224 5.78629 14.0347 5.78323ZM16.4845 19.477C16.4536 19.4459 3.27459 5.39943 3.26491 5.38003L4.41629 4.49202L20.5062 15.2034C20.3732 15.5864 20.3201 16.026 20.2402 16.3911C19.9575 17.6804 19.594 18.2446 19.0256 19.4696C18.212 19.5021 16.5405 19.4958 16.4845 19.477ZM4.49591 15.6767C4.64404 15.3188 4.84769 14.7429 5.01888 14.4513C5.86045 14.98 9.14799 18.3009 9.43392 18.7493C9.27555 18.8084 8.59533 18.9101 7.46518 19.364C6.74913 19.6511 6.073 19.9236 5.41992 19.7008C5.35479 19.6787 5.18117 19.5306 4.92372 19.3071C4.4535 18.899 4.02768 18.605 3.78008 18.4581C3.35775 18.2074 3.42355 18.2603 4.49591 15.6767Z" fill="#EA473B"/>
<path d="M2.68184 15.7066C2.57866 10.3557 2.69389 13.2705 2.08234 1.47461L1.12864 1.53115C1.0536 1.53565 0.996264 1.60013 1.00019 1.67552L1.50795 11.4699C1.60881 16.7018 1.6364 14.409 1.32233 22.313C1.31973 22.3787 1.3638 22.437 1.4275 22.4522C1.8939 22.5631 2.08776 22.5879 2.41587 22.5879C2.40559 22.5526 2.39425 22.9427 2.68184 15.7066Z" fill="#D82B27"/>
<path d="M10.119 19.0532C10.119 19.0532 10.6767 18.8602 10.2182 18.3543C8.347 16.256 7.20706 15.4959 6.12358 14.3008C5.67078 13.808 5.01953 14.4527 5.01953 14.4527C9.25403 18.237 8.40572 17.6892 9.15213 18.4138C9.25121 18.51 9.3294 18.5859 9.43457 18.7508C9.41499 18.7581 9.32846 18.78 9.20869 18.8104C7.44693 19.2574 7.18262 19.5608 6.39596 19.7303C7.13009 20.3321 8.42463 19.5979 9.34754 19.2784C9.56821 19.2021 9.86055 19.1211 10.119 19.0532Z" fill="#D82B27"/>
<path d="M21.307 14.0898C21.3069 14.0898 5.92454 4.22725 5.92454 4.22725C5.4092 3.89687 4.85344 4.05586 4.41602 4.49259L20.5059 15.2039C20.3729 15.587 20.3199 16.0266 20.2399 16.3917C19.9572 17.681 19.5937 18.2451 19.0253 19.4701C19.0253 19.4701 20.4825 19.7518 20.9268 18.7603C21.9693 16.5298 21.7286 16.1091 21.977 15.4048C21.9475 15.0075 22.0024 14.5358 21.307 14.0898Z" fill="#D82B27"/>
<path d="M18.7617 6.26312C18.761 6.26651 18.7604 6.27001 18.7599 6.27346L18.4142 8.99319C18.4142 8.99319 19.782 9.84251 19.9538 8.44607C19.9539 8.44562 19.9539 8.44518 19.954 8.44473L20.2369 6.14554C20.2374 6.14204 20.238 6.13848 20.2388 6.13498C20.2495 6.08228 20.2599 6.0377 20.2689 5.99895C20.3159 5.79704 20.3257 5.75507 20.1763 5.56651C20.0193 5.3686 19.3156 4.84627 18.7914 4.50755C18.2966 4.17401 17.7089 4.5751 17.7089 4.5751C17.5622 4.68811 17.4311 4.78684 17.2891 4.83215C17.6484 5.02755 18.5589 5.52848 18.7007 5.70704C18.8468 5.89149 18.8372 5.93252 18.7912 6.13003C18.7824 6.168 18.7723 6.21164 18.7617 6.26312Z" fill="#D82B27"/>
</svg>
