<svg width="24" height="24" viewBox="0 0 24 24" xmlns="http://www.w3.org/2000/svg" xmlns:xlink="http://www.w3.org/1999/xlink">
    <defs>
        <linearGradient x1="49.659%" y1="50%" x2="50%" y2="50%" id="b">
            <stop stop-color="#1D2C49" offset="0%"/>
            <stop stop-color="orange" offset="100%"/>
        </linearGradient>
        <linearGradient x1="50%" y1="49.682%" x2="50%" y2="50%" id="c">
            <stop stop-color="#FFF" stop-opacity=".2" offset="0%"/>
            <stop stop-color="#FFF" stop-opacity="0" offset="100%"/>
        </linearGradient>
        <rect id="a" x="0" y="0" width="24" height="24" rx="11.5"/>
    </defs>
    <g fill="none" fill-rule="evenodd">
        <mask id="d" fill="#fff">
            <use xlink:href="#a"/>
        </mask>
        <use fill="url(#b)" xlink:href="#a"/>
        <rect stroke-opacity=".2" stroke="#FFF" stroke-width="2" stroke-linejoin="square" fill="url(#c)" x="1" y="1" width="22" height="22" rx="11"/>
        <path d="m11.422 0-.033.08s.227.17.38.218c.097.03.256.104.362.156l.108.053s.024.21.024.274c0 .065.049.137.13.387.08.25.08.862-.008 1.023-.09.16-.6.346-.6.346s-.015.097.017.21l.013.042.004.014v.004l-.001-.004.008.185c0 .024.065.201.065.201l.097-.016s.21-.016.267-.056c.057-.04.453-.113.453-.113L13 2.972v-.145s.065 0 .073-.04c.008-.04 0-.395.08-.403.09-.073.114.048.114.048l.008.411s.275-.008.316-.024c.04-.016.056.233.056.233h5.228s.057.057.049.133c-.008.077.032.04.073.105.04.064.113.008.113.008v-.089l-.001-.061-.001-.154V2.57c0-.115.003-.2.006-.214.012-.049.09-.008.134-.037.044-.028.08.069.08.081l.001.09c.002.183.005.59.012.643.008.068.073.145.08.133.009-.012.057-.032.122-.077.065-.044.146.037.121.238-.024.201.045.21.045.21l1.376.011s.052.004.052-.032c0-.036.057-.097.174-.097.118 0 .09.065.09.065s.036.004.222.004h.118c.395-.003.391-.012.388.125.004.173-.025.173-.03.173h-.013l-.125.001-.411.002h-.174c.004.065-.097.05-.158.05-.06 0-.089-.113-.089-.113l-.144-.001-.344-.001h-.274l-.375-.002h-.214c-.138 0-.215.068-.215.068s-.437.008-.453-.012c-.016-.02-.053-.024-.097-.028-.045-.004-.049.064-.049.064v.205h-.062l-.892-.006-.335-.002-.721-.003h-.17c-.098.003-.045.06-.065.06a.492.492 0 0 0-.142.048c-.02.016-.085.056-.085.056s0 .081-.012.105c-.012.024-.016.036-.227.27-.21.234-.182.221-.275.27-.105.008-.133.04-.02.769.239.757.04.552-.19.608-.231.056-.199.584-.304.954-.105.37-.178.33-.615.693-.437.362-.64.354-.696.354-.053.02-.194-.129-.316-.129a1.82 1.82 0 0 1-.327-.028c-.174-.024-1.502-.757-1.619-.837-.117-.08-.069.04-.06.21.008.168-.324.289 0 .402.323.113.372.415.392.5.057.084-.028 1.88-.032 2.06-.005.182-.312.657-.43.778-.117.12-.388-.052-.4-.052-.012 0-.065-.202-.17-.029-.105.174-.077.854.04.963.118.109 1.113 1.53 1.113 1.53l.369.757s.554 1.297.607 1.486c.052.19.198.113.238.17.04.056-.056.394.065.47.121.077.113.806.13.898.006.04-.024.324-.062.642l-.04.32c-.04.317-.08.596-.089.625-.02.068-.1.258-.097.322.004.064-.008.185.024.258.02.045.049.285.07.494l.021.22.007.071c.012.14-.098.314-.158.383-.06.068-.049.165-.049.165l.077 1.304s.008.101.097.23c.138.14.538.797.74.85.203.052.879.318.935.47.038.103.08.158.103.184l.019.018H2.673l.024-.064c-.024-.153.049-.443.09-.596l.315-1.225c.057-.217.21-.74.21-.74-.178-.162-.202-.218-.218-.596-.016-.379.34-.741.42-.894.082-.153.187-.443.155-.717-.033-.274.72-1.442.85-1.708.129-.265.428-.45.34-1.055-.09-.604.25-1.98.266-2.166.017-.185.097-.097-.072-.29-.17-.193-.009-.37-.009-.37l-.064-.057-.065-.137.04-.193.122-.17s-.049 0-.09-.048a.054.054 0 0 0-.013-.011l-.035-.016c-.041-.021-.078-.068-.016-.327.09-.37.235-.217.202-.314-.032-.097.26.201.219-.129-.04-.33-.202-1.554-.219-2.07-.016-.515.413-.523.559-.563.145-.04.17-.097-.09-.121-.258-.024-.703-.04-.728-.322-.024-.282.138-.508.162-.757.025-.25.09-.403.081-.669a15.174 15.174 0 0 1-.008-.821c.008-.089.227-.145.227-.145s.858.048.785-.145c-.073-.194-.025-.943.016-1.49.04-.548.291-1.184.291-1.184.77-1.377 1.344-1.248 1.756-1.273.413-.024.405.323.494.21.09-.113.09-.266.09-.266-.114-.306-.147-.765.007-1.41C8.921.508 9.625 0 9.625 0h1.797zM8.41 14.214c-.006-.008-.053-.04-.206.428-.05.152-.1.213-.154.258l-.056.042c-.116.085-.255.205-.449.964-.202.427-.218.475-.25 1.047-.082.29-.252.362-.43.475-.178.113-.202.427-.267.508-.064.08-.323.08-.461.563-.138.484-.162.202-.024.653 0 0-.203.773-.324.95-.121.177-.316.668-.372.894-.057.225-.308.548-.494.58-.186.032-.397.709-.42.894-.025.185-.098 1.176 0 1.32.056.146.129.21.129.21h6.757l.005-.052c.016-.183.08-.801.238-1.108.186-.362.146-.805.13-1.095-.017-.29.024-.797-.21-.926l-.041-.355-.007-.015c-.037-.087-.221-.53-.163-.653-.016-.153-.065-1.45-.065-1.45s.073-.241.21-.338c.04-.12.073-.821-.072-.966-.13-.145-.227-.137-.518-.17a.408.408 0 0 0-.105.003l-.04.005c-.132.014-.208-.053-.988-1.256a8.068 8.068 0 0 0-.43-.668c-.08-.105-.202-.105-.388-.121s-.21-.024-.372-.322l-.162-.298z" fill="#FFF" mask="url(#d)"/>
    </g>
</svg>
