<svg width="101" height="23" viewBox="0 0 101 23" fill="none" xmlns="http://www.w3.org/2000/svg">
<path d="M27.0167 5L37.17 5L37.17 6.90115L33.1722 6.90115L33.1722 17.6183L30.981 17.6183L30.981 6.90115L27 6.90116L27.0167 5ZM36.7351 8.48265L38.6085 8.48265L38.6085 10.2492L38.642 10.2492C38.7089 9.99684 38.8259 9.7613 38.9932 9.52576C39.1605 9.29022 39.3612 9.0715 39.6121 8.88643C39.8463 8.68454 40.1139 8.53312 40.415 8.41535C40.6994 8.29758 41.0005 8.23028 41.3015 8.23028C41.5357 8.23028 41.703 8.24711 41.7866 8.24711C41.8703 8.26393 41.9706 8.28076 42.0543 8.28076L42.0543 10.2156C41.9204 10.1819 41.7699 10.1651 41.6193 10.1483C41.4688 10.1314 41.335 10.1146 41.1844 10.1146C40.8499 10.1146 40.5321 10.1819 40.231 10.3165C39.9299 10.4511 39.679 10.653 39.4448 10.9054C39.2274 11.1745 39.0434 11.4942 38.9096 11.8812C38.7758 12.2681 38.7089 12.7224 38.7089 13.2271L38.7089 17.5678L36.7016 17.5678L36.7351 8.48265ZM51.2541 17.6183L49.2803 17.6183L49.2803 16.3396L49.2468 16.3396C48.9959 16.8107 48.6279 17.164 48.1429 17.4501C47.6578 17.7361 47.156 17.8707 46.6542 17.8707C45.4665 17.8707 44.5967 17.5846 44.0615 16.979C43.5262 16.3901 43.2586 15.4816 43.2586 14.2871L43.2586 8.48265L45.2658 8.48265L45.2658 14.0852C45.2658 14.8927 45.4164 15.4648 45.7342 15.7844C46.0353 16.1209 46.4702 16.2892 47.0221 16.2892C47.4403 16.2892 47.7916 16.2219 48.0759 16.0873C48.3603 15.9527 48.5945 15.7844 48.7618 15.5657C48.9458 15.347 49.0628 15.0778 49.1465 14.775C49.2301 14.4721 49.2636 14.1356 49.2636 13.7823L49.2636 8.48265L51.2708 8.48265L51.2708 17.6183L51.2541 17.6183ZM54.6664 14.6908C54.7333 15.2797 54.9507 15.6835 55.3354 15.9359C55.7202 16.1714 56.1885 16.2892 56.7238 16.2892C56.9078 16.2892 57.1252 16.2723 57.3594 16.2387C57.5936 16.205 57.8278 16.1546 58.0285 16.0705C58.2459 15.9863 58.4132 15.8686 58.547 15.7003C58.6808 15.5321 58.7477 15.3302 58.731 15.0778C58.7143 14.8254 58.6307 14.6067 58.4467 14.4385C58.2627 14.2702 58.0452 14.1525 57.7776 14.0347C57.5099 13.9338 57.1921 13.8496 56.8409 13.7823C56.4896 13.715 56.1383 13.6309 55.7703 13.5468C55.4024 13.4627 55.0344 13.3617 54.6831 13.244C54.3318 13.1262 54.0307 12.9748 53.7464 12.756C53.4788 12.5541 53.2446 12.3018 53.094 11.9821C52.9268 11.6625 52.8431 11.2923 52.8431 10.8212C52.8431 10.3165 52.9602 9.91272 53.2111 9.57623C53.4453 9.23974 53.7631 8.97056 54.1311 8.76866C54.4991 8.56677 54.9173 8.41535 55.3689 8.33123C55.8205 8.2471 56.2554 8.21345 56.6569 8.21345C57.1252 8.21345 57.5769 8.26393 57.995 8.36488C58.4132 8.46582 58.8146 8.61724 59.1492 8.85278C59.5005 9.0715 59.7848 9.37434 60.0023 9.72765C60.2364 10.081 60.3703 10.5184 60.4372 11.0231L58.3463 11.0231C58.2459 10.5352 58.0285 10.2156 57.6939 10.0473C57.3427 9.87907 56.958 9.79495 56.5063 9.79495C56.3725 9.79495 56.1885 9.81177 56.0045 9.8286C55.8038 9.86225 55.6365 9.8959 55.4525 9.9632C55.2853 10.0305 55.1347 10.1314 55.0176 10.2492C54.9005 10.367 54.8336 10.5352 54.8336 10.7371C54.8336 10.9895 54.9173 11.1745 55.0845 11.326C55.2518 11.4774 55.4693 11.5952 55.7536 11.7129C56.0212 11.8139 56.3391 11.898 56.6903 11.9653C57.0416 12.0326 57.4096 12.1167 57.7776 12.2008C58.1456 12.285 58.4968 12.3859 58.8481 12.5037C59.1994 12.6214 59.5172 12.7729 59.7848 12.9916C60.0524 13.1935 60.2866 13.4458 60.4539 13.7487C60.6212 14.0515 60.7048 14.4385 60.7048 14.8759C60.7048 15.4143 60.5877 15.8686 60.3368 16.2555C60.0859 16.6257 59.7681 16.9453 59.3834 17.1809C58.9986 17.4164 58.547 17.5846 58.0787 17.7024C57.5936 17.8034 57.1252 17.8707 56.6569 17.8707C56.0882 17.8707 55.5529 17.8034 55.0678 17.6688C54.5827 17.5342 54.1478 17.3323 53.7966 17.0799C53.4453 16.8107 53.1609 16.4911 52.9602 16.0873C52.7595 15.7003 52.6424 15.2292 52.6257 14.674L54.6496 14.674L54.6496 14.6908L54.6664 14.6908ZM61.2735 8.48264L62.7957 8.48264L62.7957 5.72344L64.8029 5.72344L64.8029 8.46582L66.6094 8.46582L66.6094 9.96319L64.8029 9.96319L64.8029 14.8423C64.8029 15.061 64.8196 15.2292 64.8363 15.3975C64.8531 15.5489 64.9033 15.6835 64.9534 15.7844C65.0203 15.8854 65.1207 15.9695 65.2378 16.02C65.3716 16.0705 65.5389 16.1041 65.7731 16.1041C65.9069 16.1041 66.0574 16.1041 66.1912 16.0873C66.325 16.0705 66.4756 16.0536 66.6094 16.02L66.6094 17.5846C66.392 17.6183 66.1745 17.6351 65.9571 17.6519C65.7396 17.6856 65.5389 17.6856 65.3047 17.6856C64.7694 17.6856 64.3513 17.6351 64.0335 17.5342C63.7156 17.4332 63.4647 17.2818 63.2807 17.0967C63.0967 16.8948 62.9797 16.6593 62.9127 16.3733C62.8458 16.0873 62.8124 15.734 62.7957 15.3638L62.7957 9.98002L61.2735 9.98002L61.2735 8.449L61.2735 8.48264ZM68.0145 8.48264L69.9046 8.48264L69.9046 9.72765L69.9381 9.72765C70.2224 9.18927 70.6071 8.81913 71.1089 8.58359C71.6108 8.34805 72.146 8.23028 72.7482 8.23028C73.4674 8.23028 74.0863 8.34805 74.6216 8.61724C75.1569 8.86961 75.5918 9.20609 75.943 9.66035C76.2943 10.0978 76.5619 10.6193 76.7292 11.2082C76.8965 11.7971 76.9968 12.4364 76.9968 13.0925C76.9968 13.715 76.9132 14.3039 76.7627 14.8759C76.5954 15.4479 76.3612 15.9695 76.0434 16.4069C75.7256 16.8444 75.3241 17.1977 74.8223 17.4669C74.3205 17.7361 73.7518 17.8707 73.0827 17.8707C72.7984 17.8707 72.4973 17.837 72.2129 17.7865C71.9286 17.7361 71.6442 17.6519 71.3766 17.5342C71.1089 17.4164 70.858 17.265 70.6406 17.0799C70.4064 16.8948 70.2224 16.6761 70.0719 16.4406L70.0384 16.4406L70.0384 21L68.0312 21L68.0312 8.48264L68.0145 8.48264ZM75.0231 13.0589C75.0231 12.6551 74.9729 12.2513 74.8558 11.8643C74.7554 11.4774 74.5882 11.1409 74.3707 10.8381C74.1533 10.5352 73.8856 10.2997 73.5845 10.1146C73.2667 9.92954 72.8987 9.84542 72.4973 9.84542C71.6609 9.84542 71.0253 10.1314 70.5904 10.7203C70.1722 11.3091 69.9548 12.0999 69.9548 13.0757C69.9548 13.5468 70.005 13.9674 70.1221 14.3544C70.2391 14.7413 70.3897 15.0778 70.6239 15.3638C70.8413 15.6498 71.109 15.8686 71.4268 16.0368C71.7446 16.205 72.0958 16.2892 72.514 16.2892C72.9824 16.2892 73.3504 16.1882 73.6682 16.0032C73.986 15.8181 74.2369 15.5657 74.4543 15.2797C74.6551 14.9769 74.8056 14.6404 74.8892 14.2534C74.9729 13.8496 75.0231 13.4627 75.0231 13.0589ZM78.5524 5L80.5597 5L80.5597 6.90115L78.5524 6.90115L78.5524 5ZM78.5524 8.48264L80.5597 8.48264L80.5597 17.6183L78.5524 17.6183L78.5524 8.48264ZM82.3495 5L84.3567 4.99999L84.3567 17.6183L82.3495 17.6183L82.3495 5ZM90.4787 17.8707C89.7595 17.8707 89.1071 17.7529 88.5384 17.5005C87.9697 17.2482 87.5014 16.9285 87.0999 16.5079C86.7152 16.0873 86.4141 15.5657 86.2134 14.9769C86.0127 14.388 85.8956 13.7319 85.8956 13.0421C85.8956 12.3523 85.9959 11.7129 86.2134 11.1241C86.4141 10.5352 86.7152 10.0305 87.0999 9.59305C87.4846 9.17244 87.9697 8.83596 88.5384 8.60042C89.1071 8.36487 89.7595 8.23028 90.4787 8.23028C91.198 8.23028 91.8504 8.34805 92.4191 8.60041C92.9878 8.83596 93.4561 9.17244 93.8576 9.59305C94.2423 10.0137 94.5434 10.5352 94.7441 11.1241C94.9448 11.7129 95.0619 12.3523 95.0619 13.0421C95.0619 13.7487 94.9616 14.388 94.7441 14.9769C94.5267 15.5657 94.2423 16.0704 93.8576 16.5079C93.4729 16.9285 92.9878 17.265 92.4191 17.5005C91.8504 17.7361 91.2147 17.8707 90.4787 17.8707ZM90.4787 16.2723C90.9136 16.2723 91.3151 16.1714 91.6329 15.9863C91.9674 15.8013 92.2184 15.5489 92.4358 15.2461C92.6533 14.9432 92.8038 14.5899 92.9042 14.2198C93.0045 13.8328 93.0547 13.4458 93.0547 13.0421C93.0547 12.6551 93.0045 12.2681 92.9042 11.8812C92.8038 11.4942 92.6533 11.1577 92.4358 10.8549C92.2184 10.552 91.9507 10.3165 91.6329 10.1314C91.2984 9.94637 90.9136 9.84542 90.4787 9.84542C90.0438 9.84542 89.6424 9.94637 89.3246 10.1314C88.9901 10.3165 88.7392 10.5689 88.5217 10.8549C88.3043 11.1577 88.1537 11.4942 88.0533 11.8812C87.953 12.2681 87.9028 12.6551 87.9028 13.0421C87.9028 13.4458 87.953 13.8328 88.0533 14.2198C88.1537 14.6067 88.3043 14.9432 88.5217 15.2461C88.7392 15.5489 89.0068 15.8013 89.3246 15.9863C89.6591 16.1882 90.0438 16.2723 90.4787 16.2723ZM95.6641 8.48264L97.1863 8.48264L97.1863 5.72344L99.1935 5.72344L99.1935 8.46582L101 8.46582L101 9.96319L99.1935 9.96319L99.1935 14.8423C99.1935 15.061 99.2102 15.2292 99.2269 15.3975C99.2437 15.5489 99.2938 15.6835 99.344 15.7844C99.4109 15.8854 99.5113 15.9695 99.6284 16.02C99.7622 16.0704 99.9295 16.1041 100.164 16.1041C100.297 16.1041 100.448 16.1041 100.582 16.0873C100.716 16.0704 100.866 16.0536 101 16.02L101 17.5846C100.783 17.6183 100.565 17.6351 100.348 17.6519C100.13 17.6856 99.9295 17.6856 99.6953 17.6856C99.16 17.6856 98.7419 17.6351 98.424 17.5342C98.1062 17.4332 97.8553 17.2818 97.6713 17.0967C97.4873 16.8948 97.3703 16.6593 97.3033 16.3733C97.2364 16.0873 97.203 15.734 97.1863 15.3638L97.1863 9.98001L95.6641 9.98001L95.6641 8.449L95.6641 8.48264Z" fill="white"/>
<path d="M23.4135 8.5051L14.4685 8.5051L11.7149 -1.02415e-06L8.94502 8.50511L7.42115e-07 8.48881L7.23423 13.7515L4.46437 22.2567L11.6986 16.9939L18.9328 22.2566L16.1793 13.7515L23.4135 8.5051Z" fill="#00B67A"/>
<path d="M13.5171 8.81312L13.7411 9.5051L14.4685 9.5051L20.3313 9.5051L15.5922 12.942L15.0041 13.3685L15.2279 14.0596L17.0342 19.6388L12.2869 16.1853L11.6986 15.7573L11.1103 16.1853L6.37035 19.6335L8.18507 14.0612L8.41007 13.3703L7.82251 12.9429L3.08221 9.49443L8.9432 9.5051L9.67062 9.50643L9.89587 8.81477L11.7121 3.23794L13.5171 8.81312Z" stroke="white" stroke-opacity="0.08" stroke-width="2"/>
<path d="M16.7988 15.6741L16.1797 13.7515L11.7153 16.9939L16.7988 15.6741Z" fill="#005128"/>
</svg>
