<svg xmlns="http://www.w3.org/2000/svg" xmlns:xlink="http://www.w3.org/1999/xlink" version="1.1" width="65" height="65" viewBox="0 0 256 256" xml:space="preserve">

<defs>
</defs>
<g style="stroke: none; stroke-width: 0; stroke-dasharray: none; stroke-linecap: butt; stroke-linejoin: miter; stroke-miterlimit: 10; fill: none; fill-rule: nonzero; opacity: 1;" transform="translate(1.4065934065934016 1.4065934065934016) scale(2.81 2.81)" >
	<path d="M 86.181 3.998 H 3.819 C 1.71 3.998 0 5.708 0 7.817 v 55.461 c 0 2.109 1.71 3.819 3.819 3.819 h 10.129 v 18.904 L 33.21 67.098 h 52.97 c 2.109 0 3.819 -1.71 3.819 -3.819 V 7.817 C 90 5.708 88.29 3.998 86.181 3.998 z M 21.458 45.22 c -5.094 0 -9.239 -4.144 -9.239 -9.238 c 0 -5.094 4.144 -9.239 9.239 -9.239 s 9.239 4.144 9.239 9.239 C 30.697 41.076 26.552 45.22 21.458 45.22 z M 45.194 45.22 c -5.094 0 -9.239 -4.144 -9.239 -9.238 c 0 -5.094 4.144 -9.239 9.239 -9.239 c 5.094 0 9.238 4.144 9.238 9.239 C 54.432 41.076 50.288 45.22 45.194 45.22 z M 68.93 45.22 c -5.094 0 -9.238 -4.144 -9.238 -9.238 c 0 -5.094 4.144 -9.239 9.238 -9.239 c 5.094 0 9.238 4.144 9.238 9.239 C 78.169 41.076 74.024 45.22 68.93 45.22 z" style="stroke: none; stroke-width: 1; stroke-dasharray: none; stroke-linecap: butt; stroke-linejoin: miter; stroke-miterlimit: 10; fill: rgb(0,0,0); fill-rule: nonzero; opacity: 1;" transform=" matrix(1 0 0 1 0 0) " stroke-linecap="round" />
</g>
</svg>