<svg xmlns="http://www.w3.org/2000/svg" xmlns:xlink="http://www.w3.org/1999/xlink" version="1.1" width="65" height="65" viewBox="0 0 256 256" xml:space="preserve">

<defs>
</defs>
<g style="stroke: none; stroke-width: 0; stroke-dasharray: none; stroke-linecap: butt; stroke-linejoin: miter; stroke-miterlimit: 10; fill: none; fill-rule: nonzero; opacity: 1;" transform="translate(1.4065934065934016 1.4065934065934016) scale(2.81 2.81)" >
	<path d="M 82.725 2.14 H 24.064 c -4.011 0 -7.275 3.264 -7.275 7.275 v 9.514 H 7.275 C 3.264 18.929 0 22.192 0 26.203 v 39.996 c 0 4.011 3.264 7.274 7.275 7.274 h 35.106 l 9.864 12.153 c 1.176 1.45 2.873 2.238 4.644 2.238 c 0.68 0 1.37 -0.116 2.047 -0.356 c 2.437 -0.863 4.011 -3.092 4.011 -5.677 v -8.358 h 2.99 c 4.011 0 7.274 -3.264 7.274 -7.274 v -9.514 h 9.514 c 4.012 0 7.275 -3.264 7.275 -7.275 V 9.415 C 90 5.403 86.736 2.14 82.725 2.14 z M 66.211 66.199 c 0 0.151 -0.123 0.274 -0.274 0.274 h -6.49 c -1.933 0 -3.5 1.567 -3.5 3.5 v 9.106 l -9.181 -11.313 c -0.665 -0.818 -1.663 -1.294 -2.718 -1.294 H 7.275 C 7.124 66.474 7 66.351 7 66.199 V 26.203 c 0 -0.151 0.124 -0.274 0.275 -0.274 h 58.662 c 0.151 0 0.274 0.123 0.274 0.274 V 66.199 z M 83 49.41 c 0 0.151 -0.124 0.275 -0.275 0.275 h -9.514 V 26.203 c 0 -4.011 -3.264 -7.274 -7.274 -7.274 H 23.789 V 9.415 c 0 -0.151 0.124 -0.275 0.275 -0.275 h 58.661 C 82.876 9.14 83 9.263 83 9.415 V 49.41 z" style="stroke: none; stroke-width: 1; stroke-dasharray: none; stroke-linecap: butt; stroke-linejoin: miter; stroke-miterlimit: 10; fill: rgb(0,0,0); fill-rule: nonzero; opacity: 1;" transform=" matrix(1 0 0 1 0 0) " stroke-linecap="round" />
</g>
</svg>