<svg xmlns="http://www.w3.org/2000/svg" xmlns:xlink="http://www.w3.org/1999/xlink" version="1.1" width="256" height="256" viewBox="0 0 256 256" xml:space="preserve">

<defs>
</defs>
<g style="stroke: none; stroke-width: 0; stroke-dasharray: none; stroke-linecap: butt; stroke-linejoin: miter; stroke-miterlimit: 10; fill: none; fill-rule: nonzero; opacity: 1;" transform="translate(1.4065934065934016 1.4065934065934016) scale(2.81 2.81)" >
	<path d="M 90 44.999 C 90 69.813 69.813 90 45 90 C 32.827 63.021 33.904 32.754 45 0 C 69.813 0 90 20.187 90 44.999 z" style="stroke: none; stroke-width: 1; stroke-dasharray: none; stroke-linecap: butt; stroke-linejoin: miter; stroke-miterlimit: 10; fill: rgb(36,166,75); fill-rule: nonzero; opacity: 1;" transform=" matrix(1 0 0 1 0 0) " stroke-linecap="round" />
	<path d="M 0 44.999 C 0 69.813 20.187 90 45 90 V 0 C 20.187 0 0 20.187 0 44.999 z" style="stroke: none; stroke-width: 1; stroke-dasharray: none; stroke-linecap: butt; stroke-linejoin: miter; stroke-miterlimit: 10; fill: rgb(46,189,89); fill-rule: nonzero; opacity: 1;" transform=" matrix(1 0 0 1 0 0) " stroke-linecap="round" />
	<path d="M 63.808 59.978 c -11.579 -7.078 -26.035 -8.705 -42.965 -4.836 c -1.615 0.369 -2.625 1.978 -2.257 3.593 c 0.37 1.616 1.978 2.623 3.593 2.257 c 15.351 -3.507 28.304 -2.127 38.5 4.105 c 0.488 0.299 1.028 0.44 1.562 0.44 c 1.011 0 1.997 -0.51 2.563 -1.436 C 65.667 62.688 65.222 60.842 63.808 59.978 z" style="stroke: none; stroke-width: 1; stroke-dasharray: none; stroke-linecap: butt; stroke-linejoin: miter; stroke-miterlimit: 10; fill: rgb(255,255,255); fill-rule: nonzero; opacity: 1;" transform=" matrix(1 0 0 1 0 0) " stroke-linecap="round" />
	<path d="M 68.491 47.587 c -13.135 -8.074 -33.139 -10.425 -48.646 -5.719 c -1.585 0.481 -2.48 2.157 -1.999 3.742 c 0.481 1.585 2.155 2.478 3.742 1.999 c 13.984 -4.245 31.979 -2.152 43.76 5.089 c 0.49 0.301 1.032 0.444 1.568 0.444 c 1.008 0 1.992 -0.508 2.559 -1.429 C 70.344 50.302 69.902 48.454 68.491 47.587 z" style="stroke: none; stroke-width: 1; stroke-dasharray: none; stroke-linecap: butt; stroke-linejoin: miter; stroke-miterlimit: 10; fill: rgb(255,255,255); fill-rule: nonzero; opacity: 1;" transform=" matrix(1 0 0 1 0 0) " stroke-linecap="round" />
	<path d="M 73.912 33.226 c -15.646 -9.291 -41.39 -10.168 -56.271 -5.653 c -1.585 0.481 -2.481 2.156 -2 3.742 c 0.481 1.586 2.159 2.482 3.742 2 c 13.662 -4.146 37.224 -3.388 51.464 5.071 c 0.48 0.285 1.009 0.421 1.529 0.421 c 1.024 0 2.021 -0.524 2.582 -1.469 C 75.806 35.913 75.336 34.072 73.912 33.226 z" style="stroke: none; stroke-width: 1; stroke-dasharray: none; stroke-linecap: butt; stroke-linejoin: miter; stroke-miterlimit: 10; fill: rgb(255,255,255); fill-rule: nonzero; opacity: 1;" transform=" matrix(1 0 0 1 0 0) " stroke-linecap="round" />
</g>
</svg>