<svg xmlns="http://www.w3.org/2000/svg" xmlns:xlink="http://www.w3.org/1999/xlink" version="1.1" width="84" height="84" viewBox="0 0 256 256" xml:space="preserve">

<defs>
</defs>
<g style="stroke: none; stroke-width: 0; stroke-dasharray: none; stroke-linecap: butt; stroke-linejoin: miter; stroke-miterlimit: 10; fill: none; fill-rule: nonzero; opacity: 1;" transform="translate(1.4065934065934016 1.4065934065934016) scale(2.81 2.81)" >
	<path d="M 86.999 59.469 c -0.73 0 -1.463 -0.265 -2.04 -0.802 c -26.888 -24.958 -53.028 -24.958 -79.918 0 c -1.214 1.128 -3.112 1.058 -4.24 -0.157 c -1.127 -1.214 -1.057 -3.112 0.158 -4.24 c 29.224 -27.126 58.859 -27.126 88.082 0 c 1.214 1.128 1.285 3.026 0.157 4.24 C 88.607 59.146 87.805 59.469 86.999 59.469 z" style="stroke: none; stroke-width: 1; stroke-dasharray: none; stroke-linecap: butt; stroke-linejoin: miter; stroke-miterlimit: 10; fill: rgb(0,0,0); fill-rule: nonzero; opacity: 1;" transform=" matrix(1 0 0 1 0 0) " stroke-linecap="round" />
	<path d="M 45 80.424 c -9.374 0 -17 -7.626 -17 -17 s 7.626 -17 17 -17 s 17 7.626 17 17 S 54.374 80.424 45 80.424 z M 45 52.424 c -6.065 0 -11 4.935 -11 11 s 4.935 11 11 11 s 11 -4.935 11 -11 S 51.065 52.424 45 52.424 z" style="stroke: none; stroke-width: 1; stroke-dasharray: none; stroke-linecap: butt; stroke-linejoin: miter; stroke-miterlimit: 10; fill: rgb(0,0,0); fill-rule: nonzero; opacity: 1;" transform=" matrix(1 0 0 1 0 0) " stroke-linecap="round" />
	<path d="M 45 26.329 c -1.657 0 -3 -1.343 -3 -3 V 12.576 c 0 -1.657 1.343 -3 3 -3 c 1.657 0 3 1.343 3 3 v 10.752 C 48 24.985 46.657 26.329 45 26.329 z" style="stroke: none; stroke-width: 1; stroke-dasharray: none; stroke-linecap: butt; stroke-linejoin: miter; stroke-miterlimit: 10; fill: rgb(0,0,0); fill-rule: nonzero; opacity: 1;" transform=" matrix(1 0 0 1 0 0) " stroke-linecap="round" />
	<path d="M 75.568 35.896 c -0.816 0 -1.63 -0.331 -2.222 -0.983 c -1.114 -1.227 -1.022 -3.124 0.204 -4.238 l 7.637 -6.935 c 1.226 -1.113 3.124 -1.022 4.237 0.205 c 1.114 1.227 1.022 3.124 -0.204 4.238 l -7.637 6.935 C 77.01 35.639 76.288 35.896 75.568 35.896 z" style="stroke: none; stroke-width: 1; stroke-dasharray: none; stroke-linecap: butt; stroke-linejoin: miter; stroke-miterlimit: 10; fill: rgb(0,0,0); fill-rule: nonzero; opacity: 1;" transform=" matrix(1 0 0 1 0 0) " stroke-linecap="round" />
	<path d="M 14.431 35.896 c -0.719 0 -1.441 -0.257 -2.016 -0.779 l -7.636 -6.935 c -1.227 -1.114 -1.318 -3.011 -0.204 -4.237 c 1.112 -1.228 3.011 -1.319 4.237 -0.204 l 7.636 6.935 c 1.227 1.114 1.318 3.011 0.204 4.237 C 16.061 35.565 15.248 35.896 14.431 35.896 z" style="stroke: none; stroke-width: 1; stroke-dasharray: none; stroke-linecap: butt; stroke-linejoin: miter; stroke-miterlimit: 10; fill: rgb(0,0,0); fill-rule: nonzero; opacity: 1;" transform=" matrix(1 0 0 1 0 0) " stroke-linecap="round" />
</g>
</svg>