<?xml version="1.0" encoding="UTF-8"?>
<!DOCTYPE svg PUBLIC "-//W3C//DTD SVG 1.1//EN" "http://www.w3.org/Graphics/SVG/1.1/DTD/svg11.dtd">
<svg xmlns="http://www.w3.org/2000/svg" version="1.1" width="390px" height="269px" style="shape-rendering:geometricPrecision; text-rendering:geometricPrecision; image-rendering:optimizeQuality; fill-rule:evenodd; clip-rule:evenodd" xmlns:xlink="http://www.w3.org/1999/xlink">
<g><path style="opacity:1" fill="#dddfdf" d="M 144.5,0.5 C 144.5,0.166667 144.5,-0.166667 144.5,-0.5C 174.167,-0.5 203.833,-0.5 233.5,-0.5C 234.234,0.707917 234.567,2.04125 234.5,3.5C 233.075,4.92203 232.075,6.5887 231.5,8.5C 228.833,11.1667 226.167,13.8333 223.5,16.5C 223.167,16.5 222.833,16.5 222.5,16.5C 223.5,15.1667 224.5,13.8333 225.5,12.5C 227.885,10.1162 229.885,7.44951 231.5,4.5C 233.466,3.74547 233.8,2.5788 232.5,1C 205.835,0.500026 179.169,0.333359 152.5,0.5C 149.833,0.5 147.167,0.5 144.5,0.5 Z"/></g>
<g><path style="opacity:1" fill="#7f7e7e" d="M 152.5,1.5 C 152.5,1.16667 152.5,0.833333 152.5,0.5C 179.169,0.333359 205.835,0.500026 232.5,1C 233.8,2.5788 233.466,3.74547 231.5,4.5C 231.5,3.5 231.5,2.5 231.5,1.5C 205.167,1.5 178.833,1.5 152.5,1.5 Z"/></g>
<g><path style="opacity:1" fill="#020202" d="M 152.5,1.5 C 178.833,1.5 205.167,1.5 231.5,1.5C 231.5,2.5 231.5,3.5 231.5,4.5C 228.48,6.52318 226.146,9.18985 224.5,12.5C 215.492,20.655 207.492,29.655 200.5,39.5C 198.833,40.5 197.5,41.8333 196.5,43.5C 195.185,44.4756 193.852,45.4756 192.5,46.5C 191.548,44.9547 191.215,43.288 191.5,41.5C 180.5,41.5 169.5,41.5 158.5,41.5C 155.15,41.335 151.817,41.5017 148.5,42C 146.121,42.7162 144.121,43.8828 142.5,45.5C 137.167,47.5 133.5,51.1667 131.5,56.5C 130.883,56.6107 130.383,56.944 130,57.5C 129.5,61.5 129,65.5 128.5,69.5C 128.568,72.4381 129.234,75.1048 130.5,77.5C 130.5,78.1667 130.5,78.8333 130.5,79.5C 130.427,81.0269 131.094,82.0269 132.5,82.5C 132.328,83.4916 132.662,84.1583 133.5,84.5C 133.427,86.0269 134.094,87.0269 135.5,87.5C 137.239,90.2427 139.573,92.2427 142.5,93.5C 143.262,95.2624 144.596,96.2624 146.5,96.5C 147.404,97.209 147.737,98.209 147.5,99.5C 145.5,99.5 144.5,100.5 144.5,102.5C 140.817,105.185 137.817,108.518 135.5,112.5C 134.833,112.5 134.5,112.833 134.5,113.5C 129.646,118.613 124.646,123.78 119.5,129C 116.562,129.712 113.896,129.212 111.5,127.5C 111.167,127.5 110.833,127.5 110.5,127.5C 110.027,126.094 109.027,125.427 107.5,125.5C 106.738,123.738 105.404,122.738 103.5,122.5C 101.1,119.097 98.1002,116.43 94.5,114.5C 94.573,112.973 93.9063,111.973 92.5,111.5C 92.573,109.973 91.9063,108.973 90.5,108.5C 90.6716,107.508 90.3382,106.842 89.5,106.5C 89.573,104.973 88.9063,103.973 87.5,103.5C 87.8799,101.302 87.2132,99.6354 85.5,98.5C 85.1249,96.3024 84.4582,94.3024 83.5,92.5C 81.5969,82.2715 80.5969,71.9381 80.5,61.5C 80.6159,58.1401 80.9492,54.8067 81.5,51.5C 82.0792,46.3619 83.7459,41.6953 86.5,37.5C 87.8017,35.3277 88.9683,32.9944 90,30.5C 95.0365,25.6313 99.8698,20.6313 104.5,15.5C 109.024,13.9565 113.024,11.6232 116.5,8.5C 116.833,8.5 117.167,8.5 117.5,8.5C 119.099,8.76781 120.432,8.43448 121.5,7.5C 125.863,6.62739 130.196,5.62739 134.5,4.5C 140.162,4.0307 145.829,3.5307 151.5,3C 152.056,2.61742 152.389,2.11742 152.5,1.5 Z"/></g>
<g><path style="opacity:1" fill="#aae7f1" d="M 240.5,-0.5 C 241.5,-0.5 242.5,-0.5 243.5,-0.5C 253.659,0.330269 263.992,0.830269 274.5,1C 278.312,1.79549 281.979,2.62882 285.5,3.5C 275.175,2.72381 264.842,2.05714 254.5,1.5C 249.156,1.33398 243.823,1.50065 238.5,2C 236.294,4.0367 234.294,6.20337 232.5,8.5C 232.167,8.5 231.833,8.5 231.5,8.5C 232.075,6.5887 233.075,4.92203 234.5,3.5C 236.272,1.71039 238.272,0.377058 240.5,-0.5 Z"/></g>
<g><path style="opacity:1" fill="#404040" d="M 152.5,1.5 C 152.389,2.11742 152.056,2.61742 151.5,3C 145.829,3.5307 140.162,4.0307 134.5,4.5C 134.5,4.16667 134.5,3.83333 134.5,3.5C 140.453,2.44309 146.453,1.77642 152.5,1.5 Z"/></g>
<g><path style="opacity:1" fill="#17bfd9" d="M 254.5,2.5 C 257.518,2.33537 260.518,2.50204 263.5,3C 261.527,3.49546 259.527,3.66212 257.5,3.5C 257.5,5.16667 257.5,6.83333 257.5,8.5C 256.325,8.28099 255.325,8.61432 254.5,9.5C 252.5,12.8333 249.833,15.5 246.5,17.5C 245.614,18.325 245.281,19.325 245.5,20.5C 241.5,21.1667 241.5,21.8333 245.5,22.5C 245.5,23.5 245.5,24.5 245.5,25.5C 242.5,25.8333 240.833,27.5 240.5,30.5C 236.019,33.5903 231.686,36.5903 227.5,39.5C 227.5,40.5 227.5,41.5 227.5,42.5C 228.675,42.281 229.675,42.6143 230.5,43.5C 229.147,44.5237 228.48,45.857 228.5,47.5C 226.857,47.4802 225.524,48.1468 224.5,49.5C 223.868,52.0297 222.868,54.363 221.5,56.5C 220.833,55.8333 220.167,55.1667 219.5,54.5C 218.378,56.0436 218.711,57.377 220.5,58.5C 218.994,61.474 217.328,61.8073 215.5,59.5C 215.331,61.1173 214.997,62.784 214.5,64.5C 213.476,65.8532 212.143,66.5198 210.5,66.5C 209.5,70.1667 207.167,72.5 203.5,73.5C 203.5,74.5 203.5,75.5 203.5,76.5C 204.5,76.5 205.5,76.5 206.5,76.5C 206.5,77.5 206.5,78.5 206.5,79.5C 204.394,79.679 202.728,80.679 201.5,82.5C 202.853,83.5237 203.52,84.857 203.5,86.5C 202.244,86.0962 201.077,85.4295 200,84.5C 198.177,86.5095 196.01,87.8428 193.5,88.5C 193.5,89.5 193.5,90.5 193.5,91.5C 194.675,91.281 195.675,91.6143 196.5,92.5C 195.052,93.3539 193.719,94.3539 192.5,95.5C 191.833,94.8333 191.167,94.1667 190.5,93.5C 189.378,95.0436 189.711,96.377 191.5,97.5C 188.684,98.6403 187.018,100.64 186.5,103.5C 185.5,103.5 184.5,103.5 183.5,103.5C 183.119,105.942 183.786,106.609 185.5,105.5C 186.833,106.5 186.833,107.5 185.5,108.5C 184.914,108.291 184.414,107.957 184,107.5C 181.919,112.246 178.753,116.079 174.5,119C 175.022,119.95 175.689,120.784 176.5,121.5C 175.354,122.719 174.354,124.052 173.5,125.5C 172.614,124.675 172.281,123.675 172.5,122.5C 171.5,122.5 170.5,122.5 169.5,122.5C 169.48,124.143 170.147,125.476 171.5,126.5C 169.5,129.833 166.833,132.5 163.5,134.5C 162.614,135.325 162.281,136.325 162.5,137.5C 157.054,138.817 156.388,141.317 160.5,145C 157.92,146.768 155.253,148.268 152.5,149.5C 152.646,151.942 151.813,152.609 150,151.5C 149.405,152.899 149.572,154.232 150.5,155.5C 148.765,158.541 147.099,161.541 145.5,164.5C 142.5,164.833 140.833,166.5 140.5,169.5C 136.118,170.198 135.118,172.198 137.5,175.5C 135.734,178.627 133.734,178.96 131.5,176.5C 130.378,178.044 130.711,179.377 132.5,180.5C 130.987,181.846 129.653,183.346 128.5,185C 128.645,185.772 128.978,186.439 129.5,187C 125.427,190.322 122.761,194.489 121.5,199.5C 120.127,199.343 118.793,199.51 117.5,200C 118.756,200.417 119.423,201.25 119.5,202.5C 115.874,207.461 111.874,212.128 107.5,216.5C 99.8261,216.666 92.1594,216.5 84.5,216C 89.2384,215.409 93.9051,214.575 98.5,213.5C 98.5,211.833 98.5,210.167 98.5,208.5C 99.5,208.5 100.5,208.5 101.5,208.5C 101.983,202.106 105.317,198.106 111.5,196.5C 112.833,192.167 114.167,187.833 115.5,183.5C 120.958,181.49 123.958,177.49 124.5,171.5C 125.524,170.147 126.857,169.48 128.5,169.5C 130.927,166.278 132.593,162.611 133.5,158.5C 134.689,157.571 136.022,157.238 137.5,157.5C 137.904,154.413 139.237,151.746 141.5,149.5C 142.524,148.147 143.857,147.48 145.5,147.5C 146.429,143.716 147.762,140.049 149.5,136.5C 150.325,135.614 151.325,135.281 152.5,135.5C 152.5,134.5 152.5,133.5 152.5,132.5C 153.675,132.719 154.675,132.386 155.5,131.5C 156.432,128.47 157.765,125.637 159.5,123C 160.449,122.383 161.282,122.549 162,123.5C 162.674,120.74 163.507,118.073 164.5,115.5C 166.143,115.52 167.476,114.853 168.5,113.5C 171.195,109.381 173.529,105.047 175.5,100.5C 177.167,99.1667 178.833,97.8333 180.5,96.5C 181.542,91.6279 183.542,87.2946 186.5,83.5C 189.346,83.1913 190.846,81.5246 191,78.5C 193.218,79.1877 194.718,78.1877 195.5,75.5C 194.833,74.8333 194.167,74.1667 193.5,73.5C 196.572,72.0941 198.572,69.7607 199.5,66.5C 200.086,66.7093 200.586,67.0426 201,67.5C 203.859,63.4852 206.026,59.1519 207.5,54.5C 208.524,53.1468 209.857,52.4802 211.5,52.5C 211.281,51.325 211.614,50.325 212.5,49.5C 215.006,46.4946 217.673,43.6612 220.5,41C 219.978,40.0497 219.311,39.2164 218.5,38.5C 219.727,37.4096 220.56,36.0762 221,34.5C 221.414,34.9574 221.914,35.2907 222.5,35.5C 223.64,32.6843 225.64,31.0177 228.5,30.5C 229.429,26.7157 230.762,23.049 232.5,19.5C 233.325,18.6143 234.325,18.281 235.5,18.5C 235.5,17.5 235.5,16.5 235.5,15.5C 237.124,15.6399 238.29,14.9733 239,13.5C 239.834,10.8276 240.668,8.16097 241.5,5.5C 240.833,4.83333 240.167,4.16667 239.5,3.5C 244.456,2.50585 249.456,2.17252 254.5,2.5 Z"/></g>
<g><path style="opacity:1" fill="#b1b1b1" d="M 144.5,0.5 C 147.167,0.5 149.833,0.5 152.5,0.5C 152.5,0.833333 152.5,1.16667 152.5,1.5C 146.453,1.77642 140.453,2.44309 134.5,3.5C 130.494,4.22215 126.494,5.05548 122.5,6C 121.944,6.38258 121.611,6.88258 121.5,7.5C 120.432,8.43448 119.099,8.76781 117.5,8.5C 117.5,8.16667 117.5,7.83333 117.5,7.5C 118.058,6.21009 119.058,5.37675 120.5,5C 128.419,3.08283 136.419,1.58283 144.5,0.5 Z"/></g>
<g><path style="opacity:1" fill="#5e5e5e" d="M 134.5,3.5 C 134.5,3.83333 134.5,4.16667 134.5,4.5C 130.196,5.62739 125.863,6.62739 121.5,7.5C 121.611,6.88258 121.944,6.38258 122.5,6C 126.494,5.05548 130.494,4.22215 134.5,3.5 Z"/></g>
<g><path style="opacity:1" fill="#16c4d8" d="M 254.5,1.5 C 254.5,1.83333 254.5,2.16667 254.5,2.5C 249.456,2.17252 244.456,2.50585 239.5,3.5C 240.167,4.16667 240.833,4.83333 241.5,5.5C 240.668,8.16097 239.834,10.8276 239,13.5C 238.29,14.9733 237.124,15.6399 235.5,15.5C 235.5,16.5 235.5,17.5 235.5,18.5C 234.325,18.281 233.325,18.6143 232.5,19.5C 230.762,23.049 229.429,26.7157 228.5,30.5C 225.64,31.0177 223.64,32.6843 222.5,35.5C 221.914,35.2907 221.414,34.9574 221,34.5C 220.56,36.0762 219.727,37.4096 218.5,38.5C 219.311,39.2164 219.978,40.0497 220.5,41C 217.673,43.6612 215.006,46.4946 212.5,49.5C 211.614,50.325 211.281,51.325 211.5,52.5C 209.857,52.4802 208.524,53.1468 207.5,54.5C 206.026,59.1519 203.859,63.4852 201,67.5C 200.586,67.0426 200.086,66.7093 199.5,66.5C 198.572,69.7607 196.572,72.0941 193.5,73.5C 194.167,74.1667 194.833,74.8333 195.5,75.5C 194.718,78.1877 193.218,79.1877 191,78.5C 190.846,81.5246 189.346,83.1913 186.5,83.5C 183.542,87.2946 181.542,91.6279 180.5,96.5C 178.833,97.8333 177.167,99.1667 175.5,100.5C 173.529,105.047 171.195,109.381 168.5,113.5C 167.476,114.853 166.143,115.52 164.5,115.5C 163.507,118.073 162.674,120.74 162,123.5C 161.282,122.549 160.449,122.383 159.5,123C 157.765,125.637 156.432,128.47 155.5,131.5C 154.675,132.386 153.675,132.719 152.5,132.5C 152.5,133.5 152.5,134.5 152.5,135.5C 151.325,135.281 150.325,135.614 149.5,136.5C 147.762,140.049 146.429,143.716 145.5,147.5C 143.857,147.48 142.524,148.147 141.5,149.5C 139.237,151.746 137.904,154.413 137.5,157.5C 136.022,157.238 134.689,157.571 133.5,158.5C 132.593,162.611 130.927,166.278 128.5,169.5C 126.857,169.48 125.524,170.147 124.5,171.5C 123.958,177.49 120.958,181.49 115.5,183.5C 114.167,187.833 112.833,192.167 111.5,196.5C 105.317,198.106 101.983,202.106 101.5,208.5C 100.5,208.5 99.5,208.5 98.5,208.5C 98.5,210.167 98.5,211.833 98.5,213.5C 93.9051,214.575 89.2384,215.409 84.5,216C 92.1594,216.5 99.8261,216.666 107.5,216.5C 106.081,217.451 104.415,217.784 102.5,217.5C 95.5,217.5 88.5,217.5 81.5,217.5C 80.3915,216.71 79.0581,216.21 77.5,216C 82.8333,215.333 82.8333,214.667 77.5,214C 78.3366,212.989 78.67,211.822 78.5,210.5C 80.143,210.52 81.4763,209.853 82.5,208.5C 83.7475,205.94 84.7475,203.273 85.5,200.5C 87.1667,199.167 88.8333,197.833 90.5,196.5C 92.5392,189.459 96.5392,183.792 102.5,179.5C 103.375,176.46 104.375,173.46 105.5,170.5C 106.325,169.614 107.325,169.281 108.5,169.5C 108.833,166.5 110.5,164.833 113.5,164.5C 113.5,163.5 113.5,162.5 113.5,161.5C 114.675,161.719 115.675,161.386 116.5,160.5C 117.846,156.805 119.179,153.139 120.5,149.5C 122.143,149.52 123.476,148.853 124.5,147.5C 127.195,143.381 129.529,139.047 131.5,134.5C 138.106,129.592 142.439,123.258 144.5,115.5C 146.5,114.833 148.5,114.167 150.5,113.5C 151.367,110.092 152.533,106.758 154,103.5C 158.817,100.187 161.15,95.8541 161,90.5C 164.737,86.2733 168.237,81.94 171.5,77.5C 172.167,76.1667 172.833,74.8333 173.5,73.5C 179.442,67.2954 185.609,61.2954 192,55.5C 192.333,54.5 192.667,53.5 193,52.5C 206.374,37.9625 219.541,23.2959 232.5,8.5C 234.294,6.20337 236.294,4.0367 238.5,2C 243.823,1.50065 249.156,1.33398 254.5,1.5 Z"/></g>
<g><path style="opacity:1" fill="#24b5de" d="M 282.5,5.5 C 284.806,5.99255 287.139,6.32588 289.5,6.5C 290.5,6.5 291.5,6.5 292.5,6.5C 292.649,7.55198 292.483,8.55198 292,9.5C 286.771,14.3395 282.271,19.6728 278.5,25.5C 266.217,38.7871 253.883,52.1204 241.5,65.5C 240.972,64.2794 240.305,63.1127 239.5,62C 247.181,54.7684 253.514,46.6017 258.5,37.5C 259.524,36.1468 260.857,35.4802 262.5,35.5C 264.057,33.8149 264.89,31.1482 265,27.5C 266.586,26.624 268.086,25.624 269.5,24.5C 271.167,21.5 272.833,18.5 274.5,15.5C 275.425,14.3595 276.259,14.3595 277,15.5C 278.341,12.978 279.174,10.3113 279.5,7.5C 276.784,7.3215 274.117,6.8215 271.5,6C 275.152,5.50137 278.818,5.3347 282.5,5.5 Z"/></g>
<g><path style="opacity:1" fill="#1cb9dc" d="M 282.5,5.5 C 278.818,5.3347 275.152,5.50137 271.5,6C 274.117,6.8215 276.784,7.3215 279.5,7.5C 279.174,10.3113 278.341,12.978 277,15.5C 276.259,14.3595 275.425,14.3595 274.5,15.5C 272.833,18.5 271.167,21.5 269.5,24.5C 268.086,25.624 266.586,26.624 265,27.5C 264.89,31.1482 264.057,33.8149 262.5,35.5C 260.857,35.4802 259.524,36.1468 258.5,37.5C 253.514,46.6017 247.181,54.7684 239.5,62C 240.305,63.1127 240.972,64.2794 241.5,65.5C 233.798,73.8677 226.464,82.5343 219.5,91.5C 213.39,96.2708 208.39,101.938 204.5,108.5C 201.097,110.9 198.43,113.9 196.5,117.5C 193.14,120.194 190.14,123.194 187.5,126.5C 186.485,124.953 185.151,124.12 183.5,124C 180.502,128.327 177.169,132.327 173.5,136C 174.956,136.423 175.456,137.256 175,138.5C 174.667,138.167 174.333,137.833 174,137.5C 172.684,138.974 171.684,140.641 171,142.5C 170.333,141.167 169.667,141.167 169,142.5C 168.781,143.938 168.281,145.271 167.5,146.5C 164.879,141.07 166.545,137.403 172.5,135.5C 175.028,131.451 177.195,127.118 179,122.5C 182.061,120.602 184.227,117.935 185.5,114.5C 186.914,113.376 188.414,112.376 190,111.5C 190.54,109.865 190.04,108.532 188.5,107.5C 192.285,103.213 196.285,99.0467 200.5,95C 202.434,92.4976 203.434,89.6643 203.5,86.5C 204.5,86.5 205.5,86.5 206.5,86.5C 209.904,82.0054 212.571,77.0054 214.5,71.5C 215.524,70.1468 216.857,69.4802 218.5,69.5C 219.449,67.2627 220.116,64.9294 220.5,62.5C 221.5,62.5 222.5,62.5 223.5,62.5C 225.739,59.5727 227.072,56.2394 227.5,52.5C 228.5,52.5 229.5,52.5 230.5,52.5C 230.5,51.5 230.5,50.5 230.5,49.5C 231.675,49.719 232.675,49.3857 233.5,48.5C 235.238,44.951 236.571,41.2843 237.5,37.5C 240.5,37.1667 242.167,35.5 242.5,32.5C 243.5,32.5 244.5,32.5 245.5,32.5C 245.884,30.0706 246.551,27.7373 247.5,25.5C 248.675,25.719 249.675,25.3857 250.5,24.5C 251.599,21.3105 252.932,18.3105 254.5,15.5C 256.143,15.5198 257.476,14.8532 258.5,13.5C 259.23,11.6587 259.897,9.82541 260.5,8C 260.167,7.66667 259.833,7.33333 259.5,7C 262.544,6.64114 262.878,5.97448 260.5,5C 268.012,4.17818 275.345,4.34485 282.5,5.5 Z"/></g>
<g><path style="opacity:1" fill="#c7c7c7" d="M 117.5,7.5 C 117.5,7.83333 117.5,8.16667 117.5,8.5C 117.167,8.5 116.833,8.5 116.5,8.5C 113.234,10.0323 109.901,11.3656 106.5,12.5C 109.698,9.87519 113.365,8.20852 117.5,7.5 Z"/></g>
<g><path style="opacity:1" fill="#777070" d="M 231.5,4.5 C 229.885,7.44951 227.885,10.1162 225.5,12.5C 225.167,12.5 224.833,12.5 224.5,12.5C 226.146,9.18985 228.48,6.52318 231.5,4.5 Z"/></g>
<g><path style="opacity:1" fill="#5f5f5f" d="M 116.5,8.5 C 113.024,11.6232 109.024,13.9565 104.5,15.5C 105.167,14.5 105.833,13.5 106.5,12.5C 109.901,11.3656 113.234,10.0323 116.5,8.5 Z"/></g>
<g><path style="opacity:1" fill="#b0e4f3" d="M 285.5,3.5 C 288.994,3.61377 291.994,4.78044 294.5,7C 290.217,14.0602 284.884,20.2268 278.5,25.5C 282.271,19.6728 286.771,14.3395 292,9.5C 292.483,8.55198 292.649,7.55198 292.5,6.5C 291.5,6.5 290.5,6.5 289.5,6.5C 287.924,5.85706 286.59,4.85706 285.5,3.5 Z"/></g>
<g><path style="opacity:1" fill="#669bd4" d="M 303.5,12.5 C 305.5,14.1667 307.5,15.8333 309.5,17.5C 309.5,18.1667 309.5,18.8333 309.5,19.5C 306.757,17.7607 304.757,15.4274 303.5,12.5 Z"/></g>
<g><path style="opacity:1" fill="#1a6cc0" d="M 300.5,10.5 C 301.5,11.1667 302.5,11.8333 303.5,12.5C 304.757,15.4274 306.757,17.7607 309.5,19.5C 310.11,21.4341 311.11,23.1007 312.5,24.5C 312.415,27.6489 313.415,30.3155 315.5,32.5C 316.792,42.1693 316.792,51.8359 315.5,61.5C 315.737,62.791 315.404,63.791 314.5,64.5C 311.21,70.2207 308.21,76.2207 305.5,82.5C 303.167,84.1667 301.167,86.1667 299.5,88.5C 298.833,88.5 298.5,88.8333 298.5,89.5C 296.326,89.7497 294.659,90.7497 293.5,92.5C 290.691,92.9577 290.024,94.2911 291.5,96.5C 291.804,97.1499 292.137,97.8165 292.5,98.5C 296.943,100.923 301.61,102.923 306.5,104.5C 307.605,105.6 308.938,106.267 310.5,106.5C 312.43,110.1 315.097,113.1 318.5,115.5C 318.755,117.967 319.755,119.967 321.5,121.5C 323.008,123.181 324.008,125.181 324.5,127.5C 326.025,137.088 326.692,146.754 326.5,156.5C 325.883,156.611 325.383,156.944 325,157.5C 324.811,162.346 323.811,167.012 322,171.5C 319.94,174.286 318.44,177.286 317.5,180.5C 317.5,180.833 317.5,181.167 317.5,181.5C 313.5,184.833 309.833,188.5 306.5,192.5C 304.436,192.762 303.103,193.929 302.5,196C 299.512,196.502 296.845,197.669 294.5,199.5C 291.279,199.896 288.612,201.229 286.5,203.5C 281.228,203.706 276.228,204.706 271.5,206.5C 236.516,204.507 201.182,203.84 165.5,204.5C 165.667,190.829 165.5,177.163 165,163.5C 164.831,177.339 164.331,191.006 163.5,204.5C 163.333,190.496 163.5,176.496 164,162.5C 165.802,161.211 166.969,159.544 167.5,157.5C 171.566,154.437 174.899,150.771 177.5,146.5C 180.573,144.431 182.906,141.764 184.5,138.5C 187.573,136.431 189.906,133.764 191.5,130.5C 197.61,125.729 202.61,120.062 206.5,113.5C 215.901,104.435 224.568,94.7686 232.5,84.5C 233.627,83.8783 234.627,83.045 235.5,82C 240.882,81.6927 246.215,81.026 251.5,80C 253.584,79.3028 255.251,78.1361 256.5,76.5C 257.873,76.6567 259.207,76.49 260.5,76C 262.085,73.9307 263.419,71.764 264.5,69.5C 264.557,68.391 264.89,67.391 265.5,66.5C 266.117,66.3893 266.617,66.056 267,65.5C 267.495,63.5273 267.662,61.5273 267.5,59.5C 268.326,54.6835 268.826,49.6835 269,44.5C 278.687,33.6475 288.187,22.6475 297.5,11.5C 298.325,10.6143 299.325,10.281 300.5,10.5 Z M 247.5,120.5 C 251.452,121.272 255.452,121.605 259.5,121.5C 270.4,124.739 276.067,132.072 276.5,143.5C 275.916,156.588 269.249,164.754 256.5,168C 243.19,169.14 229.857,169.64 216.5,169.5C 216.5,153.167 216.5,136.833 216.5,120.5C 226.833,120.5 237.167,120.5 247.5,120.5 Z"/></g>
<g><path style="opacity:1" fill="#bababa" d="M 106.5,12.5 C 105.833,13.5 105.167,14.5 104.5,15.5C 98.8902,19.7715 93.5569,24.4382 88.5,29.5C 93.2126,22.4536 99.2126,16.7869 106.5,12.5 Z"/></g>
<g><path style="opacity:1" fill="#9ebfe4" d="M 309.5,17.5 C 311.943,20.0516 313.61,23.0516 314.5,26.5C 313.833,25.8333 313.167,25.1667 312.5,24.5C 311.11,23.1007 310.11,21.4341 309.5,19.5C 309.5,18.8333 309.5,18.1667 309.5,17.5 Z"/></g>
<g><path style="opacity:1" fill="#424242" d="M 104.5,15.5 C 99.8698,20.6313 95.0365,25.6313 90,30.5C 88.9683,32.9944 87.8017,35.3277 86.5,37.5C 86.6941,34.6703 87.3608,32.0037 88.5,29.5C 93.5569,24.4382 98.8902,19.7715 104.5,15.5 Z"/></g>
<g><path style="opacity:1" fill="#99e9f1" d="M 231.5,8.5 C 231.833,8.5 232.167,8.5 232.5,8.5C 219.541,23.2959 206.374,37.9625 193,52.5C 192.667,53.5 192.333,54.5 192,55.5C 185.609,61.2954 179.442,67.2954 173.5,73.5C 179.433,65.5612 185.766,57.8945 192.5,50.5C 194.5,49.1667 196.167,47.5 197.5,45.5C 198.167,45.5 198.5,45.1667 198.5,44.5C 200.167,43.5 201.5,42.1667 202.5,40.5C 203.167,40.5 203.5,40.1667 203.5,39.5C 207.794,33.8705 212.461,28.5372 217.5,23.5C 218.167,23.5 218.5,23.1667 218.5,22.5C 219.5,21.1667 220.5,19.8333 221.5,18.5C 222.167,18.5 222.5,18.1667 222.5,17.5C 223.167,17.5 223.5,17.1667 223.5,16.5C 226.167,13.8333 228.833,11.1667 231.5,8.5 Z"/></g>
<g><path style="opacity:1" fill="#5f97d2" d="M 312.5,24.5 C 313.167,25.1667 313.833,25.8333 314.5,26.5C 315.15,28.4352 315.483,30.4352 315.5,32.5C 313.415,30.3155 312.415,27.6489 312.5,24.5 Z"/></g>
<g><path style="opacity:1" fill="#bbd2eb" d="M 309.5,17.5 C 307.5,15.8333 305.5,14.1667 303.5,12.5C 302.5,11.8333 301.5,11.1667 300.5,10.5C 299.292,9.21798 297.958,9.21798 296.5,10.5C 286.853,21.9811 277.02,33.3144 267,44.5C 267.251,49.4556 267.418,54.4556 267.5,59.5C 267.167,59.5 266.833,59.5 266.5,59.5C 266.402,54.3928 265.902,49.3928 265,44.5C 275.874,32.6284 286.374,20.4617 296.5,8C 302.585,8.56209 306.919,11.7288 309.5,17.5 Z"/></g>
<g><path style="opacity:1" fill="#518dce" d="M 300.5,10.5 C 299.325,10.281 298.325,10.6143 297.5,11.5C 288.187,22.6475 278.687,33.6475 269,44.5C 268.826,49.6835 268.326,54.6835 267.5,59.5C 267.418,54.4556 267.251,49.4556 267,44.5C 277.02,33.3144 286.853,21.9811 296.5,10.5C 297.958,9.21798 299.292,9.21798 300.5,10.5 Z"/></g>
<g><path style="opacity:1" fill="#787372" d="M 224.5,12.5 C 224.833,12.5 225.167,12.5 225.5,12.5C 224.5,13.8333 223.5,15.1667 222.5,16.5C 222.5,16.8333 222.5,17.1667 222.5,17.5C 222.167,17.5 221.833,17.5 221.5,17.5C 214.385,24.3725 207.718,31.7058 201.5,39.5C 201.167,39.5 200.833,39.5 200.5,39.5C 207.492,29.655 215.492,20.655 224.5,12.5 Z"/></g>
<g><path style="opacity:1" fill="#d5e0e1" d="M 221.5,17.5 C 221.5,17.8333 221.5,18.1667 221.5,18.5C 220.5,19.8333 219.5,21.1667 218.5,22.5C 217.833,22.5 217.5,22.8333 217.5,23.5C 212.461,28.5372 207.794,33.8705 203.5,39.5C 202.833,39.5 202.5,39.8333 202.5,40.5C 201.5,42.1667 200.167,43.5 198.5,44.5C 198.167,44.5 197.833,44.5 197.5,44.5C 198.833,42.8333 200.167,41.1667 201.5,39.5C 207.718,31.7058 214.385,24.3725 221.5,17.5 Z"/></g>
<g><path style="opacity:1" fill="#d6e5f3" d="M 314.5,26.5 C 316.649,30.0953 318.149,34.0953 319,38.5C 319.82,45.0137 319.653,51.3471 318.5,57.5C 318.823,51.31 318.49,45.31 317.5,39.5C 317.59,36.8478 316.924,34.5145 315.5,32.5C 315.483,30.4352 315.15,28.4352 314.5,26.5 Z"/></g>
<g><path style="opacity:1" fill="#7c7b7b" d="M 158.5,42.5 C 158.5,42.1667 158.5,41.8333 158.5,41.5C 169.5,41.5 180.5,41.5 191.5,41.5C 191.215,43.288 191.548,44.9547 192.5,46.5C 193.852,45.4756 195.185,44.4756 196.5,43.5C 196.5,43.8333 196.5,44.1667 196.5,44.5C 195.292,47.0442 193.292,48.3775 190.5,48.5C 190.784,46.5853 190.451,44.9187 189.5,43.5C 179.347,42.5058 169.014,42.1724 158.5,42.5 Z"/></g>
<g><path style="opacity:1" fill="#639ad4" d="M 315.5,32.5 C 316.924,34.5145 317.59,36.8478 317.5,39.5C 317.751,45.8918 317.418,52.2252 316.5,58.5C 316.737,59.791 316.404,60.791 315.5,61.5C 316.792,51.8359 316.792,42.1693 315.5,32.5 Z"/></g>
<g><path style="opacity:1" fill="#9abfe3" d="M 317.5,39.5 C 318.49,45.31 318.823,51.31 318.5,57.5C 317.833,57.8333 317.167,58.1667 316.5,58.5C 317.418,52.2252 317.751,45.8918 317.5,39.5 Z"/></g>
<g><path style="opacity:1" fill="#999595" d="M 200.5,39.5 C 200.833,39.5 201.167,39.5 201.5,39.5C 200.167,41.1667 198.833,42.8333 197.5,44.5C 197.167,44.5 196.833,44.5 196.5,44.5C 196.5,44.1667 196.5,43.8333 196.5,43.5C 197.5,41.8333 198.833,40.5 200.5,39.5 Z"/></g>
<g><path style="opacity:1" fill="#464646" d="M 158.5,41.5 C 158.5,41.8333 158.5,42.1667 158.5,42.5C 152.919,42.251 147.586,43.251 142.5,45.5C 144.121,43.8828 146.121,42.7162 148.5,42C 151.817,41.5017 155.15,41.335 158.5,41.5 Z"/></g>
<g><path style="opacity:1" fill="#c1c1c1" d="M 158.5,42.5 C 169.014,42.1724 179.347,42.5058 189.5,43.5C 177.829,43.3335 166.162,43.5001 154.5,44C 148.401,45.3063 142.735,47.4729 137.5,50.5C 139.112,48.6666 140.778,46.9999 142.5,45.5C 147.586,43.251 152.919,42.251 158.5,42.5 Z"/></g>
<g><path style="opacity:1" fill="#6f6f6f" d="M 142.5,45.5 C 140.778,46.9999 139.112,48.6666 137.5,50.5C 137.5,51.1667 137.167,51.5 136.5,51.5C 134.273,52.4006 133.273,54.0672 133.5,56.5C 132.833,57.1667 132.167,57.8333 131.5,58.5C 131.5,57.8333 131.5,57.1667 131.5,56.5C 133.5,51.1667 137.167,47.5 142.5,45.5 Z"/></g>
<g><path style="opacity:1" fill="#d0d2d3" d="M 189.5,43.5 C 190.451,44.9187 190.784,46.5853 190.5,48.5C 193.292,48.3775 195.292,47.0442 196.5,44.5C 196.833,44.5 197.167,44.5 197.5,44.5C 197.5,44.8333 197.5,45.1667 197.5,45.5C 196.167,47.5 194.5,49.1667 192.5,50.5C 191.167,50.5 189.833,50.5 188.5,50.5C 188.674,48.139 189.007,45.8056 189.5,43.5 Z"/></g>
<g><path style="opacity:1" fill="#cdcdcd" d="M 136.5,51.5 C 136.25,53.674 135.25,55.3406 133.5,56.5C 133.273,54.0672 134.273,52.4006 136.5,51.5 Z"/></g>
<g><path style="opacity:1" fill="#1bbddb" d="M 254.5,2.5 C 254.5,2.16667 254.5,1.83333 254.5,1.5C 264.842,2.05714 275.175,2.72381 285.5,3.5C 286.59,4.85706 287.924,5.85706 289.5,6.5C 287.139,6.32588 284.806,5.99255 282.5,5.5C 275.345,4.34485 268.012,4.17818 260.5,5C 262.878,5.97448 262.544,6.64114 259.5,7C 259.833,7.33333 260.167,7.66667 260.5,8C 259.897,9.82541 259.23,11.6587 258.5,13.5C 257.476,14.8532 256.143,15.5198 254.5,15.5C 252.932,18.3105 251.599,21.3105 250.5,24.5C 249.675,25.3857 248.675,25.719 247.5,25.5C 246.551,27.7373 245.884,30.0706 245.5,32.5C 244.5,32.5 243.5,32.5 242.5,32.5C 242.167,35.5 240.5,37.1667 237.5,37.5C 236.571,41.2843 235.238,44.951 233.5,48.5C 232.675,49.3857 231.675,49.719 230.5,49.5C 230.5,50.5 230.5,51.5 230.5,52.5C 229.5,52.5 228.5,52.5 227.5,52.5C 227.072,56.2394 225.739,59.5727 223.5,62.5C 222.5,62.5 221.5,62.5 220.5,62.5C 220.116,64.9294 219.449,67.2627 218.5,69.5C 216.857,69.4802 215.524,70.1468 214.5,71.5C 212.571,77.0054 209.904,82.0054 206.5,86.5C 205.5,86.5 204.5,86.5 203.5,86.5C 203.52,84.857 202.853,83.5237 201.5,82.5C 202.728,80.679 204.394,79.679 206.5,79.5C 206.5,78.5 206.5,77.5 206.5,76.5C 205.5,76.5 204.5,76.5 203.5,76.5C 203.5,75.5 203.5,74.5 203.5,73.5C 207.167,72.5 209.5,70.1667 210.5,66.5C 212.143,66.5198 213.476,65.8532 214.5,64.5C 214.997,62.784 215.331,61.1173 215.5,59.5C 217.328,61.8073 218.994,61.474 220.5,58.5C 218.711,57.377 218.378,56.0436 219.5,54.5C 220.167,55.1667 220.833,55.8333 221.5,56.5C 222.868,54.363 223.868,52.0297 224.5,49.5C 225.524,48.1468 226.857,47.4802 228.5,47.5C 228.48,45.857 229.147,44.5237 230.5,43.5C 229.675,42.6143 228.675,42.281 227.5,42.5C 227.5,41.5 227.5,40.5 227.5,39.5C 231.686,36.5903 236.019,33.5903 240.5,30.5C 240.833,27.5 242.5,25.8333 245.5,25.5C 245.5,24.5 245.5,23.5 245.5,22.5C 241.5,21.8333 241.5,21.1667 245.5,20.5C 245.281,19.325 245.614,18.325 246.5,17.5C 249.833,15.5 252.5,12.8333 254.5,9.5C 255.325,8.61432 256.325,8.28099 257.5,8.5C 257.5,6.83333 257.5,5.16667 257.5,3.5C 259.527,3.66212 261.527,3.49546 263.5,3C 260.518,2.50204 257.518,2.33537 254.5,2.5 Z"/></g>
<g><path style="opacity:1" fill="#757575" d="M 81.5,51.5 C 80.9492,54.8067 80.6159,58.1401 80.5,61.5C 80.1667,61.5 79.8333,61.5 79.5,61.5C 79.3359,58.8127 79.5026,56.146 80,53.5C 80.2784,52.5842 80.7784,51.9175 81.5,51.5 Z"/></g>
<g><path style="opacity:1" fill="#464646" d="M 131.5,56.5 C 131.5,57.1667 131.5,57.8333 131.5,58.5C 130.51,64.6446 130.177,70.9779 130.5,77.5C 129.234,75.1048 128.568,72.4381 128.5,69.5C 129,65.5 129.5,61.5 130,57.5C 130.383,56.944 130.883,56.6107 131.5,56.5 Z"/></g>
<g><path style="opacity:1" fill="#7daadb" d="M 266.5,59.5 C 266.833,59.5 267.167,59.5 267.5,59.5C 267.662,61.5273 267.495,63.5273 267,65.5C 266.617,66.056 266.117,66.3893 265.5,66.5C 266.15,64.5648 266.483,62.5648 266.5,60.5C 266.5,60.1667 266.5,59.8333 266.5,59.5 Z"/></g>
<g><path style="opacity:1" fill="#abe3f2" d="M 278.5,25.5 C 268.579,37.6545 258.412,49.6545 248,61.5C 238.584,71.745 229.084,81.745 219.5,91.5C 226.464,82.5343 233.798,73.8677 241.5,65.5C 253.883,52.1204 266.217,38.7871 278.5,25.5 Z"/></g>
<g><path style="opacity:1" fill="#5e95d2" d="M 314.5,64.5 C 314.477,66.9267 313.977,69.26 313,71.5C 311.269,75.4065 309.102,79.0732 306.5,82.5C 306.167,82.5 305.833,82.5 305.5,82.5C 308.21,76.2207 311.21,70.2207 314.5,64.5 Z"/></g>
<g><path style="opacity:1" fill="#c5d9ef" d="M 318.5,57.5 C 316.98,67.4275 312.98,76.0941 306.5,83.5C 306.5,83.1667 306.5,82.8333 306.5,82.5C 309.102,79.0732 311.269,75.4065 313,71.5C 313.977,69.26 314.477,66.9267 314.5,64.5C 315.404,63.791 315.737,62.791 315.5,61.5C 316.404,60.791 316.737,59.791 316.5,58.5C 317.167,58.1667 317.833,57.8333 318.5,57.5 Z"/></g>
<g><path style="opacity:1" fill="#b7b7b7" d="M 88.5,29.5 C 87.3608,32.0037 86.6941,34.6703 86.5,37.5C 83.7459,41.6953 82.0792,46.3619 81.5,51.5C 80.7784,51.9175 80.2784,52.5842 80,53.5C 79.5026,56.146 79.3359,58.8127 79.5,61.5C 79.0585,71.6171 79.8918,81.6171 82,91.5C 82.3826,92.056 82.8826,92.3893 83.5,92.5C 84.4582,94.3024 85.1249,96.3024 85.5,98.5C 85.7959,100.403 86.4625,102.07 87.5,103.5C 87.427,105.027 88.0937,106.027 89.5,106.5C 90.3382,106.842 90.6716,107.508 90.5,108.5C 90.5,109.167 90.5,109.833 90.5,110.5C 88.5491,109.284 87.0491,107.618 86,105.5C 80.4995,93.8444 77.9995,81.5111 78.5,68.5C 77.4785,54.2131 80.8119,41.2131 88.5,29.5 Z"/></g>
<g><path style="opacity:1" fill="#4584ca" d="M 264.5,69.5 C 263.419,71.764 262.085,73.9307 260.5,76C 259.207,76.49 257.873,76.6567 256.5,76.5C 259.141,74.1956 261.808,71.8623 264.5,69.5 Z"/></g>
<g><path style="opacity:1" fill="#b3cdea" d="M 266.5,60.5 C 266.483,62.5648 266.15,64.5648 265.5,66.5C 264.89,67.391 264.557,68.391 264.5,69.5C 261.808,71.8623 259.141,74.1956 256.5,76.5C 249.429,79.0604 242.096,80.5604 234.5,81C 233.177,81.8159 232.511,82.9826 232.5,84.5C 226.806,89.5271 221.473,94.8604 216.5,100.5C 221.555,93.2677 227.221,86.4344 233.5,80C 240.995,79.1152 248.329,77.4486 255.5,75C 261.33,71.6867 264.997,66.8534 266.5,60.5 Z"/></g>
<g><path style="opacity:1" fill="#848484" d="M 130.5,77.5 C 131.906,77.9731 132.573,78.9731 132.5,80.5C 131.833,80.1667 131.167,79.8333 130.5,79.5C 130.5,78.8333 130.5,78.1667 130.5,77.5 Z"/></g>
<g><path style="opacity:1" fill="#4d8bcd" d="M 256.5,76.5 C 255.251,78.1361 253.584,79.3028 251.5,80C 246.215,81.026 240.882,81.6927 235.5,82C 234.627,83.045 233.627,83.8783 232.5,84.5C 232.511,82.9826 233.177,81.8159 234.5,81C 242.096,80.5604 249.429,79.0604 256.5,76.5 Z"/></g>
<g><path style="opacity:1" fill="#4d4d4d" d="M 130.5,79.5 C 131.167,79.8333 131.833,80.1667 132.5,80.5C 132.5,81.1667 132.5,81.8333 132.5,82.5C 131.094,82.0269 130.427,81.0269 130.5,79.5 Z"/></g>
<g><path style="opacity:1" fill="#4d4d4d" d="M 79.5,61.5 C 79.8333,61.5 80.1667,61.5 80.5,61.5C 80.5969,71.9381 81.5969,82.2715 83.5,92.5C 82.8826,92.3893 82.3826,92.056 82,91.5C 79.8918,81.6171 79.0585,71.6171 79.5,61.5 Z"/></g>
<g><path style="opacity:1" fill="#686868" d="M 133.5,84.5 C 134.906,84.9731 135.573,85.9731 135.5,87.5C 134.094,87.0269 133.427,86.0269 133.5,84.5 Z"/></g>
<g><path style="opacity:1" fill="#94b8e1" d="M 305.5,82.5 C 305.833,82.5 306.167,82.5 306.5,82.5C 306.5,82.8333 306.5,83.1667 306.5,83.5C 305.167,85.5 303.5,87.1667 301.5,88.5C 300.833,88.5 300.167,88.5 299.5,88.5C 301.167,86.1667 303.167,84.1667 305.5,82.5 Z"/></g>
<g><path style="opacity:1" fill="#bcbbbb" d="M 133.5,56.5 C 129.261,68.7541 131.261,79.7541 139.5,89.5C 142.702,91.6827 146.036,93.6827 149.5,95.5C 150.298,95.9569 150.631,96.6236 150.5,97.5C 150.167,98.1667 149.833,98.8333 149.5,99.5C 148.833,99.5 148.167,99.5 147.5,99.5C 147.737,98.209 147.404,97.209 146.5,96.5C 145.738,94.7376 144.404,93.7376 142.5,93.5C 139.573,92.2427 137.239,90.2427 135.5,87.5C 135.573,85.9731 134.906,84.9731 133.5,84.5C 132.662,84.1583 132.328,83.4916 132.5,82.5C 132.5,81.8333 132.5,81.1667 132.5,80.5C 132.573,78.9731 131.906,77.9731 130.5,77.5C 130.177,70.9779 130.51,64.6446 131.5,58.5C 132.167,57.8333 132.833,57.1667 133.5,56.5 Z"/></g>
<g><path style="opacity:1" fill="#699ed6" d="M 298.5,89.5 C 297.341,91.2503 295.674,92.2503 293.5,92.5C 294.659,90.7497 296.326,89.7497 298.5,89.5 Z"/></g>
<g><path style="opacity:1" fill="#c4d9ef" d="M 299.5,88.5 C 300.167,88.5 300.833,88.5 301.5,88.5C 299.37,91.7367 296.37,93.7367 292.5,94.5C 292.833,93.8333 293.167,93.1667 293.5,92.5C 295.674,92.2503 297.341,91.2503 298.5,89.5C 298.5,88.8333 298.833,88.5 299.5,88.5 Z"/></g>
<g><path style="opacity:1" fill="#727373" d="M 142.5,93.5 C 144.404,93.7376 145.738,94.7376 146.5,96.5C 144.596,96.2624 143.262,95.2624 142.5,93.5 Z"/></g>
<g><path style="opacity:1" fill="#85b0dd" d="M 293.5,92.5 C 293.167,93.1667 292.833,93.8333 292.5,94.5C 291.662,94.8417 291.328,95.5084 291.5,96.5C 290.024,94.2911 290.691,92.9577 293.5,92.5 Z"/></g>
<g><path style="opacity:1" fill="#9febf0" d="M 173.5,73.5 C 172.833,74.8333 172.167,76.1667 171.5,77.5C 161.833,88.1667 152.167,98.8333 142.5,109.5C 144.029,105.632 146.363,102.299 149.5,99.5C 149.833,98.8333 150.167,98.1667 150.5,97.5C 158.216,89.453 165.882,81.453 173.5,73.5 Z"/></g>
<g><path style="opacity:1" fill="#cfe0f1" d="M 292.5,94.5 C 293.833,95.5 295.167,96.5 296.5,97.5C 294.784,97.3713 293.117,97.038 291.5,96.5C 291.328,95.5084 291.662,94.8417 292.5,94.5 Z"/></g>
<g><path style="opacity:1" fill="#d4e3f3" d="M 296.5,97.5 C 298.698,97.1201 300.365,97.7868 301.5,99.5C 300.833,99.5 300.167,99.5 299.5,99.5C 298.5,98.8333 297.5,98.1667 296.5,97.5 Z"/></g>
<g><path style="opacity:1" fill="#4c4c4c" d="M 85.5,98.5 C 87.2132,99.6354 87.8799,101.302 87.5,103.5C 86.4625,102.07 85.7959,100.403 85.5,98.5 Z"/></g>
<g><path style="opacity:1" fill="#726b6b" d="M 147.5,99.5 C 146.833,100.833 145.833,101.833 144.5,102.5C 144.5,100.5 145.5,99.5 147.5,99.5 Z"/></g>
<g><path style="opacity:1" fill="#a8c6e7" d="M 299.5,99.5 C 300.167,99.5 300.833,99.5 301.5,99.5C 305.049,100.723 308.049,102.723 310.5,105.5C 310.5,105.833 310.5,106.167 310.5,106.5C 308.938,106.267 307.605,105.6 306.5,104.5C 304.303,102.575 301.969,100.908 299.5,99.5 Z"/></g>
<g><path style="opacity:1" fill="#4e8acd" d="M 291.5,96.5 C 293.117,97.038 294.784,97.3713 296.5,97.5C 297.5,98.1667 298.5,98.8333 299.5,99.5C 301.969,100.908 304.303,102.575 306.5,104.5C 301.61,102.923 296.943,100.923 292.5,98.5C 292.137,97.8165 291.804,97.1499 291.5,96.5 Z"/></g>
<g><path style="opacity:1" fill="#656565" d="M 87.5,103.5 C 88.9063,103.973 89.573,104.973 89.5,106.5C 88.0937,106.027 87.427,105.027 87.5,103.5 Z"/></g>
<g><path style="opacity:1" fill="#817c7b" d="M 144.5,102.5 C 142.212,106.456 139.212,109.789 135.5,112.5C 137.817,108.518 140.817,105.185 144.5,102.5 Z"/></g>
<g><path style="opacity:1" fill="#d3e2f2" d="M 310.5,106.5 C 310.5,106.167 310.5,105.833 310.5,105.5C 314.167,107.167 316.833,109.833 318.5,113.5C 315.833,111.167 313.167,108.833 310.5,106.5 Z"/></g>
<g><path style="opacity:1" fill="#aae4f2" d="M 219.5,91.5 C 215.186,97.8114 210.186,103.478 204.5,108.5C 208.39,101.938 213.39,96.2708 219.5,91.5 Z"/></g>
<g><path style="opacity:1" fill="#b6cfea" d="M 216.5,100.5 C 214.212,104.456 211.212,107.789 207.5,110.5C 209.817,106.518 212.817,103.185 216.5,100.5 Z"/></g>
<g><path style="opacity:1" fill="#518dce" d="M 232.5,84.5 C 224.568,94.7686 215.901,104.435 206.5,113.5C 206.557,112.391 206.89,111.391 207.5,110.5C 211.212,107.789 214.212,104.456 216.5,100.5C 221.473,94.8604 226.806,89.5271 232.5,84.5 Z"/></g>
<g><path style="opacity:1" fill="#699dd5" d="M 310.5,106.5 C 313.167,108.833 315.833,111.167 318.5,113.5C 318.5,114.167 318.5,114.833 318.5,115.5C 315.097,113.1 312.43,110.1 310.5,106.5 Z"/></g>
<g><path style="opacity:1" fill="#767676" d="M 90.5,108.5 C 91.9063,108.973 92.573,109.973 92.5,111.5C 91.8333,111.167 91.1667,110.833 90.5,110.5C 90.5,109.833 90.5,109.167 90.5,108.5 Z"/></g>
<g><path style="opacity:1" fill="#b4e7f3" d="M 204.5,108.5 C 202.57,112.1 199.903,115.1 196.5,117.5C 198.43,113.9 201.097,110.9 204.5,108.5 Z"/></g>
<g><path style="opacity:1" fill="#c1d7ee" d="M 318.5,113.5 C 320.262,114.262 321.262,115.596 321.5,117.5C 320.5,116.833 319.5,116.167 318.5,115.5C 318.5,114.833 318.5,114.167 318.5,113.5 Z"/></g>
<g><path style="opacity:1" fill="#cbd2d2" d="M 147.5,99.5 C 148.167,99.5 148.833,99.5 149.5,99.5C 146.363,102.299 144.029,105.632 142.5,109.5C 140.427,110.3 138.76,111.633 137.5,113.5C 134.514,116.496 131.848,119.829 129.5,123.5C 126.5,126.167 123.5,128.833 120.5,131.5C 109.87,130.091 101.037,125.091 94,116.5C 92.5787,114.595 91.412,112.595 90.5,110.5C 91.1667,110.833 91.8333,111.167 92.5,111.5C 93.9063,111.973 94.573,112.973 94.5,114.5C 96.8998,117.903 99.8998,120.57 103.5,122.5C 104.262,124.262 105.596,125.262 107.5,125.5C 107.973,126.906 108.973,127.573 110.5,127.5C 110.833,127.5 111.167,127.5 111.5,127.5C 111.953,128.458 112.619,129.292 113.5,130C 115.833,130.667 118.167,130.667 120.5,130C 126.005,125.119 130.672,119.619 134.5,113.5C 134.5,112.833 134.833,112.5 135.5,112.5C 139.212,109.789 142.212,106.456 144.5,102.5C 145.833,101.833 146.833,100.833 147.5,99.5 Z"/></g>
<g><path style="opacity:1" fill="#585858" d="M 94.5,114.5 C 98.1002,116.43 101.1,119.097 103.5,122.5C 99.8998,120.57 96.8998,117.903 94.5,114.5 Z"/></g>
<g><path style="opacity:1" fill="#bdd3ec" d="M 207.5,110.5 C 206.89,111.391 206.557,112.391 206.5,113.5C 202.395,118.027 198.061,122.36 193.5,126.5C 197.244,120.336 201.91,115.003 207.5,110.5 Z"/></g>
<g><path style="opacity:1" fill="#b2cdea" d="M 215.5,119.5 C 227.322,118.505 239.322,118.172 251.5,118.5C 253.857,120.098 256.523,121.098 259.5,121.5C 255.452,121.605 251.452,121.272 247.5,120.5C 237.013,119.506 226.346,119.172 215.5,119.5 Z"/></g>
<g><path style="opacity:1" fill="#9aeef3" d="M 137.5,113.5 C 135.943,117.724 133.276,121.057 129.5,123.5C 131.848,119.829 134.514,116.496 137.5,113.5 Z"/></g>
<g><path style="opacity:1" fill="#337cc7" d="M 257.5,119.5 C 255.565,118.85 253.565,118.517 251.5,118.5C 239.098,117.17 226.598,117.17 214,118.5C 213.5,135.83 213.333,153.163 213.5,170.5C 212.338,153.005 212.171,135.338 213,117.5C 227.092,116.344 241.258,116.177 255.5,117C 256.381,117.708 257.047,118.542 257.5,119.5 Z"/></g>
<g><path style="opacity:1" fill="#76a6d9" d="M 251.5,118.5 C 253.565,118.517 255.565,118.85 257.5,119.5C 259.786,119.595 261.786,120.262 263.5,121.5C 262.167,121.5 260.833,121.5 259.5,121.5C 256.523,121.098 253.857,120.098 251.5,118.5 Z"/></g>
<g><path style="opacity:1" fill="#5891d1" d="M 318.5,115.5 C 319.5,116.167 320.5,116.833 321.5,117.5C 321.5,118.833 321.5,120.167 321.5,121.5C 319.755,119.967 318.755,117.967 318.5,115.5 Z"/></g>
<g><path style="opacity:1" fill="#acc9e8" d="M 321.5,117.5 C 324.539,121.255 326.206,125.588 326.5,130.5C 325.833,129.5 325.167,128.5 324.5,127.5C 324.008,125.181 323.008,123.181 321.5,121.5C 321.5,120.167 321.5,118.833 321.5,117.5 Z"/></g>
<g><path style="opacity:1" fill="#629ad4" d="M 251.5,118.5 C 239.322,118.172 227.322,118.505 215.5,119.5C 214.503,136.659 214.17,153.992 214.5,171.5C 223.833,171.5 233.167,171.5 242.5,171.5C 237.845,172.166 233.012,172.499 228,172.5C 222.784,172.494 217.951,171.827 213.5,170.5C 213.333,153.163 213.5,135.83 214,118.5C 226.598,117.17 239.098,117.17 251.5,118.5 Z"/></g>
<g><path style="opacity:1" fill="#696969" d="M 103.5,122.5 C 105.404,122.738 106.738,123.738 107.5,125.5C 105.596,125.262 104.262,124.262 103.5,122.5 Z"/></g>
<g><path style="opacity:1" fill="#9ec1e4" d="M 215.5,119.5 C 215.17,136.342 215.503,153.008 216.5,169.5C 224.984,170.493 233.651,170.826 242.5,170.5C 242.5,170.833 242.5,171.167 242.5,171.5C 233.167,171.5 223.833,171.5 214.5,171.5C 214.17,153.992 214.503,136.659 215.5,119.5 Z"/></g>
<g><path style="opacity:1" fill="#aee6f2" d="M 196.5,117.5 C 192.223,124.443 186.89,130.443 180.5,135.5C 182.482,132.19 184.815,129.19 187.5,126.5C 190.14,123.194 193.14,120.194 196.5,117.5 Z"/></g>
<g><path style="opacity:1" fill="#518dce" d="M 206.5,113.5 C 202.61,120.062 197.61,125.729 191.5,130.5C 191.733,128.938 192.4,127.605 193.5,126.5C 198.061,122.36 202.395,118.027 206.5,113.5 Z"/></g>
<g><path style="opacity:1" fill="#d7e5f4" d="M 215.5,119.5 C 226.346,119.172 237.013,119.506 247.5,120.5C 237.167,120.5 226.833,120.5 216.5,120.5C 216.5,136.833 216.5,153.167 216.5,169.5C 215.503,153.008 215.17,136.342 215.5,119.5 Z"/></g>
<g><path style="opacity:1" fill="#6e6e6e" d="M 107.5,125.5 C 109.027,125.427 110.027,126.094 110.5,127.5C 108.973,127.573 107.973,126.906 107.5,125.5 Z"/></g>
<g><path style="opacity:1" fill="#7c7777" d="M 134.5,113.5 C 130.672,119.619 126.005,125.119 120.5,130C 118.167,130.667 115.833,130.667 113.5,130C 112.619,129.292 111.953,128.458 111.5,127.5C 113.896,129.212 116.562,129.712 119.5,129C 124.646,123.78 129.646,118.613 134.5,113.5 Z"/></g>
<g><path style="opacity:1" fill="#8beaef" d="M 129.5,123.5 C 127.234,127.436 124.234,130.769 120.5,133.5C 120.5,132.833 120.5,132.167 120.5,131.5C 123.5,128.833 126.5,126.167 129.5,123.5 Z"/></g>
<g><path style="opacity:1" fill="#5d96d2" d="M 274.5,129.5 C 276.975,130.687 277.975,132.687 277.5,135.5C 276.508,133.544 275.508,131.544 274.5,129.5 Z"/></g>
<g><path style="opacity:1" fill="#16cad6" d="M 171.5,77.5 C 168.237,81.94 164.737,86.2733 161,90.5C 161.15,95.8541 158.817,100.187 154,103.5C 152.533,106.758 151.367,110.092 150.5,113.5C 148.5,114.167 146.5,114.833 144.5,115.5C 142.439,123.258 138.106,129.592 131.5,134.5C 129.529,139.047 127.195,143.381 124.5,147.5C 123.476,148.853 122.143,149.52 120.5,149.5C 119.179,153.139 117.846,156.805 116.5,160.5C 115.675,161.386 114.675,161.719 113.5,161.5C 113.5,162.5 113.5,163.5 113.5,164.5C 110.5,164.833 108.833,166.5 108.5,169.5C 107.325,169.281 106.325,169.614 105.5,170.5C 104.375,173.46 103.375,176.46 102.5,179.5C 96.5392,183.792 92.5392,189.459 90.5,196.5C 88.8333,197.833 87.1667,199.167 85.5,200.5C 84.7475,203.273 83.7475,205.94 82.5,208.5C 81.4763,209.853 80.143,210.52 78.5,210.5C 78.67,211.822 78.3366,212.989 77.5,214C 82.8333,214.667 82.8333,215.333 77.5,216C 79.0581,216.21 80.3915,216.71 81.5,217.5C 76.8333,217.5 72.1667,217.5 67.5,217.5C 66.2347,216.521 64.9014,215.521 63.5,214.5C 62.5713,213.311 62.238,211.978 62.5,210.5C 59.4524,210.506 58.9524,209.506 61,207.5C 61.3333,207.833 61.6667,208.167 62,208.5C 62.3333,207.5 62.6667,206.5 63,205.5C 63.9078,207.439 65.4078,208.439 67.5,208.5C 67.5,207.5 67.5,206.5 67.5,205.5C 65.6412,205.539 64.3079,204.706 63.5,203C 64.549,202.508 65.549,202.674 66.5,203.5C 67.2508,202.624 67.7508,201.624 68,200.5C 68.3333,200.833 68.6667,201.167 69,201.5C 69.4828,200.552 69.6495,199.552 69.5,198.5C 72.8957,198.367 73.2291,197.367 70.5,195.5C 71.7598,194.618 72.9264,193.618 74,192.5C 74.8928,193.711 75.7261,193.711 76.5,192.5C 75.6744,191.549 75.5078,190.549 76,189.5C 84.3787,180.791 92.3787,171.791 100,162.5C 100.505,160.482 101.005,158.482 101.5,156.5C 107.433,148.561 113.766,140.895 120.5,133.5C 124.234,130.769 127.234,127.436 129.5,123.5C 133.276,121.057 135.943,117.724 137.5,113.5C 138.76,111.633 140.427,110.3 142.5,109.5C 152.167,98.8333 161.833,88.1667 171.5,77.5 Z"/></g>
<g><path style="opacity:1" fill="#5691d0" d="M 191.5,130.5 C 189.906,133.764 187.573,136.431 184.5,138.5C 186.094,135.236 188.427,132.569 191.5,130.5 Z"/></g>
<g><path style="opacity:1" fill="#538ecf" d="M 184.5,138.5 C 182.906,141.764 180.573,144.431 177.5,146.5C 179.094,143.236 181.427,140.569 184.5,138.5 Z"/></g>
<g><path style="opacity:1" fill="#4988cc" d="M 324.5,127.5 C 325.167,128.5 325.833,129.5 326.5,130.5C 327.726,139.315 327.726,147.981 326.5,156.5C 326.692,146.754 326.025,137.088 324.5,127.5 Z"/></g>
<g><path style="opacity:1" fill="#4a89cc" d="M 277.5,135.5 C 278.579,138.617 279.246,141.95 279.5,145.5C 279.415,147.333 278.748,148.666 277.5,149.5C 277.5,144.833 277.5,140.167 277.5,135.5 Z"/></g>
<g><path style="opacity:1" fill="#ace5f2" d="M 180.5,135.5 C 178.913,138.268 177.08,140.935 175,143.5C 163.6,155.396 152.433,167.396 141.5,179.5C 143.087,176.732 144.92,174.065 147,171.5C 158.4,159.604 169.567,147.604 180.5,135.5 Z"/></g>
<g><path style="opacity:1" fill="#20bddb" d="M 203.5,86.5 C 203.434,89.6643 202.434,92.4976 200.5,95C 196.285,99.0467 192.285,103.213 188.5,107.5C 190.04,108.532 190.54,109.865 190,111.5C 188.414,112.376 186.914,113.376 185.5,114.5C 184.227,117.935 182.061,120.602 179,122.5C 177.195,127.118 175.028,131.451 172.5,135.5C 166.545,137.403 164.879,141.07 167.5,146.5C 168.281,145.271 168.781,143.938 169,142.5C 169.667,141.167 170.333,141.167 171,142.5C 171.684,140.641 172.684,138.974 174,137.5C 174.333,137.833 174.667,138.167 175,138.5C 175.456,137.256 174.956,136.423 173.5,136C 177.169,132.327 180.502,128.327 183.5,124C 185.151,124.12 186.485,124.953 187.5,126.5C 184.815,129.19 182.482,132.19 180.5,135.5C 169.567,147.604 158.4,159.604 147,171.5C 144.92,174.065 143.087,176.732 141.5,179.5C 133.475,186.592 126.141,194.258 119.5,202.5C 119.423,201.25 118.756,200.417 117.5,200C 118.793,199.51 120.127,199.343 121.5,199.5C 122.761,194.489 125.427,190.322 129.5,187C 128.978,186.439 128.645,185.772 128.5,185C 129.653,183.346 130.987,181.846 132.5,180.5C 130.711,179.377 130.378,178.044 131.5,176.5C 133.734,178.96 135.734,178.627 137.5,175.5C 135.118,172.198 136.118,170.198 140.5,169.5C 140.833,166.5 142.5,164.833 145.5,164.5C 147.099,161.541 148.765,158.541 150.5,155.5C 149.572,154.232 149.405,152.899 150,151.5C 151.813,152.609 152.646,151.942 152.5,149.5C 155.253,148.268 157.92,146.768 160.5,145C 156.388,141.317 157.054,138.817 162.5,137.5C 162.281,136.325 162.614,135.325 163.5,134.5C 166.833,132.5 169.5,129.833 171.5,126.5C 170.147,125.476 169.48,124.143 169.5,122.5C 170.5,122.5 171.5,122.5 172.5,122.5C 172.281,123.675 172.614,124.675 173.5,125.5C 174.354,124.052 175.354,122.719 176.5,121.5C 175.689,120.784 175.022,119.95 174.5,119C 178.753,116.079 181.919,112.246 184,107.5C 184.414,107.957 184.914,108.291 185.5,108.5C 186.833,107.5 186.833,106.5 185.5,105.5C 183.786,106.609 183.119,105.942 183.5,103.5C 184.5,103.5 185.5,103.5 186.5,103.5C 187.018,100.64 188.684,98.6403 191.5,97.5C 189.711,96.377 189.378,95.0436 190.5,93.5C 191.167,94.1667 191.833,94.8333 192.5,95.5C 193.719,94.3539 195.052,93.3539 196.5,92.5C 195.675,91.6143 194.675,91.281 193.5,91.5C 193.5,90.5 193.5,89.5 193.5,88.5C 196.01,87.8428 198.177,86.5095 200,84.5C 201.077,85.4295 202.244,86.0962 203.5,86.5 Z"/></g>
<g><path style="opacity:1" fill="#bcd3ec" d="M 193.5,126.5 C 192.4,127.605 191.733,128.938 191.5,130.5C 188.427,132.569 186.094,135.236 184.5,138.5C 181.427,140.569 179.094,143.236 177.5,146.5C 174.5,149.167 171.5,151.833 168.5,154.5C 175.766,145.392 183.266,136.392 191,127.5C 191.671,126.748 192.504,126.414 193.5,126.5 Z"/></g>
<g><path style="opacity:1" fill="#5f96d2" d="M 177.5,146.5 C 174.899,150.771 171.566,154.437 167.5,157.5C 167.557,156.391 167.89,155.391 168.5,154.5C 171.5,151.833 174.5,149.167 177.5,146.5 Z"/></g>
<g><path style="opacity:1" fill="#4f8dce" d="M 277.5,150.5 C 275.635,160.542 269.635,167.042 259.5,170C 253.888,171.131 248.221,171.631 242.5,171.5C 242.5,171.167 242.5,170.833 242.5,170.5C 255.041,171.639 265.541,167.639 274,158.5C 275.093,155.691 276.26,153.024 277.5,150.5 Z"/></g>
<g><path style="opacity:1" fill="#b4ceea" d="M 326.5,130.5 C 328.011,132.476 328.844,134.809 329,137.5C 330.398,148.287 329.231,158.62 325.5,168.5C 325.646,164.481 325.979,160.481 326.5,156.5C 327.726,147.981 327.726,139.315 326.5,130.5 Z"/></g>
<g><path style="opacity:1" fill="#a9c8e7" d="M 168.5,154.5 C 167.89,155.391 167.557,156.391 167.5,157.5C 165.871,158.625 164.371,159.959 163,161.5C 162.172,177.006 162.339,192.339 163.5,207.5C 163.5,207.833 163.5,208.167 163.5,208.5C 163.167,208.5 162.833,208.5 162.5,208.5C 161.339,192.672 161.172,176.672 162,160.5C 164.083,158.244 166.25,156.244 168.5,154.5 Z"/></g>
<g><path style="opacity:1" fill="#4b8cce" d="M 167.5,157.5 C 166.969,159.544 165.802,161.211 164,162.5C 163.5,176.496 163.333,190.496 163.5,204.5C 163.5,205.5 163.5,206.5 163.5,207.5C 162.339,192.339 162.172,177.006 163,161.5C 164.371,159.959 165.871,158.625 167.5,157.5 Z"/></g>
<g><path style="opacity:1" fill="#bdd4ed" d="M 259.5,121.5 C 260.833,121.5 262.167,121.5 263.5,121.5C 265.389,122.322 267.389,123.155 269.5,124C 270.664,126.328 272.33,128.162 274.5,129.5C 275.508,131.544 276.508,133.544 277.5,135.5C 277.5,140.167 277.5,144.833 277.5,149.5C 277.5,149.833 277.5,150.167 277.5,150.5C 276.26,153.024 275.093,155.691 274,158.5C 265.541,167.639 255.041,171.639 242.5,170.5C 233.651,170.826 224.984,170.493 216.5,169.5C 229.857,169.64 243.19,169.14 256.5,168C 269.249,164.754 275.916,156.588 276.5,143.5C 276.067,132.072 270.4,124.739 259.5,121.5 Z"/></g>
<g><path style="opacity:1" fill="#c8dbef" d="M 325.5,168.5 C 325.204,170.403 324.537,172.07 323.5,173.5C 323.12,171.302 323.787,169.635 325.5,168.5 Z"/></g>
<g><path style="opacity:1" fill="#cadcf0" d="M 323.5,173.5 C 323.573,175.027 322.906,176.027 321.5,176.5C 321.285,174.821 321.952,173.821 323.5,173.5 Z"/></g>
<g><path style="opacity:1" fill="#6097d3" d="M 326.5,156.5 C 325.979,160.481 325.646,164.481 325.5,168.5C 323.787,169.635 323.12,171.302 323.5,173.5C 321.952,173.821 321.285,174.821 321.5,176.5C 319.806,177.527 318.473,178.861 317.5,180.5C 318.44,177.286 319.94,174.286 322,171.5C 323.811,167.012 324.811,162.346 325,157.5C 325.383,156.944 325.883,156.611 326.5,156.5 Z"/></g>
<g><path style="opacity:1" fill="#c6daef" d="M 321.5,176.5 C 320.831,179.849 319.164,182.516 316.5,184.5C 316.557,183.391 316.89,182.391 317.5,181.5C 317.5,181.167 317.5,180.833 317.5,180.5C 318.473,178.861 319.806,177.527 321.5,176.5 Z"/></g>
<g><path style="opacity:1" fill="#d6e4f3" d="M 314.5,186.5 C 314.5,188.5 313.5,189.5 311.5,189.5C 312.167,188.167 313.167,187.167 314.5,186.5 Z"/></g>
<g><path style="opacity:1" fill="#7daadb" d="M 317.5,181.5 C 316.89,182.391 316.557,183.391 316.5,184.5C 316.167,185.5 315.5,186.167 314.5,186.5C 313.167,187.167 312.167,188.167 311.5,189.5C 310.5,189.833 309.833,190.5 309.5,191.5C 308.391,191.557 307.391,191.89 306.5,192.5C 309.833,188.5 313.5,184.833 317.5,181.5 Z"/></g>
<g><path style="opacity:1" fill="#d0e1f2" d="M 311.5,189.5 C 311.5,190.833 310.833,191.5 309.5,191.5C 309.833,190.5 310.5,189.833 311.5,189.5 Z"/></g>
<g><path style="opacity:1" fill="#cedff1" d="M 309.5,191.5 C 308.738,193.262 307.404,194.262 305.5,194.5C 305.833,193.833 306.167,193.167 306.5,192.5C 307.391,191.89 308.391,191.557 309.5,191.5 Z"/></g>
<g><path style="opacity:1" fill="#a3ebee" d="M 120.5,133.5 C 113.766,140.895 107.433,148.561 101.5,156.5C 83.1805,176.156 65.1805,196.156 47.5,216.5C 54.1335,217.497 60.8002,217.83 67.5,217.5C 72.1667,217.5 76.8333,217.5 81.5,217.5C 88.5,217.5 95.5,217.5 102.5,217.5C 102.5,217.833 102.5,218.167 102.5,218.5C 83.6319,218.914 64.6319,218.914 45.5,218.5C 45.3505,217.448 45.5172,216.448 46,215.5C 69.7049,189.464 93.0382,163.131 116,136.5C 117.129,134.859 118.629,133.859 120.5,133.5 Z"/></g>
<g><path style="opacity:1" fill="#b1cce9" d="M 306.5,192.5 C 306.167,193.167 305.833,193.833 305.5,194.5C 304.284,196.451 302.618,197.951 300.5,199C 296.151,201.676 291.485,203.509 286.5,204.5C 286.5,204.167 286.5,203.833 286.5,203.5C 289.496,202.73 292.163,201.396 294.5,199.5C 296.845,197.669 299.512,196.502 302.5,196C 303.103,193.929 304.436,192.762 306.5,192.5 Z"/></g>
<g><path style="opacity:1" fill="#689dd5" d="M 294.5,199.5 C 292.163,201.396 289.496,202.73 286.5,203.5C 288.612,201.229 291.279,199.896 294.5,199.5 Z"/></g>
<g><path style="opacity:1" fill="#1cced5" d="M 101.5,156.5 C 101.005,158.482 100.505,160.482 100,162.5C 92.3787,171.791 84.3787,180.791 76,189.5C 75.5078,190.549 75.6744,191.549 76.5,192.5C 75.7261,193.711 74.8928,193.711 74,192.5C 72.9264,193.618 71.7598,194.618 70.5,195.5C 73.2291,197.367 72.8957,198.367 69.5,198.5C 69.6495,199.552 69.4828,200.552 69,201.5C 68.6667,201.167 68.3333,200.833 68,200.5C 67.7508,201.624 67.2508,202.624 66.5,203.5C 65.549,202.674 64.549,202.508 63.5,203C 64.3079,204.706 65.6412,205.539 67.5,205.5C 67.5,206.5 67.5,207.5 67.5,208.5C 65.4078,208.439 63.9078,207.439 63,205.5C 62.6667,206.5 62.3333,207.5 62,208.5C 61.6667,208.167 61.3333,207.833 61,207.5C 58.9524,209.506 59.4524,210.506 62.5,210.5C 62.238,211.978 62.5713,213.311 63.5,214.5C 64.9014,215.521 66.2347,216.521 67.5,217.5C 60.8002,217.83 54.1335,217.497 47.5,216.5C 65.1805,196.156 83.1805,176.156 101.5,156.5 Z"/></g>
<g><path style="opacity:1" fill="#b0e7f2" d="M 141.5,179.5 C 131.274,192.569 120.441,205.236 109,217.5C 107.215,218.24 105.382,218.907 103.5,219.5C 102.893,219.376 102.56,219.043 102.5,218.5C 102.5,218.167 102.5,217.833 102.5,217.5C 104.415,217.784 106.081,217.451 107.5,216.5C 111.874,212.128 115.874,207.461 119.5,202.5C 126.141,194.258 133.475,186.592 141.5,179.5 Z"/></g>
<g><path style="opacity:1" fill="#4c89cd" d="M 286.5,203.5 C 286.5,203.833 286.5,204.167 286.5,204.5C 284.5,204.833 282.5,205.167 280.5,205.5C 277.402,205.756 274.402,206.422 271.5,207.5C 271.5,207.167 271.5,206.833 271.5,206.5C 276.228,204.706 281.228,203.706 286.5,203.5 Z"/></g>
<g><path style="opacity:1" fill="#1466be" d="M 271.5,206.5 C 271.5,206.833 271.5,207.167 271.5,207.5C 235.5,207.5 199.5,207.5 163.5,207.5C 163.5,206.5 163.5,205.5 163.5,204.5C 164.331,191.006 164.831,177.339 165,163.5C 165.5,177.163 165.667,190.829 165.5,204.5C 201.182,203.84 236.516,204.507 271.5,206.5 Z"/></g>
<g><path style="opacity:1" fill="#c2d8ee" d="M 286.5,204.5 C 285.01,206.28 283.01,206.946 280.5,206.5C 280.5,206.167 280.5,205.833 280.5,205.5C 282.5,205.167 284.5,204.833 286.5,204.5 Z"/></g>
<g><path style="opacity:1" fill="#78a8da" d="M 280.5,205.5 C 280.5,205.833 280.5,206.167 280.5,206.5C 278.436,206.687 276.436,207.187 274.5,208C 237.502,208.5 200.502,208.667 163.5,208.5C 163.5,208.167 163.5,207.833 163.5,207.5C 199.5,207.5 235.5,207.5 271.5,207.5C 274.402,206.422 277.402,205.756 280.5,205.5 Z"/></g>
<g><path style="opacity:1" fill="#cfe0f2" d="M 280.5,206.5 C 279.158,207.793 277.491,208.626 275.5,209C 237.664,209.831 199.998,209.664 162.5,208.5C 162.833,208.5 163.167,208.5 163.5,208.5C 200.502,208.667 237.502,208.5 274.5,208C 276.436,207.187 278.436,206.687 280.5,206.5 Z"/></g>
<g><path style="opacity:1" fill="#e1e1e6" d="M 84.5,227.5 C 73.3206,227.172 62.3206,227.505 51.5,228.5C 49.9772,232.612 50.3105,236.612 52.5,240.5C 51.5041,240.586 50.6708,240.252 50,239.5C 49.2039,235.245 49.3705,231.079 50.5,227C 62.0076,226.174 73.3409,226.341 84.5,227.5 Z"/></g>
<g><path style="opacity:1" fill="#e2e2e6" d="M 119.5,227.5 C 112.646,227.176 105.979,227.509 99.5,228.5C 98.8333,228.5 98.5,228.833 98.5,229.5C 97.8333,229.833 97.1667,230.167 96.5,230.5C 96.5106,228.983 97.1772,227.816 98.5,227C 105.679,226.179 112.679,226.345 119.5,227.5 Z"/></g>
<g><path style="opacity:1" fill="#e0e0e5" d="M 168.5,227.5 C 179.993,226.341 191.659,226.174 203.5,227C 206.26,228.179 208.26,230.012 209.5,232.5C 208.395,231.4 207.062,230.733 205.5,230.5C 205.027,229.094 204.027,228.427 202.5,228.5C 191.346,227.505 180.012,227.172 168.5,227.5 Z"/></g>
<g><path style="opacity:1" fill="#e3e3e8" d="M 350.5,227.5 C 362.66,226.34 374.993,226.173 387.5,227C 388.056,227.383 388.389,227.883 388.5,228.5C 387.833,228.5 387.167,228.5 386.5,228.5C 374.678,227.505 362.678,227.172 350.5,227.5 Z"/></g>
<g><path style="opacity:1" fill="#62627b" d="M 41.5,228.5 C 42.8333,229.167 43.8333,230.167 44.5,231.5C 44.5,235.5 44.5,239.5 44.5,243.5C 43.5213,245.145 42.188,246.479 40.5,247.5C 39.5713,248.689 39.238,250.022 39.5,251.5C 40.0798,253.749 41.4131,255.415 43.5,256.5C 45.123,259.215 45.7896,262.215 45.5,265.5C 40.4889,265.666 35.4889,265.499 30.5,265C 29.6719,263.008 28.3386,261.508 26.5,260.5C 26.477,258.073 25.977,255.74 25,253.5C 23.7083,252.209 22.5417,252.209 21.5,253.5C 20.5166,257.298 20.1832,261.298 20.5,265.5C 14.8333,265.5 9.16667,265.5 3.5,265.5C 3.5,261.833 3.5,258.167 3.5,254.5C 3.83333,254.5 4.16667,254.5 4.5,254.5C 5.81637,251.913 6.48303,248.913 6.5,245.5C 5.94056,239.269 4.60723,233.269 2.5,227.5C 15.5969,225.958 28.5969,226.291 41.5,228.5 Z M 27.5,241.5 C 23.366,240.994 22.5326,238.994 25,235.5C 27.0162,236.955 27.8495,238.955 27.5,241.5 Z"/></g>
<g><path style="opacity:1" fill="#c5c4ce" d="M 2.5,225.5 C 12.3194,224.506 22.3194,224.173 32.5,224.5C 44.8694,224.22 50.0361,230.22 48,242.5C 46.1667,245.667 43.6667,248.167 40.5,250C 42.1412,251.129 43.1412,252.629 43.5,254.5C 42.1667,253.5 40.8333,252.5 39.5,251.5C 39.238,250.022 39.5713,248.689 40.5,247.5C 42.188,246.479 43.5213,245.145 44.5,243.5C 47.0794,239.47 47.0794,235.47 44.5,231.5C 43.8333,230.167 42.8333,229.167 41.5,228.5C 40.9423,227.21 39.9423,226.377 38.5,226C 26.5046,225.5 14.5046,225.333 2.5,225.5 Z"/></g>
<g><path style="opacity:1" fill="#afafbb" d="M 51.5,228.5 C 62.3206,227.505 73.3206,227.172 84.5,227.5C 85.7973,232.267 85.7973,236.934 84.5,241.5C 84.8168,237.298 84.4834,233.298 83.5,229.5C 73.0131,228.506 62.3464,228.172 51.5,228.5 Z"/></g>
<g><path style="opacity:1" fill="#acacb9" d="M 99.5,228.5 C 105.979,227.509 112.646,227.176 119.5,227.5C 120.11,228.391 120.443,229.391 120.5,230.5C 119.833,230.167 119.167,229.833 118.5,229.5C 112.355,228.51 106.022,228.177 99.5,228.5 Z"/></g>
<g><path style="opacity:1" fill="#b7b7c2" d="M 156.5,227.5 C 157.787,231.268 157.787,234.935 156.5,238.5C 156.784,235.223 156.451,232.057 155.5,229C 148.842,228.5 142.175,228.334 135.5,228.5C 134.99,232.813 135.657,236.813 137.5,240.5C 136.833,240.5 136.167,240.5 135.5,240.5C 133.256,236.379 132.923,232.046 134.5,227.5C 141.833,226.167 149.167,226.167 156.5,227.5 Z"/></g>
<g><path style="opacity:1" fill="#a9a9b7" d="M 168.5,227.5 C 180.012,227.172 191.346,227.505 202.5,228.5C 191.654,228.172 180.987,228.506 170.5,229.5C 169.532,231.607 169.198,233.941 169.5,236.5C 168.523,233.713 168.19,230.713 168.5,227.5 Z"/></g>
<g><path style="opacity:1" fill="#a8a8b6" d="M 297.5,227.5 C 298.625,229 299.959,230.333 301.5,231.5C 293.84,228.569 285.84,227.735 277.5,229C 274.035,230.965 270.702,233.132 267.5,235.5C 269.114,233.544 270.781,231.544 272.5,229.5C 274.38,229.771 275.713,229.104 276.5,227.5C 283.5,226.167 290.5,226.167 297.5,227.5 Z"/></g>
<g><path style="opacity:1" fill="#ababb9" d="M 341.5,227.5 C 341.833,228.167 342.167,228.833 342.5,229.5C 335.55,228.407 328.55,228.24 321.5,229C 314.973,232.552 312.64,238.052 314.5,245.5C 313.355,241.689 313.188,237.689 314,233.5C 315.376,232.295 316.542,230.962 317.5,229.5C 318.058,228.21 319.058,227.377 320.5,227C 327.679,226.179 334.679,226.345 341.5,227.5 Z"/></g>
<g><path style="opacity:1" fill="#dbdbe1" d="M 32.5,224.5 C 22.3194,224.173 12.3194,224.506 2.5,225.5C 1.35673,228.976 1.19007,232.642 2,236.5C 3.89207,237.617 4.72541,239.284 4.5,241.5C 3.52056,244.625 3.18723,247.958 3.5,251.5C 2.17896,247.767 2.17896,243.934 3.5,240C 2.29493,238.624 0.961599,237.458 -0.5,236.5C -0.5,232.833 -0.5,229.167 -0.5,225.5C 0.28913,225.217 0.955796,224.717 1.5,224C 12.0083,223.175 22.3416,223.341 32.5,224.5 Z"/></g>
<g><path style="opacity:1" fill="#848498" d="M 51.5,228.5 C 62.3464,228.172 73.0131,228.506 83.5,229.5C 73.1667,229.5 62.8333,229.5 52.5,229.5C 52.5,232.5 52.5,235.5 52.5,238.5C 53.8221,238.33 54.9887,238.663 56,239.5C 56.1667,242 56.3333,244.5 56.5,247C 56.4752,249.929 55.8086,252.429 54.5,254.5C 55.1031,249.381 54.4364,244.715 52.5,240.5C 50.3105,236.612 49.9772,232.612 51.5,228.5 Z"/></g>
<g><path style="opacity:1" fill="#7e7e92" d="M 170.5,229.5 C 180.987,228.506 191.654,228.172 202.5,228.5C 204.027,228.427 205.027,229.094 205.5,230.5C 193.884,229.542 182.217,229.209 170.5,229.5 Z"/></g>
<g><path style="opacity:1" fill="#dcdce1" d="M 276.5,227.5 C 275.713,229.104 274.38,229.771 272.5,229.5C 273.514,228.326 274.847,227.66 276.5,227.5 Z"/></g>
<g><path style="opacity:1" fill="#7c7c90" d="M 386.5,228.5 C 386.5,232.833 386.5,237.167 386.5,241.5C 384.901,241.768 383.568,241.434 382.5,240.5C 383.5,240.5 384.5,240.5 385.5,240.5C 385.5,236.833 385.5,233.167 385.5,229.5C 374.167,229.5 362.833,229.5 351.5,229.5C 351.5,233.167 351.5,236.833 351.5,240.5C 352.5,240.5 353.5,240.5 354.5,240.5C 353.432,241.434 352.099,241.768 350.5,241.5C 350.5,237.167 350.5,232.833 350.5,228.5C 362.5,228.5 374.5,228.5 386.5,228.5 Z"/></g>
<g><path style="opacity:1" fill="#61617a" d="M 83.5,229.5 C 83.8242,233.555 83.4909,237.555 82.5,241.5C 78.3481,239.252 74.0148,238.919 69.5,240.5C 68.5386,242.265 68.2053,244.265 68.5,246.5C 78.209,246.797 78.5423,247.63 69.5,249C 67.5969,253.226 68.7636,256.06 73,257.5C 74.3756,257.316 75.2089,256.649 75.5,255.5C 76.791,255.737 77.791,255.404 78.5,254.5C 79.609,254.443 80.609,254.11 81.5,253.5C 83.4228,257.029 84.0894,261.029 83.5,265.5C 73.1667,265.5 62.8333,265.5 52.5,265.5C 52.5,262.833 52.5,260.167 52.5,257.5C 53.1667,256.5 53.8333,255.5 54.5,254.5C 55.8086,252.429 56.4752,249.929 56.5,247C 56.3333,244.5 56.1667,242 56,239.5C 54.9887,238.663 53.8221,238.33 52.5,238.5C 52.5,235.5 52.5,232.5 52.5,229.5C 62.8333,229.5 73.1667,229.5 83.5,229.5 Z"/></g>
<g><path style="opacity:1" fill="#e0e0e4" d="M 134.5,227.5 C 132.923,232.046 133.256,236.379 135.5,240.5C 134.504,240.586 133.671,240.252 133,239.5C 132.833,237.5 132.667,235.5 132.5,233.5C 132.539,231.048 133.206,229.048 134.5,227.5 Z"/></g>
<g><path style="opacity:1" fill="#63637c" d="M 156.5,238.5 C 155.5,238.833 154.833,239.5 154.5,240.5C 153.191,242.571 152.525,245.071 152.5,248C 152.667,250.5 152.833,253 153,255.5C 154.828,256.752 156.661,256.752 158.5,255.5C 160.044,255.297 161.378,254.63 162.5,253.5C 163.491,257.445 163.824,261.445 163.5,265.5C 154.5,265.5 145.5,265.5 136.5,265.5C 137.16,259.837 137.826,254.17 138.5,248.5C 138.497,245.645 138.164,242.978 137.5,240.5C 135.657,236.813 134.99,232.813 135.5,228.5C 142.175,228.334 148.842,228.5 155.5,229C 156.451,232.057 156.784,235.223 156.5,238.5 Z"/></g>
<g><path style="opacity:1" fill="#63637c" d="M 170.5,229.5 C 182.217,229.209 193.884,229.542 205.5,230.5C 207.28,234.596 207.946,238.929 207.5,243.5C 205.748,243.418 204.748,244.251 204.5,246C 204.748,247.749 205.748,248.582 207.5,248.5C 207.973,249.906 208.973,250.573 210.5,250.5C 210.665,254.182 210.499,257.848 210,261.5C 208.855,262.636 207.688,263.636 206.5,264.5C 194.217,265.46 181.883,265.794 169.5,265.5C 169.5,262.833 169.5,260.167 169.5,257.5C 169.5,256.833 169.833,256.5 170.5,256.5C 171.117,256.389 171.617,256.056 172,255.5C 172.667,249.833 172.667,244.167 172,238.5C 171.329,237.748 170.496,237.414 169.5,237.5C 169.5,237.167 169.5,236.833 169.5,236.5C 169.198,233.941 169.532,231.607 170.5,229.5 Z M 189.5,238.5 C 191.167,238.5 192.833,238.5 194.5,238.5C 194.522,241.998 193.022,243.331 190,242.5C 189.51,241.207 189.343,239.873 189.5,238.5 Z M 190.5,250.5 C 193.297,250.967 194.631,252.633 194.5,255.5C 192.833,255.5 191.167,255.5 189.5,255.5C 189.366,253.708 189.699,252.042 190.5,250.5 Z"/></g>
<g><path style="opacity:1" fill="#63637c" d="M 253.5,231.5 C 255.527,232.861 257.194,234.527 258.5,236.5C 261.852,244.676 261.019,252.343 256,259.5C 254.549,261.464 252.716,262.797 250.5,263.5C 243.404,265.387 236.07,266.054 228.5,265.5C 226.967,263.755 224.967,262.755 222.5,262.5C 221.167,260.833 219.833,259.167 218.5,257.5C 212.642,239.227 219.142,229.56 238,228.5C 241.167,228.667 244.333,228.833 247.5,229C 249.287,230.319 251.287,231.152 253.5,231.5 Z M 241.5,240.5 C 243.843,244.392 244.009,248.392 242,252.5C 239.534,253.777 237.034,253.777 234.5,252.5C 232.9,248.412 233.234,244.578 235.5,241C 237.473,240.505 239.473,240.338 241.5,240.5 Z"/></g>
<g><path style="opacity:1" fill="#d2d2d9" d="M 252.5,229.5 C 256.5,230.833 259.167,233.5 260.5,237.5C 259.833,237.167 259.167,236.833 258.5,236.5C 257.194,234.527 255.527,232.861 253.5,231.5C 253.167,230.833 252.833,230.167 252.5,229.5 Z"/></g>
<g><path style="opacity:1" fill="#63637c" d="M 301.5,231.5 C 302.833,232.5 304.167,233.5 305.5,234.5C 307.94,240.173 308.94,246.173 308.5,252.5C 306.927,256.646 304.593,260.313 301.5,263.5C 293.709,265.317 285.709,265.984 277.5,265.5C 273.951,264.277 270.951,262.277 268.5,259.5C 268.446,257.368 267.446,256.035 265.5,255.5C 265.066,248.617 265.733,241.95 267.5,235.5C 270.702,233.132 274.035,230.965 277.5,229C 285.84,227.735 293.84,228.569 301.5,231.5 Z M 289.5,240.5 C 291.803,244.586 292.136,248.919 290.5,253.5C 288.143,253.663 285.81,253.497 283.5,253C 282.205,249.214 282.205,245.38 283.5,241.5C 285.409,240.652 287.409,240.318 289.5,240.5 Z"/></g>
<g><path style="opacity:1" fill="#d1d1d8" d="M 297.5,227.5 C 302.695,228.701 306.362,231.701 308.5,236.5C 307.5,235.833 306.5,235.167 305.5,234.5C 304.167,233.5 302.833,232.5 301.5,231.5C 299.959,230.333 298.625,229 297.5,227.5 Z"/></g>
<g><path style="opacity:1" fill="#c8c8d1" d="M 350.5,227.5 C 362.678,227.172 374.678,227.505 386.5,228.5C 374.5,228.5 362.5,228.5 350.5,228.5C 350.5,232.833 350.5,237.167 350.5,241.5C 351.568,242.434 352.901,242.768 354.5,242.5C 352.777,243.807 350.943,243.807 349,242.5C 348.833,240 348.667,237.5 348.5,235C 348.525,232.071 349.191,229.571 350.5,227.5 Z"/></g>
<g><path style="opacity:1" fill="#62627b" d="M 382.5,240.5 C 381.833,240.167 381.167,239.833 380.5,239.5C 380.5,239.167 380.5,238.833 380.5,238.5C 379.081,237.549 377.415,237.216 375.5,237.5C 375.178,243.358 375.511,249.025 376.5,254.5C 378.22,257.889 378.887,261.556 378.5,265.5C 371.833,265.5 365.167,265.5 358.5,265.5C 358.911,262.338 359.745,259.338 361,256.5C 361.818,250.651 361.652,244.985 360.5,239.5C 360.53,238.503 360.03,237.836 359,237.5C 357.019,237.899 355.519,238.899 354.5,240.5C 353.5,240.5 352.5,240.5 351.5,240.5C 351.5,236.833 351.5,233.167 351.5,229.5C 362.833,229.5 374.167,229.5 385.5,229.5C 385.5,233.167 385.5,236.833 385.5,240.5C 384.5,240.5 383.5,240.5 382.5,240.5 Z"/></g>
<g><path style="opacity:1" fill="#62627b" d="M 342.5,229.5 C 342.842,230.338 343.508,230.672 344.5,230.5C 344.5,233.167 344.5,235.833 344.5,238.5C 340.885,238.845 337.552,238.178 334.5,236.5C 329.155,234.67 326.988,236.67 328,242.5C 332.992,242.993 337.825,243.993 342.5,245.5C 347.811,251.37 347.811,257.37 342.5,263.5C 334.377,265.531 326.044,266.031 317.5,265C 315.686,262.519 315.02,259.685 315.5,256.5C 317.5,256.5 319.5,256.5 321.5,256.5C 322.391,257.11 323.391,257.443 324.5,257.5C 324.328,258.492 324.662,259.158 325.5,259.5C 328.102,260.969 330.269,260.302 332,257.5C 332.667,255.5 332.667,253.5 332,251.5C 327.934,250.536 323.767,250.203 319.5,250.5C 318.833,250.5 318.167,250.5 317.5,250.5C 316.752,248.668 315.752,247.001 314.5,245.5C 312.64,238.052 314.973,232.552 321.5,229C 328.55,228.24 335.55,228.407 342.5,229.5 Z"/></g>
<g><path style="opacity:1" fill="#9292a3" d="M 26.5,243.5 C 25.1155,244.801 23.6155,244.801 22,243.5C 21.5017,240.183 21.335,236.85 21.5,233.5C 27.9857,231.835 30.819,234.168 30,240.5C 29.5776,242.426 28.4109,243.426 26.5,243.5 Z M 27.5,241.5 C 27.8495,238.955 27.0162,236.955 25,235.5C 22.5326,238.994 23.366,240.994 27.5,241.5 Z"/></g>
<g><path style="opacity:1" fill="#d4d4db" d="M 223.5,229.5 C 220.805,232.526 218.138,235.526 215.5,238.5C 216.768,234.233 219.435,231.233 223.5,229.5 Z"/></g>
<g><path style="opacity:1" fill="#838397" d="M 205.5,230.5 C 207.062,230.733 208.395,231.4 209.5,232.5C 209.884,236.489 209.217,240.155 207.5,243.5C 207.946,238.929 207.28,234.596 205.5,230.5 Z"/></g>
<g><path style="opacity:1" fill="#c8c8d0" d="M 341.5,227.5 C 343.679,227.84 345.512,228.84 347,230.5C 347.667,233.5 347.667,236.5 347,239.5C 346.329,240.252 345.496,240.586 344.5,240.5C 341.941,240.802 339.607,240.468 337.5,239.5C 340.167,239.5 342.833,239.5 345.5,239.5C 345.81,236.287 345.477,233.287 344.5,230.5C 343.508,230.672 342.842,230.338 342.5,229.5C 342.167,228.833 341.833,228.167 341.5,227.5 Z"/></g>
<g><path style="opacity:1" fill="#7e7e93" d="M 44.5,231.5 C 47.0794,235.47 47.0794,239.47 44.5,243.5C 44.5,239.5 44.5,235.5 44.5,231.5 Z"/></g>
<g><path style="opacity:1" fill="#9e9eae" d="M 243.5,240.5 C 242.833,240.5 242.167,240.5 241.5,240.5C 238.531,238.994 235.698,239.327 233,241.5C 232.502,244.817 232.335,248.15 232.5,251.5C 231.252,250.666 230.585,249.333 230.5,247.5C 229.88,241.46 232.546,238.127 238.5,237.5C 240.692,237.757 242.359,238.757 243.5,240.5 Z"/></g>
<g><path style="opacity:1" fill="#8f8fa1" d="M 290.5,239.5 C 287.391,239.264 284.391,239.597 281.5,240.5C 282.148,238.414 283.648,237.414 286,237.5C 287.876,237.525 289.376,238.191 290.5,239.5 Z"/></g>
<g><path style="opacity:1" fill="#868699" d="M 344.5,230.5 C 345.477,233.287 345.81,236.287 345.5,239.5C 342.833,239.5 340.167,239.5 337.5,239.5C 336.167,238.833 335.167,237.833 334.5,236.5C 337.552,238.178 340.885,238.845 344.5,238.5C 344.5,235.833 344.5,233.167 344.5,230.5 Z"/></g>
<g><path style="opacity:1" fill="#a2a2b1" d="M 195.5,237.5 C 193.265,237.205 191.265,237.539 189.5,238.5C 187.414,242.659 188.748,244.659 193.5,244.5C 191.735,245.461 189.735,245.795 187.5,245.5C 185.495,237.5 188.161,234.834 195.5,237.5 Z"/></g>
<g><path style="opacity:1" fill="#d8d8de" d="M 195.5,237.5 C 195.834,240.188 195.168,242.521 193.5,244.5C 188.748,244.659 187.414,242.659 189.5,238.5C 191.265,237.539 193.265,237.205 195.5,237.5 Z M 189.5,238.5 C 189.343,239.873 189.51,241.207 190,242.5C 193.022,243.331 194.522,241.998 194.5,238.5C 192.833,238.5 191.167,238.5 189.5,238.5 Z"/></g>
<g><path style="opacity:1" fill="#dfdfe4" d="M 334.5,236.5 C 335.167,237.833 336.167,238.833 337.5,239.5C 339.607,240.468 341.941,240.802 344.5,240.5C 343.167,241.167 341.833,241.833 340.5,242.5C 336.833,242.5 333.167,242.5 329.5,242.5C 328.425,238.062 330.092,236.062 334.5,236.5 Z M 331.5,238.5 C 333.103,238.312 334.437,238.812 335.5,240C 333.537,240.844 332.204,240.344 331.5,238.5 Z"/></g>
<g><path style="opacity:1" fill="#8a8a9c" d="M 380.5,238.5 C 379.167,238.5 377.833,238.5 376.5,238.5C 376.5,243.833 376.5,249.167 376.5,254.5C 375.511,249.025 375.178,243.358 375.5,237.5C 377.415,237.216 379.081,237.549 380.5,238.5 Z"/></g>
<g><path style="opacity:1" fill="#818195" d="M 2.5,225.5 C 14.5046,225.333 26.5046,225.5 38.5,226C 39.9423,226.377 40.9423,227.21 41.5,228.5C 28.5969,226.291 15.5969,225.958 2.5,227.5C 4.60723,233.269 5.94056,239.269 6.5,245.5C 6.48303,248.913 5.81637,251.913 4.5,254.5C 4.5,250.167 4.5,245.833 4.5,241.5C 4.72541,239.284 3.89207,237.617 2,236.5C 1.19007,232.642 1.35673,228.976 2.5,225.5 Z"/></g>
<g><path style="opacity:1" fill="#d1d1d8" d="M 27.5,241.5 C 27.1667,242.167 26.8333,242.833 26.5,243.5C 25.1779,243.67 24.0113,243.337 23,242.5C 22.5026,239.854 22.3359,237.187 22.5,234.5C 28.2395,234.018 29.9061,236.352 27.5,241.5 Z M 27.5,241.5 C 27.8495,238.955 27.0162,236.955 25,235.5C 22.5326,238.994 23.366,240.994 27.5,241.5 Z"/></g>
<g><path style="opacity:1" fill="#9595a6" d="M 83.5,229.5 C 84.4834,233.298 84.8168,237.298 84.5,241.5C 84.0831,242.124 83.4164,242.457 82.5,242.5C 80.4229,241.063 78.0895,240.396 75.5,240.5C 74.8333,240.5 74.1667,240.5 73.5,240.5C 71.3141,240.511 70.4808,241.511 71,243.5C 73.277,244.117 75.4437,244.784 77.5,245.5C 75.1432,245.663 72.8098,245.497 70.5,245C 69.6198,243.644 69.2865,242.144 69.5,240.5C 74.0148,238.919 78.3481,239.252 82.5,241.5C 83.4909,237.555 83.8242,233.555 83.5,229.5 Z"/></g>
<g><path style="opacity:1" fill="#8b8b9d" d="M 334.5,236.5 C 330.092,236.062 328.425,238.062 329.5,242.5C 333.167,242.5 336.833,242.5 340.5,242.5C 341.167,243.5 341.833,244.5 342.5,245.5C 337.825,243.993 332.992,242.993 328,242.5C 326.988,236.67 329.155,234.67 334.5,236.5 Z"/></g>
<g><path style="opacity:1" fill="#dfdfe5" d="M 156.5,227.5 C 157.794,229.048 158.461,231.048 158.5,233.5C 156.276,239.794 155.276,246.461 155.5,253.5C 156.5,253.5 157.5,253.5 158.5,253.5C 158.5,253.833 158.5,254.167 158.5,254.5C 157.167,254.5 155.833,254.5 154.5,254.5C 154.5,249.833 154.5,245.167 154.5,240.5C 154.833,239.5 155.5,238.833 156.5,238.5C 157.787,234.935 157.787,231.268 156.5,227.5 Z"/></g>
<g><path style="opacity:1" fill="#9e9eae" d="M 169.5,237.5 C 170.496,237.414 171.329,237.748 172,238.5C 172.667,244.167 172.667,249.833 172,255.5C 171.617,256.056 171.117,256.389 170.5,256.5C 172.15,249.944 171.817,243.611 169.5,237.5 Z"/></g>
<g><path style="opacity:1" fill="#9d9dad" d="M 195.5,237.5 C 196.622,239.288 196.789,241.288 196,243.5C 195.329,244.252 194.496,244.586 193.5,244.5C 195.168,242.521 195.834,240.188 195.5,237.5 Z"/></g>
<g><path style="opacity:1" fill="#b3b3bf" d="M 360.5,239.5 C 361.652,244.985 361.818,250.651 361,256.5C 359.745,259.338 358.911,262.338 358.5,265.5C 365.313,266.491 372.313,266.825 379.5,266.5C 379.5,266.833 379.5,267.167 379.5,267.5C 372.167,267.5 364.833,267.5 357.5,267.5C 355.766,262.828 356.266,258.495 359,254.5C 359.499,249.511 359.666,244.511 359.5,239.5C 358.209,239.263 357.209,239.596 356.5,240.5C 356.167,241.5 355.5,242.167 354.5,242.5C 352.901,242.768 351.568,242.434 350.5,241.5C 352.099,241.768 353.432,241.434 354.5,240.5C 355.519,238.899 357.019,237.899 359,237.5C 360.03,237.836 360.53,238.503 360.5,239.5 Z"/></g>
<g><path style="opacity:1" fill="#b8b8c3" d="M 380.5,238.5 C 380.5,238.833 380.5,239.167 380.5,239.5C 379.5,239.5 378.5,239.5 377.5,239.5C 377.5,244.5 377.5,249.5 377.5,254.5C 377.167,254.5 376.833,254.5 376.5,254.5C 376.5,249.167 376.5,243.833 376.5,238.5C 377.833,238.5 379.167,238.5 380.5,238.5 Z"/></g>
<g><path style="opacity:1" fill="#d7d7de" d="M 52.5,240.5 C 54.4364,244.715 55.1031,249.381 54.5,254.5C 52.9826,254.511 51.8159,255.177 51,256.5C 50.1925,260.027 50.3592,263.36 51.5,266.5C 51.5,266.833 51.5,267.167 51.5,267.5C 50.2057,265.952 49.5391,263.952 49.5,261.5C 49.6667,259.5 49.8333,257.5 50,255.5C 51.353,254.315 52.5197,252.981 53.5,251.5C 52.73,247.752 52.3966,244.085 52.5,240.5 Z"/></g>
<g><path style="opacity:1" fill="#d7d7dd" d="M 241.5,240.5 C 242.167,240.5 242.833,240.5 243.5,240.5C 244.992,244.905 244.825,249.238 243,253.5C 240.281,254.444 237.448,254.777 234.5,254.5C 233.094,254.027 232.427,253.027 232.5,251.5C 232.335,248.15 232.502,244.817 233,241.5C 235.698,239.327 238.531,238.994 241.5,240.5 Z M 241.5,240.5 C 239.473,240.338 237.473,240.505 235.5,241C 233.234,244.578 232.9,248.412 234.5,252.5C 237.034,253.777 239.534,253.777 242,252.5C 244.009,248.392 243.843,244.392 241.5,240.5 Z"/></g>
<g><path style="opacity:1" fill="#d0d0d8" d="M 272.5,229.5 C 270.781,231.544 269.114,233.544 267.5,235.5C 266.034,236.347 265.2,237.68 265,239.5C 264.183,245.016 264.349,250.35 265.5,255.5C 265.833,256.833 266.167,258.167 266.5,259.5C 264.691,257.901 263.358,255.901 262.5,253.5C 261.824,254.602 261.158,255.602 260.5,256.5C 261.833,250.167 261.833,243.833 260.5,237.5C 261.158,238.398 261.824,239.398 262.5,240.5C 264.251,235.288 267.584,231.621 272.5,229.5 Z"/></g>
<g><path style="opacity:1" fill="#9393a4" d="M 267.5,235.5 C 265.733,241.95 265.066,248.617 265.5,255.5C 264.349,250.35 264.183,245.016 265,239.5C 265.2,237.68 266.034,236.347 267.5,235.5 Z"/></g>
<g><path style="opacity:1" fill="#737389" d="M 69.5,240.5 C 69.2865,242.144 69.6198,243.644 70.5,245C 72.8098,245.497 75.1432,245.663 77.5,245.5C 77.5,246.833 77.5,248.167 77.5,249.5C 75.1667,249.5 72.8333,249.5 70.5,249.5C 70.5,251.5 70.5,253.5 70.5,255.5C 72.1667,255.5 73.8333,255.5 75.5,255.5C 75.2089,256.649 74.3756,257.316 73,257.5C 68.7636,256.06 67.5969,253.226 69.5,249C 78.5423,247.63 78.209,246.797 68.5,246.5C 68.2053,244.265 68.5386,242.265 69.5,240.5 Z"/></g>
<g><path style="opacity:1" fill="#a8a7b6" d="M 252.5,229.5 C 252.833,230.167 253.167,230.833 253.5,231.5C 251.287,231.152 249.287,230.319 247.5,229C 244.333,228.833 241.167,228.667 238,228.5C 219.142,229.56 212.642,239.227 218.5,257.5C 217.833,257.5 217.167,257.5 216.5,257.5C 215.582,251.225 215.249,244.892 215.5,238.5C 218.138,235.526 220.805,232.526 223.5,229.5C 224.683,228.496 226.016,227.662 227.5,227C 234.5,226.333 241.5,226.333 248.5,227C 250.066,227.608 251.4,228.442 252.5,229.5 Z"/></g>
<g><path style="opacity:1" fill="#c4c4ce" d="M 290.5,239.5 C 290.5,239.833 290.5,240.167 290.5,240.5C 290.167,240.5 289.833,240.5 289.5,240.5C 287.409,240.318 285.409,240.652 283.5,241.5C 282.205,245.38 282.205,249.214 283.5,253C 285.81,253.497 288.143,253.663 290.5,253.5C 288.052,254.473 285.385,254.806 282.5,254.5C 280.348,252.393 279.348,249.726 279.5,246.5C 279.363,244.159 280.03,242.159 281.5,240.5C 284.391,239.597 287.391,239.264 290.5,239.5 Z"/></g>
<g><path style="opacity:1" fill="#858599" d="M 99.5,228.5 C 106.022,228.177 112.355,228.51 118.5,229.5C 112.167,229.5 105.833,229.5 99.5,229.5C 97.5851,238.637 94.5851,247.304 90.5,255.5C 89.513,258.768 89.1796,262.102 89.5,265.5C 93.5,265.5 97.5,265.5 101.5,265.5C 97.03,266.486 92.3633,266.819 87.5,266.5C 87.1758,262.445 87.5091,258.445 88.5,254.5C 89.4776,254.023 90.3109,253.357 91,252.5C 93.6068,244.847 96.1068,237.18 98.5,229.5C 98.5,228.833 98.8333,228.5 99.5,228.5 Z"/></g>
<g><path style="opacity:1" fill="#9c9cab" d="M 207.5,243.5 C 206.167,245.167 206.167,246.833 207.5,248.5C 205.748,248.582 204.748,247.749 204.5,246C 204.748,244.251 205.748,243.418 207.5,243.5 Z"/></g>
<g><path style="opacity:1" fill="#dcdce2" d="M 289.5,240.5 C 289.833,240.5 290.167,240.5 290.5,240.5C 292.959,241.874 293.959,244.04 293.5,247C 293.959,249.96 292.959,252.126 290.5,253.5C 292.136,248.919 291.803,244.586 289.5,240.5 Z"/></g>
<g><path style="opacity:1" fill="#9090a2" d="M 305.5,234.5 C 306.5,235.167 307.5,235.833 308.5,236.5C 309.636,241.985 309.636,247.319 308.5,252.5C 308.94,246.173 307.94,240.173 305.5,234.5 Z"/></g>
<g><path style="opacity:1" fill="#838397" d="M 196.5,255.5 C 196.503,250.185 193.836,248.185 188.5,249.5C 188.5,252.167 188.5,254.833 188.5,257.5C 190.167,257.5 191.833,257.5 193.5,257.5C 191.735,258.461 189.735,258.795 187.5,258.5C 187.5,255.167 187.5,251.833 187.5,248.5C 190.187,248.336 192.854,248.503 195.5,249C 197.608,251.016 197.942,253.183 196.5,255.5 Z M 190.5,250.5 C 189.699,252.042 189.366,253.708 189.5,255.5C 191.167,255.5 192.833,255.5 194.5,255.5C 194.631,252.633 193.297,250.967 190.5,250.5 Z"/></g>
<g><path style="opacity:1" fill="#d8d8de" d="M 209.5,232.5 C 211.026,233.492 211.693,234.992 211.5,237C 210.814,240.684 209.981,244.184 209,247.5C 210.512,248.257 211.846,249.257 213,250.5C 213.189,246.233 214.023,242.233 215.5,238.5C 215.249,244.892 215.582,251.225 216.5,257.5C 215.542,257.047 214.708,256.381 214,255.5C 213.667,257.5 213.333,259.5 213,261.5C 212.617,262.056 212.117,262.389 211.5,262.5C 212.412,258.869 212.579,255.203 212,251.5C 211.617,250.944 211.117,250.611 210.5,250.5C 208.973,250.573 207.973,249.906 207.5,248.5C 206.167,246.833 206.167,245.167 207.5,243.5C 209.217,240.155 209.884,236.489 209.5,232.5 Z"/></g>
<g><path style="opacity:1" fill="#d9d9df" d="M 84.5,227.5 C 85.8086,229.571 86.4752,232.071 86.5,235C 86.3333,237.5 86.1667,240 86,242.5C 83.8526,243.113 81.686,243.779 79.5,244.5C 80.232,246.961 80.5653,249.294 80.5,251.5C 79.8333,252.5 79.1667,253.5 78.5,254.5C 76.2646,254.795 74.2646,254.461 72.5,253.5C 71.596,252.791 71.2627,251.791 71.5,250.5C 73.8333,250.5 76.1667,250.5 78.5,250.5C 78.7845,248.585 78.4511,246.919 77.5,245.5C 75.4437,244.784 73.277,244.117 71,243.5C 70.4808,241.511 71.3141,240.511 73.5,240.5C 72.8389,243.97 74.1722,244.47 77.5,242C 76.5842,241.722 75.9175,241.222 75.5,240.5C 78.0895,240.396 80.4229,241.063 82.5,242.5C 83.4164,242.457 84.0831,242.124 84.5,241.5C 85.7973,236.934 85.7973,232.267 84.5,227.5 Z M 73.5,240.5 C 74.1667,240.5 74.8333,240.5 75.5,240.5C 75.9175,241.222 76.5842,241.722 77.5,242C 74.1722,244.47 72.8389,243.97 73.5,240.5 Z M 72.5,253.5 C 72.4701,252.503 72.9701,251.836 74,251.5C 78.3143,253.094 77.8143,253.761 72.5,253.5 Z"/></g>
<g><path style="opacity:1" fill="#aeaeba" d="M 154.5,240.5 C 154.5,245.167 154.5,249.833 154.5,254.5C 155.833,254.5 157.167,254.5 158.5,254.5C 158.5,254.833 158.5,255.167 158.5,255.5C 156.661,256.752 154.828,256.752 153,255.5C 152.833,253 152.667,250.5 152.5,248C 152.525,245.071 153.191,242.571 154.5,240.5 Z"/></g>
<g><path style="opacity:1" fill="#76768c" d="M 319.5,250.5 C 323.767,250.203 327.934,250.536 332,251.5C 332.667,253.5 332.667,255.5 332,257.5C 330.269,260.302 328.102,260.969 325.5,259.5C 327.38,259.771 328.713,259.104 329.5,257.5C 330.434,256.432 330.768,255.099 330.5,253.5C 327.126,253.326 323.793,252.826 320.5,252C 319.944,251.617 319.611,251.117 319.5,250.5 Z"/></g>
<g><path style="opacity:1" fill="#c8c8d1" d="M 196.5,255.5 C 195.71,256.401 194.71,257.068 193.5,257.5C 191.833,257.5 190.167,257.5 188.5,257.5C 188.5,254.833 188.5,252.167 188.5,249.5C 193.836,248.185 196.503,250.185 196.5,255.5 Z M 190.5,250.5 C 189.699,252.042 189.366,253.708 189.5,255.5C 191.167,255.5 192.833,255.5 194.5,255.5C 194.631,252.633 193.297,250.967 190.5,250.5 Z"/></g>
<g><path style="opacity:1" fill="#9c9cac" d="M 39.5,251.5 C 40.8333,252.5 42.1667,253.5 43.5,254.5C 43.5,255.167 43.5,255.833 43.5,256.5C 41.4131,255.415 40.0798,253.749 39.5,251.5 Z"/></g>
<g><path style="opacity:1" fill="#9898a9" d="M 290.5,240.5 C 290.5,240.167 290.5,239.833 290.5,239.5C 292.017,239.511 293.184,240.177 294,241.5C 297.023,252.629 293.19,256.962 282.5,254.5C 285.385,254.806 288.052,254.473 290.5,253.5C 292.959,252.126 293.959,249.96 293.5,247C 293.959,244.04 292.959,241.874 290.5,240.5 Z"/></g>
<g><path style="opacity:1" fill="#9393a4" d="M 243.5,240.5 C 244.117,240.611 244.617,240.944 245,241.5C 245.667,245.5 245.667,249.5 245,253.5C 241.466,256.692 237.966,257.025 234.5,254.5C 237.448,254.777 240.281,254.444 243,253.5C 244.825,249.238 244.992,244.905 243.5,240.5 Z"/></g>
<g><path style="opacity:1" fill="#d2d2d9" d="M 317.5,250.5 C 318.167,250.5 318.833,250.5 319.5,250.5C 319.611,251.117 319.944,251.617 320.5,252C 323.793,252.826 327.126,253.326 330.5,253.5C 330.768,255.099 330.434,256.432 329.5,257.5C 327.833,257.5 326.167,257.5 324.5,257.5C 323.391,257.443 322.391,257.11 321.5,256.5C 319.052,255.527 316.385,255.194 313.5,255.5C 313.336,258.187 313.503,260.854 314,263.5C 315.264,265.607 317.097,266.607 319.5,266.5C 319.5,266.833 319.5,267.167 319.5,267.5C 316.675,267.919 314.509,266.919 313,264.5C 312.333,261.167 312.333,257.833 313,254.5C 315.069,253.736 317.236,253.236 319.5,253C 318.619,252.292 317.953,251.458 317.5,250.5 Z M 322.5,254.5 C 322.56,253.957 322.893,253.624 323.5,253.5C 325.167,254.333 326.833,255.167 328.5,256C 326.16,256.748 324.16,256.248 322.5,254.5 Z"/></g>
<g><path style="opacity:1" fill="#adadba" d="M 77.5,245.5 C 78.4511,246.919 78.7845,248.585 78.5,250.5C 76.1667,250.5 73.8333,250.5 71.5,250.5C 71.2627,251.791 71.596,252.791 72.5,253.5C 74.2646,254.461 76.2646,254.795 78.5,254.5C 77.791,255.404 76.791,255.737 75.5,255.5C 73.8333,255.5 72.1667,255.5 70.5,255.5C 70.5,253.5 70.5,251.5 70.5,249.5C 72.8333,249.5 75.1667,249.5 77.5,249.5C 77.5,248.167 77.5,246.833 77.5,245.5 Z"/></g>
<g><path style="opacity:1" fill="#dbdbe2" d="M 43.5,254.5 C 45.2624,255.262 46.2624,256.596 46.5,258.5C 45.5,257.833 44.5,257.167 43.5,256.5C 43.5,255.833 43.5,255.167 43.5,254.5 Z"/></g>
<g><path style="opacity:1" fill="#9c9cac" d="M 210.5,250.5 C 211.117,250.611 211.617,250.944 212,251.5C 212.579,255.203 212.412,258.869 211.5,262.5C 211.5,263.833 210.833,264.5 209.5,264.5C 208.5,264.5 207.5,264.5 206.5,264.5C 207.688,263.636 208.855,262.636 210,261.5C 210.499,257.848 210.665,254.182 210.5,250.5 Z"/></g>
<g><path style="opacity:1" fill="#9b9bab" d="M 26.5,260.5 C 25.8592,258.958 24.8592,257.624 23.5,256.5C 22.8328,259.977 22.1661,263.311 21.5,266.5C 21.5,262.167 21.5,257.833 21.5,253.5C 22.5417,252.209 23.7083,252.209 25,253.5C 25.977,255.74 26.477,258.073 26.5,260.5 Z"/></g>
<g><path style="opacity:1" fill="#dedee4" d="M 135.5,240.5 C 136.167,240.5 136.833,240.5 137.5,240.5C 137.5,245.167 137.5,249.833 137.5,254.5C 135.983,254.511 134.816,255.177 134,256.5C 133.502,259.817 133.335,263.15 133.5,266.5C 132.833,266.5 132.167,266.5 131.5,266.5C 131.5,262.833 131.5,259.167 131.5,255.5C 133.544,254.969 135.211,253.802 136.5,252C 135.734,248.113 135.401,244.28 135.5,240.5 Z"/></g>
<g><path style="opacity:1" fill="#9696a7" d="M 265.5,255.5 C 267.446,256.035 268.446,257.368 268.5,259.5C 267.833,259.5 267.167,259.5 266.5,259.5C 266.167,258.167 265.833,256.833 265.5,255.5 Z"/></g>
<g><path style="opacity:1" fill="#cacad3" d="M 119.5,227.5 C 120.497,227.47 121.164,227.97 121.5,229C 123.744,236.144 125.911,243.31 128,250.5C 129.802,251.789 130.969,253.456 131.5,255.5C 131.5,259.167 131.5,262.833 131.5,266.5C 125.987,267.816 120.32,267.816 114.5,266.5C 113.754,265.264 113.421,263.93 113.5,262.5C 110.5,262.5 107.5,262.5 104.5,262.5C 104.714,264.144 104.38,265.644 103.5,267C 86.1699,267.5 68.8365,267.667 51.5,267.5C 51.5,267.167 51.5,266.833 51.5,266.5C 62.5,266.5 73.5,266.5 84.5,266.5C 84.5,261.833 84.5,257.167 84.5,252.5C 83.209,252.263 82.209,252.596 81.5,253.5C 80.609,254.11 79.609,254.443 78.5,254.5C 79.1667,253.5 79.8333,252.5 80.5,251.5C 83.5884,252.068 86.5884,252.068 89.5,251.5C 91.6964,244.35 94.0297,237.35 96.5,230.5C 97.1667,230.167 97.8333,229.833 98.5,229.5C 96.1068,237.18 93.6068,244.847 91,252.5C 90.3109,253.357 89.4776,254.023 88.5,254.5C 87.5091,258.445 87.1758,262.445 87.5,266.5C 92.3633,266.819 97.03,266.486 101.5,265.5C 102.404,264.791 102.737,263.791 102.5,262.5C 106.198,260.494 110.198,259.994 114.5,261C 115.099,262.622 115.766,264.122 116.5,265.5C 120.97,266.486 125.637,266.819 130.5,266.5C 131.529,260.544 130.029,255.544 126,251.5C 125.434,249.277 124.6,247.277 123.5,245.5C 123.5,244.167 123.5,242.833 123.5,241.5C 123.277,237.838 122.277,234.505 120.5,231.5C 120.5,231.167 120.5,230.833 120.5,230.5C 120.443,229.391 120.11,228.391 119.5,227.5 Z M 108.5,244.5 C 110.074,246.102 110.741,248.102 110.5,250.5C 109.5,250.5 108.5,250.5 107.5,250.5C 107.517,248.435 107.85,246.435 108.5,244.5 Z"/></g>
<g><path style="opacity:1" fill="#a4a4b2" d="M 120.5,231.5 C 122.277,234.505 123.277,237.838 123.5,241.5C 121.723,238.495 120.723,235.162 120.5,231.5 Z"/></g>
<g><path style="opacity:1" fill="#62627b" d="M 118.5,229.5 C 119.167,229.833 119.833,230.167 120.5,230.5C 120.5,230.833 120.5,231.167 120.5,231.5C 120.723,235.162 121.723,238.495 123.5,241.5C 123.5,242.833 123.5,244.167 123.5,245.5C 123.094,249.688 124.594,253.021 128,255.5C 128.498,258.817 128.665,262.15 128.5,265.5C 124.5,265.5 120.5,265.5 116.5,265.5C 116.739,263.533 116.406,261.699 115.5,260C 111.5,259.333 107.5,259.333 103.5,260C 102.748,260.671 102.414,261.504 102.5,262.5C 102.737,263.791 102.404,264.791 101.5,265.5C 97.5,265.5 93.5,265.5 89.5,265.5C 89.1796,262.102 89.513,258.768 90.5,255.5C 94.5851,247.304 97.5851,238.637 99.5,229.5C 105.833,229.5 112.167,229.5 118.5,229.5 Z M 108.5,244.5 C 107.85,246.435 107.517,248.435 107.5,250.5C 108.5,250.5 109.5,250.5 110.5,250.5C 110.741,248.102 110.074,246.102 108.5,244.5 Z"/></g>
<g><path style="opacity:1" fill="#7c7c91" d="M 105.5,246.5 C 104.735,251.906 107.069,253.906 112.5,252.5C 110.052,253.473 107.385,253.806 104.5,253.5C 104.198,250.941 104.532,248.607 105.5,246.5 Z"/></g>
<g><path style="opacity:1" fill="#c3c3cc" d="M 112.5,252.5 C 107.069,253.906 104.735,251.906 105.5,246.5C 105.5,246.167 105.5,245.833 105.5,245.5C 106.6,243.723 107.434,241.723 108,239.5C 108.718,238.549 109.551,238.383 110.5,239C 111.531,243.409 112.198,247.909 112.5,252.5 Z M 108.5,244.5 C 107.85,246.435 107.517,248.435 107.5,250.5C 108.5,250.5 109.5,250.5 110.5,250.5C 110.741,248.102 110.074,246.102 108.5,244.5 Z"/></g>
<g><path style="opacity:1" fill="#848497" d="M 112.5,252.5 C 112.198,247.909 111.531,243.409 110.5,239C 109.551,238.383 108.718,238.549 108,239.5C 107.434,241.723 106.6,243.723 105.5,245.5C 105.523,243.073 106.023,240.74 107,238.5C 108.388,237.446 109.888,237.28 111.5,238C 112.367,241.754 113.034,245.587 113.5,249.5C 113.48,250.726 113.147,251.726 112.5,252.5 Z"/></g>
<g><path style="opacity:1" fill="#a1a1b0" d="M 324.5,257.5 C 326.167,257.5 327.833,257.5 329.5,257.5C 328.713,259.104 327.38,259.771 325.5,259.5C 324.662,259.158 324.328,258.492 324.5,257.5 Z"/></g>
<g><path style="opacity:1" fill="#d2d2d9" d="M 386.5,228.5 C 387.167,228.5 387.833,228.5 388.5,228.5C 388.5,229.167 388.833,229.5 389.5,229.5C 389.5,233.5 389.5,237.5 389.5,241.5C 385.92,244.322 382.587,243.989 379.5,240.5C 378.339,244.795 378.172,249.129 379,253.5C 381.034,255.698 381.868,258.364 381.5,261.5C 381.461,263.952 380.794,265.952 379.5,267.5C 379.5,267.167 379.5,266.833 379.5,266.5C 380.01,262.187 379.343,258.187 377.5,254.5C 377.5,249.5 377.5,244.5 377.5,239.5C 378.5,239.5 379.5,239.5 380.5,239.5C 381.167,239.833 381.833,240.167 382.5,240.5C 383.568,241.434 384.901,241.768 386.5,241.5C 386.5,237.167 386.5,232.833 386.5,228.5 Z"/></g>
<g><path style="opacity:1" fill="#a8a8b5" d="M 54.5,254.5 C 53.8333,255.5 53.1667,256.5 52.5,257.5C 51.5233,260.287 51.19,263.287 51.5,266.5C 50.3592,263.36 50.1925,260.027 51,256.5C 51.8159,255.177 52.9826,254.511 54.5,254.5 Z"/></g>
<g><path style="opacity:1" fill="#a09faf" d="M 258.5,236.5 C 259.167,236.833 259.833,237.167 260.5,237.5C 261.833,243.833 261.833,250.167 260.5,256.5C 258.177,259.126 255.843,261.793 253.5,264.5C 252.5,264.5 251.5,264.5 250.5,264.5C 250.5,264.167 250.5,263.833 250.5,263.5C 252.716,262.797 254.549,261.464 256,259.5C 261.019,252.343 261.852,244.676 258.5,236.5 Z"/></g>
<g><path style="opacity:1" fill="#77778d" d="M 360.5,239.5 C 361.652,244.985 361.818,250.651 361,256.5C 359.745,259.338 358.911,262.338 358.5,265.5C 356.867,261.909 357.367,258.576 360,255.5C 360.499,250.177 360.666,244.844 360.5,239.5 Z"/></g>
<g><path style="opacity:1" fill="#9191a3" d="M 116.5,265.5 C 115.766,264.122 115.099,262.622 114.5,261C 110.198,259.994 106.198,260.494 102.5,262.5C 102.414,261.504 102.748,260.671 103.5,260C 107.5,259.333 111.5,259.333 115.5,260C 116.406,261.699 116.739,263.533 116.5,265.5 Z"/></g>
<g><path style="opacity:1" fill="#dbdbe1" d="M 260.5,256.5 C 259.55,260.413 257.217,263.08 253.5,264.5C 255.843,261.793 258.177,259.126 260.5,256.5 Z"/></g>
<g><path style="opacity:1" fill="#c9c9d2" d="M 216.5,257.5 C 217.167,257.5 217.833,257.5 218.5,257.5C 219.833,259.167 221.167,260.833 222.5,262.5C 224.033,264.245 226.033,265.245 228.5,265.5C 234.987,266.654 241.654,266.821 248.5,266C 249.044,265.283 249.711,264.783 250.5,264.5C 251.5,264.5 252.5,264.5 253.5,264.5C 252.571,265.315 251.571,266.148 250.5,267C 247.964,267.186 245.631,267.686 243.5,268.5C 239.833,268.5 236.167,268.5 232.5,268.5C 227.054,267.695 222.22,265.362 218,261.5C 217.209,260.255 216.709,258.922 216.5,257.5 Z"/></g>
<g><path style="opacity:1" fill="#c5c5cf" d="M 340.5,242.5 C 344.417,243.248 346.917,245.582 348,249.5C 350.058,259.574 346.225,265.907 336.5,268.5C 331.5,268.5 326.5,268.5 321.5,268.5C 321.158,267.662 320.492,267.328 319.5,267.5C 319.5,267.167 319.5,266.833 319.5,266.5C 326.175,266.666 332.842,266.5 339.5,266C 340.571,265.148 341.571,264.315 342.5,263.5C 347.811,257.37 347.811,251.37 342.5,245.5C 341.833,244.5 341.167,243.5 340.5,242.5 Z"/></g>
<g><path style="opacity:1" fill="#c7c7d0" d="M 168.5,227.5 C 168.19,230.713 168.523,233.713 169.5,236.5C 169.5,236.833 169.5,237.167 169.5,237.5C 171.817,243.611 172.15,249.944 170.5,256.5C 169.833,256.5 169.5,256.833 169.5,257.5C 168.523,260.287 168.19,263.287 168.5,266.5C 180.838,266.667 193.171,266.5 205.5,266C 206.056,265.617 206.389,265.117 206.5,264.5C 207.5,264.5 208.5,264.5 209.5,264.5C 208.942,265.79 207.942,266.623 206.5,267C 181.997,267.83 157.663,267.663 133.5,266.5C 133.335,263.15 133.502,259.817 134,256.5C 134.816,255.177 135.983,254.511 137.5,254.5C 135.657,258.187 134.99,262.187 135.5,266.5C 145.167,266.5 154.833,266.5 164.5,266.5C 164.5,261.833 164.5,257.167 164.5,252.5C 162.142,252.253 160.142,252.919 158.5,254.5C 158.5,254.167 158.5,253.833 158.5,253.5C 159.492,251.974 160.992,251.307 163,251.5C 165.343,251.682 167.176,252.682 168.5,254.5C 169.086,254.291 169.586,253.957 170,253.5C 169.361,249.823 169.527,246.157 170.5,242.5C 169.826,240.483 168.659,238.817 167,237.5C 166.833,235.833 166.667,234.167 166.5,232.5C 166.556,230.36 167.223,228.694 168.5,227.5 Z"/></g>
<g><path style="opacity:1" fill="#8b8b9e" d="M 222.5,262.5 C 224.967,262.755 226.967,263.755 228.5,265.5C 226.033,265.245 224.033,264.245 222.5,262.5 Z"/></g>
<g><path style="opacity:1" fill="#dddde3" d="M 356.5,240.5 C 357.209,239.596 358.209,239.263 359.5,239.5C 359.666,244.511 359.499,249.511 359,254.5C 356.266,258.495 355.766,262.828 357.5,267.5C 356.206,265.952 355.539,263.952 355.5,261.5C 356.74,256.741 357.74,251.908 358.5,247C 358.467,244.39 357.8,242.223 356.5,240.5 Z"/></g>
<g><path style="opacity:1" fill="#7d7d92" d="M 21.5,253.5 C 21.5,257.833 21.5,262.167 21.5,266.5C 15.1579,266.666 8.82458,266.5 2.5,266C 1.86891,264.094 1.53558,262.094 1.5,260C 1.5465,257.705 2.21317,255.871 3.5,254.5C 3.5,258.167 3.5,261.833 3.5,265.5C 9.16667,265.5 14.8333,265.5 20.5,265.5C 20.1832,261.298 20.5166,257.298 21.5,253.5 Z"/></g>
<g><path style="opacity:1" fill="#88889b" d="M 43.5,256.5 C 44.5,257.167 45.5,257.833 46.5,258.5C 46.5,261.167 46.5,263.833 46.5,266.5C 40.5,266.5 34.5,266.5 28.5,266.5C 28.2964,264.315 27.6298,262.315 26.5,260.5C 28.3386,261.508 29.6719,263.008 30.5,265C 35.4889,265.499 40.4889,265.666 45.5,265.5C 45.7896,262.215 45.123,259.215 43.5,256.5 Z"/></g>
<g><path style="opacity:1" fill="#858598" d="M 81.5,253.5 C 82.209,252.596 83.209,252.263 84.5,252.5C 84.5,257.167 84.5,261.833 84.5,266.5C 73.5,266.5 62.5,266.5 51.5,266.5C 51.19,263.287 51.5233,260.287 52.5,257.5C 52.5,260.167 52.5,262.833 52.5,265.5C 62.8333,265.5 73.1667,265.5 83.5,265.5C 84.0894,261.029 83.4228,257.029 81.5,253.5 Z"/></g>
<g><path style="opacity:1" fill="#848497" d="M 123.5,245.5 C 124.6,247.277 125.434,249.277 126,251.5C 130.029,255.544 131.529,260.544 130.5,266.5C 125.637,266.819 120.97,266.486 116.5,265.5C 120.5,265.5 124.5,265.5 128.5,265.5C 128.665,262.15 128.498,258.817 128,255.5C 124.594,253.021 123.094,249.688 123.5,245.5 Z"/></g>
<g><path style="opacity:1" fill="#838397" d="M 137.5,240.5 C 138.164,242.978 138.497,245.645 138.5,248.5C 137.826,254.17 137.16,259.837 136.5,265.5C 145.5,265.5 154.5,265.5 163.5,265.5C 163.824,261.445 163.491,257.445 162.5,253.5C 161.378,254.63 160.044,255.297 158.5,255.5C 158.5,255.167 158.5,254.833 158.5,254.5C 160.142,252.919 162.142,252.253 164.5,252.5C 164.5,257.167 164.5,261.833 164.5,266.5C 154.833,266.5 145.167,266.5 135.5,266.5C 134.99,262.187 135.657,258.187 137.5,254.5C 137.5,249.833 137.5,245.167 137.5,240.5 Z"/></g>
<g><path style="opacity:1" fill="#87879a" d="M 169.5,257.5 C 169.5,260.167 169.5,262.833 169.5,265.5C 181.883,265.794 194.217,265.46 206.5,264.5C 206.389,265.117 206.056,265.617 205.5,266C 193.171,266.5 180.838,266.667 168.5,266.5C 168.19,263.287 168.523,260.287 169.5,257.5 Z"/></g>
<g><path style="opacity:1" fill="#828296" d="M 250.5,263.5 C 250.5,263.833 250.5,264.167 250.5,264.5C 249.711,264.783 249.044,265.283 248.5,266C 241.654,266.821 234.987,266.654 228.5,265.5C 236.07,266.054 243.404,265.387 250.5,263.5 Z"/></g>
<g><path style="opacity:1" fill="#89899c" d="M 321.5,256.5 C 319.5,256.5 317.5,256.5 315.5,256.5C 315.02,259.685 315.686,262.519 317.5,265C 326.044,266.031 334.377,265.531 342.5,263.5C 341.571,264.315 340.571,265.148 339.5,266C 332.842,266.5 326.175,266.666 319.5,266.5C 317.097,266.607 315.264,265.607 314,263.5C 313.503,260.854 313.336,258.187 313.5,255.5C 316.385,255.194 319.052,255.527 321.5,256.5 Z"/></g>
<g><path style="opacity:1" fill="#838396" d="M 376.5,254.5 C 376.833,254.5 377.167,254.5 377.5,254.5C 379.343,258.187 380.01,262.187 379.5,266.5C 372.313,266.825 365.313,266.491 358.5,265.5C 365.167,265.5 371.833,265.5 378.5,265.5C 378.887,261.556 378.22,257.889 376.5,254.5 Z"/></g>
<g><path style="opacity:1" fill="#cacad2" d="M 4.5,241.5 C 4.5,245.833 4.5,250.167 4.5,254.5C 4.16667,254.5 3.83333,254.5 3.5,254.5C 2.21317,255.871 1.5465,257.705 1.5,260C 1.53558,262.094 1.86891,264.094 2.5,266C 8.82458,266.5 15.1579,266.666 21.5,266.5C 22.1661,263.311 22.8328,259.977 23.5,256.5C 24.8592,257.624 25.8592,258.958 26.5,260.5C 27.6298,262.315 28.2964,264.315 28.5,266.5C 34.5,266.5 40.5,266.5 46.5,266.5C 46.5,263.833 46.5,261.167 46.5,258.5C 48.0265,259.492 48.6932,260.992 48.5,263C 48.4411,264.436 48.1078,265.769 47.5,267C 40.8085,267.831 34.1418,267.664 27.5,266.5C 26.6667,264.833 25.8333,263.167 25,261.5C 24.654,263.218 24.154,264.885 23.5,266.5C 15.4418,267.799 7.4418,267.799 -0.5,266.5C -0.5,262.833 -0.5,259.167 -0.5,255.5C 0.833333,254.167 2.16667,252.833 3.5,251.5C 3.18723,247.958 3.52056,244.625 4.5,241.5 Z"/></g>
<g><path style="opacity:1" fill="#c7c7d0" d="M 317.5,229.5 C 316.542,230.962 315.376,232.295 314,233.5C 313.188,237.689 313.355,241.689 314.5,245.5C 315.752,247.001 316.752,248.668 317.5,250.5C 315.284,249.797 313.451,248.464 312,246.5C 311.233,259.092 304.733,266.425 292.5,268.5C 288.833,268.5 285.167,268.5 281.5,268.5C 277.187,268.125 273.187,266.625 269.5,264C 267.859,262.871 266.859,261.371 266.5,259.5C 267.167,259.5 267.833,259.5 268.5,259.5C 270.951,262.277 273.951,264.277 277.5,265.5C 283.987,266.654 290.654,266.821 297.5,266C 298.858,265.066 300.192,264.232 301.5,263.5C 304.593,260.313 306.927,256.646 308.5,252.5C 309.636,247.319 309.636,241.985 308.5,236.5C 309.315,237.429 310.148,238.429 311,239.5C 311.822,237.212 312.489,234.878 313,232.5C 314.129,230.859 315.629,229.859 317.5,229.5 Z"/></g>
<g><path style="opacity:1" fill="#848498" d="M 301.5,263.5 C 300.192,264.232 298.858,265.066 297.5,266C 290.654,266.821 283.987,266.654 277.5,265.5C 285.709,265.984 293.709,265.317 301.5,263.5 Z"/></g>
</svg>
